<?xml version="1.0" encoding="UTF-8" standalone="no"?>
<svg xmlns:dc="http://purl.org/dc/elements/1.1/" xmlns:cc="http://creativecommons.org/ns#"
  xmlns:rdf="http://www.w3.org/1999/02/22-rdf-syntax-ns#" xmlns:svg="http://www.w3.org/2000/svg"
  xmlns="http://www.w3.org/2000/svg" xmlns:sodipodi="http://sodipodi.sourceforge.net/DTD/sodipodi-0.dtd"
  xmlns:inkscape="http://www.inkscape.org/namespaces/inkscape" version="1.1" id="svg2" xml:space="preserve"
  width="5333.3335" height="5333.3335" viewBox="0 0 5333.3335 5333.3335" sodipodi:docname="2307.eps">
  <metadata id="metadata8">
    <rdf:RDF>
      <cc:Work rdf:about="">
        <dc:format>image/svg+xml</dc:format>
        <dc:type rdf:resource="http://purl.org/dc/dcmitype/StillImage" />
      </cc:Work>
    </rdf:RDF>
  </metadata>
  <defs id="defs6" />
  <sodipodi:namedview pagecolor="#ffffff" bordercolor="#666666" borderopacity="1" objecttolerance="10"
    gridtolerance="10" guidetolerance="10" inkscape:pageopacity="0" inkscape:pageshadow="2" inkscape:window-width="640"
    inkscape:window-height="480" id="namedview4" />
  <g id="g10" inkscape:groupmode="layer" inkscape:label="ink_ext_XXXXXX"
    transform="matrix(1.3333333,0,0,-1.3333333,0,5333.3333)">
    <g id="g12" transform="scale(0.1)">
      <path
        d="m 10910,19700 c 0,0 -1310.6,739.5 -1060.8,2155.7 211.3,1198.3 1266.5,1523.2 1846.4,1611.2 188.4,28.5 353.9,-126.5 337.7,-316.4 -64,-751.3 -24.7,-2529 1596.7,-3450.5 h -2720"
        style="fill:#f99b28;fill-opacity:1;fill-rule:nonzero;stroke:none" id="path18" />
      <path
        d="m 13610,19700 h -2720 c 0,0 -1310.4,739.2 -1060.8,2155.6 92.4,524.4 346.4,881.2 651.2,1124.4 -122.4,-305.2 -168.8,-667.6 -73.2,-1091.6 316.8,-1402.8 1811.2,-1578.8 1811.2,-1578.8 l 463.2,194 c 228.8,-300.8 531.2,-578 928.4,-803.6"
        style="fill:#ffff;fill-opacity:1;fill-rule:nonzero;stroke:none" id="path22" />
      <path
        d="m 8054.4,19800 h 5054 c -1271.1,1017.1 -1293.1,2616.2 -1234.5,3304.1 3.5,41.4 -11.8,81.4 -42.1,109.7 -30.3,28.4 -71.1,41.1 -112.2,34.9 -557.1,-84.5 -1520.3,-389.2 -1712.8,-1480.8 -207.5,-1176.6 747.6,-1842.6 947.6,-1967.9 m 3281,-320 H 10868 l -36.6,20.7 c -14.1,7.9 -1406.1,812.5 -1139.8,2322.7 227.3,1288.6 1338.1,1644.3 1980,1741.7 138.6,20.9 276.7,-21.9 378.9,-117.7 102.3,-95.8 154.2,-230.8 142.3,-370.5 -59.6,-698.6 -31,-2418.5 1516.3,-3297.8 l 526.3,-299.1"
        style="fill:#1e1b24;fill-opacity:1;fill-rule:nonzero;stroke:none" id="path24" />
      <path
        d="m 27138.8,24999.3 c -555.5,255.9 -1047.5,1160 -1187.8,1616 -81.3,263.5 -273.7,782.6 -421.9,1174.8 2484.5,2253.6 1316.1,8258 -464.1,7548.9 -2010.3,-800.9 -3328.6,-2784.1 -3921.2,-3859.5 -843.7,159.4 -1445.1,92.3 -1445.1,92.3 0,0 -620.4,22.5 -1466.3,-209.2 -669.5,1026.4 -2135.2,2912.2 -4204.7,3561.3 -1835.2,575.5 -2547.7,-5546.7 133.7,-7585 -117.3,-399.1 -265.3,-915.7 -325.1,-1179.2 -106.1,-465.3 -528.7,-1403.7 -1063.8,-1700.7 -315.6,-175.2 -321.1,-443.7 -92.3,-636.6 146.8,-123.6 390.8,-216.5 710.6,-232.7 25.3,-1.6 51.6,-2.1 78,-2.6 0,0 -0.4,-0.1 -1.4,-1.2 h -0.4 c -18.8,-13.3 -176.1,-122.8 -578.7,-411.1 -394.3,-282.8 -55.5,-626.3 638.3,-957.2 693.4,-330.6 1600.4,-1127 1784.7,-1242.9 107.9,-68 687.5,-498.2 1764.7,-820.6 766.5,-229.9 1785.1,-405.3 3065.1,-357.2 h 0.4 c 3078.5,115.8 4552.6,1407.4 4727.8,1537.2 175.1,129.4 1019.6,991.8 1686.6,1373.5 666.6,382.1 978.6,750.1 563.9,1002.4 -452.4,275.5 -609.9,367.5 -609.9,367.5 25.6,2.1 50.7,4.9 75.1,8 319.1,40.2 556.5,151.2 694,285.9 213.7,209.6 188,476.9 -140.2,627.9"
        style="fill:#f99b28;fill-opacity:1;fill-rule:nonzero;stroke:none" id="path142" />
      <path
        d="m 18511.8,30672.1 c -317.7,-0.1 -619.3,156.1 -798.5,427.5 -730.2,1105.6 -1917.1,2714.8 -3664.4,3262.9 -81.7,25.6 -161.4,38 -238.5,38 -841.8,0 -1393.6,-1469.7 -1395.5,-3170.3 -6.4,83.4 -11.4,166.8 -15.1,249.7 -65.6,1711.6 427.1,3270 1222.5,3462.1 54.3,13.1 109.9,19.9 166.9,19.9 22.8,0 45.8,-1.1 69,-3.3 55.3,-5.2 111.9,-16.7 169.5,-34.7 2069.5,-649.1 3535.2,-2534.9 4204.7,-3561.3 34.5,9.5 68.7,18.5 102.5,27.1 15.1,3.9 30.1,7.7 45.1,11.4 636.4,157.6 1122.1,171.3 1271.1,171.3 31.1,0 47.6,-0.6 47.6,-0.6 0,0 125.7,14 342.9,14 229,0 559.7,-15.6 951.8,-79.8 15.2,-2.5 30.6,-5.1 46,-7.7 34.4,-5.9 69.1,-12.2 104.4,-18.8 592.6,1075.4 1910.9,3058.6 3921.2,3859.5 56.2,22.3 111.7,38 166.5,47.4 41.2,7 81.8,10.4 122.2,10.4 38.5,0 76.7,-3.2 114.5,-9.3 809.4,-132.7 1418.7,-1656.9 1479.2,-3373.7 2.2,-78.6 3.4,-157.6 3.3,-237 -126.9,1659.2 -762.3,3058.6 -1575.9,3058.6 -94.1,0 -190.5,-18.7 -288.8,-57.8 -1696.9,-676 -2757.8,-2363.9 -3403.8,-3520.8 -170.6,-305.5 -492,-493.1 -836.8,-493.1 -32.3,0 -64.7,1.6 -97.3,5 -384,39.4 -709.3,46 -883.7,46 -87.5,0 -137,-1.7 -137,-1.7 0,0 -455.7,-18.2 -1040.4,-125 -58.5,-10.7 -117.1,-15.9 -175.2,-15.9"
        style="fill:#fbc37e;fill-opacity:1;fill-rule:nonzero;stroke:none" id="path156" />
      <path
        d="m 26555.9,22707.6 c -667,-381.7 -1511.5,-1244.1 -1686.6,-1373.5 -175.2,-129.8 -1649.3,-1421.4 -4727.8,-1537.2 h -0.4 c -1280,-48.1 -2298.6,127.3 -3065.1,357.2 -1077.2,322.4 -1656.7,752.6 -1764.7,820.6 -184.3,115.9 -1091.3,912.3 -1784.7,1242.9 -693.8,330.9 -1032.6,674.4 -638.3,957.2 402.6,288.3 559.9,397.8 578.7,411.1 h 0.4 c 1,1.1 1.4,1.2 1.4,1.2 -26.4,0.5 -52.7,1 -78,2.6 100.2,37.9 211.7,74.4 335.1,108.3 434.3,119.9 933.7,-66.3 1503.9,-252.5 741.8,-242.3 1603.5,-484.5 2597.6,-52.6 1349.6,586.2 658.1,3777.4 989.1,4626.7 3.4,8.7 6.8,17 10.2,25.7 352.9,878.3 1584,924.6 2001.9,75.2 4.4,-8.3 8.4,-16.3 12.5,-24.7 393.8,-822.1 -56.1,-4056.2 1333.4,-4539.5 1010.2,-351.2 1842.5,-57.7 2557.6,235.7 566.8,232.6 1060,465.2 1509.8,376.7 126,-24.5 239.9,-52.9 343.1,-83.2 -24.4,-3.1 -49.5,-5.9 -75,-8 0,0 157.4,-92 609.8,-367.5 414.7,-252.3 102.7,-620.3 -563.9,-1002.4"
        style="fill:#ffffff;fill-opacity:1;fill-rule:nonzero;stroke:none" id="path162" />
      <path
        d="m 18232.4,31186.5 c -77.4,0 -148.3,51.3 -169.7,129.5 -25.7,93.8 29.4,190.7 123.2,216.4 804.8,220.6 1407.9,217.7 1505.8,215.7 96.1,9.3 682.4,56.3 1484.7,-96 95.5,-18.1 158.3,-110.2 140.2,-205.8 -18.2,-95.5 -110.4,-158.3 -205.8,-140.1 -804.5,152.6 -1387.3,91.2 -1393,90.6 -8.5,-1 -17.2,-1.3 -25.9,-1 -5.9,0.1 -606.7,18 -1412.9,-203 -15.5,-4.3 -31.2,-6.3 -46.6,-6.3"
        style="fill:#1e1b24;fill-opacity:1;fill-rule:nonzero;stroke:none" id="path164" />
      <path
        d="m 18150.4,19844.2 c -257.2,13.4 -514.3,47.9 -766.9,102.2 -251.7,56.9 -501.4,125.7 -744.5,212.6 -487.3,172.5 -954.1,392.4 -1400.5,660.4 -25,14.9 -65.7,42.5 -89.5,60.4 -27.4,20.1 -54,39.9 -79.3,59.5 l -151.7,117.2 -299.5,231 c -200.1,151.7 -402.2,299 -608.7,435.9 -103.1,68.6 -207.8,133.1 -313.1,194.7 -53.1,28.5 -105.7,60.3 -159.2,86.2 l -79.9,40.1 -87.5,42.5 c -118.1,58.3 -235.2,121.3 -350.3,194.5 -114.7,74.5 -229,155.5 -334.6,274.1 -51.8,60 -103.9,132.6 -134.8,232.3 -15.7,49.1 -22.2,107.5 -17.3,164.8 4.6,57.7 22.5,114.2 47.3,160.6 49.6,95.9 117.2,155 180.7,204.7 17.7,13.8 28.6,21.2 42,30.9 l 38.6,27.7 77.4,55.5 310.3,221.1 38.8,27.6 4.8,3.4 2.5,1.7 -8.7,-6.4 c -14.2,-11.8 -27.3,-26.9 -37.1,-43.9 -19.8,-34.7 -24.4,-72.6 -18.7,-105.2 5.8,-32.9 21.6,-65.1 52.4,-92.2 15.2,-13.5 34.4,-24.2 54,-30.9 10.2,-3.3 19.8,-5.5 29.1,-6.9 3.6,-0.5 12,-1.1 11.7,-1 l -3.3,0.2 -52.4,4.4 c -69.9,6.1 -139.9,16 -209.9,30.9 -139.8,29.3 -280.3,75.8 -414.1,155.1 -66.6,40.2 -131.6,88.9 -190.4,151.7 -58.2,63.1 -110.6,142.7 -139.3,239.7 -28.1,96.7 -25.4,212.2 13,306.8 36.9,95.7 97.5,170.8 161.1,227.5 l 48.8,40 50,35 50.7,30.5 c 9.9,5.8 12.9,8.1 19,11.9 l 16.2,10.5 c 21.4,14.8 44.1,25.6 65,43 l 63.3,50.2 c 165.8,145.8 309.2,339.2 430.7,545.6 123.7,205.6 227.6,427.7 310.5,653.3 l 29.7,84.7 26.1,84.7 c 8.4,28.1 14.8,55.8 22.5,83.7 l 23.2,94 c 31.8,126.2 66,249 100.6,372.1 69.1,245.6 144,488.5 218.1,731.6 27.4,90.1 122.7,140.9 212.8,113.4 88.9,-27.1 139.4,-120.5 114.4,-209.5 -68.5,-243.4 -134.6,-487.5 -200.3,-730.5 -32.3,-121.4 -64.5,-243.3 -92.9,-363.3 l -21.1,-90.8 c -8.4,-33.4 -16.1,-67.6 -25.4,-100.3 l -28.6,-97.4 -31.7,-95.2 c -88.6,-251.3 -197.3,-491.9 -331.4,-722.8 -134.5,-230 -294.1,-451.5 -508.8,-642 l -85.5,-68 c -28.1,-22.8 -62.2,-41.5 -93.2,-62.1 l -45.2,-28.4 -30.8,-18.5 -27.8,-19.5 -24.7,-20.3 c -30.9,-27.4 -49.6,-55.6 -58.3,-78.4 -9.4,-23.2 -8.5,-41.3 -2.7,-66.2 7.7,-24.6 24.5,-55 52.3,-84.8 27.9,-29.8 64.8,-58.4 106.7,-83.5 84.5,-50.2 187.6,-86.2 295.5,-108.2 54,-11.5 109.8,-19.3 166.1,-24.1 l 42.2,-3.4 2.7,-0.2 17.6,-1.9 c 13.3,-1.7 26.8,-4.8 40.6,-9.6 27.2,-8.9 53.2,-24 74.6,-42.5 42.9,-37.4 66.2,-84.5 74.8,-132.9 8.6,-48.2 1.4,-102.6 -26.5,-151.1 -13.6,-23.9 -31.9,-45.2 -52.3,-61.8 l -13.3,-10.2 -2.4,-1.8 -4.9,-3.4 -38.6,-27.5 -309.4,-219.8 -151.1,-107.2 c -36.2,-26.9 -64.6,-56.4 -72.4,-74.3 -5.4,-9.3 -6.6,-14.7 -6.9,-20.2 -0.2,-5.6 -1.4,-11.7 2.5,-23 6.1,-21.8 25.9,-57.4 56.9,-92.7 62.2,-71.9 154.4,-142.7 251.8,-206 98.3,-63.6 204.2,-121.9 313,-176.6 l 83.2,-41.2 89.6,-45.9 c 60.1,-30.4 115.7,-64.9 173.8,-97.3 112.5,-67.9 222.7,-138.1 329.5,-211.4 214.2,-146.3 419.6,-300.8 621.4,-458.2 l 299.3,-237.6 147.4,-117.4 c 24.6,-19.6 48.6,-37.9 72.1,-55.6 26.7,-20.2 38.4,-28.4 67.1,-47.2 206.6,-133.2 425.4,-254.3 645.6,-369.5 220.3,-116.1 446.6,-220.3 675.1,-319.6 229.2,-97.5 462.9,-183.5 700.1,-260 237.4,-76.9 479.7,-134.4 725.2,-185.8 l 2.1,-0.5 c 35.1,-7.3 57.7,-41.8 50.3,-76.9 -6.7,-31.8 -35.5,-53.3 -67,-51.6"
        style="fill:#1e1b24;fill-opacity:1;fill-rule:nonzero;stroke:none" id="path166" />
      <path
        d="m 25688.9,27849.5 c 87.8,-226.6 175.8,-453.1 259.7,-682.1 42,-114.6 83.5,-229.3 123.5,-346.1 l 58.1,-174.7 c 16.8,-52 37.8,-104.7 58.8,-157.4 88.8,-210.7 199.6,-417.5 326.2,-610.3 125.8,-193.3 268.7,-374.6 430,-522 19.5,-19.6 41.3,-34.4 61.7,-52 20.7,-16.8 41.1,-34.7 63,-48 l 64.1,-43.5 65.6,-34.9 16.2,-8.9 24.6,-12.2 c 16.8,-8.7 33.5,-16.1 50.2,-26.5 33.4,-18.9 66.5,-41 98.8,-66.1 64.1,-50.6 126.2,-118 168,-205.9 43.2,-86.9 55.7,-194.7 38.6,-289.6 -17,-95.6 -59.7,-176.3 -108.7,-242.7 -100.2,-132.7 -226.1,-214.8 -352.5,-278.3 -127.5,-61.3 -259.2,-101.5 -391,-127.1 -33,-7.2 -66.1,-11.5 -99.2,-17 l -6.2,-1 -3.1,-0.4 c -0.7,-0.1 -4.1,-0.7 2.7,0.3 17.1,2.7 35.7,9.1 52.7,19 34.7,20.1 57.9,51.7 68.4,81.8 10.6,30.4 12.3,62.1 2.3,96 -9.3,33.4 -35.9,67.8 -64.1,85.1 l 149.9,-90.4 311.6,-189.6 38.9,-23.8 19.5,-11.9 24.3,-15.9 c 32.2,-20.7 64.8,-45.9 96.4,-75.2 62.1,-56.9 126.9,-145.1 146.7,-254.9 21.6,-109.8 -7.3,-214.3 -44.1,-289.9 -37.8,-77.5 -84.3,-138.2 -132,-192.1 -96.3,-106.5 -199.9,-188.1 -304.8,-264 -105.2,-74.8 -212.5,-142 -321.3,-204.7 l -40.4,-23.4 -36.7,-22 -73.5,-44.1 c -48.5,-31.5 -97,-63 -145.1,-95.9 -384.4,-268.2 -743.9,-587.7 -1100.6,-912.4 l -134.9,-122.7 c -46.2,-41.5 -90.4,-81.8 -143.7,-125.9 -13.9,-10.9 -30.1,-24.2 -42.1,-33 l -36.9,-26.9 -76.9,-54.4 c -51.5,-35.6 -103.5,-70.1 -155.7,-104.1 -208.7,-135.4 -425.4,-255.3 -645.7,-366.6 -442.3,-219.4 -903.6,-397.2 -1377.8,-523.3 -47.4,-12.7 -96,15.5 -108.6,63 -11.5,43 10.7,87 50.3,104.2 l 1.3,0.6 c 220.8,96.1 441,190.8 656.3,295.2 215.1,104.6 427.5,213.6 634.5,331.3 207.8,116 409.5,242 605.5,373.5 48.7,33.3 96.9,67 144.3,101.4 l 70.2,52.4 36.1,27.4 29,23.6 c 39.8,33.4 85,75 128.6,115 l 133,123.1 c 357.1,330.5 720.6,661.1 1129.3,952.1 51.6,36 104.4,71 157.2,105.9 l 82,50.2 41,25.1 38.1,22.5 c 100.8,59.2 198.5,121.9 290.2,188.4 90.8,66.5 177.2,138 242.8,212.4 32.4,36.7 58.5,74.5 73.5,106.4 15.2,32.6 16.3,52.7 13.4,62.4 -2,10.2 -9.7,27.6 -36.4,51.8 -13.1,11.6 -28.3,24 -47.3,35.7 l -13.8,8.9 -19.4,11.6 -38.8,23.3 -310.8,186.6 -161.2,97.8 c -40.9,25.4 -77.2,72.6 -90.9,120.6 -14.4,48.3 -12.4,96 3.5,140.5 15.6,44.3 48.7,88.6 96.5,116.2 23.6,13.8 49.5,22.6 74,26.7 l 15.8,2.5 c 26.7,4.6 53.7,7.8 80,13.7 106.1,20.2 207.9,52.1 299,95.8 89.7,43.9 170,102 216,164.3 22.7,30.7 36.8,60.8 40.7,84.9 3.2,24.3 2.5,42.8 -8.6,64.9 -10.3,21.8 -30.5,47.5 -61.3,71.8 -15.7,12 -32.9,23.8 -52.3,34.8 -8.9,5.9 -20.1,10.5 -30.1,15.8 l -39.8,20.8 -94.8,50.9 -86.4,58.3 c -29.7,18.9 -55.2,40.8 -81.5,62.2 -25.6,21.7 -53.7,42 -77.1,65.2 -196,180.8 -355.5,383.6 -491.4,598 -136.9,214.1 -253.7,437.5 -350.6,674.6 -23.3,60.2 -46.4,120.4 -66.3,184 l -54.7,170.9 c -37.3,113 -77,226.7 -117.1,340.2 -80.6,227 -162.1,454.7 -245.4,681.7 -32.5,88.4 12.8,186.5 101.1,219 87.4,32.1 184.3,-12.1 217.9,-98.5"
        style="fill:#1e1b24;fill-opacity:1;fill-rule:nonzero;stroke:none" id="path168" />
      <path
        d="m 25741.4,31055.2 c -249,-1186.7 -962.7,-1846.5 -962.7,-1846.5 l -64.6,-21.6 c -140.8,258.8 -424.8,530.1 -752,783.1 -259.9,200.1 -547.3,388.5 -810.8,548.8 -538.5,327.6 -682,1043.3 -319.2,1558.6 363.4,515.3 783.3,951.1 1180.3,1302.7 301.3,266.5 589.7,484.7 829.3,652 329.5,229.7 786.4,52.8 877.3,-338.4 141.3,-607 252.8,-1541.5 22.4,-2638.7"
        style="fill:#ff6c6c;fill-opacity:1;fill-rule:nonzero;stroke:none" id="path170" />
      <path
        d="m 23962.1,29970.2 v 0 c -259.9,200.1 -547.3,388.5 -810.8,548.8 -337.1,205.1 -519.4,562.2 -519.6,927.1 -0.2,218 64.7,438.8 200.4,631.5 363.4,515.3 783.3,951.1 1180.3,1302.7 42.6,-58.7 74.8,-127.4 92.6,-204.4 140.8,-606.3 252.3,-1540.9 21.9,-2638.1 -42.9,-205.2 -100.1,-394.4 -164.8,-567.6"
        style="fill:#bb5456;fill-opacity:1;fill-rule:nonzero;stroke:none" id="path172" />
      <path
        d="m 24634.5,29144.1 c -71.7,113.3 -165.1,216.1 -263.7,313.5 -100.1,96.4 -205.6,188.9 -317.1,275.4 -112.1,85.7 -225.7,170.3 -343.3,250.1 -117.9,79.3 -237.6,156.5 -358.5,232.2 -60.9,37.3 -121.5,74.8 -183.2,110.9 l -92.4,54.1 -46.5,26.7 c -15.6,9.1 -30,16.9 -49.2,29.4 -145.9,89.5 -271.6,215.4 -358.4,364.4 -85.3,149.4 -138.6,318.8 -143.5,491.9 -4.5,172.4 30.7,347.5 108.2,502 l 30.7,57 15.5,27.9 15,23.5 60.3,93.7 121.2,187 131,180 65.6,90 69.9,86.6 140.3,172.6 148.8,165.1 c 48.8,55.6 100.4,108.7 152.6,161.2 52.5,52.2 102.3,106.8 156.9,156.9 214.1,204 441.8,392.9 680.7,565.4 240.1,171.5 487.7,329.4 758.2,454.2 25.1,11.5 54.8,0.6 66.4,-24.5 10.2,-22.3 2.8,-48.1 -16.5,-61.8 l -2.2,-1.6 c -232,-165 -455.9,-347.5 -668.6,-537.7 -107.6,-94 -210.1,-193.7 -312.5,-292.7 l -151.2,-150.9 -146,-155.7 c -192.3,-209.4 -377,-425.3 -545,-653.4 l -64.2,-84.5 -60.9,-87 -121.9,-173.7 -114.4,-178.5 -57.2,-89.2 -14.4,-22.3 -10.5,-19.7 -21,-38.7 c -104.2,-210.3 -95.2,-470 19.7,-675.8 57.2,-102.9 141.4,-189 240.3,-254 10.6,-8.1 27.7,-18.4 43.1,-28.1 l 46.7,-29.3 93,-59.3 c 62,-39.5 123.2,-80.5 184.5,-121.3 244.3,-164.7 480.5,-343.4 702.3,-542.6 110.1,-100.4 216.8,-206.1 314.4,-321.7 97.9,-115 188.1,-239.8 255.7,-381.4 21.6,-45 2.5,-99.1 -42.6,-120.6 -41.8,-20 -91.3,-5 -115.5,33.3 l -0.6,1"
        style="fill:#1e1b24;fill-opacity:1;fill-rule:nonzero;stroke:none" id="path174" />
      <path
        d="m 13675,30601.4 c 337.4,-1164.6 1098.6,-1769 1098.6,-1769 l 66.1,-16.6 c 120.9,268.6 383.8,560.4 691.1,837.4 244.1,219 516.5,428.4 767.2,608.1 512.4,367.1 601.8,1091.5 201.2,1578.1 -401,486.5 -852.5,889.6 -1274.7,1210.4 -320.5,243.1 -624.5,439 -876,587.8 -345.8,204.4 -788.1,-6.4 -849.4,-403.2 -95.3,-615.9 -136.3,-1556.1 175.9,-2633"
        style="fill:#ff6c6c;fill-opacity:1;fill-rule:nonzero;stroke:none" id="path176" />
      <path
        d="m 15530.8,29653.2 c -77.6,167.8 -148.8,352.1 -207,553.5 -312.1,1076.9 -271.2,2017.1 -176.3,2632.4 11.9,78 38.9,149 77,210.7 422.2,-320.8 873.7,-723.9 1274.7,-1210.4 168.6,-204.8 250.4,-451.7 250.4,-696.4 0,-336.7 -154.9,-669.1 -451.6,-881.7 -250.7,-179.7 -523.1,-389.1 -767.2,-608.1 v 0"
        style="fill:#bb5456;fill-opacity:1;fill-rule:nonzero;stroke:none" id="path178" />
      <path
        d="m 14757.5,28853 c 56.8,146.2 137.4,277.4 226.4,399.5 88.6,122.6 187.1,236 289.4,344.4 206.1,215.3 428.3,411.3 659.5,593.8 58.1,45.3 116,90.8 174.9,134.8 l 88.3,66.2 44.4,32.7 c 14.6,10.8 30.8,22.3 40.8,31.2 93.7,72.3 171.3,164.5 220.5,271.4 99.1,213.8 88.7,473.4 -31.1,675.3 l -23.8,37 -12,18.9 -16,21.2 -63.8,84.6 -127.5,169.5 -134.5,164 -67.3,82.1 -70.3,79.5 c -184.7,214.8 -385.2,416.2 -592.6,610.6 l -157.2,144.3 -162.2,139.1 c -109.5,91.1 -219.2,182.8 -333.6,268.4 -226.4,173.7 -463.4,338.9 -707.1,486 l -2.4,1.5 c -23.6,14.2 -31.2,45 -16.9,68.6 12.6,21 38.2,29.3 60.3,21.1 279.1,-104.1 537.8,-242.9 790.1,-395.9 251.2,-154.1 492.5,-325.4 721.3,-512.8 58.2,-45.7 112,-96.5 168.2,-144.6 56,-48.4 111.4,-97.5 164.3,-149.3 l 160.8,-153.5 152.9,-161.5 76.2,-81.1 72.1,-84.8 144.2,-169.7 134.9,-177.4 67.1,-88.9 16.8,-22.2 17.5,-26.7 34.9,-54.5 c 88.9,-148.3 137.2,-320.2 145.6,-492.5 8.1,-172.9 -32.3,-345.9 -106.2,-501.3 -75.3,-155.1 -191.1,-290.1 -329.9,-390.2 -18.2,-14 -32,-22.9 -46.9,-33.1 l -44.3,-30.1 -88.1,-60.9 c -58.8,-40.6 -116.5,-82.6 -174.4,-124.3 -114.9,-84.6 -228.4,-170.5 -340,-258.5 -111.3,-88.4 -218.2,-181.3 -323.6,-275.2 -104.7,-94.6 -202.9,-194.8 -295.5,-298.5 -91,-104.5 -176.4,-213.9 -239.4,-332.4 l -0.6,-1 c -23.4,-44.2 -78.2,-60.9 -122.3,-37.4 -41,21.7 -58.3,70.5 -41.9,112.6"
        style="fill:#1e1b24;fill-opacity:1;fill-rule:nonzero;stroke:none" id="path180" />
      <path
        d="m 20924.8,22769.3 c -8.3,-314.2 -61.6,-604.3 -148.4,-846.3 -149.2,-417.3 -397.7,-691.7 -688.7,-702.6 -291,-11 -559.9,244.4 -739.5,650.4 -104.7,234.2 -179.2,519 -211.1,831.3 l 1787.7,67.2"
        style="fill:#ed2e7a;fill-opacity:1;fill-rule:nonzero;stroke:none" id="path186" />
      <path
        d="m 19988.7,21857.2 -111.2,990 c -9.3,82.1 49.8,156.2 131.9,165.4 82.2,9.3 156.2,-49.8 165.5,-132 0.8,-7.2 1,-15.1 0.8,-22.1 l -36.6,-995.6 c -1.5,-41.7 -36.5,-74.2 -78.2,-72.7 -37.8,1.4 -68.1,30.5 -72.2,67"
        style="fill:#1e1b24;fill-opacity:1;fill-rule:nonzero;stroke:none" id="path190" />
      <path
        d="m 20063.9,21070.8 c -566.3,0 -1045.2,615.2 -1074.4,1389.3 -3,82.3 61.2,151.6 143.6,154.7 82,3.7 151.6,-61.1 154.7,-143.5 23.4,-623 380.7,-1118.2 794.4,-1101.7 190.7,7.2 369.6,124.7 503.4,330.8 144.5,222.4 217.7,516.3 205.9,827.5 -3.1,82.3 61.2,151.6 143.5,154.7 82.1,3.4 151.7,-61.2 154.8,-143.5 14,-372.1 -76.2,-727.7 -253.9,-1001.3 -188.3,-289.8 -452,-455.5 -742.5,-466.4 -9.9,-0.4 -19.7,-0.6 -29.5,-0.6"
        style="fill:#1e1b24;fill-opacity:1;fill-rule:nonzero;stroke:none" id="path192" />
      <path
        d="m 19072.3,21970.6 c -415,104.2 -706.1,583.2 -764.3,1004.4 l 149.5,6.3 c 45.6,-212.4 143.1,-378.7 284.7,-484.4 73.3,-54.7 158,-92.9 251.8,-114.1 11.1,-144.7 38.1,-283.2 78.3,-412.2 m 1973.1,75.2 c 30.2,133.9 45.8,274.9 45.8,419 87.2,28.3 164.9,71.6 231.1,129.1 136.1,118.5 221.4,296.4 249.2,517.9 l 149.1,6.2 c -26.4,-426 -249.6,-934.1 -675.2,-1072.2"
        style="fill:#bbbabd;fill-opacity:1;fill-rule:nonzero;stroke:none" id="path194" />
      <path
        d="m 19387.8,21965.2 c -46.7,123 -79.1,259.7 -93.2,404.9 13.1,1.5 26.4,3.3 39.7,5.3 284.4,43.5 454.1,182.5 555.2,330 l 3.9,0.1 47.3,-420.6 c -91.9,-114.8 -262.7,-264.4 -552.9,-319.7 m 1340.9,48.5 c -289,26 -470.9,156.2 -574.3,264.3 l 15.7,428.3 c 112.4,-135.7 290.4,-256.5 570.9,-278 17.3,-1.3 34.4,-2.2 51.3,-2.8 -3.2,-144.3 -24.9,-283.4 -63.6,-411.8"
        style="fill:#ae2860;fill-opacity:1;fill-rule:nonzero;stroke:none" id="path196" />
      <path
        d="m 19177.7,22407.2 c -158.8,0 -298.3,42.3 -409.2,125 -151.2,112.8 -249,301 -283,544.1 l 115.5,4.4 c 127.2,-179.2 321.1,-272.6 559.1,-272.6 49.7,0 101.4,4.1 154.7,12.3 267.9,40.8 430.8,169.6 530.1,307.1 l 223.4,8.4 107.3,4 c 109.4,-129.6 281.5,-245.8 551.2,-266.4 28.3,-2.2 56.1,-3.3 83.3,-3.3 272,0 484.8,109.6 609.5,316.5 l 115.2,4.3 c -15.6,-245.1 -99.1,-440 -241.4,-563.9 -119.5,-104 -280.6,-158 -469,-158 -26.1,0 -52.8,1 -80,3.1 -512.7,39.3 -663.7,428.7 -704.9,594.3 -2.5,10.1 -11.7,16.6 -22.2,16.7 l -10.6,-0.4 c -10.4,-0.5 -19.1,-8.1 -20.8,-18.3 -28.6,-168.3 -150,-567.9 -658.3,-645.6 -51.6,-7.8 -101.6,-11.7 -149.9,-11.7"
        style="fill:#bbbabd;fill-opacity:1;fill-rule:nonzero;stroke:none" id="path210" />
      <path
        d="m 19177.1,22235.9 c -195.6,0 -369.9,53.8 -511,159.1 -189.2,141.2 -310.4,369.4 -350.6,660.1 -11.2,81.6 45.8,157 127.4,168.2 82.1,11.3 157,-45.8 168.3,-127.4 28.9,-209.7 109.6,-369.4 233.4,-461.7 116.7,-87.1 277,-118 463.8,-89.5 411,62.8 522.3,366 552.1,541.1 11.8,69.5 70.8,121.3 141.2,124.1 l 10.6,0.4 c 71,2.4 133.6,-44.5 150.7,-113.2 42.8,-172.3 176.5,-466.3 591.1,-498.1 188.4,-14.6 346,28.5 455.8,124.1 116.4,101.4 185,266.7 198.1,478 5.1,82.3 76.5,144.4 158.2,139.7 82.2,-5.1 144.7,-75.9 139.6,-158.2 -18.2,-292.9 -121.9,-529.6 -300,-684.6 -171.5,-149.2 -404.7,-217.1 -674.5,-196.5 -365.1,28 -579.9,207.6 -704.4,386.2 -110.7,-187.4 -311.4,-382.7 -673.4,-438 -60.4,-9.2 -119.3,-13.8 -176.4,-13.8"
        style="fill:#1e1b24;fill-opacity:1;fill-rule:nonzero;stroke:none" id="path214" />
      <path
        d="m 25529.4,27613.2 c -47.9,0 -95.7,19.5 -130.4,57.8 -65.4,72 -59.9,183.4 12.1,248.7 1726.6,1565.7 1657.1,5193.3 697.4,6731.4 -208.4,333.9 -547.3,695.9 -978.2,524.2 -1949.6,-776.6 -3238,-2702.4 -3832.5,-3781.2 -47,-85.1 -154.1,-116.1 -239.2,-69.2 -85.2,47 -116.1,154 -69.2,239.2 617.2,1120.1 1959,3121.1 4010.6,3938.3 512.5,204.3 1012.2,-31.9 1407.2,-664.8 500.8,-802.6 780,-2183.9 711.2,-3519 -81.1,-1573.6 -603.4,-2873.3 -1470.7,-3659.7 -33.7,-30.6 -76.1,-45.7 -118.3,-45.7"
        style="fill:#1e1b24;fill-opacity:1;fill-rule:nonzero;stroke:none" id="path216" />
      <path
        d="m 14160.8,27162.3 c -37.2,0 -74.6,11.7 -106.5,35.9 -934.2,710.1 -1562.1,1964.1 -1767.9,3531 -174.5,1327.5 -4.3,2732.5 433.4,3579.6 346.9,671.3 830.1,949.4 1360.7,783 2110.7,-662.2 3599.7,-2560.4 4299.4,-3633 53.2,-81.4 30.2,-190.5 -51.2,-243.7 -81.5,-53.1 -190.5,-30.1 -243.7,51.3 -673.9,1033.1 -2104.1,2860.1 -4109.9,3489.4 -446.6,140.1 -759,-253.7 -942.5,-608.7 -746.7,-1445 -740,-5167.5 1234.8,-6668.6 77.5,-58.8 92.5,-169.3 33.7,-246.7 -34.7,-45.5 -87.2,-69.5 -140.3,-69.5"
        style="fill:#1e1b24;fill-opacity:1;fill-rule:nonzero;stroke:none" id="path218" />
      <path
        d="m 19719.3,19788.9 c -553.7,0 -1053.8,42.1 -1501.3,110.4 5.2,33.9 -16.9,66.3 -50.9,73.4 l -2.1,0.5 c -245.5,51.4 -487.8,108.9 -725.2,185.8 -237.2,76.5 -470.9,162.5 -700.1,260 -228.5,99.3 -454.8,203.5 -675.1,319.6 -220.2,115.2 -439,236.3 -645.6,369.5 -28.7,18.8 -40.4,27 -67.1,47.2 -23.5,17.7 -47.5,36 -72.1,55.6 l -147.4,117.4 -299.3,237.6 c -201.8,157.4 -407.2,311.9 -621.4,458.2 -106.8,73.3 -217,143.5 -329.5,211.4 -58.1,32.4 -113.7,66.9 -173.8,97.3 l -89.6,45.9 -83.2,41.2 c -108.8,54.7 -214.7,113 -313,176.6 -97.4,63.3 -189.6,134.1 -251.8,206 -31,35.3 -50.8,70.9 -56.9,92.7 -3.9,11.3 -2.7,17.4 -2.5,23 0.3,5.5 1.5,10.9 6.9,20.2 7.8,17.9 36.2,47.4 72.4,74.3 l 151.1,107.2 81.5,57.9 c 1478.6,-1039.6 3891.6,-2388.9 6581.4,-2388.9 99.4,0 198.9,1.8 299,5.6 2811.2,105.7 5237.8,1705.4 6685.4,2896.2 l 175.6,-105.4 38.8,-23.3 19.4,-11.6 13.8,-8.9 c 19,-11.7 34.2,-24.1 47.3,-35.7 26.7,-24.2 34.4,-41.6 36.4,-51.8 2.9,-9.7 1.8,-29.8 -13.4,-62.4 -15,-31.9 -41.1,-69.7 -73.5,-106.4 -65.6,-74.4 -152,-145.9 -242.8,-212.4 -91.7,-66.5 -189.4,-129.2 -290.2,-188.4 l -38.1,-22.5 -41,-25.1 -82,-50.2 c -52.8,-34.9 -105.6,-69.9 -157.2,-105.9 -408.7,-291 -772.2,-621.6 -1129.3,-952.1 l -133,-123.1 c -43.6,-40 -88.8,-81.6 -128.6,-115 l -29,-23.6 -36.1,-27.4 -70.2,-52.4 c -47.4,-34.4 -95.6,-68.1 -144.3,-101.4 -196,-131.5 -397.7,-257.5 -605.5,-373.5 -207,-117.7 -419.4,-226.7 -634.5,-331.3 -215.3,-104.4 -435.5,-199.1 -656.3,-295.2 l -1.3,-0.6 c -39.6,-17.2 -61.8,-61.2 -50.3,-104.2 0.2,-1 0.5,-2 0.8,-3 -301.7,-89 -634.1,-168.9 -998.5,-232.9 -430,-75.4 -904.3,-128.5 -1424.4,-148 l -0.4,-0.1 c -144,-5.4 -284.7,-8 -422,-8"
        style="fill:#bbbabd;fill-opacity:1;fill-rule:nonzero;stroke:none" id="path222" />
      <path
        d="m 20003.3,23164.3 c -79.9,0 -146,63.2 -149.1,143.6 l -19.6,523.2 c -3.1,82.3 61.1,151.6 143.5,154.7 82.3,2.8 151.6,-61.1 154.7,-143.5 l 19.7,-523.1 c 3.1,-82.4 -61.2,-151.7 -143.5,-154.8 -1.9,0 -3.8,-0.1 -5.7,-0.1"
        style="fill:#1e1b24;fill-opacity:1;fill-rule:nonzero;stroke:none" id="path228" />
      <path
        d="m 20927.1,24012.9 c 11.6,-308.9 -414.1,-739.7 -958.5,-760.2 -544.4,-20.5 -1001.3,377.2 -1012.9,686 -11.7,308.8 428.7,351.4 973.1,371.9 544.4,20.5 986.7,11.1 998.3,-297.7"
        style="fill:#1e1b24;fill-opacity:1;fill-rule:nonzero;stroke:none" id="path230" />
      <path
        d="m 20364.3,24080.3 c 2.5,-67.8 -185.6,-165.8 -421.9,-174.7 -236.3,-8.9 -431.3,74.8 -433.9,142.5 -2.5,67.7 188.8,80.6 425.1,89.5 236.3,8.9 428.1,10.4 430.7,-57.3"
        style="fill:#ffffff;fill-opacity:1;fill-rule:nonzero;stroke:none" id="path232" />
      <path
        d="m 20117.9,24122 c -53.1,0 -114.2,-1.7 -183.5,-4.3 -127.7,-4.8 -227.5,-10.5 -299.6,-22.5 -96.9,-16.1 -106.6,-37.8 -106.3,-46.3 0.7,-19.7 37.4,-53.7 116.1,-82 85.2,-30.7 190.7,-45.1 297,-41.4 235.6,8.9 404.5,106.6 402.7,154 -0.3,8.6 -11.6,29.5 -109.5,38.3 -33.3,3 -72.3,4.2 -116.9,4.2 z m -210.5,-237 c -99.1,0 -196,15.4 -276.4,44.3 -88.9,32 -140.8,75 -142.4,118 -2.2,57.1 78.7,77.2 139.7,87.3 74.2,12.3 175.4,18.1 304.6,23 129.1,4.9 230.6,6.7 305.5,0 61.6,-5.5 143.7,-19.5 145.8,-76.6 3.4,-91.8 -210.9,-186.7 -441.1,-195.4 -11.9,-0.4 -23.8,-0.6 -35.7,-0.6"
        style="fill:#1e1b24;fill-opacity:1;fill-rule:nonzero;stroke:none" id="path234" />
      <path
        d="m 18047,25285.8 c -61.9,-630.8 -472.5,-1106.8 -917.2,-1063.1 -444.6,43.6 -754.8,590.4 -692.9,1221.2 61.9,630.8 472.6,1106.8 917.2,1063.2 444.6,-43.7 754.9,-590.5 692.9,-1221.3"
        style="fill:#1e1b24;fill-opacity:1;fill-rule:nonzero;stroke:none" id="path236" />
      <path
        d="m 17708.5,25500.7 c -20.8,-211.8 -146.6,-372.8 -280.9,-359.7 -134.3,13.2 -226.4,195.6 -205.6,407.5 20.8,211.8 146.6,372.8 280.9,359.6 134.4,-13.2 226.4,-195.6 205.6,-407.4"
        style="fill:#ffffff;fill-opacity:1;fill-rule:nonzero;stroke:none" id="path238" />
      <path
        d="m 17487.5,25883.9 c -51.9,0 -104,-30.4 -147.9,-86.6 -50.2,-64.2 -83.1,-153.5 -92.7,-251.3 -9.6,-97.8 5.3,-191.7 42.1,-264.5 34.8,-69 84.9,-110.1 141.1,-115.6 56.3,-5.5 113.3,25 160.8,86 50.2,64.2 83.1,153.4 92.7,251.2 9.6,97.8 -5.3,191.8 -42,264.6 -34.9,69 -85,110 -141.1,115.6 -4.4,0.4 -8.7,0.6 -13,0.6 z m -44.2,-768.6 c -6,0 -12.1,0.3 -18.1,0.9 -73.8,7.2 -138.1,57.9 -180.9,142.8 -40.9,81.1 -57.7,184.8 -47.2,291.9 10.5,107.1 47.1,205.5 103.1,277.2 58.5,74.9 131,112.2 205.2,104.9 73.8,-7.2 138,-58 180.8,-142.8 40.9,-81.2 57.7,-184.8 47.2,-291.9 -10.5,-107.1 -47.1,-205.6 -103,-277.2 -53.8,-68.8 -119.6,-105.8 -187.1,-105.8"
        style="fill:#1e1b24;fill-opacity:1;fill-rule:nonzero;stroke:none" id="path240" />
      <path
        d="m 21806.8,25461.9 c 62,-630.8 472.6,-1106.8 917.2,-1063.2 444.7,43.7 754.9,590.4 693,1221.3 -61.9,630.8 -472.6,1106.8 -917.2,1063.1 -444.7,-43.6 -754.9,-590.4 -693,-1221.2"
        style="fill:#1e1b24;fill-opacity:1;fill-rule:nonzero;stroke:none" id="path242" />
      <path
        d="m 22145.4,25676.8 c 20.8,-211.9 146.5,-372.9 280.9,-359.7 134.3,13.2 226.4,195.6 205.6,407.4 -20.8,211.9 -146.6,372.9 -280.9,359.7 -134.4,-13.2 -226.4,-195.6 -205.6,-407.4"
        style="fill:#ffffff;fill-opacity:1;fill-rule:nonzero;stroke:none" id="path244" />
      <path
        d="m 22170.2,25679.2 c 9.6,-97.8 42.6,-187 92.7,-251.3 47.6,-60.9 105,-91.4 160.9,-85.9 56.2,5.5 106.3,46.5 141.1,115.6 36.8,72.8 51.7,166.7 42.1,264.5 -19.5,197.8 -133.7,349.4 -253.6,337.2 -120.4,-11.8 -202.6,-182.3 -183.2,-380.1 z m 240.4,-387.9 c -67.5,0 -133.4,37.1 -187.1,105.9 -55.9,71.6 -92.5,170 -103,277.1 -22.1,225.2 80.2,420.3 228,434.8 147.6,14.6 286.1,-156.9 308.2,-382.1 10.6,-107.1 -6.2,-210.8 -47.1,-291.9 -42.9,-84.9 -107.1,-135.6 -180.9,-142.9 -6,-0.5 -12.1,-0.9 -18.1,-0.9"
        style="fill:#1e1b24;fill-opacity:1;fill-rule:nonzero;stroke:none" id="path246" />
      <path
        d="m 10017.8,19700 c 415.9,85.8 831.8,108.5 1347.7,117.6 415.9,12 831.9,5.6 1247.8,-0.9 415.9,-5 831.9,-6.3 1247.8,-5.5 h 1247.8 4991.1 4991.1 2495.6 l 623.9,0.2 c 208,-0.2 415.9,7.5 623.9,11 415.9,2 831.8,-3 1247.8,-122.4 30.7,-8.8 48.4,-40.9 39.6,-71.6 -5.7,-19.8 -21.2,-34.2 -39.6,-39.6 -416,-119.4 -831.9,-124.4 -1247.8,-122.4 -208,3.5 -415.9,11.2 -623.9,11 l -623.9,0.2 H 24991.1 20000 15008.9 13761.1 c -415.9,0.8 -831.9,-0.5 -1247.8,-5.5 -415.9,-6.5 -831.9,-12.9 -1247.8,-0.9 -415.9,9.1 -831.8,31.8 -1247.7,117.6 -30.75,6.3 -50.51,36.4 -44.18,67.1 4.7,22.9 22.62,39.6 44.18,44.1"
        style="fill:#1e1b24;fill-opacity:1;fill-rule:nonzero;stroke:none" id="path16" />
    </g>
  </g>
</svg>