<?xml version="1.0" encoding="UTF-8" standalone="no"?>
<svg xmlns:dc="http://purl.org/dc/elements/1.1/" xmlns:cc="http://creativecommons.org/ns#"
  xmlns:rdf="http://www.w3.org/1999/02/22-rdf-syntax-ns#" xmlns:svg="http://www.w3.org/2000/svg"
  xmlns="http://www.w3.org/2000/svg" xmlns:sodipodi="http://sodipodi.sourceforge.net/DTD/sodipodi-0.dtd"
  xmlns:inkscape="http://www.inkscape.org/namespaces/inkscape" version="1.1" id="svg2" xml:space="preserve"
  width="5333.3335" height="5333.3335" viewBox="0 0 5333.3335 5333.3335" sodipodi:docname="1-13.eps">
  <metadata id="metadata8">
    <rdf:RDF>
      <cc:Work rdf:about="">
        <dc:format>image/svg+xml</dc:format>
        <dc:type rdf:resource="http://purl.org/dc/dcmitype/StillImage" />
      </cc:Work>
    </rdf:RDF>
  </metadata>
  <defs id="defs6" />
  <sodipodi:namedview pagecolor="#ffffff" bordercolor="#666666" borderopacity="1" objecttolerance="10"
    gridtolerance="10" guidetolerance="10" inkscape:pageopacity="0" inkscape:pageshadow="2" inkscape:window-width="640"
    inkscape:window-height="480" id="namedview4" />
  <g id="g10" inkscape:groupmode="layer" inkscape:label="ink_ext_XXXXXX"
    transform="matrix(1.3333333,0,0,-1.3333333,0,5333.3333)">
    <g id="g12" transform="scale(0.1)">
      <path
        d="m 18250.2,12088.7 c 0,0 -3283.9,-3232.9 -5917.2,-1868.6 -3894.49,2017.6 -2058.2,7004.8 -919.9,7421.5 539.2,197.3 912.8,-1028.9 1572.5,-2255.1 861.1,-1600.7 2209.8,-3201.4 5051,-1635.6 l 213.6,-1662.2"
        style="fill:#f99b28;fill-opacity:1;fill-rule:nonzero;stroke:none" id="path16" />
      <path
        d="m 14867.3,12816.2 c -941.8,350.8 -1566,1234.6 -2041.4,2118.3 -612.2,1138 -978,2276 -1458.5,2276 -37.3,0 -75.1,-6.8 -113.9,-21 -97.2,-35.5 -199.3,-104.3 -302.6,-201.6 181.6,263.9 366,437.8 520.5,494.4 16.7,6 33.7,9 50.9,9 248.5,0 545.3,-619.4 858.3,-1272.7 527.8,-1101.7 1244.3,-2597.4 2568.6,-3102.5 -28.1,-101 -55.4,-201 -81.9,-299.9"
        style="fill:#fccd94;fill-opacity:1;fill-rule:nonzero;stroke:none" id="path18" />
      <path
        d="m 18165.9,12743.8 84.2,-655.1 c 0,0 -3283.8,-3233 -5917.1,-1868.7 -3407.1,1765.2 -2427.97,5803.6 -1367.5,7065.3 -590.8,-1750.7 -539,-4411.6 2054.6,-5755.3 1848.2,-957.6 4016.9,349.4 5145.8,1213.8"
        style="fill:#ffffff;fill-opacity:1;fill-rule:nonzero;stroke:none" id="path20" />
      <path
        d="m 14435.2,11194.1 c -372.1,0 -745.1,59.7 -1108.6,198.5 165.9,-25.7 332.8,-37.6 499.4,-37.6 235.2,-0.1 470.1,23.8 702.3,66.4 -16.7,-76.7 -32.9,-152.3 -48.6,-227 -14.8,-0.2 -29.7,-0.3 -44.5,-0.3"
        style="fill:#c9743b;fill-opacity:1;fill-rule:nonzero;stroke:none" id="path22" />
      <path
        d="m 13808.3,10169.7 c -151,190.9 -326.7,366.9 -537.8,511.6 -146.8,98.4 -314.4,179.1 -499.7,215.3 -67.3,13.6 -136.4,20.2 -205.6,20.2 -120.7,0 -241.7,-20.1 -353.9,-58.7 -88.1,-30.6 -170.8,-70.9 -248.7,-116.7 -27.7,-17.1 -54.9,-34.9 -81.4,-53.2 -1627.8,1125.2 -1791.2,2814.2 -1730.1,3775.1 2,30.3 4.1,60.4 6.5,90.5 238.9,-1101.9 900.2,-2162 2253.6,-2863.1 298.7,-154.7 605.7,-250.3 915.4,-298.1 363.5,-138.8 736.5,-198.5 1108.6,-198.5 14.8,0 29.7,0.1 44.5,0.3 -34.3,-163.1 -66.1,-321.4 -95.6,-474.4 -24.2,-16.6 -48.2,-33.4 -72,-50.5 -130.4,-97.6 -253.2,-206.3 -364.4,-329.6 -49.1,-53.7 -95.6,-110.4 -139.4,-170.2"
        style="fill:#cdbfdc;fill-opacity:1;fill-rule:nonzero;stroke:none" id="path24" />
      <path
        d="m 11522.3,17491.3 c -17.2,0 -34.2,-3 -50.9,-9 -471,-172.4 -1219.4,-1434.2 -1320.3,-3019 -67.2,-1056.4 137,-2992.7 2259.9,-4092.5 2303.5,-1193.3 5207,1362.1 5659.9,1781.9 l -171.4,1333.7 c -1057.9,-537 -2004.3,-677.5 -2815.9,-417.4 -1410.7,452.1 -2157.6,2011.2 -2703,3149.6 -313,653.3 -609.8,1272.7 -858.3,1272.7 m 2223.3,-7773.7 c -537.1,0 -1037.2,116.9 -1490.7,351.9 -2293.96,1188.4 -2514.91,3276.5 -2442.39,4415.4 105.61,1660.1 897.59,3080 1542.29,3316 547.8,200.6 893.8,-521.6 1331.8,-1435.7 547.6,-1143 1229.2,-2565.6 2500.6,-2973.1 774.9,-248.3 1706,-77.6 2767.5,507.5 49.2,27 108.6,28 158.7,2.6 50,-25.4 84.3,-73.9 91.5,-129.6 l 213.6,-1662.3 c 6.8,-52.6 -11.5,-105.4 -49.3,-142.6 -34.2,-33.6 -850.7,-831.8 -2007.8,-1473.3 -932,-516.7 -1814.9,-776.8 -2615.8,-776.8"
        style="fill:#1e1b24;fill-opacity:1;fill-rule:nonzero;stroke:none" id="path26" />
      <path
        d="m 12242.3,14054.1 c -579.9,0.1 -947.8,1091.9 -971.4,1333.7 -45.7,467 173.6,570 346.5,570 44.4,0 85.7,-6.8 118.7,-16 200.7,-55.7 380,-640.8 720.2,-1200.1 198.6,-326.6 301.8,-664 -192.4,-687.1 -7.2,-0.3 -14.4,-0.5 -21.6,-0.5"
        style="fill:#fbc37e;fill-opacity:1;fill-rule:nonzero;stroke:none" id="path28" />
      <path
        d="M 27284.1,6664 H 14099.5 c 0,0 -43.7,3638.6 1645.7,8419.3 316.1,894.1 693,1828.3 1142.1,2786.4 142,303.4 291.3,609.2 448.6,917.1 h 6711.3 c 112.3,-220.5 221,-439.6 325.6,-657.8 413,-859.4 767.4,-1701.2 1071.7,-2513.7 C 27331,10575 27284.1,6664 27284.1,6664"
        style="fill:#f99b28;fill-opacity:1;fill-rule:nonzero;stroke:none" id="path30" />
      <path
        d="m 22363.1,13109.5 c -944.3,-849 -664,-3851.1 -664,-3851.1 h -1892.9 c 0,0 72.4,3002.1 -871.4,3851.1 -1679.5,1509.7 -3669.9,1679.6 -2818,3267.9 h 9064.3 c 435,-1220.2 -1138.4,-1758.2 -2818,-3267.9"
        style="fill:#ffffff;fill-opacity:1;fill-rule:nonzero;stroke:none" id="path32" />
      <path
        d="M 27283.9,6494.3 H 14099.3 c -92.9,0 -168.5,74.7 -169.7,167.6 -0.6,58.4 -12.5,1454.4 381.9,3666.6 363.4,2038.5 1157,5174.1 2873.4,8535.5 42.7,83.5 144.9,116.6 228.3,73.9 83.4,-42.6 116.5,-144.8 74,-228.2 -1695.5,-3320.2 -2480.2,-6417.3 -2839.9,-8430.8 -312.9,-1751.8 -367.4,-3009.4 -376.5,-3445.3 h 12841.7 c -9.2,435.9 -63.7,1693.5 -376.6,3445.3 -359.7,2013.5 -1144.4,5110.6 -2839.9,8430.8 -42.5,83.4 -9.4,185.6 74,228.2 83.6,42.7 185.7,9.5 228.3,-73.9 1716.4,-3361.4 2510,-6497 2873.4,-8535.5 394.4,-2212.2 382.6,-3608.2 381.9,-3666.6 -1.2,-92.9 -76.8,-167.6 -169.7,-167.6"
        style="fill:#1e1b24;fill-opacity:1;fill-rule:nonzero;stroke:none" id="path34" />
      <path
        d="M 29627.1,7363.6 C 28924.9,6191.7 28305.8,6001.2 28169,5956.7 c -401.9,-131.1 -1367.6,6.5 -1367.6,6.5 0,0 -2691,271.4 -4698.7,274.9 h -2782 c -61.6,0 -123.6,-0.5 -186.1,-0.9 -1989.8,-15.7 -4552.8,-274 -4552.8,-274 0,0 -965.7,-137.6 -1367.6,-6.5 -136.8,44.5 -755.9,235 -1458.1,1406.9 -864.2,1442.3 -463.6,2605 84.4,3079.1 762,658.9 1477.7,154.2 1980.6,-600.4 80.8,170.8 215.4,347.4 377.5,510.8 301.9,304.5 698.6,562.3 1017.2,645.8 880.4,230.2 1771.3,-178.7 2245.8,-1020.7 h 6460 c 474.5,842 1365.4,1250.9 2245.9,1020.7 489.8,-128 1163.5,-668.1 1394.6,-1156.6 502.9,754.6 1218.6,1259.3 1980.6,600.4 548,-474.1 948.6,-1636.8 84.4,-3079.1"
        style="fill:#f99b28;fill-opacity:1;fill-rule:nonzero;stroke:none" id="path36" />
      <path
        d="M 29627.3,7363.8 C 28924.8,6192 28305.8,6001.2 28169.2,5956.6 c -402.2,-131.2 -1367.5,6.8 -1367.5,6.8 0,0 -1070,107.7 -2364,188.4 -758.4,46.9 -1593,84.8 -2335.1,86.2 h -2781.9 c -61.8,0 -123.6,-0.5 -186.2,-0.9 -690.8,-5.5 -1450.9,-40.2 -2148.5,-83.5 -1312,-80.2 -2404,-190.2 -2404,-190.2 0,0 -965.8,-138 -1368,-6.8 -136.6,44.6 -755.7,235.4 -1457.7,1407.2 -864.3,1441.9 -463.9,2604.7 84.3,3079 762,658.8 1477.6,154.3 1980.3,-600.5 81.1,170.9 215.5,347.2 377.8,510.8 871.1,117.7 753,-954.9 1683.1,-1417.1 506.4,-251.1 1158.8,-312 1670.5,-312.9 478.9,-0.9 835.1,51.4 835.1,51.4 0,0 -191.7,248 -421.6,611.4 -128,202.4 -268.3,440.5 -393.6,692.1 H 23811 c -118.2,-237.6 -249.8,-463.5 -372.5,-658.3 -238.9,-381.9 -442.7,-645.2 -442.7,-645.2 0,0 378.7,-55.5 880.1,-50.9 504.5,4 1134,68.9 1625.4,312.4 930.2,462.2 812,1534.8 1683.2,1417.1 162.3,-163.6 296.6,-339.9 377.8,-510.8 502.7,754.8 1218.3,1259.3 1980.2,600.5 548.3,-474.3 948.7,-1637.1 84.8,-3079"
        style="fill:#ffffff;fill-opacity:1;fill-rule:nonzero;stroke:none" id="path38" />
      <path
        d="m 13730.7,6070.2 c -65,0 -129.4,1.7 -192.6,5.6 -74.5,4.1 -145.8,13.6 -211.6,26.5 -30.4,8.8 -59.2,14.2 -96.1,27.8 -33,11.7 -65.2,23.8 -97.1,38.7 -128.6,56.5 -251.5,139.2 -367.3,231.3 -115.8,92.9 -225.1,197.4 -326.2,311.1 -204.6,225.1 -382.5,479.7 -541.6,746 -155,264.6 -283.3,543.3 -367.3,833.1 -54.5,187.6 -89.5,380.2 -101,572.7 78.5,-218.2 185.8,-445.6 326.4,-680.4 702,-1171.8 1321.1,-1362.6 1457.7,-1407.2 55.9,-18 122.6,-31.1 196.1,-40.1 73,-8.8 146.1,-13.2 218.6,-13.2 506.7,0 995.6,210.6 1357.2,575 235.4,238 561.4,474.3 942.8,504 37.5,3 75.5,4.3 114,4.3 160,0 328.7,-24 503.7,-63.5 11.6,-40.6 23.5,-81.3 35.6,-122 -5.5,-2.8 -11,-5.6 -16.5,-8.5 -51.2,-27 -101.1,-56.4 -149.8,-88.4 -96.9,-64.5 -189.2,-138.9 -271.4,-227.6 -82.4,-88.2 -153.8,-191.6 -205.1,-307.3 -50.9,-115.7 -78.7,-243.3 -82.1,-369.3 -0.5,-62.9 3.1,-125.4 12.7,-186.2 l 7.9,-45.3 c 1.6,-8.2 2.1,-13.7 4.6,-24.1 3.2,-12.2 6.7,-24.4 10.5,-36.5 9.6,-27.7 22,-53.3 36,-76.1 -329,-25.4 -657.8,-53 -986.4,-82.8 l -238.9,-22.2 -121.1,-11.7 -120.8,-14.9 c -154.8,-18.4 -310.7,-32.6 -465.6,-41 -88.8,-4.8 -177.6,-7.8 -265.3,-7.8"
        style="fill:#c3b2d5;fill-opacity:1;fill-rule:nonzero;stroke:none" id="path40" />
      <path
        d="m 27652.5,6070.2 c -87.6,0 -176.5,3 -265.3,7.8 -154.9,8.4 -310.8,22.6 -465.6,41 l -120.8,14.9 -121.1,11.7 -238.9,22.2 c -292.9,26.6 -586,51.4 -879.1,74.4 16.1,24.9 30.4,53.3 41.2,84.5 3.8,12.1 7.3,24.3 10.5,36.5 2.5,10.4 3,15.9 4.6,24.1 l 7.8,45.3 c 9.7,60.8 13.2,123.3 12.8,186.2 -3.4,126 -31.2,253.6 -82.1,369.3 -51.3,115.7 -122.8,219.1 -205.1,307.3 -82.2,88.7 -174.5,163.1 -271.4,227.6 -48.7,32 -98.6,61.4 -149.8,88.4 -5.5,2.9 -11,5.7 -16.5,8.5 10.2,34.2 20.1,68.4 30,102.6 202.1,46.8 394.6,76.1 576.3,76.1 44.9,0 89.2,-1.8 132.8,-5.6 201.6,-17.1 466.7,-240.3 691.2,-472.9 365.8,-377.7 864.9,-599.2 1387.5,-599.2 33.3,0 66.5,0.9 99.9,2.7 129.5,6.7 247.6,22.5 337.8,51.8 136.6,44.6 755.6,235.4 1458.1,1407.2 140.5,234.4 247.6,461.5 326,679.5 -11.6,-192.3 -46.5,-384.5 -101,-571.8 -84,-289.8 -212.3,-568.5 -367.3,-833.1 -159.1,-266.3 -337,-520.9 -541.6,-746 -101.1,-113.7 -210.4,-218.2 -326.2,-311.1 -115.8,-92.1 -238.7,-174.8 -367.2,-231.3 -32,-14.9 -64.2,-27 -97.2,-38.7 -36.9,-13.6 -65.7,-19 -96.1,-27.8 -65.8,-12.9 -137.1,-22.4 -211.6,-26.5 -63.2,-3.9 -127.6,-5.6 -192.6,-5.6"
        style="fill:#c3b2d5;fill-opacity:1;fill-rule:nonzero;stroke:none" id="path42" />
      <path
        d="m 13956.4,9944.6 c 25.9,-26.9 42.3,-46.8 61.2,-70.9 17.3,-23.4 34.8,-46.6 49.7,-70.9 31.8,-47.8 58.3,-97.8 83.7,-148.2 50.1,-101.1 86.1,-207.9 118.6,-314.8 31.9,-107 57,-215.7 76.1,-325.3 18.2,-109.9 30.6,-220.6 32.4,-333 0.3,-13.9 -10.9,-25.4 -24.8,-25.6 -8.7,-0.2 -16.5,4.1 -21.1,10.8 l -0.4,0.5 c -63.2,92.3 -118.5,185.5 -175.6,276.8 l -166.2,271.7 c -55.3,89.2 -112.4,176.1 -163.9,264.3 -25.6,44.1 -51.4,88 -75.3,132 l -35.4,65.9 c -10.5,20.9 -23.7,45.8 -29.7,62.1 l -10.6,29.1 c -32,87.9 13.3,185.2 101.2,217.2 64.9,23.7 135.1,5.1 180.1,-41.7"
        style="fill:#1e1b24;fill-opacity:1;fill-rule:nonzero;stroke:none" id="path44" />
      <path
        d="m 27697.5,9740 c -5.9,-16.3 -19.1,-41.2 -29.7,-62.1 l -35.4,-65.9 c -23.9,-44 -49.6,-87.9 -75.3,-132 -51.5,-88.2 -108.6,-175.1 -163.8,-264.3 L 27227,8944 c -57.1,-91.3 -112.4,-184.5 -175.6,-276.8 l -0.3,-0.4 c -7.8,-11.5 -23.5,-14.4 -35.1,-6.5 -7.2,4.9 -11,13.1 -10.9,21.2 1.8,112.4 14.2,223.1 32.4,333 19.1,109.6 44.2,218.3 76.2,325.3 32.5,106.9 68.4,213.7 118.6,314.8 25.3,50.4 51.8,100.4 83.6,148.2 15,24.3 32.5,47.5 49.7,70.9 18.9,24.1 35.3,44 61.2,70.9 64.9,67.5 172.2,69.5 239.6,4.6 49.8,-47.9 63.9,-119 41.8,-180 l -10.7,-29.2"
        style="fill:#1e1b24;fill-opacity:1;fill-rule:nonzero;stroke:none" id="path46" />
      <path
        d="m 26182,11053.5 c 162.6,-22.4 316.2,-80.2 462.3,-148.7 72.9,-35.2 143.5,-74.2 213,-115.5 68.8,-42.3 135.3,-88 201.1,-135.3 130.5,-95.7 252.1,-204.3 364.8,-324.7 110.4,-122.3 214.8,-255 293.8,-413.7 l -297.4,21.8 c 180.7,278.6 395.4,546.9 687.7,751.8 147.1,99.5 315.5,182.1 502.8,219.2 186.7,37.4 387.6,22.2 565,-40.8 88.6,-31.5 171.7,-72.7 249.7,-119.4 76.6,-48 149,-100.7 215.3,-158.1 135.8,-118.4 249.2,-257.8 342.4,-406.1 l 64.4,-114.3 c 22.8,-37.6 37.3,-78.7 56.2,-117.9 38.6,-78.3 63.2,-161.5 91.9,-243.1 47.5,-165.9 82.8,-335.4 94,-506.2 27,-341.6 -17,-683.5 -110.5,-1006 -93.7,-323 -234.7,-627.6 -402.1,-913.2 -168.1,-281 -356.8,-552.5 -581.5,-799.9 -110.9,-124.5 -232.7,-241.6 -365.6,-348.3 -133.6,-105.9 -277.3,-203.6 -440.9,-276.1 -40.4,-18.7 -82.9,-34.9 -125,-49.7 -38.1,-14.1 -87.2,-26.2 -133.7,-38.4 -90.6,-18.3 -177.8,-28.9 -262.6,-33.8 -170,-10.4 -334.7,-6.6 -498.5,2 -163.6,9 -325.5,23.7 -487.4,43 l -116.7,14.4 -117,11.3 -237.5,22.1 c -633.7,57.5 -1268.5,106.7 -1903.5,147.3 -634.9,40.6 -1270.2,71.2 -1904.5,84.8 -316.9,7.3 -633.6,6.5 -953.4,6.5 h -957 -956.9 c -319.9,0 -636.6,0.8 -953.4,-6.5 -634.4,-13.6 -1269.7,-44.2 -1904.6,-84.8 -634.9,-40.6 -1269.8,-89.8 -1903.5,-147.3 l -237.5,-22.1 -117,-11.3 -116.7,-14.4 c -161.9,-19.3 -323.8,-34 -487.5,-43 -163.7,-8.6 -328.4,-12.4 -498.4,-2 -84.8,4.9 -172,15.5 -262.5,33.8 -46.6,12.2 -95.7,24.3 -133.8,38.4 -42.1,14.8 -84.6,31 -125,49.7 -163.6,72.5 -307.3,170.2 -440.8,276.1 -133,106.7 -254.8,223.8 -365.7,348.3 -224.6,247.4 -413.4,518.9 -581.5,799.9 -167.4,285.6 -308.3,590.2 -402,913.2 -93.6,322.5 -137.5,664.4 -110.6,1006 2.8,85.6 20.4,170.2 33.2,255 5.1,42.7 18.6,84 28.3,125.9 11.2,41.7 19.5,84 33.4,125 29.2,81.5 54,164.4 92.9,242.5 19,39.2 33.7,80.2 56.5,117.6 l 64.8,113.8 c 93.6,147.8 207.4,286.4 343.7,403.2 66.6,56.7 139,108.6 215.6,155.9 77.9,45.8 160.6,86.1 248.7,116.7 176.5,60.7 374.8,75.8 559.5,38.5 185.3,-36.2 352.9,-116.9 499.7,-215.3 292.4,-200.4 516.8,-461 702,-738 l -316,-23.1 c 20.7,38.7 40.3,78.8 62.5,116.2 23.6,35.9 45.7,73.5 70.8,107.6 49.2,69.3 101.8,134.6 157.9,195.9 111.2,123.3 234,232 364.4,329.6 66.2,47.5 133.7,92.8 203.1,135.1 70.1,41.2 141.9,79.5 215.8,113.7 148.3,66.5 305.5,120.3 470.2,135.2 31.6,2.8 59.4,-20.4 62.3,-51.9 2.2,-24.2 -11,-46.3 -31.4,-56.5 l -2.2,-1.1 c -134,-66.5 -258.5,-146.4 -377.3,-234.6 -60,-43.1 -117.7,-89.5 -174.2,-136.8 -57.3,-46.4 -111.9,-96 -165.6,-145.9 -108.4,-98.9 -208.7,-205.7 -300,-316.1 -90.2,-110.9 -170.5,-228 -227.2,-346.1 -43.7,-90.9 -152.8,-129.2 -243.7,-85.5 -30,14.4 -54.8,36.7 -72.3,62.4 -169.6,250.6 -361.1,489.8 -594.5,654.5 -116.6,80.4 -241.7,141.5 -370.1,167.9 -128.6,25.2 -258.6,15.5 -384.1,-26.8 -62.6,-22 -123.9,-51.6 -183.5,-86.5 -59,-36.7 -116.7,-77.6 -171.6,-124.4 -106.1,-91.3 -196.6,-201.1 -274,-322.5 l -53.4,-94.1 c -19.3,-30.5 -31,-65.5 -47,-98 -32.9,-64.7 -53.1,-135.3 -78.2,-203.8 -11.9,-34.5 -18.5,-70.8 -28.2,-106.1 -8.1,-35.7 -20.2,-70.5 -24.2,-107.2 -10.5,-72.9 -26.5,-144.9 -28.4,-219.1 -23.1,-294.8 14.4,-595.7 98.5,-885 84,-289.8 212.3,-568.5 367.3,-833.1 159.1,-266.3 337,-520.9 541.6,-746 101.1,-113.7 210.4,-218.2 326.2,-311.1 115.8,-92.1 238.7,-174.8 367.3,-231.3 31.9,-14.9 64.1,-27 97.1,-38.7 36.9,-13.6 65.7,-19 96.1,-27.8 65.8,-12.9 137.1,-22.4 211.6,-26.5 148.4,-9.2 303.2,-6.1 457.9,2.2 154.9,8.4 310.8,22.6 465.6,41 l 120.8,14.9 121.1,11.7 238.9,22.2 c 637,57.8 1274.3,107.2 1912.8,148.1 638.4,40.8 1277.8,71.6 1919.1,85.4 290.9,6.7 582.2,6.6 871.1,6.6 29.7,0 59.5,0 89.3,0 h 956.9 957 c 29.7,0 59.5,0 89.3,0 288.8,0 580,0.1 871,-6.6 641.3,-13.8 1280.8,-44.6 1919.1,-85.4 638.5,-40.9 1275.8,-90.3 1912.8,-148.1 l 238.9,-22.2 121.1,-11.7 120.8,-14.9 c 154.8,-18.4 310.7,-32.6 465.6,-41 154.7,-8.3 309.5,-11.4 457.9,-2.2 74.5,4.1 145.8,13.6 211.6,26.5 30.4,8.8 59.2,14.2 96.1,27.8 33,11.7 65.2,23.8 97.2,38.7 128.5,56.5 251.4,139.2 367.2,231.3 115.8,92.9 225.1,197.4 326.2,311.1 204.6,225.1 382.5,479.7 541.6,746 155,264.6 283.3,543.3 367.3,833.1 84.1,289.3 121.7,590.2 98.5,885 -1.9,74.2 -17.9,146.2 -28.4,219.1 -4.2,36.7 -16.4,71.4 -24.7,107.1 -9.8,35.2 -16.6,71.5 -28.7,105.9 -25.4,68.3 -45.9,138.8 -79.1,203.3 -16.1,32.3 -28,67.2 -47.3,97.6 l -53.8,93.7 c -77.7,120.8 -168.7,229.9 -275.3,319.5 -55,46.1 -112.9,86.2 -171.8,122.1 -59.6,34.1 -120.5,62.8 -182.6,83.9 -124.5,40 -251.9,49.6 -378.5,24.5 -126.5,-25.5 -250.8,-84.8 -367.1,-164 -116.1,-80.2 -226,-177.7 -326.6,-287.3 -101.2,-109.1 -195.2,-228.2 -282.2,-353.4 l -2.8,-4 c -53.7,-77.3 -159.9,-96.4 -237.1,-42.7 -25.7,17.8 -45.2,42.1 -57.5,68.5 -55.5,120.1 -133.5,240.5 -224.6,352.1 -89.8,113.3 -191.4,220.2 -299.5,321 -54.2,50.2 -109.8,99.3 -167.6,145.7 -57.2,47.3 -116,92.9 -177.1,135 -121,86.2 -249.1,162.1 -385.2,221.1 l -1.8,0.8 c -28.8,12.6 -42,46.1 -29.5,74.9 10.4,24 35.3,37.2 60,33.8"
        style="fill:#1e1b24;fill-opacity:1;fill-rule:nonzero;stroke:none" id="path48" />
      <path
        d="m 16798.2,14564.1 c -313.3,134 -614.3,280.3 -900.5,435.1 19.6,55.4 39.4,111.3 59.4,167.1 71.8,-48.2 149.5,-88.9 232.1,-120.6 153.3,-167.9 362.8,-322.7 609,-481.6"
        style="fill:#bf6c3f;fill-opacity:1;fill-rule:nonzero;stroke:none" id="path50" />
      <path
        d="m 20469.7,13764.2 c -1287.1,0 -2555.9,322.4 -3671.5,799.9 -246.2,158.9 -455.7,313.7 -609,481.6 79.3,-30.4 163,-52.5 250.5,-65.3 58.4,-8.6 116.3,-12.7 173.5,-12.7 44.8,0 89.1,2.5 132.7,7.5 l 182.8,-71.3 c 68.2,-26.8 139.5,-46.8 208.8,-70.3 138.2,-48.8 282.9,-79.4 424.2,-115.3 4.7,-1.2 9.5,-1.8 14.3,-1.8 22.7,0 44.4,13.4 53.8,35.6 0.5,1.2 0.9,2.4 1.3,3.5 610.3,-213.2 1322.1,-397.5 2144,-518.1 l 0.5,-0.1 c 593.9,-87.2 1142.1,-126.1 1644.4,-130 29.2,-0.3 58.1,-0.4 86.9,-0.4 396.1,0 762.9,21.7 1099.9,58.2 3.3,-29.5 28.4,-51.9 58.1,-51.9 1.1,0 2.3,0.1 3.4,0.1 31.3,1.9 62.6,3.9 93.9,6.1 2.5,-1.2 4.9,-2.4 7.4,-3.6 -643.4,-203.7 -1351.4,-331.6 -2121.5,-349.6 -59.5,-1.4 -119,-2.1 -178.4,-2.1"
        style="fill:#c3b2d5;fill-opacity:1;fill-rule:nonzero;stroke:none" id="path52" />
      <path
        d="m 15897.7,14999.2 c -51.3,27.7 -102.1,55.8 -152.5,84.1 23,64.9 46.2,130 69.8,195.3 44.2,-40.8 91.7,-78.4 142.1,-112.3 -20,-55.8 -39.8,-111.7 -59.4,-167.1"
        style="fill:#1e1b24;fill-opacity:1;fill-rule:nonzero;stroke:none" id="path54" />
      <path
        d="m 21552.3,9978.2 h -241.8 c 127.9,406.1 266.8,741.5 369.8,968.4 -73.4,-303.9 -99.1,-612.7 -124.8,-921.2 -1.1,-15.7 -2.2,-31.4 -3.2,-47.2 m -1434.1,0 h -174.8 c -1.1,15.8 -2.1,31.5 -3.2,47.2 -17.7,212.1 -35.3,424.3 -68.5,634.9 78.5,-191.9 164.8,-422.5 246.5,-682.1"
        style="fill:#c3b2d5;fill-opacity:1;fill-rule:nonzero;stroke:none" id="path56" />
      <path
        d="m 21552.3,9978 h -241.9 c 0,0 0.1,0.1 0.1,0.2 h 241.8 c 0,-0.1 0,-0.2 0,-0.2 m -1434,0 h -174.9 c 0,0 0,0.1 0,0.2 h 174.8 c 0,-0.1 0.1,-0.2 0.1,-0.2"
        style="fill:#bf6c3f;fill-opacity:1;fill-rule:nonzero;stroke:none" id="path58" />
      <path
        d="m 21648.6,6407.9 h -1913.9 c -7.3,0 -14.6,0 -21.9,0 20.6,29.5 39.4,61.1 55.9,94.9 7.2,16 15.1,33.1 21.1,48.3 l 14.4,42 c 9.1,27.8 19.9,56.1 27.4,83.7 14,54.9 30.7,110.5 40.4,164.7 45.5,218.1 68,432.4 84.2,646.1 31.1,427.2 32.1,850.5 24.8,1273.1 -11,406.3 -11.5,812.5 -37.6,1217.3 h 174.9 v 0 c 250.7,-796.7 459.4,-1865.7 271.4,-2921.2 h 648.8 c -188,1055 20.8,2124.5 271.9,2921.2 v 0 h 241.9 c -26.1,-404.8 -26.6,-811 -37.6,-1217.3 -7.3,-422.6 -6.3,-845.9 24.8,-1273.1 16.1,-213.7 38.7,-428 84.2,-646.1 9.7,-54.2 26.4,-109.8 40.4,-164.7 7.5,-27.6 18.3,-55.9 27.4,-83.7 l 14.4,-42 c 6,-15.2 13.9,-32.3 21.1,-48.3 16.5,-33.8 35.3,-65.4 55.9,-94.9 -15,0 -30,0 -45,0 -29.8,0 -59.6,0 -89.3,0"
        style="fill:#c3b2d5;fill-opacity:1;fill-rule:nonzero;stroke:none" id="path60" />
      <path
        d="m 21943.2,6238 h -2390.7 c 58.1,47.1 113.7,103.2 160.3,169.9 7.3,0 14.6,0 21.9,0 h 956.9 957 c 29.7,0 59.5,0 89.3,0 15,0 30,0 45,0 46.6,-66.7 102.2,-122.8 160.3,-169.9"
        style="fill:#1e1b24;fill-opacity:1;fill-rule:nonzero;stroke:none" id="path62" />
      <path
        d="m 25448.6,6402.1 c -123.6,-583.5 -3238.7,-677.7 -3583.6,207.4 -229.1,588.4 -203.8,2042 -141.1,3170.1 l 0.4,0.5 c 46,832.3 112.7,1487.9 112.7,1487.9 l 3632.3,1523.9 c 52.3,-2129.5 -446.4,-4159.8 -663.2,-4934.8 -59.6,-212.4 -97.9,-330.5 -97.9,-330.5 0,0 909,-327.4 740.4,-1124.5"
        style="fill:#f99b28;fill-opacity:1;fill-rule:nonzero;stroke:none" id="path64" />
      <path
        d="m 25448.6,6402.1 c -123.6,-583.5 -3238.7,-677.7 -3583.6,207.4 -229.1,588.4 -203.8,2042 -141.1,3170.1 l 0.4,0.5 c 0,0 69,-1209.3 890,-1590.7 647.5,-300.8 1363.5,-167.8 2191.8,-332.3 -59.6,-212.4 -97.9,-330.5 -97.9,-330.5 0,0 909,-327.4 740.4,-1124.5"
        style="fill:#ffffff;fill-opacity:1;fill-rule:nonzero;stroke:none" id="path66" />
      <path
        d="m 21893.3,11262.3 c 73.9,-426.6 44.5,-842.4 26.8,-1259.5 -23.1,-416.5 -60.6,-832.4 -66.1,-1248.6 -7.2,-415.8 -6,-832 23.9,-1241.5 15.3,-204.2 37.4,-407.8 77.6,-600.3 8.7,-49.1 22.8,-94 34.4,-140.7 6.1,-23 14.5,-43.6 21.6,-65.6 l 10.9,-32.5 10.4,-23.7 c 29.5,-60.8 83.2,-120 153.2,-170.7 140.3,-102.7 326.6,-172.8 516.1,-223.8 191,-51.1 390.7,-83.7 592.1,-104.4 402.9,-40 815.5,-36.6 1215.1,15.9 198.3,27.2 397.7,67 569.6,135 42.2,17.2 82.4,36.2 116.7,56.8 34.2,20.3 62.2,43.6 75.6,60.5 7.5,8.6 9.3,14.3 10.4,16.7 l 0.6,1.2 c 0.7,2.3 1.7,9.9 2.6,14.5 l 5.6,32.2 c 6.9,42.8 8.9,85.1 9,127.1 -2.7,83.5 -20.3,164.3 -53.6,240.7 -33.9,76.1 -82.4,147.9 -143.1,212.9 -60.3,65.3 -132.1,123.6 -209.6,175.2 -39,25.7 -79.5,49.5 -120.9,71.4 -20.8,10.8 -41.7,21.3 -62.7,30.9 -19.9,9.4 -44.4,19.7 -58.7,25.1 -85.5,32.2 -130.2,125.8 -103.9,212 128,414.6 237.3,846.3 332.3,1275.9 95.9,430.7 174.8,865.2 240,1301.3 34.7,217.8 59.5,436.8 86.7,655.5 12.2,109.5 21.4,219.2 32.3,328.8 l 15.7,164.5 c 4.2,54.9 6.5,109.8 9.8,164.8 l 11.9,329.9 c 0.6,109.9 4.8,219.6 13,329.3 5.5,54.8 9.8,109.7 16.5,164.6 4.5,54.8 11.4,109.7 20.2,164.7 9,55 19.6,110.1 34.2,165.5 13.8,55.3 30.1,110.8 53.2,166.7 l 0.9,2.1 c 12.8,31.1 48.4,45.9 79.4,33.1 15.3,-6.3 26.8,-18.3 32.8,-32.4 23.6,-55.3 40.5,-111 54.8,-167 15.2,-55.9 26.3,-112 35.8,-168.3 9.4,-56.3 16.8,-112.6 21.8,-169.1 4,-56.3 4.1,-112.6 6.2,-169 1,-112.8 -1.9,-225.5 -8.4,-337.9 l -31.4,-336.3 -12.5,-168.3 -16,-167.8 c -11.1,-111.8 -20.5,-223.9 -33,-335.6 -27.6,-222.9 -53,-446.2 -88.3,-668 -66.4,-444.1 -146.7,-886 -244.2,-1324.2 -97.4,-439.4 -206.3,-871.5 -340.9,-1307.5 l -103.8,212 c 34.6,-13.1 58.3,-23.6 85.9,-36.3 26.7,-12.3 52.6,-25.2 78.4,-38.7 51.2,-27 101.1,-56.4 149.8,-88.4 96.9,-64.5 189.2,-138.9 271.4,-227.6 82.3,-88.2 153.8,-191.6 205.1,-307.3 50.9,-115.7 78.7,-243.3 82.1,-369.3 0.4,-62.9 -3.1,-125.4 -12.8,-186.2 l -7.8,-45.3 c -1.6,-8.2 -2.1,-13.7 -4.6,-24.1 -3.2,-12.2 -6.7,-24.4 -10.5,-36.5 -16.2,-46.9 -40.6,-87.6 -66.6,-119.3 -52.8,-64.7 -110,-105.3 -165.2,-139.1 -55.6,-33.4 -110.7,-58.8 -165.5,-81.2 -218.9,-85.8 -434.7,-126 -650.9,-156.5 -432,-56.5 -863.7,-59.7 -1295.1,-17.2 -215.5,22.2 -431.1,57.1 -645.3,114.2 -213.4,58.9 -429.1,133.9 -629.6,278.4 -98.8,72.3 -195.1,168.4 -257.7,296.8 -7.2,16 -15.1,33.1 -21.1,48.3 l -14.4,42 c -9.1,27.8 -19.9,56.1 -27.4,83.7 -14,54.9 -30.7,110.5 -40.4,164.7 -45.5,218.1 -68.1,432.4 -84.2,646.1 -31.1,427.2 -32.1,850.5 -24.8,1273.1 11.4,422.1 11.5,844.3 40.8,1264.7 34.9,419.9 70,840.3 225.2,1248.4 11.5,30.2 45.4,45.4 75.6,33.9 20,-7.6 33.4,-25 36.8,-44.7 l 0.2,-0.7"
        style="fill:#1e1b24;fill-opacity:1;fill-rule:nonzero;stroke:none" id="path68" />
      <path
        d="m 28975.7,7991.1 c -145.5,-327.1 -470.2,-500.2 -725.2,-386.8 -255,113.5 -343.7,470.6 -198.2,797.6 145.5,327.1 470.2,500.2 725.2,386.8 254.9,-113.5 343.7,-470.6 198.2,-797.6"
        style="fill:#ff6c6c;fill-opacity:1;fill-rule:nonzero;stroke:none" id="path70" />
      <path
        d="m 28482.9,9146.5 c -65.8,-169.6 -237.1,-261.4 -382.8,-204.9 -145.7,56.4 -210.5,239.7 -144.8,409.3 65.7,169.7 237.1,261.4 382.8,205 145.7,-56.5 210.5,-239.8 144.8,-409.4"
        style="fill:#ff6c6c;fill-opacity:1;fill-rule:nonzero;stroke:none" id="path72" />
      <path
        d="m 29290.6,9315.2 c -59.5,-189.9 -240.2,-302.3 -403.6,-251.1 -163.5,51.2 -247.8,246.6 -188.3,436.5 59.5,189.8 240.2,302.3 403.6,251.1 163.5,-51.2 247.8,-246.6 188.3,-436.5"
        style="fill:#ff6c6c;fill-opacity:1;fill-rule:nonzero;stroke:none" id="path74" />
      <path
        d="m 29546,8734.6 c -47.7,-123.3 -175.6,-188.6 -285.6,-145.9 -110,42.6 -160.5,177 -112.8,300.2 47.8,123.2 175.6,188.6 285.7,145.9 110,-42.6 160.4,-177 112.7,-300.2"
        style="fill:#ff6c6c;fill-opacity:1;fill-rule:nonzero;stroke:none" id="path76" />
      <path
        d="m 12361.3,8044.1 c 145.5,-327.1 470.2,-500.2 725.2,-386.8 255,113.5 343.7,470.6 198.2,797.7 -145.5,327 -470.2,500.2 -725.2,386.7 -255,-113.4 -343.7,-470.5 -198.2,-797.6"
        style="fill:#ff6c6c;fill-opacity:1;fill-rule:nonzero;stroke:none" id="path78" />
      <path
        d="m 12854.1,9199.5 c 65.7,-169.6 237.1,-261.4 382.8,-204.9 145.7,56.4 210.5,239.7 144.8,409.3 -65.8,169.7 -237.1,261.4 -382.8,205 -145.7,-56.5 -210.5,-239.7 -144.8,-409.4"
        style="fill:#ff6c6c;fill-opacity:1;fill-rule:nonzero;stroke:none" id="path80" />
      <path
        d="m 12046.4,9368.2 c 59.5,-189.9 240.2,-302.3 403.6,-251.1 163.4,51.2 247.7,246.6 188.3,436.5 -59.5,189.9 -240.2,302.3 -403.7,251.1 -163.4,-51.2 -247.7,-246.6 -188.2,-436.5"
        style="fill:#ff6c6c;fill-opacity:1;fill-rule:nonzero;stroke:none" id="path82" />
      <path
        d="m 11791,8787.6 c 47.7,-123.2 175.6,-188.6 285.6,-145.9 110,42.6 160.5,177 112.8,300.2 -47.8,123.2 -175.7,188.6 -285.7,145.9 -110,-42.6 -160.5,-177 -112.7,-300.2"
        style="fill:#ff6c6c;fill-opacity:1;fill-rule:nonzero;stroke:none" id="path84" />
      <path
        d="m 19630.4,6609.5 c -344.4,-885.1 -3459.5,-790.9 -3583.1,-207.4 -168.6,797.1 739.9,1124.5 739.9,1124.5 0,0 -37.4,114.9 -95.1,321.9 -215.6,768.3 -718.3,2806.3 -665.5,4943.4 L 19658.8,11268 c 0,0 79.8,-784.1 125.4,-1726.9 52.7,-1086.6 59.5,-2383.8 -153.8,-2931.6"
        style="fill:#f99b28;fill-opacity:1;fill-rule:nonzero;stroke:none" id="path86" />
      <path
        d="m 19630.4,6609.5 c -344.4,-885.1 -3459.5,-790.9 -3583.1,-207.4 -168.6,797.1 739.9,1124.5 739.9,1124.5 0,0 -37.4,114.9 -95.1,321.9 845.8,177.6 1574.9,35.2 2233.2,340.9 591.5,275 792.6,979.3 858.9,1351.7 52.7,-1086.6 59.5,-2383.8 -153.8,-2931.6"
        style="fill:#ffffff;fill-opacity:1;fill-rule:nonzero;stroke:none" id="path88" />
      <path
        d="m 19714.9,11273.8 c 155.3,-408.1 190.3,-828.5 225.3,-1248.4 29.3,-420.4 29.4,-842.6 40.8,-1264.7 7.3,-422.6 6.3,-845.9 -24.8,-1273.1 -16.2,-213.7 -38.7,-428 -84.2,-646.1 -9.7,-54.2 -26.4,-109.8 -40.4,-164.7 -7.5,-27.6 -18.3,-55.9 -27.4,-83.7 l -14.4,-42 c -6,-15.2 -13.9,-32.3 -21.1,-48.3 -62.6,-128.4 -158.9,-224.5 -257.7,-296.8 -200.5,-144.5 -416.2,-219.5 -629.6,-278.4 -214.3,-57.1 -429.8,-92 -645.4,-114.2 -431.3,-42.5 -863,-39.3 -1295,17.2 -216.2,30.5 -432,70.7 -650.9,156.5 -54.8,22.4 -109.9,47.8 -165.5,81.2 -55.2,33.8 -112.5,74.4 -165.2,139.1 -26.1,31.7 -50.4,72.4 -66.6,119.3 -3.8,12.1 -7.3,24.3 -10.5,36.5 -2.5,10.4 -3,15.9 -4.6,24.1 l -7.9,45.3 c -9.6,60.8 -13.2,123.3 -12.7,186.2 3.4,126 31.2,253.6 82.1,369.3 51.3,115.7 122.7,219.1 205.1,307.3 82.2,88.7 174.5,163.1 271.4,227.6 48.7,32 98.6,61.4 149.8,88.4 25.8,13.5 51.7,26.4 78.3,38.7 27.7,12.7 51.3,23.2 86,36.3 l -103.8,-212 c -134.6,436 -243.5,868.1 -340.9,1307.5 -97.6,438.2 -177.8,880.1 -244.2,1324.2 -35.3,221.8 -60.7,445.1 -88.4,668 -12.4,111.7 -21.9,223.8 -32.9,335.6 l -16.1,167.8 -12.4,168.3 -31.4,336.3 c -6.5,112.4 -9.5,225.1 -8.4,337.9 2.1,56.4 2.2,112.7 6.1,169 5.1,56.5 12.5,112.8 21.9,169.1 9.5,56.3 20.6,112.4 35.8,168.3 14.3,56 31.2,111.7 54.8,167 13.2,30.9 48.9,45.3 79.8,32.1 15.2,-6.5 26.4,-18.5 32.3,-32.6 l 1,-2.3 c 23,-55.9 39.4,-111.4 53.2,-166.7 14.6,-55.4 25.2,-110.5 34.1,-165.5 8.9,-55 15.7,-109.9 20.3,-164.7 6.7,-54.9 11,-109.8 16.5,-164.6 8.1,-109.7 12.4,-219.4 12.9,-329.3 l 11.9,-329.9 c 3.4,-55 5.7,-109.9 9.8,-164.8 l 15.8,-164.5 c 10.9,-109.6 20.1,-219.3 32.3,-328.8 27.2,-218.7 52,-437.7 86.7,-655.5 65.2,-436.1 144.1,-870.6 240,-1301.3 95,-429.6 204.3,-861.3 332.3,-1275.9 26.9,-87.3 -19.6,-180 -103.9,-212 -14.4,-5.4 -38.8,-15.7 -58.7,-25.1 -21,-9.6 -41.9,-20.1 -62.7,-30.9 -41.4,-21.9 -81.9,-45.7 -120.9,-71.4 -77.5,-51.6 -149.3,-109.9 -209.6,-175.2 -60.7,-65 -109.3,-136.8 -143.2,-212.9 -33.3,-76.4 -50.8,-157.2 -53.5,-240.7 0.1,-42 2.1,-84.3 9,-127.1 l 5.6,-32.2 c 0.8,-4.6 1.9,-12.2 2.6,-14.5 l 0.6,-1.2 c 1.1,-2.4 2.9,-8.1 10.4,-16.7 13.4,-16.9 41.4,-40.2 75.6,-60.5 34.3,-20.6 74.5,-39.6 116.7,-56.8 171.9,-68 371.3,-107.8 569.6,-135 399.6,-52.5 812.2,-55.9 1215.1,-15.9 201.4,20.7 401.1,53.3 592,104.4 189.6,51 375.9,121.1 516.2,223.8 70,50.7 123.7,109.9 153.2,170.7 l 10.4,23.7 10.9,32.5 c 7,22 15.4,42.6 21.6,65.6 11.5,46.7 25.6,91.6 34.4,140.7 40.2,192.5 62.3,396.1 77.6,600.3 29.9,409.5 31.2,825.7 23.9,1241.5 -5.5,416.2 -43.1,832.1 -66.1,1248.6 -17.7,417.1 -47.1,832.9 26.8,1259.5 l 0.1,0.6 c 5.6,31.9 35.9,53.3 67.7,47.7 21.1,-3.6 37.6,-18.2 44.7,-36.8"
        style="fill:#1e1b24;fill-opacity:1;fill-rule:nonzero;stroke:none" id="path90" />
      <path
        d="m 19425.9,8620.1 c -36.8,483 -123.7,970 -69.5,1486.5 38.1,362.4 103.9,701.7 221.1,980.3 -41.1,-365.6 -17.2,-724.4 -1.9,-1084.1 18.3,-331 45.8,-661.5 59,-992.2 -52.9,-131.7 -121,-266.1 -208.7,-390.5"
        style="fill:#c9743b;fill-opacity:1;fill-rule:nonzero;stroke:none" id="path92" />
      <path
        d="m 17656.2,6123.9 c -224.7,0 -449.2,14 -669.8,43 -198.3,27.2 -397.7,67 -569.6,135 -42.2,17.2 -82.4,36.2 -116.7,56.8 -34.2,20.3 -62.2,43.6 -75.6,60.5 -7.5,8.6 -9.3,14.3 -10.4,16.7 l -0.6,1.2 c -0.7,2.3 -1.8,9.9 -2.6,14.5 l -5.6,32.2 c -6.9,42.8 -8.9,85.1 -9,127.1 0.2,5.1 0.4,10.2 0.7,15.2 275.9,-65.5 621.1,-100 979.2,-100 863.8,0 1802.9,200.6 2026.7,649 246.6,494.2 259.3,967.6 223,1445 87.7,124.4 155.8,258.8 208.7,390.5 3.5,-85.4 5.9,-170.9 7.1,-256.4 7.3,-415.8 6,-832 -23.9,-1241.5 -15.3,-204.2 -37.4,-407.8 -77.6,-600.3 -8.8,-49.1 -22.9,-94 -34.4,-140.7 -6.2,-23 -14.6,-43.6 -21.6,-65.6 l -10.9,-32.5 -10.4,-23.7 c -29.5,-60.8 -83.2,-120 -153.2,-170.7 -140.3,-102.7 -326.6,-172.8 -516.2,-223.8 -190.9,-51.1 -390.6,-83.7 -592,-104.4 -180.5,-17.9 -363,-27.1 -545.3,-27.1"
        style="fill:#cdbfdc;fill-opacity:1;fill-rule:nonzero;stroke:none" id="path94" />
      <path
        d="m 17658.8,5954.3 c -801.8,0 -1552,167.4 -1611.4,448 -20.3,97.1 -25,187 -17.4,270.1 52.2,-16.8 108,-32.2 167,-46.3 -0.3,-5 -0.5,-10.1 -0.7,-15.2 0.1,-42 2.1,-84.3 9,-127.1 l 5.6,-32.2 c 0.8,-4.6 1.9,-12.2 2.6,-14.5 l 0.6,-1.2 c 1.1,-2.4 2.9,-8.1 10.4,-16.7 13.4,-16.9 41.4,-40.2 75.6,-60.5 34.3,-20.6 74.5,-39.6 116.7,-56.8 171.9,-68 371.3,-107.8 569.6,-135 220.6,-29 445.1,-43 669.8,-43 182.3,0 364.8,9.2 545.3,27.1 201.4,20.7 401.1,53.3 592,104.4 189.6,51 375.9,121.1 516.2,223.8 70,50.7 123.7,109.9 153.2,170.7 l 10.4,23.7 10.9,32.5 c 7,22 15.4,42.6 21.6,65.6 11.5,46.7 25.6,91.6 34.4,140.7 40.2,192.5 62.3,396.1 77.6,600.3 29.9,409.5 31.2,825.7 23.9,1241.5 -1.2,85.5 -3.6,171 -7.1,256.4 -13.2,330.7 -40.7,661.2 -59,992.2 -15.3,359.7 -39.2,718.5 1.9,1084.1 25,59.4 52.3,116.1 82.2,169.6 10.2,-99.6 82.3,-839 124.3,-1715.3 53,-1086.8 59.8,-2383.9 -153.5,-2931.5 -178.9,-459.8 -1105.4,-655.4 -1971.7,-655.4"
        style="fill:#1e1b24;fill-opacity:1;fill-rule:nonzero;stroke:none" id="path96" />
      <path
        d="m 22076.2,8675.5 c -91.8,142.3 -160,295 -210.5,440 14.3,295.7 38,591.3 54.4,887.3 15.3,361.9 39.5,722.8 -2.7,1090.6 119,-279.8 185.5,-621.6 223.9,-986.8 52.2,-496.8 -26.3,-966.2 -65.1,-1431.1"
        style="fill:#c9743b;fill-opacity:1;fill-rule:nonzero;stroke:none" id="path98" />
      <path
        d="m 23839.5,6123.9 c -182.3,0 -364.8,9.2 -545.3,27.1 -201.4,20.7 -401.1,53.3 -592.1,104.4 -189.5,51 -375.8,121.1 -516.1,223.8 -70,50.7 -123.7,109.9 -153.2,170.7 l -10.4,23.7 -10.9,32.5 c -7.1,22 -15.5,42.6 -21.6,65.6 -11.6,46.7 -25.7,91.6 -34.4,140.7 -40.2,192.5 -62.3,396.1 -77.6,600.3 -29.9,409.5 -31.1,825.7 -23.9,1241.5 1.6,120.4 5.9,240.8 11.7,361.3 50.5,-145 118.7,-297.7 210.5,-440 -41.4,-496.1 -37.6,-987.1 218.6,-1500.4 223.8,-448.4 1162.9,-649 2026.7,-649 357.2,0 701.6,34.3 977.3,99.6 0.2,-4.9 0.4,-9.9 0.6,-14.8 -0.1,-42 -2.1,-84.3 -9,-127.1 l -5.6,-32.2 c -0.9,-4.6 -1.9,-12.2 -2.6,-14.5 l -0.6,-1.2 c -1.1,-2.4 -2.9,-8.1 -10.4,-16.7 -13.4,-16.9 -41.4,-40.2 -75.6,-60.5 -34.3,-20.6 -74.5,-39.6 -116.7,-56.8 -171.9,-68 -371.3,-107.8 -569.6,-135 -220.6,-29 -445.1,-43 -669.8,-43"
        style="fill:#cdbfdc;fill-opacity:1;fill-rule:nonzero;stroke:none" id="path100" />
      <path
        d="m 23838.9,5954.3 c -866.3,0 -1792.8,195.6 -1971.7,655.4 -213.3,547.6 -206.5,1844.7 -153.5,2931.5 42,876.3 114.1,1615.7 124.3,1715.3 28.8,-51.5 55.2,-106 79.4,-163.1 42.2,-367.8 18,-728.7 2.7,-1090.6 -16.4,-296 -40.1,-591.6 -54.4,-887.3 -5.8,-120.5 -10.1,-240.9 -11.7,-361.3 -7.2,-415.8 -6,-832 23.9,-1241.5 15.3,-204.2 37.4,-407.8 77.6,-600.3 8.7,-49.1 22.8,-94 34.4,-140.7 6.1,-23 14.5,-43.6 21.6,-65.6 l 10.9,-32.5 10.4,-23.7 c 29.5,-60.8 83.2,-120 153.2,-170.7 140.3,-102.7 326.6,-172.8 516.1,-223.8 191,-51.1 390.7,-83.7 592.1,-104.4 180.5,-17.9 363,-27.1 545.3,-27.1 224.7,0 449.2,14 669.8,43 198.3,27.2 397.7,67 569.6,135 42.2,17.2 82.4,36.2 116.7,56.8 34.2,20.3 62.2,43.6 75.6,60.5 7.5,8.6 9.3,14.3 10.4,16.7 l 0.6,1.2 c 0.7,2.3 1.7,9.9 2.6,14.5 l 5.6,32.2 c 6.9,42.8 8.9,85.1 9,127.1 -0.2,4.9 -0.4,9.9 -0.6,14.8 59.7,14.1 116.2,29.7 168.9,46.7 7.6,-83.1 2.9,-173 -17.4,-270.1 -59.4,-280.6 -809.6,-448 -1611.4,-448"
        style="fill:#1e1b24;fill-opacity:1;fill-rule:nonzero;stroke:none" id="path102" />
      <path
        d="m 18037.2,7095.4 c 13.9,-112 20.6,-214.1 28.5,-312.8 7.8,-98.2 14.5,-192 31.9,-278.6 17.3,-86.3 43.8,-164.2 80.3,-224.5 17.4,-30.8 38.7,-56.4 60.3,-80.9 23.3,-23.1 48.6,-44.2 76.9,-66 l 13.7,-10.5 c 74.2,-57.1 88,-163.6 30.9,-237.7 -49.7,-64.5 -136.6,-83.3 -207.2,-49.6 -60.4,28.8 -117.7,68.4 -166.6,117.6 -49.1,49.1 -86.9,107.7 -116.8,167.2 -58,121.2 -74,247.4 -71,364 4,117 25,227.9 64.8,331.1 19.8,51.5 43.4,101.2 72.6,148.3 28.2,47.2 60.9,92.4 101.7,132.4"
        style="fill:#1e1b24;fill-opacity:1;fill-rule:nonzero;stroke:none" id="path104" />
      <path
        d="m 17049.5,7126.8 c -14.7,-58.7 -17.8,-112.1 -21.3,-165.8 l -2.3,-79.8 0.4,-78.8 c 1.5,-104.1 3.7,-206.4 16.4,-304.3 11.5,-97 32.8,-192.5 65.1,-260.8 14.7,-34.6 34,-58.9 46.4,-70.6 13.8,-11 18.2,-16.1 38.9,-22.9 l 32.7,-10.8 c 88.2,-29.1 136.2,-124.4 107,-212.6 -22.9,-69.5 -87,-113.9 -156.1,-115.6 -89.4,-1.9 -192.2,37.7 -259.4,100.9 -70,62 -106.7,135.9 -132.5,203 -47.9,137.2 -51,264.3 -42.3,386.4 10.4,122 35.9,239.7 83.1,350.6 11.5,27.7 25.2,54.8 40,81.2 14.5,26.5 30.5,52.4 48.9,76.9 35.6,48.8 80.1,96.1 135,123"
        style="fill:#1e1b24;fill-opacity:1;fill-rule:nonzero;stroke:none" id="path106" />
      <path
        d="m 23499,7095.4 c 40.9,-40 73.6,-85.2 101.8,-132.4 29.2,-47.1 52.8,-96.8 72.5,-148.3 39.8,-103.2 60.8,-214.1 64.8,-331.1 3,-116.6 -13,-242.8 -71,-364 -29.9,-59.5 -67.7,-118.1 -116.8,-167.2 -48.8,-49.2 -106.2,-88.8 -166.6,-117.6 -84.5,-40.3 -185.6,-4.4 -225.9,80.1 -35,73.4 -12.4,159.5 49.5,207.1 l 13.8,10.6 c 28.3,21.8 53.7,42.9 76.9,66 21.7,24.5 42.9,50.1 60.3,80.9 36.6,60.3 63,138.2 80.4,224.5 17.4,86.6 24.1,180.4 31.8,278.6 8,98.7 14.6,200.8 28.5,312.8"
        style="fill:#1e1b24;fill-opacity:1;fill-rule:nonzero;stroke:none" id="path108" />
      <path
        d="m 24486.7,7126.8 c 54.9,-26.9 99.4,-74.2 135,-123 18.5,-24.5 34.5,-50.4 49,-76.9 14.8,-26.4 28.4,-53.5 40,-81.2 47.2,-110.9 72.6,-228.6 83,-350.6 8.7,-122.1 5.7,-249.2 -42.3,-386.4 -25.7,-67.1 -62.5,-141 -132.4,-203 -67.2,-63.2 -170,-102.8 -259.4,-100.9 -93,2.1 -166.7,79.1 -164.6,172 1.6,73.2 49.5,134.3 115.2,156.2 l 32.9,10.8 c 20.7,6.8 25.1,11.9 39,22.9 12.4,11.7 31.7,36 46.3,70.6 32.4,68.3 53.7,163.8 65.2,260.8 12.7,97.9 14.8,200.2 16.3,304.3 l 0.5,78.8 -2.4,79.8 c -3.4,53.7 -6.6,107.1 -21.3,165.8"
        style="fill:#1e1b24;fill-opacity:1;fill-rule:nonzero;stroke:none" id="path110" />
      <path
        d="m 26841,23797.1 c -186.3,572.2 -880.2,1285.1 -1472.4,1814.9 -534.6,478.3 -546.8,1309 -33.3,1809.9 903.7,881.6 1951.3,1452.3 2654.1,1770.8 416.4,188.7 891.2,-104.3 911.9,-561.1 32,-708 -37.1,-1777.2 -522.5,-2957.4 -525,-1276.6 -1460.8,-1866.8 -1460.8,-1866.8 l -77,-10.3"
        style="fill:#ff6c6c;fill-opacity:1;fill-rule:nonzero;stroke:none" id="path112" />
      <path
        d="m 26930.1,23788.3 -24.1,38.2 c 9.3,5.8 935.9,601.7 1451.9,1856.3 487.2,1184.4 552.1,2256.8 520.8,2947.8 -9.4,207.6 -120.7,396.4 -297.9,505 -178.9,109.8 -391.2,123.1 -582.1,36.5 -713.1,-323.1 -1751.2,-891.9 -2647.7,-1766.3 -242,-236.2 -376.7,-565 -369.4,-902.2 7.3,-338.7 150,-649.3 402,-874.8 569.5,-509.4 1288.4,-1239.6 1479,-1824.6 l -43,-14.1 c -187.5,575.6 -900.7,1299.3 -1466.1,1805.1 -261.4,233.8 -409.5,556.1 -417.1,907.4 -7.5,349.7 132.1,690.7 383.1,935.5 901.2,879.1 1944.2,1450.5 2660.5,1775.1 201.9,91.5 435.3,76.9 624.4,-39.1 190,-116.5 309.4,-318.9 319.4,-541.5 31.6,-695.6 -33.8,-1775 -524.1,-2967 -521.8,-1268.6 -1460.2,-1871.4 -1469.6,-1877.3"
        style="fill:#1e1b24;fill-opacity:1;fill-rule:nonzero;stroke:none" id="path114" />
      <path
        d="m 26464.4,25430.3 c -90.5,-220.7 -193.8,-420.5 -302.2,-600.9 -249.3,277.8 -531.8,548.2 -793.4,782.3 -534.7,478.4 -546.8,1309.1 -33.8,1810.5 513.6,501.2 1074,901.8 1591.2,1212.9 35.5,-74.5 57.2,-158.2 61.1,-247.9 31.8,-707.9 -37.4,-1776.8 -522.9,-2956.9"
        style="fill:#ff6c6c;fill-opacity:1;fill-rule:nonzero;stroke:none" id="path116" />
      <path
        d="m 26916.1,28602.6 c -591.9,-358.1 -1118.5,-760.6 -1565.3,-1196.6 -242,-236.5 -376.5,-565.7 -369.1,-903 7.5,-338.6 150.3,-649.1 402.1,-874.4 298.8,-267.4 559.3,-523.4 774.7,-761.4 109.4,185.1 205.3,377.3 285.1,571.7 v 0 c 486.9,1183.6 552.2,2256 521.2,2947.2 -3.3,75.8 -19.7,148.5 -48.7,216.5 m -750.3,-3811.1 -20.4,22.8 c -218.2,243.1 -484.6,505.8 -791.6,780.6 -261.3,233.8 -409.5,555.9 -417.2,907.1 -7.7,349.8 131.7,691.1 382.6,936.3 454.8,443.8 991.6,853 1595.4,1216.1 l 21.2,12.8 10.8,-22.4 c 38.1,-80 59.4,-166.3 63.3,-256.7 31.2,-695.7 -34.5,-1775.1 -524.5,-2966.4 v 0 c -84.5,-205.7 -186.7,-408.9 -303.8,-604 l -15.8,-26.2"
        style="fill:#1e1b24;fill-opacity:1;fill-rule:nonzero;stroke:none" id="path118" />
      <path
        d="m 15714.2,25430.6 c 342.9,494.4 1212.4,977.8 1932,1315.1 649.5,304.4 899.9,1096.6 552.1,1724 -612.2,1104 -1451.6,1951.8 -2033.2,2458.8 -344.7,300.4 -883.6,156.3 -1034.7,-275.3 -234.2,-669 -475.3,-1712.8 -349.6,-2982.8 136,-1373.6 862.6,-2207.9 862.6,-2207.9 l 70.8,-31.9"
        style="fill:#ff6c6c;fill-opacity:1;fill-rule:nonzero;stroke:none" id="path120" />
      <path
        d="m 15732.8,25417.7 -37.1,25.8 c 350.6,505.5 1249,998.3 1940.9,1322.6 306.1,143.5 532.2,400 636.5,722.3 103.9,320.9 69.4,674.6 -94.6,970.3 -607.3,1095.3 -1438.2,1938.4 -2028.3,2452.8 -158.1,137.7 -365.1,186.1 -568.1,132.3 -200.8,-53.1 -361.7,-201.9 -430.4,-398.1 -228.6,-652.9 -474.6,-1698.7 -348.4,-2973 133.6,-1350 849.9,-2187.1 857.2,-2195.4 l -34.1,-29.6 c -7.4,8.4 -732.9,855.5 -868,2220.5 -127,1282.6 120.6,2335.2 350.6,2992.5 73.7,210.3 246.2,369.8 461.6,426.8 214.3,56.7 442.3,3.7 609.3,-142 592.8,-516.7 1427.6,-1363.9 2038.1,-2464.9 170,-306.6 205.8,-673.4 98,-1006.1 -108.2,-334.3 -342.7,-600.4 -660.3,-749.3 -686.8,-322 -1578,-810.1 -1922.9,-1307.5"
        style="fill:#1e1b24;fill-opacity:1;fill-rule:nonzero;stroke:none" id="path122" />
      <path
        d="m 16544.3,26886.6 c 23.3,-237.4 64.8,-458.5 116.8,-662.4 318.7,194.4 666.9,372.2 984.8,521.3 649.6,304.5 899.9,1096.6 552.7,1724.3 -347.9,627.7 -769.5,1172.5 -1175.4,1619 -55.5,-61.1 -100.3,-134.9 -129.9,-219.8 -233.8,-668.8 -474.8,-1712.5 -349,-2982.4"
        style="fill:#ff6c6c;fill-opacity:1;fill-rule:nonzero;stroke:none" id="path124" />
      <path
        d="m 17023.5,30054.8 c -47.4,-56.7 -83.9,-121.6 -108.8,-193.2 -228.4,-653.2 -474.1,-1699.2 -348,-2972.8 20.7,-209.3 57.2,-420.9 108.8,-629.5 274.7,166.1 597.8,336.4 960.8,506.6 306,143.4 532,399.8 636.5,721.9 104.1,321 69.8,675 -94,971.1 -302.6,545.9 -691.2,1082.8 -1155.3,1595.9 m -376.8,-3865.9 -7.5,29.7 c -56.1,220.2 -95.6,444.3 -117.4,665.8 v 0 c -127,1281.8 120.3,2334.6 350.2,2992 29.7,85.4 74.9,162 134.4,227.6 l 16.7,18.4 16.8,-18.4 c 473.9,-521.4 870.4,-1067.5 1178.4,-1623.3 169.8,-307 205.4,-673.9 97.4,-1006.8 -108.3,-334.1 -342.8,-600.1 -660.2,-748.9 -373.2,-174.9 -703.7,-349.9 -982.6,-520.2 l -26.2,-15.9"
        style="fill:#1e1b24;fill-opacity:1;fill-rule:nonzero;stroke:none" id="path126" />
      <path
        d="m 28685.7,18607.2 c -568.6,401.7 -931.5,1515.6 -993.9,2055 -36.3,311.7 -143.9,932.6 -228.4,1402.2 3248,2006.4 3186.5,8968.3 1047.2,8544.1 -2415.9,-479 -4302.8,-2424.8 -5189.1,-3505.3 -911,353.5 -1598,403.1 -1598,403.1 0,0 -689.7,154 -1684.3,70.2 -536.3,1287.5 -1785.1,3702.1 -3966.4,4857.9 -1934.3,1025 -4002.1,-5678.5 -1424.4,-8516 -214,-422.2 -486.9,-969.6 -608.5,-1252 -215.3,-498.7 -883,-1461.3 -1543.5,-1682.6 -389.4,-130.5 -451.3,-429.9 -235.3,-693.2 138.6,-168.9 392.4,-323.4 746.9,-407.9 28,-7.1 57.4,-13.1 86.8,-19.1 0,0 -0.5,0 -1.9,-1 h -0.4 c -23.8,-11 -222.6,-100.8 -732.9,-339.9 -499.9,-234.6 -192.1,-689.4 515.7,-1203.7 707.4,-513.8 1557,-1593.3 1739.3,-1761.3 106.7,-98.4 665.9,-700.1 1804.5,-1284.5 810.1,-416.3 1913.6,-824 3356,-1035.7 l 0.5,-0.1 c 3469.1,-509.3 5386.8,630.3 5609.7,739.2 222.8,108.5 1346.8,898.2 2172.5,1187 825.3,289.2 1250.8,636.3 839.1,1004.8 -449.1,402.1 -606.2,537.8 -606.2,537.8 29,-3 57.7,-5.1 85.6,-6.6 365.5,-21.3 654.2,53.7 836,175.9 282.6,190.2 309.4,494.7 -26.6,731.7"
        style="fill:#f99b28;fill-opacity:1;fill-rule:nonzero;stroke:none" id="path128" />
      <path
        d="m 23152,27166.5 c -825.4,296.2 -1428.5,339.8 -1428.5,339.8 0,0 -426.4,95.2 -1092,95.2 -128.9,0 -266.6,-3.6 -412,-12.1 -1.3,19 -5.7,38.1 -13.4,56.6 -0.3,0.7 -0.6,1.3 -0.9,2 153.8,9.4 299.2,13.4 434.7,13.4 666,0 1092.6,-95.3 1092.6,-95.3 0,0 613.7,-44.4 1449.8,-347.7 -0.3,-0.3 -0.5,-0.7 -0.8,-1 -12.9,-15.7 -22.7,-32.9 -29.5,-50.9"
        style="fill:#b1e5ff;fill-opacity:1;fill-rule:nonzero;stroke:none" id="path130" />
      <path
        d="m 23036.2,26346 c -101.7,-0.1 -204.3,14.3 -305.1,43.9 -632.9,185.8 -1132.9,261.4 -1132.9,261.4 0,0 -513.8,74.1 -1190.4,75.9 -437.8,1.2 -833.6,259.5 -1004.2,662.7 -587.6,1388.8 -1582,3435.9 -3423.5,4411.9 -135.4,71.8 -271.6,105.7 -406.7,105.7 -493.7,0 -974.2,-452.7 -1361.5,-1164.1 168.7,417.3 363.5,773.7 570.6,1040.4 219.2,282.2 531.4,574.2 884.8,574.2 103.9,0 211.3,-25.2 320.9,-83.3 2119.5,-1123.4 3343.4,-3469.3 3884.3,-4767.7 28.8,-69.4 96,-111.2 166.8,-111.2 23.2,0 46.7,4.4 69.4,13.9 73.6,30.7 116.2,104.3 110.8,179.7 145.4,8.5 283.1,12.1 412,12.1 665.6,0 1092,-95.2 1092,-95.2 0,0 603.1,-43.6 1428.5,-339.8 -26.5,-70.5 -6.8,-153 54.6,-203.4 33.6,-27.5 74.1,-41 114.4,-41 52.3,0 104.1,22.6 139.9,66.1 890.9,1086 2736.1,2977.3 5085,3443 50.1,9.9 98.2,14.6 144.5,14.6 443.7,0 712.6,-432.4 863.5,-816.3 142,-361.1 233.5,-798.2 273.6,-1279.2 -183.2,975.2 -604,1644.2 -1226.3,1644.2 -59.4,0 -120.6,-6.1 -183.6,-18.6 -2039.3,-404.3 -3576.8,-2073.1 -4539.7,-3233.6 -211.1,-254.4 -521.6,-396.3 -841.7,-396.3"
        style="fill:#fbc37e;fill-opacity:1;fill-rule:nonzero;stroke:none" id="path132" />
      <path
        d="m 27557.8,16163.6 c -825.7,-288.8 -1949.7,-1078.5 -2172.5,-1187 -222.9,-108.9 -2140.6,-1248.5 -5609.7,-739.2 l -0.5,0.1 c -1442.4,211.7 -2545.9,619.4 -3356,1035.7 -1138.6,584.4 -1697.8,1186.1 -1804.5,1284.5 -182.3,168 -1031.9,1247.5 -1739.3,1761.3 -707.8,514.3 -1015.6,969.1 -515.7,1203.7 510.3,239.1 709.1,328.9 732.9,339.9 h 0.4 c 1.4,1 1.9,1 1.9,1 -29.4,6 -58.8,12 -86.8,19.1 120,21.6 252.3,39.3 397.5,51.7 532.9,45.9 1075.9,-295.5 1708.4,-636.9 762.9,-411.8 1655.9,-823.6 2818.2,-555.8 1632,376.1 1520.4,4090.8 2067,4972.6 5.6,9 11.2,17.5 16.7,26.5 577.3,909.7 1964.6,706.1 2256,-331.2 3.2,-10.2 6,-20 8.8,-30.3 270.2,-1001.6 -904.4,-4527.5 550.2,-5356.7 1092.7,-622.6 2115.6,-435.8 2996.2,-249.1 647.4,137.4 1217.9,274.7 1682.6,90.4 135.9,-53.7 257.5,-109 366.7,-164.3 -27.9,1.5 -56.6,3.6 -85.6,6.6 0,0 157.1,-135.7 606.2,-537.8 411.7,-368.5 -13.8,-715.6 -839.1,-1004.8"
        style="fill:#ffffff;fill-opacity:1;fill-rule:nonzero;stroke:none" id="path134" />
      <path
        d="m 23321.1,26922.1 c -21.7,0 -43.8,3.9 -65.4,12.3 -871.7,339 -1539.1,391.3 -1545.7,391.7 -8.8,0.7 -17.8,2 -26.4,3.9 -6.5,1.5 -677.7,146.9 -1629.2,66.5 -100.5,-8.3 -186.8,65.4 -195.2,164.8 -8.4,99.4 65.4,186.9 164.9,195.3 947.4,80 1621.1,-49.3 1725.3,-71.1 104.5,-8.9 769.7,-76.9 1637.3,-414.3 93,-36.1 139.1,-140.9 102.9,-233.9 -27.8,-71.5 -96.1,-115.2 -168.5,-115.2"
        style="fill:#1e1b24;fill-opacity:1;fill-rule:nonzero;stroke:none" id="path136" />
      <path
        d="m 17561.7,14718.3 c -141.3,35.9 -286,66.5 -424.2,115.3 -69.3,23.5 -140.6,43.5 -208.8,70.3 l -205.2,80.1 c -270.7,113.5 -535.9,242.1 -790.2,388.8 -508.8,294.6 -987.4,635.6 -1427.4,1031.7 -24.6,22.4 -63.7,61.2 -86.4,86.6 -26.3,28.2 -51.7,56.2 -75.6,83.4 l -144,163.9 -283.9,323.9 c -189.6,214 -381.4,425 -582.9,623.5 -100.3,99.7 -203.4,195.3 -308,287.8 -53.5,43.9 -105.5,91.2 -160.1,132.4 l -81.6,62.7 -88.5,65.8 c -118.9,89.6 -235.5,184.1 -347.3,288.9 -111.1,106.1 -219.8,219.3 -309.5,368.5 -43.6,75.1 -83.9,162.7 -96.5,272.1 -14.5,108.2 21.2,242.7 93.3,328.1 69.6,89.4 152.8,138.9 230.9,179.3 21.3,11 35.7,17.2 52.5,25.1 l 49.2,22.9 98.2,45.6 393.1,182.7 49.1,22.8 6.1,2.8 3.1,1.5 -8.3,-4.1 c -13.8,-7.7 -27.4,-18.5 -38.4,-31.5 -22.4,-26.5 -32.2,-57.8 -32.6,-86.2 -0.2,-28.7 8.1,-58.4 30,-86.4 10.9,-13.9 25.7,-26.1 41.3,-35 8.2,-4.4 16.1,-7.8 23.7,-10.4 2.9,-1.1 10.2,-2.9 9.7,-2.7 l -3.5,0.9 -56.7,15.4 c -75.5,20.9 -150.3,45.9 -223.9,76.3 -147,60.3 -290.7,139.5 -419.2,251.8 -63.8,56.5 -123.8,121.8 -173.9,200 -49.4,78.3 -88.7,172.1 -99.8,278.4 -10.5,105.7 14,223.8 72,314.6 56.5,92.1 134.4,159.4 213.3,207.1 l 59.8,33.1 60.5,27.6 60.7,22.8 c 19.6,7.2 29.8,12.1 45.2,18.2 28.2,12.5 57.1,20.5 85,36.1 l 84,44.6 c 221.8,132.9 424.8,322.1 604.9,530.6 181.4,208 343.3,437.7 482.4,676 l 50.6,89.9 46.7,90.7 c 15.2,30.2 28.2,60.5 42.4,90.7 l 44.7,100.4 c 60.6,134.6 123.5,265.2 186.8,396 126.9,261 256.5,519.4 387.1,777.4 43.6,86.2 148.9,120.7 235.2,77.1 86.2,-43.7 120.7,-149 77.1,-235.2 l -0.1,-0.1 c -130,-256.8 -259.1,-514.2 -384.4,-772.1 -62.4,-128.9 -124.6,-258.3 -182.5,-386.8 l -43.3,-97.2 c -16.4,-35.1 -32,-71.1 -49.2,-105.3 l -52.4,-101.7 -55.4,-98.7 c -151.8,-259.8 -323.9,-503.7 -521.5,-730.8 -197,-226.7 -419.1,-438.8 -693,-603.4 l -107,-56.8 c -35.3,-19.3 -75.9,-32.5 -113.8,-48.7 l -55.3,-21.8 -40.7,-15.2 -37.9,-17.3 -34.9,-19.2 c -44.4,-26.7 -76.7,-58.6 -95.8,-89.7 -19.9,-31.1 -25.1,-62.2 -22.8,-99.5 4.2,-37.4 19.6,-81 47.1,-124.5 27.8,-43.4 65.7,-85.9 109.8,-124.8 88.9,-78 200.6,-141.7 320.2,-190.3 59.7,-24.7 122,-45.6 185.5,-63.2 l 47.7,-13 3,-0.8 16.1,-4.8 c 12,-3.9 24,-9 36.1,-15.8 23.7,-13 45.1,-31.5 61.8,-52.2 33.4,-42.2 47,-90.1 46.6,-136.7 -0.3,-46.4 -16.5,-95.9 -50.7,-136 -16.7,-19.9 -37.4,-36.5 -59.3,-48.4 l -14.2,-7.3 -3,-1.4 -6.1,-2.9 -49,-22.7 -391.8,-182.1 -192,-89.8 c -49.5,-24.8 -92.1,-54.5 -110.4,-80.7 -10.7,-12.9 -15.8,-23.9 -18.7,-35.4 -2.8,-11.7 -5.5,-24 -2.9,-41.6 3.6,-34.4 21.3,-82.7 50.5,-131.5 58.7,-98.9 149.6,-198.3 247.3,-290.5 98.6,-92.5 206.3,-180.1 317.8,-264 l 85.1,-63.3 90.3,-68.7 c 61,-45.3 116.2,-94.7 174.6,-142 112.3,-97.6 221.6,-197.4 326.8,-300.1 210.5,-205.5 412.2,-417 608.1,-632.2 98,-107.3 193.9,-216.6 289,-324.8 l 142.1,-160.8 c 23.7,-26.9 47,-52.2 69.9,-76.8 25.9,-27.8 38,-39.9 66.5,-66.3 415.6,-378.3 866.9,-728.6 1337.9,-1043.3 235.9,-157.6 479.6,-302.5 728.4,-439.7 249.7,-135.8 507.7,-254.6 771.7,-366.4 l 3.1,-1.3 c 29.6,-12.5 43.5,-46.8 31,-76.5 -11.4,-26.9 -40.6,-40.8 -68.1,-33.8"
        style="fill:#1e1b24;fill-opacity:1;fill-rule:nonzero;stroke:none" id="path138" />
      <path
        d="m 27635.9,22094.4 c 48.8,-272.2 96.5,-544.5 141.5,-818.2 22.4,-136.9 44.3,-273.9 64,-412.7 l 27.6,-207.3 c 7.8,-62.7 20,-126.8 32.3,-190.8 54.7,-257 134.8,-513.4 235.8,-758.1 99.9,-245.2 224.2,-479.9 376.5,-682.5 18.1,-26.4 39.8,-48.1 59.5,-72.5 20.1,-23.8 39.7,-48.4 62,-68.6 l 64.7,-63.9 68.6,-54.8 17.1,-13.9 24.1,-18.2 c 16.4,-12.8 33.1,-24.2 48.9,-38.7 32.2,-27 63.3,-57.3 92.8,-90.5 58.3,-66.7 110.5,-150.2 137,-250 28.3,-99.2 20.3,-213.3 -15.8,-309.1 -36.3,-96.6 -97.1,-173.5 -162.4,-234.5 -133,-121.6 -285.9,-185.7 -436.5,-229.1 -151.5,-41 -303.9,-58.4 -454.1,-59.5 -37.6,-1.2 -75,0.9 -112.4,1.6 l -7.1,0.2 -3.5,0.1 c -0.8,0 -4.2,0.1 1.9,-0.2 15.4,-0.3 32.7,2.3 49.2,8.2 33.8,11.9 59.1,35.9 73,60.3 14,24.7 20.7,51.8 17.4,82.9 -2.6,30.7 -20.5,65.2 -42.1,84.8 l 149.9,-133.4 310,-275.8 38.7,-34.4 19.4,-17.3 23.1,-21.9 c 30.7,-28.6 60.5,-62 88.4,-99.2 55.1,-72.6 105.3,-176.7 105,-293.8 1.7,-117.6 -48,-221.1 -101.9,-294.7 -55.3,-75.1 -117.5,-131.8 -180.2,-181.1 -126.3,-97.2 -257.1,-166.9 -388.6,-229.9 -131.9,-61.7 -264.6,-115.7 -398.2,-164.1 l -49.7,-18.1 -45.9,-17.7 -91.9,-35.1 c -60.9,-26 -121.9,-51.9 -182.6,-79.4 -242.9,-111.5 -480.2,-243.2 -715.1,-380.3 -234.9,-137.7 -467.8,-280.1 -700.6,-427.4 l -176.5,-109.1 c -60.4,-36.5 -118.4,-72.2 -186.9,-110 l -53.6,-27.8 -46.9,-22.3 -97.3,-44.4 c -65.1,-28.8 -130.4,-56.2 -195.9,-83 -262.6,-104.5 -529.2,-194.7 -799.8,-269 -540.6,-149.5 -1094.4,-244.4 -1650.5,-276.8 -32.2,-1.9 -59.9,22.8 -61.8,55.1 -1.7,28.6 17.4,53.5 44.2,60.2 l 0.8,0.2 c 267.6,66.8 533.4,132.6 796.1,208 262.4,75.9 522.3,157.8 778.4,248.2 255.7,91.3 508.4,189.5 754.1,299.6 61.4,27.6 122.3,55.7 182.5,84.8 l 89.4,44.5 46,23.4 c 15.6,8 24.9,13.9 37.7,20.7 51.9,29.7 110.9,67.1 167.9,103.1 l 174.3,110.4 c 468.9,294.3 948.6,581.7 1466.7,816.1 65.1,28.9 131.3,56.4 197.6,83.8 l 101.7,38 50.9,19 47.6,16.9 c 126.1,44.5 249.8,93.3 367.7,148.9 117.1,55.7 230.5,118 323,189.6 45.8,35.6 85.3,74 111.7,110.2 26.8,36.9 36.6,66.4 35.6,87.9 0.2,21.5 -8.8,50.6 -36.3,87.2 -13.6,17.8 -29.5,36.5 -49.4,54.7 l -14.4,13.9 -19.2,17.1 -38.5,34.3 -308.4,274.3 -159.2,141.9 c -34.3,31.3 -60.3,82.2 -64.8,130 -5.2,48.2 5.1,93.1 28,132.6 22.6,39.2 61.7,75.3 111.7,93 24.6,8.9 50.6,12.6 74.5,12.2 l 17.2,-0.4 c 31.5,-0.5 63.1,-2.4 94.4,-1.3 125.7,0.8 249.4,15.8 364.4,46.8 113.5,31.9 220.5,82 291.5,148.3 35.1,32.7 60.9,68.1 72.9,101.1 11.2,33.3 14.7,63.3 4.9,97.3 -9,33.8 -29.7,71.7 -62.1,108.4 -16.4,18.3 -34.6,36.4 -55.3,53.7 -9.4,9.1 -21.5,16.9 -32.2,25.4 l -40.4,31.5 -92.9,74.5 -82.8,81.3 c -28.5,26.6 -52.2,55.9 -76.7,84.7 -23.7,29.1 -50.4,57 -71.6,87.4 -179.4,238.8 -313.7,496.8 -422.2,762 -109.4,265.4 -194.7,537.6 -254.9,820.5 -13.9,71.4 -27.5,142.9 -36.8,217.1 l -27,202.8 c -19,134.4 -40.7,269.9 -62.8,405.2 -44.5,270.9 -92.1,542 -140.7,813 -17.1,95.1 46.2,186.1 141.3,203.2 95.2,17.2 186.1,-46.1 203.2,-141.2 l 0.1,-0.1"
        style="fill:#1e1b24;fill-opacity:1;fill-rule:nonzero;stroke:none" id="path140" />
      <path
        d="m 27463.8,21882.7 c -60.6,0 -119.8,30.5 -153.9,85.8 -52.4,84.9 -26.1,196.2 58.8,248.7 2264.8,1398.6 2942.5,5485.8 2185.2,7412.3 -166.6,423.9 -477,907 -1008,801.7 -2348.9,-465.7 -4194.1,-2357 -5085,-3443 -63.4,-77.2 -177.3,-88.3 -254.3,-25.1 -77.1,63.3 -88.4,177.2 -25.1,254.3 921.5,1123.3 2834.7,3080.7 5294,3568.3 606,120.2 1108,-243.6 1414.7,-1024 392.6,-998.5 418,-2597.6 64.8,-4073.8 -416,-1739 -1267.1,-3080.8 -2396.5,-3778.2 -29.5,-18.3 -62.3,-27 -94.7,-27"
        style="fill:#1e1b24;fill-opacity:1;fill-rule:nonzero;stroke:none" id="path142" />
      <path
        d="m 14647.8,23737.3 c -49.2,0 -98.2,19.9 -133.8,59.2 -894.6,984.6 -1335.2,2513.2 -1240.8,4304.1 80.2,1518 560.5,3050.7 1223.9,3904.8 521,671 1110.6,879.9 1660.4,588.6 2219.1,-1176.2 3489,-3604.9 4048.6,-4948 38.3,-92.1 -5.2,-197.9 -97.4,-236.3 -92.1,-38.4 -197.9,5.2 -236.2,97.3 -540.9,1298.4 -1764.8,3644.3 -3884.3,4767.7 -482.6,255.8 -922.1,-125.7 -1205.7,-490.9 -1139.1,-1466.8 -1906.1,-5647.5 -1.1,-7744.3 67.1,-73.9 61.7,-188.2 -12.2,-255.3 -34.6,-31.4 -78.1,-46.9 -121.4,-46.9"
        style="fill:#1e1b24;fill-opacity:1;fill-rule:nonzero;stroke:none" id="path144" />
      <path
        d="m 21506.9,14107 c -28.8,0 -57.7,0.1 -86.9,0.4 29,-0.3 58,-0.4 86.7,-0.4 209,0 410.1,6.1 602.7,17.1 172.4,9.9 338.2,23.9 497.3,41.1 h 0.1 c -337,-36.5 -703.8,-58.2 -1099.9,-58.2"
        style="fill:#997cb8;fill-opacity:1;fill-rule:nonzero;stroke:none" id="path146" />
      <path d="m 22109.4,14124.1 c 172.4,9.9 338.2,23.9 497.3,41.2 v -0.1 c -159.1,-17.2 -324.9,-31.2 -497.3,-41.1"
        style="fill:#bf6c3f;fill-opacity:1;fill-rule:nonzero;stroke:none" id="path148" />
      <path
        d="m 21506.7,14107 c -28.7,0 -57.7,0.1 -86.7,0.4 -502.1,4 -1050.5,42.8 -1644.2,130 l -0.5,0.1 c -822.2,120.7 -1534,304.9 -2144.2,518.2 10.1,28.8 -3.8,60.9 -32.3,72.9 l -3.1,1.3 c -175.1,74.1 -347.5,151.3 -516.6,234.5 302.4,131.6 542.4,389 646.5,719.1 l 912.2,-133.3 c 421.1,-124.7 855.5,-223 1302.5,-288.6 451.2,-66.3 900.2,-97 1343.4,-97.9 l 829.5,-121.2 c 7.6,-383.2 200.8,-728.4 503.5,-937.4 -7.1,-10.4 -11,-23.1 -10.2,-36.6 0,-1.1 0.1,-2.2 0.2,-3.2 -159.1,-17.3 -324.9,-31.3 -497.3,-41.2 -192.6,-11 -393.7,-17.1 -602.7,-17.1 m 2868.5,632.3 c 32.4,82.3 56,169.5 69.3,260.7 35.1,240.5 -4.1,479.4 -109,689.9 1464.4,397.4 2755.5,1007.7 3723,1545.2 l 164.1,-145.9 38.5,-34.3 19.2,-17.1 14.4,-13.9 c 19.9,-18.2 35.8,-36.9 49.4,-54.7 27.5,-36.6 36.5,-65.7 36.3,-87.2 1,-21.5 -8.8,-51 -35.6,-87.9 -26.4,-36.2 -65.9,-74.6 -111.7,-110.2 -92.5,-71.6 -205.9,-133.9 -323,-189.6 -117.9,-55.6 -241.6,-104.4 -367.7,-148.9 l -47.6,-16.9 -50.9,-19 -101.7,-38 c -66.3,-27.4 -132.5,-54.9 -197.6,-83.8 -518.1,-234.4 -997.8,-521.8 -1466.7,-816.1 l -174.3,-110.4 c -57,-36 -116,-73.4 -167.9,-103.1 -12.8,-6.8 -22.1,-12.7 -37.7,-20.7 l -46,-23.4 -89.4,-44.5 c -60.2,-29.1 -121.1,-57.2 -182.5,-84.8 -197.8,-88.6 -400.1,-169.5 -604.9,-245.4 m -8937.7,1369.9 c -234.8,181.6 -462.2,372 -679.8,570.1 -28.5,26.4 -40.6,38.5 -66.5,66.3 -22.9,24.6 -46.2,49.9 -69.9,76.8 l -142.1,160.8 c -95.1,108.2 -191,217.5 -289,324.8 -195.9,215.2 -397.6,426.7 -608.1,632.2 -105.2,102.7 -214.5,202.5 -326.8,300.1 -58.4,47.3 -113.6,96.7 -174.6,142 l -90.3,68.7 -85.1,63.3 c -111.5,83.9 -219.2,171.5 -317.8,264 -97.7,92.2 -188.6,191.6 -247.3,290.5 -29.2,48.8 -46.9,97.1 -50.5,131.5 -2.6,17.6 0.1,29.9 2.9,41.6 2.9,11.5 8,22.5 18.7,35.4 18.3,26.2 60.9,55.9 110.4,80.7 l 192,89.8 89.3,41.5 c 763,-783.2 1808.4,-1725.7 3076.2,-2521.3 -176.4,-175.9 -292.5,-404.5 -329.6,-658.6 -9.9,-67.4 -13.7,-134.3 -12.1,-200.2"
        style="fill:#c3b2d5;fill-opacity:1;fill-rule:nonzero;stroke:none" id="path150" />
      <path
        d="m 17631.1,14755.7 c -240.4,84 -465,172.6 -674.4,263.5 41.8,12.8 82.6,27.9 122.4,45.2 169.1,-83.2 341.5,-160.4 516.6,-234.5 l 3.1,-1.3 c 28.5,-12 42.4,-44.1 32.3,-72.9 m -2154.5,1083.2 c -515.9,361.1 -790.7,652.9 -862.2,718.8 -182,167.7 -1031.8,1247.3 -1739.3,1761.1 -707.5,514.4 -1015.3,969.5 -515.3,1204.1 78.7,36.9 150.2,69.9 214.6,99.6 41.9,-43.8 84.8,-88.3 128.6,-133.2 l -89.3,-41.5 -192,-89.8 c -49.5,-24.8 -92.1,-54.5 -110.4,-80.7 -10.7,-12.9 -15.8,-23.9 -18.7,-35.4 -2.8,-11.7 -5.5,-24 -2.9,-41.6 3.6,-34.4 21.3,-82.7 50.5,-131.5 58.7,-98.9 149.6,-198.3 247.3,-290.5 98.6,-92.5 206.3,-180.1 317.8,-264 l 85.1,-63.3 90.3,-68.7 c 61,-45.3 116.2,-94.7 174.6,-142 112.3,-97.6 221.6,-197.4 326.8,-300.1 210.5,-205.5 412.2,-417 608.1,-632.2 98,-107.3 193.9,-216.6 289,-324.8 l 142.1,-160.8 c 23.7,-26.9 47,-52.2 69.9,-76.8 25.9,-27.8 38,-39.9 66.5,-66.3 217.6,-198.1 445,-388.5 679.8,-570.1 2.4,-92.6 15.8,-183.2 39.1,-270.3"
        style="fill:#1e1b24;fill-opacity:1;fill-rule:nonzero;stroke:none" id="path152" />
      <path
        d="m 22606.8,14165.2 h -0.1 v 0.1 c -0.1,1 -0.2,2.1 -0.2,3.2 -0.8,13.5 3.1,26.2 10.2,36.6 16.6,-11.5 33.5,-22.5 50.7,-33.1 -20.1,-2.3 -40.3,-4.6 -60.6,-6.8 m 1641,336.5 c 51,73.2 93.9,152.8 127.4,237.6 204.8,75.9 407.1,156.8 604.9,245.4 61.4,27.6 122.3,55.7 182.5,84.8 l 89.4,44.5 46,23.4 c 15.6,8 24.9,13.9 37.7,20.7 51.9,29.7 110.9,67.1 167.9,103.1 l 174.3,110.4 c 468.9,294.3 948.6,581.7 1466.7,816.1 65.1,28.9 131.3,56.4 197.6,83.8 l 101.7,38 50.9,19 47.6,16.9 c 126.1,44.5 249.8,93.3 367.7,148.9 117.1,55.7 230.5,118 323,189.6 45.8,35.6 85.3,74 111.7,110.2 26.8,36.9 36.6,66.4 35.6,87.9 0.2,21.5 -8.8,50.6 -36.3,87.2 -13.6,17.8 -29.5,36.5 -49.4,54.7 l -14.4,13.9 -19.2,17.1 -38.5,34.3 -164.1,145.9 c 55.1,30.6 109.2,61 162.1,91.1 53.1,-47.5 111.6,-99.6 176.4,-157.6 411.5,-368.4 -13.7,-715.9 -839.1,-1005.2 -825.9,-288.7 -1950.1,-1078.5 -2172.6,-1186.9 -92.4,-45.1 -474.8,-266.6 -1137.5,-474.8"
        style="fill:#1e1b24;fill-opacity:1;fill-rule:nonzero;stroke:none" id="path154" />
      <path
        d="m 14873.2,27261 c 134.3,-1443.2 892,-2323.9 892,-2323.9 l 73.8,-34.4 c 202.4,288.2 576.6,571.7 999.7,827.7 335.9,202.3 702.7,386.8 1037.5,541.4 684.1,315.8 951.9,1146.2 591.1,1807.5 -361.5,661.4 -800.8,1236.1 -1224.4,1707.7 -321.5,357.5 -634.4,655.8 -896.2,887.1 -360.1,317.6 -926.8,169.7 -1087.9,-282.5 -250.3,-701.6 -509.9,-1796.2 -385.6,-3130.6"
        style="fill:#ff6c6c;fill-opacity:1;fill-rule:nonzero;stroke:none" id="path156" />
      <path
        d="m 16853.3,25765.5 c -53.1,219.7 -90.3,442.7 -110.7,663.4 v 0 c -124.6,1338.6 139.9,2435.7 383.8,3120.4 26.9,75.7 66.1,144.1 116.6,203.7 484.6,-542.1 889.8,-1108.7 1204.5,-1684.5 170.3,-312.2 204.2,-684.5 92.7,-1021.3 -111.7,-337.9 -350.9,-606 -673.5,-754.9 -383,-176.9 -723.8,-354 -1013.4,-526.8"
        style="fill:#c34b6f;fill-opacity:1;fill-rule:nonzero;stroke:none" id="path158" />
      <path
        d="m 16824.1,25695.3 -5.7,22.8 c 6.8,4.1 13.5,8.2 20.3,12.3 335.9,202.3 702.7,386.8 1037.5,541.4 684.1,315.8 951.9,1146.2 591.1,1807.5 -361.5,661.4 -800.8,1236.1 -1224.4,1707.7 -5.1,5.6 -10.2,11.2 -15.2,16.8 l 15.4,16.8 16.6,-18.6 c 494.4,-550.3 907.3,-1126.3 1227.4,-1711.8 176.3,-323.3 211.3,-708.5 96,-1057.1 -115.7,-350 -363.4,-627.6 -697.5,-781.8 -393.2,-181.6 -741.5,-363.4 -1035.3,-540.3 l -26.2,-15.7"
        style="fill:#ce7333;fill-opacity:1;fill-rule:nonzero;stroke:none" id="path160" />
      <path
        d="m 16818.4,25718.1 -1.7,6.8 c -57.5,231.5 -97.6,466.9 -119.1,699.9 -125.4,1346.7 140.8,2450.7 386.2,3139.7 31.8,89.4 79.7,169.4 142.4,237.7 l 1.5,1.6 c 5,-5.6 10.1,-11.2 15.2,-16.8 423.6,-471.6 862.9,-1046.3 1224.4,-1707.7 360.8,-661.3 93,-1491.7 -591.1,-1807.5 -334.8,-154.6 -701.6,-339.1 -1037.5,-541.4 -6.8,-4.1 -13.5,-8.2 -20.3,-12.3 M 17243,29753 c -50.5,-59.6 -89.7,-128 -116.6,-203.7 -243.9,-684.7 -508.4,-1781.8 -383.8,-3120.4 v 0 c 20.4,-220.7 57.6,-443.7 110.7,-663.4 289.6,172.8 630.4,349.9 1013.4,526.8 322.6,148.9 561.8,417 673.5,754.9 111.5,336.8 77.6,709.1 -92.7,1021.3 -314.7,575.8 -719.9,1142.4 -1204.5,1684.5"
        style="fill:#d25363;fill-opacity:1;fill-rule:nonzero;stroke:none" id="path162" />
      <path
        d="m 15896.3,24779.9 c -25.4,-17.6 -94.1,-11 -93.9,-7.7 l -10.6,3.2 c -6.5,2 -15.2,5 -18.6,6.8 -9,4 -18.2,8.3 -26.7,12.8 -13,8 -28.2,16.8 -38.7,25 l -31.9,25.1 -27,25 c -34.7,33.5 -63.7,67.3 -90.5,101.5 -53.9,68.2 -99,137.8 -141.6,208.1 -84.9,140.5 -156,284.2 -223.4,429 -33.5,72.4 -66.5,145 -96.9,218.2 -31.8,72.9 -61.8,146.2 -90.6,219.9 l -44.1,110.3 -39.9,115.2 c -26.4,77.1 -54.5,153.7 -73,232.7 -174.6,627.2 -194,1277.4 -149.1,1911.9 23.5,318 65.7,633.8 123.6,946.5 29.2,156.3 61.5,312.1 99.1,466.8 18,77.6 37.9,154.7 58.7,231.7 l 15.4,57.9 18,60.5 c 12.1,40.3 26.2,80.5 41,120.5 60,159.6 143.3,318.1 267,456.1 62.3,68.2 134.9,130.8 217.9,180.3 19.6,12.2 43.4,24.6 67.9,36.5 24.7,10.7 49.6,20.8 75.4,28.5 51.5,15.8 104.8,25 158.5,27.2 107.3,5 215.1,-19.7 310.8,-68.1 24,-12 46.8,-26.1 69.3,-40.8 l 32.4,-23.8 c 10.9,-8.2 16.5,-13.2 25,-19.9 31,-25.5 62.8,-50.3 93.2,-76.4 123.5,-102.3 241.7,-209.8 358.2,-319 231.4,-219.9 450.7,-451.9 657.4,-694.7 206.6,-242.8 402.3,-495.5 578.9,-761.4 46.1,-65.1 88,-133.1 131,-200.3 42.5,-67.5 86.6,-134.1 125.9,-203.6 l 121,-206.6 113.3,-211.1 c 38.6,-69.9 73.8,-141.6 107.7,-214 l 51.6,-108.1 c 17.1,-37.7 34.6,-68.1 51.3,-113.4 70.2,-168.1 102.7,-352.4 94.2,-534.3 -13.3,-365.2 -203.6,-714.8 -494.9,-931.2 -35.6,-28.1 -75.5,-50.2 -113.2,-75.1 -39.2,-22.5 -80.3,-41.5 -120.5,-62 l -211.8,-94.8 c -140.5,-63.8 -279.4,-130.8 -416.8,-200.2 -274.6,-138.7 -542.2,-290.1 -794.7,-458.8 -125.4,-85.1 -248.5,-173.6 -360.3,-271.5 -29.1,-23.6 -56.1,-48.8 -82.6,-74.3 -26.4,-25.6 -54.8,-49.9 -78.5,-77.2 l -37.1,-39.9 -18.6,-19.9 -9.3,-10 -13.4,-16.2 c -36.2,-43.7 -75.9,-85.4 -115.5,-122.9 z m -113.9,245.9 c 8,24.4 16,44.6 27.5,62.8 l 4.6,7 10.3,11.7 20.6,23.7 41.4,47.1 c 27,32.4 57.2,60.1 86.1,89.7 29,29.6 58.4,58.5 89.2,85.2 120.4,111.6 249,209.6 379.5,303.8 261.7,187.4 537.5,347.7 817.3,497.4 140.2,74.6 281.5,146.4 424.2,214.8 l 214.2,101.3 c 28.9,16 58.9,29.8 87.2,46.6 26.8,19.1 56,34.6 81.2,55.7 207.7,159.3 342.4,414 347.4,675.9 4,130.4 -20.9,260.7 -72.7,380.3 -9.9,28.3 -31.1,66.1 -46.8,99.4 l -50.9,102.8 c -33.7,68.5 -66.7,137.5 -104.2,204.2 l -108.7,202 -116.4,197.7 c -37.6,66.6 -80.2,130.2 -121.1,194.9 -41.3,64.4 -81.5,129.5 -125.9,191.9 -343.1,506.7 -737.1,980.8 -1177,1406.6 -110.4,105.7 -222.6,209.9 -338.8,308.2 -28.7,25.2 -58.3,48.7 -87.4,73.2 -6.7,5.4 -15.8,13.4 -20.6,16.8 l -14.6,11.2 c -10.4,6.6 -20.6,13.4 -31.5,18.9 -43.4,22.4 -92.8,34.9 -141.8,32.9 -24.5,-0.8 -48.7,-4.7 -72.1,-11.5 -11.8,-3.2 -23,-7.9 -34.3,-12.4 -10.6,-5.3 -21.8,-10.4 -35.4,-18.7 -51.6,-30 -99.5,-69.9 -143.1,-116.4 -86.5,-94.3 -154.8,-215.5 -205.7,-347.5 -12.6,-33.1 -24.9,-66.7 -35.5,-101.1 l -16,-51.6 -15.3,-55.3 c -20.8,-73.7 -40.7,-147.7 -58.9,-222.2 -37.7,-148.7 -70.5,-298.8 -100.3,-449.5 -59.1,-301.3 -102.9,-605.7 -128.7,-911 -50,-609 -36,-1228.9 120.1,-1810.9 16.2,-73.7 41.5,-144.1 65,-215.2 l 35.5,-106.8 41.8,-107.9 c 27.4,-72.2 55.9,-143.8 85.8,-214.5 28.8,-71.5 59.8,-141.5 91.1,-211.3 63,-139.1 129.5,-276.8 205.1,-404.6 37.7,-63.8 77.4,-125.9 119.9,-180.8 21,-27.6 43,-53.2 64.3,-74.2 l 15.7,-15.3 14.1,-11.2 c 4.7,-4 6.9,-4.4 10.2,-7.2 h -0.4 c 0.9,-0.6 -2.9,1.3 -4.9,1.7 l -3.6,0.9 c 2.5,2.5 -63.8,8.9 -86.7,-9.2"
        style="fill:#1e1b24;fill-opacity:1;fill-rule:nonzero;stroke:none" id="path164" />
      <path
        d="m 28573.1,25671.7 c -461.1,-1374.1 -1400.3,-2058 -1400.3,-2058 l -79.7,-16.5 c -131.1,326.9 -430.5,688.5 -783.7,1034.5 -280.6,273.8 -595.5,537.5 -886,764.6 -593.7,464 -664.3,1333.7 -161.6,1894.8 503.2,561.1 1062.5,1020 1582.8,1382 394.8,274.4 767.7,493.2 1075.5,658.4 423.2,226.8 941,-46.9 994.3,-524 83.1,-740.3 85.2,-1865.2 -341.3,-3135.8"
        style="fill:#ff6c6c;fill-opacity:1;fill-rule:nonzero;stroke:none" id="path166" />
      <path
        d="m 26303.2,24669.3 c -242.6,234.7 -533.8,485.1 -865.9,744.8 -279.9,218.8 -451.4,534.5 -482.8,889.1 -31.3,353.3 86.8,707.9 324.1,972.8 438.1,488.5 962.2,947.3 1558.1,1364.1 35.6,-69.6 58,-145.2 66.8,-225 80.8,-722.2 87.2,-1850.6 -340.7,-3125.4 v 0 c -70.2,-209.8 -157.5,-418.4 -259.6,-620.4"
        style="fill:#c34b6f;fill-opacity:1;fill-rule:nonzero;stroke:none" id="path168" />
      <path
        d="m 26315.5,24594.2 -21.8,21.4 c -245.8,239.7 -543.3,496.4 -884.2,762.9 -289.9,226.5 -467.4,553.5 -500,920.7 -32.4,365.7 89.8,732.8 335.4,1007 445.6,496.7 979.5,962.8 1586.8,1385.5 l 20.4,14.2 11.1,-19.9 c -6.2,-4.3 -12.4,-8.6 -18.6,-12.9 -520.3,-362 -1079.6,-820.9 -1582.8,-1382 -502.7,-561.1 -432.1,-1430.8 161.6,-1894.8 290.5,-227.1 605.4,-490.8 886,-764.6 5.6,-5.5 11.3,-11 16.9,-16.5 l -10.8,-21"
        style="fill:#ce7333;fill-opacity:1;fill-rule:nonzero;stroke:none" id="path170" />
      <path
        d="m 26326.3,24615.2 c -5.6,5.5 -11.3,11 -16.9,16.5 -280.6,273.8 -595.5,537.5 -886,764.6 -593.7,464 -664.3,1333.7 -161.6,1894.8 503.2,561.1 1062.5,1020 1582.8,1382 6.2,4.3 12.4,8.6 18.6,12.9 l 1.1,-1.8 c 45.4,-80.9 73.7,-169.8 84.1,-264.1 81.2,-726.7 87.7,-1862.2 -342.7,-3144.7 v 0 c -74.1,-221.4 -167,-441.4 -276.2,-654 l -3.2,-6.2 m 510.4,4024.9 c -595.9,-416.8 -1120,-875.6 -1558.1,-1364.1 -237.3,-264.9 -355.4,-619.5 -324.1,-972.8 31.4,-354.6 202.9,-670.3 482.8,-889.1 332.1,-259.7 623.3,-510.1 865.9,-744.8 102.1,202 189.4,410.6 259.6,620.4 v 0 c 427.9,1274.8 421.5,2403.2 340.7,3125.4 -8.8,79.8 -31.2,155.4 -66.8,225"
        style="fill:#d25363;fill-opacity:1;fill-rule:nonzero;stroke:none" id="path172" />
      <path
        d="m 27176.4,23704.1 c -18.2,22.8 -84.2,31.8 -82.4,28.7 h -3.7 c -2,0.1 -6.1,-0.9 -5.1,-0.5 h -0.4 c 3.8,2.1 6.1,1.9 11.6,4.7 l 16.3,7.7 18.8,11.3 c 25.5,15.5 52.8,35.5 79.6,57.5 53.9,43.7 106.7,95.1 158,148.5 102.9,107.2 199.1,226 292.3,347 46.5,60.7 92.7,121.8 137,184.8 45.4,62 89.5,125.2 132.7,189.2 l 65.4,95.5 59,95.7 c 39.1,63.9 79.9,126.6 112.6,194.6 285.1,530.9 440.6,1131.2 531.5,1735.4 44.7,303 71.7,609.4 83.2,916.3 5.5,153.4 7.9,307.1 5.2,460.5 -0.6,76.7 -3,153.3 -6.4,229.7 l -2.3,57.4 -3.7,53.9 c -2.5,36 -6.8,71.4 -11.5,106.5 -19.3,140.2 -58,273.8 -120.7,385.4 -31.8,55.2 -69.2,105 -112.6,146 -11.3,11.3 -21,18.8 -30.1,26.4 -10.1,6.9 -19.9,14.1 -30.6,19.9 -21.2,12 -44,21.3 -67.6,27.7 -47.2,13.1 -98.1,12.3 -145.5,0.4 -11.9,-2.9 -23.4,-7.2 -35,-11.2 l -16.8,-7.5 c -5.4,-2.3 -16.1,-7.9 -23.9,-11.7 -34,-17.1 -68.2,-33.2 -101.8,-51.2 -135.7,-69.1 -268.7,-144.8 -400.4,-222.5 -525.7,-313.8 -1017.7,-685.1 -1467.7,-1099.8 -57.5,-50.5 -111.6,-104.7 -166.5,-158 -54.7,-53.5 -110.6,-105.7 -162.6,-161.9 l -158.5,-165.9 -152.1,-171.7 c -51.7,-56.3 -99.6,-115.9 -148.2,-175 l -73,-88.4 c -22.9,-28.7 -52.2,-60.7 -68.3,-86 -77.8,-104.5 -131.9,-225.7 -157.8,-353.5 -55.2,-256.1 17.7,-534.9 183.4,-737.5 19.7,-26.3 44.6,-48.2 66.3,-72.8 23.7,-22.8 49.7,-43.2 74.2,-65.3 l 185.3,-147.7 c 123.3,-99.3 244.4,-201.5 363.7,-306.2 238.1,-209.8 469.9,-429 681.8,-671.3 105.5,-121.5 208.2,-246.4 299.8,-382.6 23.9,-33 46,-67.9 67.4,-103.3 21.4,-35.5 44.4,-69.3 63.2,-107.1 l 29.6,-55.4 14.7,-27.7 7.3,-13.8 2.8,-7.8 c 7.1,-20.4 10.2,-41.9 12.5,-67.4 z m -167.2,-213.4 c -30,45.6 -59.1,95.3 -84.3,146.1 l -9.3,18.9 -6.8,11.8 -13.6,23.7 -27,47.3 c -16.8,32 -38.9,62.2 -58.7,93.1 -19.9,30.9 -40.5,61.6 -63.4,91.2 -86.4,120.9 -186,235.3 -288.6,346.8 -207.1,222.1 -432.9,430.7 -668.6,628.6 -117.8,99 -237.7,196 -359.9,290.3 l -184.4,140.8 c -34.4,29.1 -70.1,57 -103.1,87.9 -31,32.9 -64.8,63.5 -93,99 -234,277.3 -339.2,661.2 -268.6,1019.7 33.4,179.1 107.2,351 214,498.6 26.7,40.3 50.7,65.9 75.9,98.7 l 75,93.4 c 49.5,62.7 100.2,124.4 153.9,183.6 l 158.5,179.6 165.1,173.4 c 54.2,58.7 112.3,113.4 169.2,169.3 57.2,55.7 113.6,112.2 173.3,165.1 232.9,218.4 481.2,419.5 737.9,608.6 256.8,189.1 523.3,364.8 799,525.8 138.4,79.6 278,157.2 421.7,228.5 35.5,18.4 72.2,35.3 108.2,53 9.9,4.6 16.4,8.2 28.9,13.7 l 37,15.8 c 25.2,9.1 50.7,17.6 76.8,23.8 104.2,25.2 214.8,24.6 318.2,-4.9 51.6,-14.4 101.5,-35.6 148,-62.7 23.3,-13.4 45.3,-29 66.8,-45.1 21.2,-17.1 41.5,-34.6 57.8,-51 69.5,-67.3 125.8,-144.8 170.8,-225.4 88.9,-162.6 133.7,-336.1 155.6,-505.1 5.2,-42.3 9.7,-84.7 12.3,-126.7 l 3.7,-63.1 1.7,-59.8 c 2.6,-79.7 4.3,-159.4 4.1,-239 1.2,-159.2 -3,-318.2 -10.4,-477.1 -15.2,-317.7 -46.5,-634.7 -96.4,-949.7 -101.5,-627.9 -269.2,-1256.3 -582.8,-1827 -36.1,-72.6 -81,-140.8 -124.3,-209.7 l -65.3,-103 -68.1,-97.3 c -44.9,-65.1 -91,-129.6 -138.6,-193.3 -46.3,-64.4 -95,-127.5 -144.2,-190.3 -98.9,-125.5 -200.9,-249.1 -315.8,-366.5 -57.5,-58.6 -117.4,-116 -185.5,-170.1 -33.8,-27.1 -69.8,-53.4 -111.3,-78.1 l -31.9,-18.2 -36.8,-17 c -12.2,-5.6 -29,-10.8 -43.4,-15.5 -9.3,-2.4 -19.3,-4.5 -29,-6.4 -3.7,-0.9 -12.8,-1.8 -19.7,-2.4 l -10.9,-0.6 c -0.6,-3.3 -69.1,6 -89.7,28.9"
        style="fill:#1e1b24;fill-opacity:1;fill-rule:nonzero;stroke:none" id="path174" />
      <path
        d="m 23286.1,14132.9 c -50.2,0 -101,3.7 -151,11 -547,79.9 -930.8,567.4 -882.5,1115.2 l -4627.8,676.1 c -97,-483.3 -520.2,-831.8 -1014.4,-831.8 -50.2,0 -101.1,3.7 -151.1,11.1 -565.4,82.6 -958.3,609.8 -875.7,1175.3 45.6,312.2 226.1,580.8 496.8,741.3 -213.4,231.3 -309.5,540.3 -263.9,852.4 73.9,505.5 514.2,886.7 1024.3,886.7 50.2,0 101,-3.7 151,-11 549.5,-80.3 933,-569.8 882,-1119.9 l 4627.4,-676.1 c 95.1,486 518.7,836.5 1015.3,836.5 50.2,0 101,-3.8 151.1,-11.1 565.4,-82.6 958.2,-609.8 875.7,-1175.3 -45.7,-312.2 -226.2,-580.8 -496.8,-741.3 213.5,-231.3 309.5,-540.3 263.9,-852.5 -73.9,-505.4 -514.2,-886.6 -1024.2,-886.6 h -0.1"
        style="fill:#ffffff;fill-opacity:1;fill-rule:nonzero;stroke:none" id="path176" />
      <path
        d="m 16840.8,18792.8 c -521.2,0 -971.2,-389.5 -1046.6,-906 -45.3,-309.9 46,-616.7 251.2,-850.6 -263.6,-165.4 -438.8,-433.3 -484.1,-743.2 -84.4,-577.7 316.9,-1116.5 894.7,-1200.9 51.1,-7.5 103.1,-11.2 154.4,-11.2 497.9,0 925.1,346 1032.1,828.9 l 4586,-670 c -37.7,-551.1 351.5,-1037.6 903.3,-1118.3 51.1,-7.4 103.1,-11.2 154.3,-11.2 521.2,0 971.2,389.5 1046.6,906 45.3,309.8 -46,616.7 -251.2,850.6 263.5,165.4 438.8,433.2 484.1,743.1 84.4,577.8 -317,1116.6 -894.7,1201 -51.2,7.5 -103.1,11.2 -154.3,11.2 -500.3,0 -928,-348 -1033.2,-833.6 l -4585.4,670 c 40.4,553.3 -348.6,1042 -902.9,1123 -51.1,7.4 -103.1,11.2 -154.3,11.2 m 0,-45.1 c 48.7,0 98.1,-3.6 147.8,-10.8 542.9,-79.4 921.9,-575.5 860.5,-1116.8 l 4670.3,-682.4 c 85.4,489.7 511.4,839.4 997.2,839.4 48.7,0 98,-3.6 147.7,-10.8 554,-81 937.5,-595.7 856.6,-1149.7 -47.5,-324.9 -244.2,-591 -510.5,-739.3 212.7,-218.3 325.1,-529.6 277.6,-854.5 -73.6,-504.3 -506.8,-867.4 -1001.9,-867.4 -48.7,0 -98.1,3.6 -147.8,10.8 -541.4,79.1 -919.7,572.6 -861.1,1112.1 l -4670.6,682.4 c -87.3,-487.2 -512,-834.7 -996.2,-834.7 -48.8,0 -98.2,3.6 -147.8,10.8 -554.1,81 -937.5,595.7 -856.6,1149.7 47.5,324.9 244.2,591 510.5,739.3 -212.7,218.3 -325.1,529.6 -277.6,854.5 73.7,504.3 506.8,867.4 1001.9,867.4"
        style="fill:#1e1b24;fill-opacity:1;fill-rule:nonzero;stroke:none" id="path178" />
      <path
        d="m 17606.4,16118.8 c 7.7,0 15.4,-0.5 23.1,-1.7 l 4670.6,-682.4 c 84.1,-12.3 143.5,-88.9 134.3,-173.5 -50,-459.4 269.3,-871.7 726.8,-938.5 466.6,-68.2 902.2,256.1 970.4,723 38.8,265.6 -46.7,528.5 -234.5,721.2 -34.4,35.3 -50.3,84.5 -43.2,133.2 7.1,48.7 36.5,91.3 79.5,115.3 235.1,130.9 392.2,358.4 431.1,624.1 68.1,466.8 -256.2,902.1 -723,970.3 -461.6,67.4 -886.2,-239.7 -966.3,-699.2 -14.7,-84.4 -94.3,-141.6 -178.6,-129.3 l -4670.4,682.3 c -84.4,12.4 -143.8,89.5 -134.2,174.3 52.3,461.4 -266.7,875.3 -726.3,942.5 -467.1,68.3 -902.2,-256.1 -970.4,-723 -38.8,-265.6 46.6,-528.5 234.4,-721.3 34.4,-35.2 50.4,-84.4 43.3,-133.1 -7.2,-48.7 -36.6,-91.3 -79.5,-115.3 -235.1,-131 -392.2,-358.4 -431,-624 -68.3,-466.9 256.1,-902.2 722.9,-970.4 459.4,-67.3 883.7,238.2 965.6,695.3 13.7,76.3 80.1,130.2 155.4,130.2 m 5679.3,-2121.4 c -56.3,0 -113,4 -170.2,12.4 -575.4,84 -991.1,567 -1002.3,1132.7 l -4387.6,641 c -170.9,-541.8 -707.7,-887.6 -1285.9,-803.1 -639.4,93.4 -1083.5,689.6 -990.1,1329 44,301.1 198.8,566.4 433.5,750.5 -172.2,243.6 -244.7,542.1 -200.7,843.2 93.4,639.4 689.4,1083.7 1329,990.2 578,-84.4 993.7,-569.5 1002.3,-1137.5 l 4386.2,-640.8 c 169,544.8 706.9,892.5 1287.3,807.7 639.3,-93.4 1083.5,-689.6 990.1,-1329 -44,-301.2 -198.9,-566.4 -433.5,-750.5 172.1,-243.6 244.7,-542.1 200.7,-843.2 -85.1,-582.2 -587.1,-1002.6 -1158.8,-1002.6"
        style="fill:#1e1b24;fill-opacity:1;fill-rule:nonzero;stroke:none" id="path180" />
      <path
        d="m 23285.3,14313.6 c -40.9,0 -82.4,3 -124.1,9.1 -457.5,66.8 -776.8,479.1 -726.8,938.5 9.2,84.6 -50.2,161.2 -134.3,173.5 l -4670.6,682.4 c -7.7,1.2 -15.4,1.7 -23.1,1.7 -75.3,0 -141.7,-53.9 -155.4,-130.2 -74.3,-414.7 -430.4,-704.6 -838.9,-704.6 -41.8,0 -84.1,3 -126.7,9.3 -466.8,68.2 -791.2,503.5 -722.9,970.4 38.8,265.6 195.9,493 431,624 36.4,20.3 63.1,54.1 74.7,93.5 16.4,-214.7 -33.8,-494.7 -67.4,-631.6 v 0 c 50.4,-332.5 234.3,-483.8 446.3,-483.8 188,0 397.9,119 556.1,336.2 90.5,63 204,336.9 441,336.9 14.2,0 28.8,-1 43.8,-3.1 l 4772.1,-641.6 c 98,-13.2 179,-82.9 208.1,-177.5 70.7,-229.2 176.9,-364.8 276,-444.9 77,-62.3 172.7,-94.6 267.9,-94.6 84.8,0 169.2,25.6 239.7,78.5 184.9,138.9 154.3,373.2 89.2,556.1 -48.9,137.7 9.9,288.6 138.4,358.1 455.4,246.6 532.2,837.9 544.3,1076 117.3,-171.3 173,-385.3 140.8,-606.4 -38.9,-265.7 -196,-493.2 -431.1,-624.1 -43,-24 -72.4,-66.6 -79.5,-115.3 -7.1,-48.7 8.8,-97.9 43.2,-133.2 187.8,-192.7 273.3,-455.6 234.5,-721.2 -62.1,-425.2 -428.8,-732.1 -846.3,-732.1 m -7040.5,2804.6 c -4.5,6.3 -9.6,12.3 -15.1,17.9 -38,39.1 -71.8,80.9 -101.2,125.1 l 15,-6.4 c 49.3,-21.3 81.5,-70.7 101.3,-136.6"
        style="fill:#c3b2d5;fill-opacity:1;fill-rule:nonzero;stroke:none" id="path182" />
      <path
        d="m 23140.7,14174.6 -370.5,121.2 -417.4,475 -78.1,556.9 -4592.6,622 -144.3,-215.7 -438.3,-481 -425.9,-124.8 -500.4,96.2 -461.8,445 -116.2,471.5 200.6,604.3 299,530.6 33.7,-14.6 c 29.4,-44.2 63.2,-86 101.2,-125.1 5.5,-5.6 10.6,-11.6 15.1,-17.9 12.1,-40.3 19.6,-86.9 23.4,-137 -11.6,-39.4 -38.3,-73.2 -74.7,-93.5 -235.1,-131 -392.2,-358.4 -431,-624 -68.3,-466.9 256.1,-902.2 722.9,-970.4 42.6,-6.3 84.9,-9.3 126.7,-9.3 408.5,0 764.6,289.9 838.9,704.6 13.7,76.3 80.1,130.2 155.4,130.2 7.7,0 15.4,-0.5 23.1,-1.7 l 4670.6,-682.4 c 84.1,-12.3 143.5,-88.9 134.3,-173.5 -50,-459.4 269.3,-871.7 726.8,-938.5 41.7,-6.1 83.2,-9.1 124.1,-9.1 417.5,0 784.2,306.9 846.3,732.1 38.8,265.6 -46.7,528.5 -234.5,721.2 -34.4,35.3 -50.3,84.5 -43.2,133.2 7.1,48.7 36.5,91.3 79.5,115.3 235.1,130.9 392.2,358.4 431.1,624.1 32.2,221.1 -23.5,435.1 -140.8,606.4 3.3,63.6 1.9,101.9 1.9,101.9 632.9,-842.6 15,-1295.2 15,-1295.2 l -199,-209.3 185.1,-159.3 68.3,-426.9 -1.3,-216.5 -365.6,-621.4 -310.4,-233.2 -477,-11.4"
        style="fill:#1e1b24;fill-opacity:1;fill-rule:nonzero;stroke:none" id="path184" />
      <path
        d="m 18347.7,17930.9 c 130.3,-616.7 556.2,-1118.7 1089.6,-1103.3 608.9,17.6 804.6,480.9 856.8,655.2 l 12,-1 -8.6,1 11.9,-1.7 c 11,-181.7 95.3,-677.5 684.1,-834 515.7,-137.1 1045.2,254.1 1313.1,824.5 l -254.1,905.1 -2890.5,546.7 -814.3,-992.5"
        style="fill:#ffffff;fill-opacity:1;fill-rule:nonzero;stroke:none" id="path186" />
      <path
        d="m 18373.1,17936.2 c 93.5,-99.1 156.3,-193.3 218.3,-285 31.7,-45.2 58.8,-91.3 88.5,-135.4 13,-23.2 28,-44.9 43.4,-66.1 15.3,-21.2 29.3,-43.6 46.5,-63 128.2,-163.6 289.3,-289.7 464.5,-342.4 43.5,-14.6 88.5,-21.9 133.6,-27 l 68.8,-2.9 74.1,3.8 c 97.5,9.1 190,33.1 272.5,75.4 82.5,42 155.7,102.1 214.7,178.2 58.5,75.7 105.2,166.4 133.8,259.7 l 0.4,1 c 23.8,77.7 98.5,125.8 176.3,119.1 l 12,-1 -33.9,-337 -8.6,0.9 44.1,335.9 11.9,-1.7 c 80.4,-11.8 139.3,-78.4 144.5,-156.3 v -1.2 c 13.1,-197 93,-389.5 233.8,-511.9 69.9,-62.5 154.5,-110.1 248.1,-144.2 l 72.1,-22.2 c 23.5,-5.2 46.2,-8.8 69.3,-13.1 46.4,-4.9 93,-7.1 139.6,-1.4 93,9.7 184.4,38.3 274.4,77.5 90.5,38.3 180.4,88.4 266.8,149.5 86.7,60.7 171.9,129.7 254.7,206.5 82.8,77 161.1,161.8 245.9,250.8 l 0.5,0.5 c 10.3,10.8 27.5,11.3 38.3,0.9 6.6,-6.2 9.3,-15.2 8.1,-23.5 -18.1,-124.2 -59.7,-243.8 -115.1,-358.8 -57.4,-113.7 -132.2,-220.6 -222.7,-316.4 -90.1,-96 -198.8,-179.2 -323.1,-239.8 -124.3,-60.1 -264.6,-95.7 -407.7,-99.7 -71.5,-2.9 -143.4,3.9 -213.8,15.5 -34.7,8 -70.4,14.4 -104.2,23.2 l -97,31.5 c -128.5,46.3 -254,115.5 -360.4,211 -106.4,94.8 -192.4,213.8 -248,342.2 -57,128.6 -88.8,262.9 -97.8,401.6 l 144.5,-157.5 -11.9,1.8 c -92.6,13.6 -156.6,99.6 -143,192.2 13.3,90.8 96.6,154.1 187.1,143.7 l 8.6,-1 c 93,-10.8 159.6,-94.9 148.8,-187.8 -10.6,-91.2 -92,-156.9 -182.7,-149.3 l -12,1 176.7,120.2 c -40.3,-133 -101.1,-257 -185.6,-369.6 -82.1,-113.8 -192.4,-211.5 -317.6,-282.2 -125.1,-71.2 -264.1,-112.8 -401.1,-131.1 l -102.8,-9.6 c -35.5,-1.2 -72.3,0.6 -108.5,1.3 -72.3,5.6 -144.9,16.6 -214.3,37.5 -138.6,41.9 -266.4,110.8 -373.4,198.9 -107.9,87.3 -199,189.6 -270.6,301.4 -72.1,111 -135.7,226.9 -166.6,353.7 -28.5,126.9 -35.7,259.2 6.4,391 5.1,15.7 21.9,24.4 37.6,19.4 4.9,-1.6 9.2,-4.4 12.5,-7.9 l 0.7,-0.8"
        style="fill:#1e1b24;fill-opacity:1;fill-rule:nonzero;stroke:none" id="path188" />
      <path
        d="m 20312.3,17327.6 c -7,0 -14,0.5 -21,1.4 -83.8,11.5 -142.4,88.7 -130.9,172.5 l 119.7,875.3 c 11.4,83.9 88.7,142.5 172.4,131 83.8,-11.5 142.5,-88.7 131,-172.5 l -119.7,-875.3 c -10.5,-76.7 -76.2,-132.4 -151.5,-132.4"
        style="fill:#1e1b24;fill-opacity:1;fill-rule:nonzero;stroke:none" id="path190" />
      <path
        d="m 21524.1,18357.5 c -51.1,-348.1 -617,-741.9 -1230.4,-651.8 -613.5,90.1 -1042.3,629.9 -991.2,977.9 51.1,348 552.7,304.3 1166.2,214.2 613.5,-90 1106.5,-192.3 1055.4,-540.3"
        style="fill:#1e1b24;fill-opacity:1;fill-rule:nonzero;stroke:none" id="path192" />
      <path
        d="m 20908.2,18549.7 c -11.2,-76.3 -242.1,-147 -508.4,-107.9 -266.3,39.1 -467.1,173.1 -455.9,249.5 11.2,76.3 228,51 494.3,11.9 266.3,-39.1 481.2,-77.2 470,-153.5"
        style="fill:#ffffff;fill-opacity:1;fill-rule:nonzero;stroke:none" id="path194" />
      <path
        d="m 20076.4,18720.3 c -63.6,0 -108.7,-8.4 -112.2,-32 -7.9,-54.2 171.8,-187.1 438.6,-226.2 120.1,-17.7 241.5,-14 342.1,10.3 94,22.7 139.6,56.7 143,80.3 9.2,62.4 -291.3,106.5 -452.7,130.3 -100.3,14.7 -254.3,37.3 -358.8,37.3 z m 475.5,-310.2 c -50.9,0 -103.2,3.8 -155.1,11.4 -253.5,37.2 -487.9,172.3 -473.2,272.7 14.1,95.7 223.4,72.5 517.6,29.3 294.2,-43.2 501.3,-81.1 487.3,-176.8 -7,-47.5 -70.4,-89.1 -174,-114.2 -61.7,-14.9 -130.8,-22.4 -202.6,-22.4"
        style="fill:#1e1b24;fill-opacity:1;fill-rule:nonzero;stroke:none" id="path196" />
      <path
        d="m 21182.8,16795 c -27,0 -54,1.9 -81,4.8 -23.1,4.3 -45.8,7.9 -69.3,13.1 l -72.1,22.2 c -93.6,34.1 -178.2,81.7 -248.1,144.2 -140.8,122.4 -220.7,314.9 -233.8,511.9 v 1.2 c -0.8,11.5 -2.7,22.7 -5.7,33.5 l 2,14.6 27.2,-4 c 95.5,-167.7 264,-333.5 561.5,-412.5 109.2,-29.1 236.4,-44.4 365.4,-44.4 215.2,0 435.8,42.4 587.8,133.4 -76.3,-69.2 -154.5,-131.9 -234.1,-187.6 -86.4,-61.1 -176.3,-111.2 -266.8,-149.5 -90,-39.2 -181.4,-67.8 -274.4,-77.5 -19.5,-2.4 -39,-3.4 -58.6,-3.4"
        style="fill:#c3b2d5;fill-opacity:1;fill-rule:nonzero;stroke:none" id="path198" />
      <path
        d="m 21292.3,16607.2 c -98.1,0 -198.6,13.3 -298.8,40 -463.5,123.2 -614.3,456.5 -663,681.5 67.5,8.2 123.6,60.8 133.3,131.3 l 9,65.9 c 3,-10.8 4.9,-22 5.7,-33.5 v -1.2 c 13.1,-197 93,-389.5 233.8,-511.9 69.9,-62.5 154.5,-110.1 248.1,-144.2 l 72.1,-22.2 c 23.5,-5.2 46.2,-8.8 69.3,-13.1 27,-2.9 54,-4.8 81,-4.8 19.6,0 39.1,1 58.6,3.4 93,9.7 184.4,38.3 274.4,77.5 90.5,38.3 180.4,88.4 266.8,149.5 79.6,55.7 157.8,118.4 234.1,187.6 44.1,26.4 82.4,56.8 113.1,91.5 l 48.2,-10.4 c -114.6,-457.3 -478.7,-686.9 -885.7,-686.9"
        style="fill:#1e1b24;fill-opacity:1;fill-rule:nonzero;stroke:none" id="path200" />
      <path
        d="m 19436.7,17014.4 -68.8,2.9 c -45.1,5.1 -90.1,12.4 -133.6,27 -175.2,52.7 -336.3,178.8 -464.5,342.4 -17.2,19.4 -31.2,41.8 -46.5,63 -15.4,21.2 -30.4,42.9 -43.4,66.1 -29.7,44.1 -56.8,90.2 -88.5,135.4 -4.7,6.9 -9.4,13.9 -14.1,20.9 215,-186.5 612.5,-305.9 895.1,-314.5 13,-0.4 25.8,-0.6 38.5,-0.6 287.2,0 484.6,106.6 618.4,234.2 l 30.9,-4.5 c -12.2,-15.8 -21.9,-34 -28,-54.2 l -0.4,-1 c -28.6,-93.3 -75.3,-184 -133.8,-259.7 -59,-76.1 -132.2,-136.2 -214.7,-178.2 -82.5,-42.3 -175,-66.3 -272.5,-75.4 l -74.1,-3.8"
        style="fill:#c3b2d5;fill-opacity:1;fill-rule:nonzero;stroke:none" id="path202" />
      <path
        d="m 19440.4,16880.2 c -12.5,0 -25.2,0.2 -38,0.6 -533.1,16.6 -1049.6,376.8 -1022.2,961.2 l 72.3,-13.1 c 26,-56.2 69.3,-108.7 124.8,-156.8 4.7,-7 9.4,-14 14.1,-20.9 31.7,-45.2 58.8,-91.3 88.5,-135.4 13,-23.2 28,-44.9 43.4,-66.1 15.3,-21.2 29.3,-43.6 46.5,-63 128.2,-163.6 289.3,-289.7 464.5,-342.4 43.5,-14.6 88.5,-21.9 133.6,-27 l 68.8,-2.9 74.1,3.8 c 97.5,9.1 190,33.1 272.5,75.4 82.5,42 155.7,102.1 214.7,178.2 58.5,75.7 105.2,166.4 133.8,259.7 l 0.4,1 c 6.1,20.2 15.8,38.4 28,54.2 l 11.6,-1.7 -11.4,-83.5 c -8.8,-63.7 23.1,-123.7 75.7,-153.8 -107,-196.5 -337.6,-467.5 -795.7,-467.5"
        style="fill:#1e1b24;fill-opacity:1;fill-rule:nonzero;stroke:none" id="path204" />
      <path
        d="m 20330.5,17328.7 c -13.1,60.8 -18.8,113.7 -21.3,152.3 l -11.8,1.8 c -12.9,-35.3 -32.7,-82.5 -61.3,-135.1 -52.6,30.1 -84.5,90.1 -75.7,153.8 l 11.4,83.5 303,-44.5 -2,-14.6 -9,-65.9 c -9.7,-70.5 -65.8,-123.1 -133.3,-131.3"
        style="fill:#1e1b24;fill-opacity:1;fill-rule:nonzero;stroke:none" id="path206" />
      <path
        d="m 18568.6,20744.2 c -182.4,-750.9 -759.2,-1255.3 -1288.5,-1126.8 -529.2,128.6 -810.4,841.5 -628,1592.3 182.4,750.9 759.3,1255.4 1288.5,1126.8 529.2,-128.6 810.4,-841.5 628,-1592.3"
        style="fill:#1e1b24;fill-opacity:1;fill-rule:nonzero;stroke:none" id="path208" />
      <path
        d="m 18196.7,21061.3 c -61.3,-252.1 -240.5,-425 -400.5,-386.2 -159.9,38.9 -239.8,274.8 -178.6,526.9 61.3,252.1 240.5,425 400.4,386.2 159.9,-38.9 239.9,-274.7 178.7,-526.9"
        style="fill:#ffffff;fill-opacity:1;fill-rule:nonzero;stroke:none" id="path210" />
      <path
        d="m 24819.7,20379.2 c -146.2,-24 -295.5,-55 -435.2,-94.7 -140.7,-40 -275.2,-89.8 -402.1,-149.4 -64.4,-28.2 -124,-63.9 -184.9,-96.6 l -86.6,-56.3 c -14.1,-9.7 -29.4,-17.8 -43.1,-28.1 l -40.7,-31.4 c -112.4,-78.9 -206.4,-179.2 -299.5,-281 l -216.7,317.7 c 13.9,4 22.4,5.8 31.8,8 9.6,2.4 18.6,4.3 27.3,5.9 17.7,3.3 35.5,6.7 52.6,8.9 34.8,5.6 69,8.8 103.3,12.2 68.3,6.1 136.6,6.2 204.4,3.6 135.7,-5.7 270.2,-29.3 398.8,-70.4 128.1,-41.6 251.8,-96.7 360.9,-172.6 112.2,-70.1 207.3,-163 291.4,-259.3 25.2,-28.9 22.2,-72.7 -6.7,-97.9 -21.2,-18.6 -50.7,-21.8 -74.7,-10.7 l -7.6,3.6 c -54.6,25.3 -104.1,55.4 -157.1,78.5 -53.5,22.2 -104.2,47 -158.3,63.8 -105.8,38.1 -213.9,63 -321.9,77.6 -107.8,16.2 -216.7,19.4 -324.1,12.8 -53.8,-3 -107,-9.8 -159.5,-17.5 -26,-4.6 -52.1,-8.8 -77,-14.8 -12.9,-2.6 -24.8,-5.9 -36.8,-9 -6.1,-1.5 -12,-2.9 -17.1,-4.5 l -12.3,-3.6 -4.6,-1.4 c -106.3,-31.2 -217.8,29.6 -249,135.9 -19.2,65.4 -2.8,133.8 36.9,183.2 109,133.8 227.8,264.1 372.1,362.6 68,54.9 146.5,93.5 221.1,137.3 78.9,35.4 156.4,73.8 238.9,97.8 162.4,53.9 330.6,84.2 497.7,89.3 168,4 331.6,-11.4 495.2,-63 36.8,-11.5 57.2,-50.7 45.6,-87.5 -8.2,-25.9 -30.1,-43.7 -55.2,-47.9 l -7.3,-1.1"
        style="fill:#1e1b24;fill-opacity:1;fill-rule:nonzero;stroke:none" id="path212" />
    </g>
  </g>
</svg>