<?xml version="1.0" encoding="UTF-8" standalone="no"?>
<svg xmlns:dc="http://purl.org/dc/elements/1.1/" xmlns:cc="http://creativecommons.org/ns#"
  xmlns:rdf="http://www.w3.org/1999/02/22-rdf-syntax-ns#" xmlns:svg="http://www.w3.org/2000/svg"
  xmlns="http://www.w3.org/2000/svg" xmlns:sodipodi="http://sodipodi.sourceforge.net/DTD/sodipodi-0.dtd"
  xmlns:inkscape="http://www.inkscape.org/namespaces/inkscape" version="1.1" id="svg2" xml:space="preserve"
  width="5333.3335" height="5333.3335" viewBox="0 0 5333.3335 5333.3335" sodipodi:docname="1-12.eps">
  <metadata id="metadata8">
    <rdf:RDF>
      <cc:Work rdf:about="">
        <dc:format>image/svg+xml</dc:format>
        <dc:type rdf:resource="http://purl.org/dc/dcmitype/StillImage" />
      </cc:Work>
    </rdf:RDF>
  </metadata>
  <defs id="defs6" />
  <sodipodi:namedview pagecolor="#ffffff" bordercolor="#666666" borderopacity="1" objecttolerance="10"
    gridtolerance="10" guidetolerance="10" inkscape:pageopacity="0" inkscape:pageshadow="2" inkscape:window-width="640"
    inkscape:window-height="480" id="namedview4" />
  <g id="g10" inkscape:groupmode="layer" inkscape:label="ink_ext_XXXXXX"
    transform="matrix(1.3333333,0,0,-1.3333333,0,5333.3333)">
    <g id="g12" transform="scale(0.1)">
      <path
        d="m 17402.3,10630.9 c 0,0 -4325.5,-2403.9 -6659.6,-236.9 -3451.74,3204.8 -121.3,7839.4 1176.3,7944.2 652.1,52.6 651.7,-1499.9 1044.8,-3052.5 461,-1820.6 1463.3,-3641.3 4694.1,-2873.2 l -255.6,-1781.6"
        style="fill:#f99b28;fill-opacity:1;fill-rule:nonzero;stroke:none" id="path16" />
      <path
        d="m 13172.8,13479.9 c -225.3,430.4 -383.1,907.1 -503.8,1383.9 -386.6,1526.7 -392.7,3053.7 -1013.1,3053.7 -10.4,0 -21,-0.5 -31.8,-1.3 -148.7,-12.1 -324,-83.5 -512.7,-205.4 0,0.1 0.1,0.2 0.2,0.4 316.9,292.6 611.9,461.9 819.3,478.6 5.6,0.5 11,0.7 16.4,0.7 313,0 445.1,-740.9 597.7,-1596.5 150.8,-845.7 337,-1890.2 792.5,-2760.8 -60.6,-114.3 -116,-232.1 -164.7,-353.3"
        style="fill:#fccd94;fill-opacity:1;fill-rule:nonzero;stroke:none" id="path18" />
      <path
        d="m 17502.9,11333 -100.7,-702 c 0,0 -4325.5,-2404.2 -6659.5,-237.1 -3019.78,2803.8 -848.4,6702.3 610.9,7704 -1113.4,-1642.4 -1822.93,-4411 475.9,-6545.3 1638.1,-1521.1 4257.2,-790.4 5673.4,-219.6"
        style="fill:#ffffff;fill-opacity:1;fill-rule:nonzero;stroke:none" id="path20" />
      <path
        d="m 13470.3,10734.2 c -483.6,97.1 -948,282.4 -1363.1,588.3 373.5,-168.5 771.4,-264.9 1176.9,-307.5 56.6,-104.4 118.9,-197.7 186.2,-280.8"
        style="fill:#c9743b;fill-opacity:1;fill-rule:nonzero;stroke:none" id="path22" />
      <path
        d="m 13376.5,9760 c -354.8,461.6 -744.3,731.5 -1136.5,784.7 -49.3,6.7 -98.4,10.1 -147.3,10.1 -291.7,0 -576.9,-118.8 -849.4,-354.4 -2.1,-1.8 -4.3,-3.7 -6.4,-5.5 -136.5,89.7 -267.8,192 -392.9,308.1 -1895.5,1759.9 -1549.11,3837.3 -1173.97,4918.9 23.1,66.6 47.18,132.3 72.18,197.1 -100.43,-1242.3 264.99,-2576.1 1503.19,-3725.6 264.8,-245.7 555.1,-432.6 861.8,-570.9 415.1,-305.9 879.5,-491.2 1363.1,-588.3 137.2,-169.4 294.7,-296.6 464.6,-388.2 -218.4,-175.1 -416.1,-380 -558.4,-586"
        style="fill:#cdbfdc;fill-opacity:1;fill-rule:nonzero;stroke:none" id="path24" />
      <path
        d="m 17402.2,10630.9 h 0.5 -0.5 m -5454.9,7559.6 c -5.4,0 -10.8,-0.2 -16.4,-0.7 -545.6,-44 -1697.6,-1144.2 -2260.87,-2767.9 -375.14,-1081.6 -721.53,-3159 1173.97,-4918.9 2076.3,-1927.7 5880.6,-57.9 6421.7,223.8 l 214.2,1493.4 c -1260.9,-263.2 -2288.1,-142 -3055.3,361.2 -1318.2,864.5 -1642.7,2684.1 -1879.6,4012.6 -152.6,855.6 -284.7,1596.5 -597.7,1596.5 m 1369.4,-8848.7 c -1092.5,0 -2001.1,317.2 -2675.2,943.1 -2019.38,1874.9 -1651.6,4084.4 -1252.68,5234.6 581.26,1675.6 1793.58,2908.5 2518.18,2967 593.7,47.7 742.9,-785.3 931,-1840.2 240.1,-1346.3 538.9,-3021.8 1749.9,-3816 738.6,-484.5 1760,-576.3 3035.5,-273.1 47.9,11.4 98.4,-1.6 134.8,-34.9 36.4,-33.2 54,-82.2 47,-131 l -255.6,-1781.5 c -6.6,-46.1 -34.4,-86.4 -75,-109 -45,-24.9 -1115,-614.6 -2492.1,-945.7 -592.6,-142.5 -1149.8,-213.3 -1665.8,-213.3"
        style="fill:#1e1b24;fill-opacity:1;fill-rule:nonzero;stroke:none" id="path26" />
      <path
        d="m 11917.8,14284.7 c -49.5,0 -106.6,7 -172,21.9 -620.9,141.3 -690.8,1404.2 -645.4,1664.4 69.9,400.3 250.2,506.2 411.2,506.2 89.9,0 173.9,-33 229.2,-66.2 191.7,-115.2 209.4,-772.2 401.1,-1448.6 97.8,-345 117.8,-677.7 -224.1,-677.7"
        style="fill:#fbc37e;fill-opacity:1;fill-rule:nonzero;stroke:none" id="path28" />
      <path
        d="m 24153.8,28119.5 c -26.2,11 -52.1,21.7 -77.9,32.2 865.8,982.2 2570.2,2620 4688.7,3150.4 -2113.3,-583.3 -3784.8,-2229 -4610.8,-3182.6"
        style="fill:#eeb2fe;fill-opacity:1;fill-rule:nonzero;stroke:none" id="path30" />
      <path
        d="m 24075.9,28151.7 c -17.4,7 -34.6,13.9 -51.8,20.7 925.9,1053.1 2825.5,2874.4 5172.8,3274.5 55.3,9.4 109.6,14 162.6,14 50.4,0 99.8,-4.2 148,-12.6 -48.6,-0.5 -98.5,-5 -149.7,-13.7 -201.2,-34.3 -399.2,-79 -593.2,-132.5 -2118.5,-530.4 -3822.9,-2168.2 -4688.7,-3150.4"
        style="fill:#b265d5;fill-opacity:1;fill-rule:nonzero;stroke:none" id="path32" />
      <path
        d="m 27522.5,24711.3 c -168.3,568.4 -832.8,1289 -1402.1,1826.6 -513.8,485.2 -503.8,1303.8 15.2,1783.5 913.5,844.3 1960.5,1378.6 2661.2,1673.6 415.2,174.8 875,-126.4 883.2,-576.8 12.8,-698.2 -83.6,-1749.4 -593,-2899 -551.1,-1243.4 -1488.4,-1799.9 -1488.4,-1799.9 l -76.1,-8"
        style="fill:#ff6c6c;fill-opacity:1;fill-rule:nonzero;stroke:none" id="path34" />
      <path
        d="m 27612,24696.7 -26.9,45.3 c 9.3,5.5 936.8,567.2 1477.8,1787.9 510.9,1152.9 603.3,2206.8 590.8,2887.8 -3.7,203.4 -107.7,391.1 -278.2,502 -172.2,112.1 -379.5,130.7 -568.6,51 -710.5,-299.1 -1747.6,-831.5 -2653.4,-1668.6 -243.8,-225.4 -384.7,-544.7 -386.5,-875.9 -1.8,-332.5 130.1,-641.3 371.5,-869.2 547.7,-517.3 1236.9,-1256.1 1409.3,-1838.3 l -50.5,-14.9 c -169.1,570.9 -851.9,1302.1 -1394.9,1814.9 -252.2,238.1 -389.9,560.5 -388.1,907.8 1.9,345.8 148.9,679 403.5,914.2 911.4,842.4 1954.3,1377.8 2668.7,1678.6 202.6,85.3 433.5,64.5 617.8,-55.4 185.1,-120.5 298,-324.3 302.1,-545.2 12.6,-686.4 -80.5,-1748.4 -595.4,-2910.1 -548.1,-1236.8 -1489.5,-1806.3 -1499,-1811.9"
        style="fill:#1e1b24;fill-opacity:1;fill-rule:nonzero;stroke:none" id="path36" />
      <path
        d="m 27194.9,26329.8 c -95,-215 -202.1,-409 -313.6,-583.8 -238.2,280.2 -509.2,554 -760.7,791.6 -513.9,485.4 -503.8,1303.8 14.8,1784.1 519.2,480 1081.7,859.7 1599.4,1152.3 33,-74.3 52.2,-157.2 53.6,-245.7 12.5,-698 -84,-1749 -593.5,-2898.5"
        style="fill:#ff6c6c;fill-opacity:1;fill-rule:nonzero;stroke:none" id="path38" />
      <path
        d="m 27721.9,29436.4 c -590.6,-336.2 -1118.3,-717.7 -1568.6,-1134.1 -243.8,-225.8 -384.6,-545.3 -386.2,-876.7 -1.6,-332.5 130.3,-641 371.6,-868.8 285.6,-269.8 534.2,-527.6 739.4,-766.6 111.4,177.6 209.7,362.5 292.8,550.3 v 0 c 510.8,1152.3 603.4,2206.1 591.2,2887.3 -1.2,72.7 -14.7,142.7 -40.2,208.6 m -837.6,-3734.7 -23.1,27.2 c -208.3,245.1 -463.6,510.8 -758.6,789.6 -252.1,237.9 -389.9,560.2 -388.2,907.4 1.7,345.9 148.6,679.4 403.1,915.1 459.9,425.2 999.7,814.2 1604.3,1156 l 25.3,14.3 11.7,-26.6 c 35.7,-80.1 54.5,-166.3 56,-256 12.3,-686.4 -81.1,-1748.5 -595.8,-2909.6 -88.8,-200.7 -194.9,-398.3 -315.5,-587.3 l -19.2,-30.1"
        style="fill:#1e1b24;fill-opacity:1;fill-rule:nonzero;stroke:none" id="path40" />
      <path
        d="m 20933.7,28673.1 c -452.2,1174.4 -1468.4,3296.1 -3263.1,4563.7 1817,-1219.2 2866.8,-3343.7 3347.2,-4559.4 -27.7,-1.3 -55.8,-2.7 -84.1,-4.3"
        style="fill:#eeb2fe;fill-opacity:1;fill-rule:nonzero;stroke:none" id="path42" />
      <path
        d="m 21017.8,28677.4 c -480.4,1215.7 -1530.2,3340.2 -3347.2,4559.4 -164.9,116.4 -336.2,225.6 -514.5,326.3 -45.2,25.5 -90.7,46.7 -136.3,63.6 98.9,-17.2 196.4,-52.7 291.8,-106.5 2077.6,-1173.6 3248.9,-3537.9 3761.8,-4840.5 -18.4,-0.7 -36.9,-1.5 -55.6,-2.3"
        style="fill:#b265d5;fill-opacity:1;fill-rule:nonzero;stroke:none" id="path44" />
      <path
        d="m 16606.6,26615.5 c 350.9,477.8 1220.1,930.9 1937.8,1244 647.8,282.6 915.5,1056.2 589.5,1683.3 -573.6,1103.7 -1377.8,1961 -1937.2,2475.8 -331.5,305.1 -866.2,177.3 -1026.5,-243.7 -248.4,-652.6 -513.6,-1674.4 -423.4,-2928.5 97.4,-1356.6 791,-2197.6 791,-2197.6 l 68.8,-33.3"
        style="fill:#ff6c6c;fill-opacity:1;fill-rule:nonzero;stroke:none" id="path46" />
      <path
        d="m 16627.9,26599.9 -42.5,31.2 c 359.3,489.3 1257.9,951.2 1948.4,1252.5 304.3,132.7 533,378.5 643.9,692 110.5,312.3 86,660.4 -67.1,955.1 -568.9,1094.5 -1364.5,1946.5 -1931.8,2468.5 -151.1,139 -352.5,191.7 -552.3,144.5 -197.9,-46.7 -359.3,-188.1 -431.7,-378.2 -242.3,-636.5 -512.1,-1659.4 -421.8,-2917.3 95.8,-1332.7 778.2,-2174.3 785.1,-2182.7 l -40.7,-33.5 c -6.9,8.5 -700,863.1 -796.9,2212.5 -91.1,1267.5 180.9,2298.3 425.1,2939.8 78.6,206.5 253.8,360 468.8,410.7 214.3,50.4 438.5,-8.3 600.1,-157 570.3,-524.9 1370.4,-1381.7 1942.8,-2483 159.8,-307.6 185.4,-671 70.1,-996.9 -115.9,-327.5 -354.7,-584.2 -672.5,-722.8 -684.6,-298.7 -1574.7,-755.5 -1927,-1235.4"
        style="fill:#1e1b24;fill-opacity:1;fill-rule:nonzero;stroke:none" id="path48" />
      <path
        d="m 17462.9,28027.5 c 16.6,-234.5 51.7,-453.3 97.4,-655.6 319.1,183.1 666.8,349 983.8,487.4 647.9,282.7 915.5,1056.2 590.1,1683.7 -325.9,627.4 -726.7,1175.2 -1114.7,1625.8 -56.2,-58.7 -102.3,-130.3 -133.7,-213.1 -248.1,-652.5 -513.1,-1674.1 -422.9,-2928.2"
        style="fill:#ff6c6c;fill-opacity:1;fill-rule:nonzero;stroke:none" id="path50" />
      <path
        d="m 18019,31129.1 c -46.4,-53.5 -82.9,-114.8 -108.6,-182.7 -242.1,-637 -511.7,-1660 -421.2,-2917 v 0 c 14.5,-204.7 44.5,-412 89.1,-616.9 274.1,155.5 595.3,313.8 955.3,470.9 304.1,132.7 532.8,378.4 643.8,691.8 110.7,312.3 86.4,660.7 -66.6,955.6 -282.8,544.4 -650,1081.9 -1091.8,1598.3 m -476.5,-3797.8 -7.9,34.8 c -49.4,218.7 -82.4,440.6 -98,659.5 -91.1,1266.6 180.6,2297.6 424.6,2939.5 31.7,83.8 78.6,158.4 139.3,221.9 l 20.1,21 18.9,-22 c 453.1,-526.3 829.3,-1075 1118.1,-1630.9 159.7,-307.9 185,-671.5 69.5,-997.5 -116,-327.3 -354.8,-583.9 -672.4,-722.4 -372,-162.4 -702.1,-325.9 -981.3,-486.1 l -30.9,-17.8"
        style="fill:#1e1b24;fill-opacity:1;fill-rule:nonzero;stroke:none" id="path52" />
      <path
        d="m 29201.6,19550.5 c -549.3,410.8 -877.2,1517.5 -924.4,2050.5 -27.4,307.9 -116.9,922.3 -187.8,1387.1 3252.4,1889.9 3376.7,8748.6 1258.3,8387.6 -2392.2,-407.6 -4302.3,-2274 -5203.9,-3314.8 -888,372.4 -1563.3,439.5 -1563.3,439.5 0,0 -675.2,169.9 -1657.1,113.9 -494,1282.3 -1659.9,3693.7 -3777.7,4890 -1877.9,1060.8 -4092.5,-5486.7 -1628.9,-8349.9 -222.1,-410.2 -505.4,-942.2 -632.6,-1217.1 -225.3,-485.4 -908.5,-1415.8 -1564.9,-1616.2 -387.1,-118.2 -456,-411.4 -250.2,-676.6 132.1,-169.9 377.9,-328.9 724.8,-421.5 27.4,-7.7 56.2,-14.4 85,-21.2 0,0 -0.4,0.1 -1.9,-0.9 l -0.4,0.1 c -23.7,-10.2 -221.9,-93.5 -730.9,-315.4 -498.6,-217.8 -207.5,-673.9 476,-1199.2 683.1,-524.9 1491.3,-1610.7 1666.3,-1780.9 102.5,-99.8 637.4,-707.3 1743.3,-1313.1 786.8,-431.5 1862.9,-862.4 3278,-1109.2 l 0.4,-0.1 c 3403.3,-593.7 5322.4,477.7 5544.8,579.1 222.4,101 1350.4,849 2171.3,1111.5 820.6,263 1248.9,593.5 853.1,967.4 -431.6,407.9 -582.8,545.7 -582.8,545.7 28.5,-3.7 56.7,-6.5 84.2,-8.7 359.4,-30.6 645.8,35.5 828,151 283.4,179.9 317.9,479.1 -6.7,721.4"
        style="fill:#f99b28;fill-opacity:1;fill-rule:nonzero;stroke:none" id="path54" />
      <path
        d="m 30634.9,27294.7 c 332.6,1888.2 24.2,3692.9 -824.9,4036.4 -94.7,59.3 -195.7,98.5 -302.5,117.2 2.8,0 5.6,0 8.4,0 1086.6,0 1506.7,-2033.2 1119,-4153.6 m -6651.5,831.1 c -807.6,315.4 -1402.9,374.6 -1402.9,374.6 0,0 -497.6,125.2 -1259.5,125.2 -72.7,0 -147.8,-1.1 -225,-3.6 -7.4,19 -14.9,38.2 -22.6,57.7 88.8,3.3 174.8,4.7 257.6,4.7 762.2,0 1260,-125.4 1260,-125.4 0,0 610.3,-60.6 1433.1,-386.6 -13.7,-15.7 -27.4,-31.2 -40.7,-46.6 m -9428.7,1985.7 c 323.3,1931.3 1249,3566.7 2182.4,3566.7 94.4,0 188.7,-16.7 282.7,-51.5 -46.7,8.1 -93.6,12.2 -140.8,12.2 -60.7,0 -121.8,-6.7 -183.2,-20.1 -913.5,-35.1 -1813,-1622.8 -2141.1,-3507.3"
        style="fill:#f1bdfe;fill-opacity:1;fill-rule:nonzero;stroke:none" id="path56" />
      <path
        d="m 24143.8,28060.9 c -36.6,15.3 -72.8,30.1 -108.6,44.4 13.4,15.3 26.9,30.7 40.7,46.4 25.8,-10.5 51.7,-21.2 77.9,-32.2 826,953.6 2497.5,2599.3 4610.8,3182.6 145.1,36.3 292.3,67.5 441.2,92.8 51.7,8.8 102.3,13.2 151.9,13.2 59.9,0 118.1,-6.4 174.7,-19 -8.9,0.2 -17.8,0.4 -26.7,0.4 -51.2,0 -103.8,-4.5 -158,-13.8 -2392.2,-407.6 -4302.3,-2274 -5203.9,-3314.8"
        style="fill:#f5d1fe;fill-opacity:1;fill-rule:nonzero;stroke:none" id="path58" />
      <path
        d="m 24035.2,28105.3 c -17.4,7 -34.6,13.8 -51.8,20.5 13.3,15.4 27,30.9 40.7,46.6 17.2,-6.8 34.4,-13.7 51.8,-20.7 -13.8,-15.7 -27.3,-31.1 -40.7,-46.4 m 4729.4,3196.8 c 194,53.5 392,98.2 593.2,132.5 51.2,8.7 101.1,13.2 149.7,13.7 106.8,-18.7 207.8,-57.9 302.5,-117.2 -86.9,35.1 -179.5,54.9 -277.6,58 -56.6,12.6 -114.8,19 -174.7,19 -49.6,0 -100.2,-4.4 -151.9,-13.2 -148.9,-25.3 -296.1,-56.5 -441.2,-92.8"
        style="fill:#d1a3e6;fill-opacity:1;fill-rule:nonzero;stroke:none" id="path60" />
      <path
        d="m 20923.4,28614.3 c -494,1282.3 -1659.9,3693.7 -3777.7,4890 -56.2,31.7 -112.5,56.6 -169.1,75 105,-13.2 208.4,-48.2 309.2,-105 131.9,-74.5 260.2,-153.9 384.8,-237.5 1794.7,-1267.6 2810.9,-3389.3 3263.1,-4563.7 28.3,1.6 56.4,3 84.1,4.3 7.7,-19.4 15.2,-38.5 22.6,-57.4 -38.5,-1.6 -77.5,-3.5 -117,-5.7"
        style="fill:#f5d1fe;fill-opacity:1;fill-rule:nonzero;stroke:none" id="path62" />
      <path
        d="m 21040.4,28620 c -7.4,18.9 -14.9,38 -22.6,57.4 18.7,0.8 37.2,1.6 55.6,2.3 7.7,-19.5 15.2,-38.7 22.6,-57.7 -18.4,-0.6 -36.9,-1.3 -55.6,-2 m -3369.8,4616.8 c -124.6,83.6 -252.9,163 -384.8,237.5 -100.8,56.8 -204.2,91.8 -309.2,105 -83,27 -166.6,40.1 -249.9,40.1 -10.3,0 -20.6,-0.2 -30.9,-0.6 61.4,13.4 122.5,20.1 183.2,20.1 47.2,0 94.1,-4.1 140.8,-12.2 45.6,-16.9 91.1,-38.1 136.3,-63.6 178.3,-100.7 349.6,-209.9 514.5,-326.3"
        style="fill:#d1a3e6;fill-opacity:1;fill-rule:nonzero;stroke:none" id="path64" />
      <path
        d="m 30581.9,27027.7 c 264.7,1964.1 -168.3,3741.2 -1184.5,3741.2 -51.3,0 -103.9,-4.5 -158.1,-13.7 -2019.3,-344.2 -3577.9,-1947 -4557.2,-3064.5 -208.1,-237.5 -505.4,-368.4 -810.7,-368.4 -109.6,0 -220.2,16.9 -328,51.7 -618.5,199.9 -1109,287.6 -1109,287.6 0,0 -504.1,86.7 -1170.4,106.4 -431.2,12.7 -814.2,277.7 -971.5,679.4 -541.9,1383.4 -1467,3426.1 -3254.9,4436.3 -138.5,78.2 -279,115.1 -419.2,115.1 -868.7,0 -1730,-1415.2 -2106.1,-3167.9 12.7,94.2 26.8,187.7 42.4,280.6 328.1,1884.5 1227.6,3472.2 2141.1,3507.3 10.3,0.4 20.6,0.6 30.9,0.6 83.3,0 166.9,-13.1 249.9,-40.1 56.6,-18.4 112.9,-43.3 169.1,-75 2117.8,-1196.3 3283.7,-3607.7 3777.7,-4890 39.5,2.2 78.5,4.1 117,5.7 18.7,0.7 37.2,1.4 55.6,2 77.2,2.5 152.3,3.6 225,3.6 761.9,0 1259.5,-125.2 1259.5,-125.2 0,0 595.3,-59.2 1402.9,-374.6 17.2,-6.7 34.4,-13.5 51.8,-20.5 35.8,-14.3 72,-29.1 108.6,-44.4 901.6,1040.8 2811.7,2907.2 5203.9,3314.8 54.2,9.3 106.8,13.8 158,13.8 8.9,0 17.8,-0.2 26.7,-0.4 98.1,-3.1 190.7,-22.9 277.6,-58 849.1,-343.5 1157.5,-2148.2 824.9,-4036.4 -16.2,-88.9 -33.9,-177.9 -53,-267"
        style="fill:#fbc37e;fill-opacity:1;fill-rule:nonzero;stroke:none" id="path66" />
      <path
        d="m 28025.8,17173.7 c -820.9,-262.5 -1948.9,-1010.5 -2171.3,-1111.5 -222.4,-101.4 -2141.5,-1172.8 -5544.8,-579.1 l -0.4,0.1 c -1415.1,246.8 -2491.2,677.7 -3278,1109.2 -1105.9,605.8 -1640.8,1213.3 -1743.3,1313.1 -175,170.2 -983.2,1256 -1666.3,1780.9 -683.5,525.3 -974.6,981.4 -476,1199.2 509,221.9 707.2,305.2 730.9,315.4 l 0.4,-0.1 c 1.5,1 1.9,0.9 1.9,0.9 -28.8,6.8 -57.6,13.5 -85,21.2 118.8,18.1 249.6,32 392.9,40.4 529.4,31.2 1058.5,-324 1677.3,-679.3 737.9,-423.7 1603.5,-847.3 2749.5,-615.6 1617.4,327.1 1606,3988.8 2167.9,4842.8 5.7,8.7 11.4,17 17.1,25.7 592.7,880.7 1953.7,643.2 2213.2,-386.1 2.9,-10.2 5.4,-19.9 7.8,-30.1 239.6,-993.7 -1010.9,-4435.3 399.8,-5290.6 1064.7,-645.3 2081.7,-484 2956.9,-322.6 636.1,117.3 1197.3,234.6 1647.2,42.1 132.4,-56.5 250.7,-114.3 356.8,-171.6 -27.5,2.2 -55.7,5 -84.2,8.7 0,0 151.2,-137.8 582.8,-545.7 395.8,-373.9 -32.5,-704.4 -853.1,-967.4"
        style="fill:#ffffff;fill-opacity:1;fill-rule:nonzero;stroke:none" id="path68" />
      <path
        d="m 24143.3,27849.8 c -27.2,0 -54.9,5.3 -81.5,16.5 -849,356.8 -1496,423.8 -1502.4,424.5 -10.4,1 -20.7,2.8 -30.8,5.3 -6.2,1.6 -659.6,161.3 -1593,107.8 -116.1,-6 -215.8,82.1 -222.5,198.3 -6.6,116.2 82.1,215.8 198.3,222.4 933.2,53.4 1595.2,-90.2 1705,-116.1 110.6,-12.7 765.1,-99.2 1608.7,-453.7 107.2,-45.1 157.7,-168.6 112.6,-275.9 -33.9,-80.6 -112.1,-129.1 -194.4,-129.1"
        style="fill:#1e1b24;fill-opacity:1;fill-rule:nonzero;stroke:none" id="path70" />
      <path
        d="m 15695.6,25056.8 c -163,-301.7 -325.3,-604.4 -480.2,-907.7 -38.7,-75.7 -76.6,-151.6 -112.9,-226.8 l -56.2,-118 c -20.8,-42 -42.2,-82.9 -64.5,-123 -89,-160 -187.3,-310.1 -293.3,-455 -212.7,-288.8 -452.1,-559.4 -744.6,-789.9 -147.5,-113.4 -309.1,-217.8 -499.8,-288.4 l -70,-23.8 c -15.2,-5.7 -31.8,-10.1 -46.1,-16.4 -29,-12.2 -57.3,-24.9 -79.1,-40.1 -23.1,-14.6 -41.6,-30.4 -54.5,-46 -14.1,-15.4 -22.5,-30.2 -27.3,-45.1 -5,-14.9 -8,-30 -7.1,-48.3 1.4,-18.4 6,-39.6 14,-62.4 18.9,-46.1 52,-97.5 98.6,-144.2 92.2,-94.9 222.2,-172.8 361.9,-230.3 35.1,-14.5 71,-27.7 107.6,-39.8 18,-6.7 36.9,-11.4 55.2,-17.2 l 27.8,-8.4 16.9,-5.4 c 8.3,-3 16.3,-6.2 24.5,-10.1 16.6,-8.3 32.5,-17.9 47.1,-30 29.5,-23.8 51.9,-54.4 66.2,-85.7 28.3,-63 29.2,-128.5 5.1,-191.6 -12.5,-31.6 -32.4,-61.8 -58.5,-86.5 -12.9,-12 -27.3,-23.1 -42.1,-31.8 -7.4,-4.4 -15.1,-8.4 -22.9,-12.1 l -8.4,-3.8 -59.1,-25.5 -118.2,-51.1 -465.8,-202.2 c -58,-26.2 -94.4,-60.5 -103.4,-78 -4.6,-9.2 -6.7,-15.6 -7.1,-29.3 -0.3,-13.3 3,-33.7 11.2,-57.9 15.4,-48.6 51.9,-109.3 94.7,-167.1 43.9,-58.4 95.7,-116.4 151.3,-172.7 111.7,-112.6 237.5,-219.4 368.6,-321 139.8,-109.4 279.4,-229.5 405.5,-352.2 255.2,-246.4 489.3,-506.3 715.6,-770.3 l 334.9,-396.7 164.4,-195.1 c 26.1,-29.6 55.3,-64 76.5,-85.1 9.5,-10.7 27.8,-27.6 41.8,-41.2 l 45.4,-42.8 c 244.3,-228.2 507.5,-441.2 777.5,-641.1 270.7,-199.6 549.5,-387.6 839.3,-554.5 288.5,-168.8 585.9,-320.5 892.8,-444.6 76.6,-31.5 154.2,-59.6 230.7,-88.1 l 241.4,-82.1 487,-158 c 651.6,-205.8 1307,-399.1 1973.7,-555.8 l 0.3,-0.1 c 36.7,-8.6 59.5,-45.4 50.9,-82.1 -7.7,-32.8 -37.9,-54.5 -70.5,-52.5 -347.4,20.5 -692.5,67.2 -1034.3,127.2 -341.9,60 -681.1,133.3 -1017.8,216.3 -168.6,40.8 -336.2,85.2 -503.2,132.2 l -251.1,72.1 c -86.4,26.6 -171.6,54.2 -255.1,85.8 -335.6,122.2 -656.5,277.1 -962.8,453.7 -612.1,356.1 -1169.7,785.9 -1683.4,1269.5 l -48.2,46.2 c -16.7,16.4 -30.1,28.7 -49.6,49.6 -39.1,40.3 -64.8,72.2 -95.4,107.3 l -166.5,200.8 c -109.3,132.8 -217.5,264.6 -328.7,393.5 -221.2,258.3 -448.5,510 -688.3,741.5 -120.6,117.1 -242.2,221.4 -373.1,324.2 -140.7,109.2 -278.1,225 -408.8,356.6 -65.1,66.1 -128.6,136.4 -188,215.4 -58.4,80.5 -115.9,167 -154.8,282.1 -19,57.2 -33.2,122.2 -32,195 0.7,72.4 20.6,151.8 57.6,218 36.7,66.7 86.1,117.9 135.3,157.2 49.6,39.8 100.2,69.1 149.4,92.2 l 35.8,16.7 29.6,12.8 59.3,25.6 118.7,51.3 237.2,102.6 118.6,51.3 59.3,25.6 c -0.3,-0.1 0.5,0.2 1.3,0.6 1.5,0.6 3,1.3 -2.4,-1 -5.4,-2.4 -10.7,-5.2 -15.7,-8.3 -10.1,-6.1 -20.5,-13.6 -29.3,-22.1 -18.4,-17.3 -32.2,-38.4 -40.6,-60.1 -16.4,-43 -15.7,-85.4 3.5,-128.9 9.7,-21.6 25.8,-43.1 46.7,-60.3 10.7,-8.4 21.5,-15.8 33.7,-21.3 5.6,-2.7 11.1,-5.1 16.9,-7.2 5.7,-2 13.8,-4 9.3,-2.8 l -34,10.2 c -22.7,7.1 -45.5,13.1 -67.9,21.2 -45.1,14.9 -89.9,31.4 -134.3,49.6 -177,74 -351,172.3 -500.1,324 -74,75.6 -140.9,168.2 -186.2,281.9 -21.5,57.9 -36.9,121.1 -40.7,188.6 -3.6,67.7 6.8,139.1 30.2,205.1 23,66.6 60.1,126.8 103.3,175.5 42.8,49.9 91.3,89.5 140.7,121 49.4,33.1 99.9,56.2 150.2,77 25.3,10.6 50.2,18 75.3,26.8 l 52.2,17.7 c 132.8,48.7 264.9,131.2 389.3,227.4 248.8,195.4 471.2,443.7 665.5,708.5 97.1,132.6 187.5,271 265.7,411.6 19.5,35.2 37.9,70.4 55.3,105.5 l 54.7,114.9 c 38.4,79.7 77.5,157.7 117,235.1 158.1,309.4 320.9,613.1 484.9,916.7 53.5,99.1 177.3,136.1 276.5,82.5 99.2,-53.5 136.2,-177.4 82.6,-276.5 v 0 l -0.1,-0.3"
        style="fill:#1e1b24;fill-opacity:1;fill-rule:nonzero;stroke:none" id="path72" />
      <path
        d="m 28291.5,23017.8 c 43.3,-269.1 87,-538.2 125.6,-809 19.2,-135.5 38,-271.1 54.6,-408.7 l 22.9,-205.4 c 6.3,-60.5 16.9,-123 27.6,-185.3 47.9,-250.9 120.9,-503 214.4,-743.2 92.6,-240.5 206.4,-471.9 347.7,-669.9 16.8,-25.9 37,-47 55.1,-70.8 18.6,-23.1 36.6,-47.3 57.3,-66.7 l 59.4,-62.1 62.8,-52.7 15.5,-13.4 24.4,-19.4 c 16.6,-13.6 33.4,-25.8 49.5,-41.4 32.7,-28.9 64.3,-61.4 94.3,-97.1 59.5,-71.7 113.1,-162.1 138.9,-270.9 27.7,-108 15.9,-232.6 -26.1,-335.1 -42.1,-103.5 -109.3,-183.6 -179.8,-246.1 -143.5,-124.1 -302.6,-185.3 -457.6,-225.8 -155.8,-37.7 -310.7,-51.1 -462.2,-48.3 -38.1,-0.2 -75.7,2.9 -113.5,4.6 l -7.1,0.4 -3.5,0.2 c -0.8,0.1 -4.8,0.3 3.4,-0.3 21,-1.1 44.6,1.8 67.3,9.3 46.2,14.9 81.7,46.6 101.8,79.6 20.2,33.4 30.4,70.7 27,113.4 -2.5,42.1 -25.4,89.5 -54.4,117.2 l 142.8,-133.9 297.4,-281 37.1,-35.2 18.6,-17.7 23.3,-23.4 c 30.9,-30.7 61.2,-66.6 89.6,-106.9 55.8,-78.5 107.8,-193.4 103.7,-322.2 -2.1,-129.4 -60,-240.1 -119.2,-315.8 -60.7,-77.7 -126.9,-134.1 -192.6,-182.4 -131.9,-95.2 -265.2,-160.8 -398.7,-219.7 -133.5,-57.6 -267.3,-106.3 -401.5,-149.6 l -49.9,-16.2 -45.3,-15.5 -90.5,-31 c -60.3,-23.1 -120.8,-46.2 -181.1,-70.9 -483.2,-203.6 -952.1,-469.4 -1419.3,-741.8 l -176.8,-103 c -60.4,-34.6 -118.2,-68.4 -187.7,-104.6 -17.8,-8.9 -39.1,-19.8 -54.4,-26.7 l -46.8,-20.7 -97.3,-41.8 c -65,-27 -130.2,-52.6 -195.5,-77.7 -261.1,-99.7 -527.3,-180.1 -795.5,-250.3 -537.3,-136.3 -1085.7,-222.1 -1635.9,-246.9 -58.7,-2.7 -108.4,42.7 -111,101.4 -2.4,52.9 34.3,98.5 84.5,108.9 l 1.7,0.3 c 264.4,55.1 527.6,108.2 787.7,173 260,65.2 518.1,135.4 772.1,216.5 254.7,78.8 504.9,170.1 750.2,268.3 61,25.2 121.6,50.9 181.6,77.5 l 89,41 45.8,21.7 36.8,18.8 c 50.9,27.1 110.3,62.1 167.4,95.7 l 174.6,104 c 469,279 945.3,556.9 1462.7,781 65.2,27.5 131.5,53.6 197.8,79.7 l 102,36 51.1,17.9 46.9,15.8 c 124.1,41.3 245.5,87 361.1,138.3 114.6,51.4 225.4,109.4 313.3,174.6 43.5,32.3 80,67 102.7,96.8 23.1,30.9 27.4,49.8 26.4,57.3 0.1,7.8 -2.8,25.6 -25.3,56.9 -11.1,14.9 -24.4,31.5 -42.1,48.3 l -12.7,12.8 -18.5,17.2 -37.2,34.6 -297.1,277.3 -154.3,145.3 c -41.1,39.7 -71.6,103.4 -75.5,162.4 -4.7,59.6 9.4,114.3 38.8,162 29.1,47.4 78.4,90.6 140.7,110.9 30.8,10.1 63,13.9 92.4,12.6 l 18.3,-1 c 30.1,-1.3 60.3,-4 90.2,-3.7 120.1,-2.7 238,8.5 346.7,34.6 107.1,26.7 207,71.2 269.4,126.5 30.8,27.2 51.9,55.4 60.8,78.4 8,23.3 11.4,40.4 5.1,64.5 -5.6,23.7 -20.5,54.8 -47.6,87.4 -13.9,16.2 -29.5,32.7 -47.7,48.9 -8.1,8.4 -19.1,15.8 -28.7,23.9 l -38.8,32 -92.9,78.9 -81.9,84.9 c -28.3,27.9 -51.3,58.1 -75.3,87.9 -23.2,30.1 -49.4,59.1 -69.8,90.2 -173.6,245.7 -301.5,506.4 -400.6,774.1 -100.2,267.8 -176.2,540.8 -227,824.6 -11.5,71.7 -22.8,143.4 -29.7,218.3 l -19.9,200 c -14.4,132.5 -31.2,266.5 -48.6,400.3 -35.1,267.8 -70.9,536.5 -109,805 -15.9,111.6 61.7,215 173.3,230.9 110.2,15.7 212.5,-60.2 230.3,-169.6"
        style="fill:#1e1b24;fill-opacity:1;fill-rule:nonzero;stroke:none" id="path74" />
      <path
        d="m 15747,28846.4 c 97.5,-1356.3 790.8,-2197.4 790.8,-2197.4 l 68.5,-33.6 c 195.6,266.2 552.1,524.8 954,756.5 319.1,183.1 666.8,349 983.8,487.4 647.9,282.7 915.5,1056.2 590.1,1683.7 -325.9,627.4 -726.7,1175.2 -1114.7,1625.8 -294.5,341.7 -582.1,627.7 -823,849.8 -331.5,305 -865.9,177.5 -1026,-243.5 -248.7,-653.1 -513.7,-1674.7 -423.5,-2928.7"
        style="fill:#ff6c6c;fill-opacity:1;fill-rule:nonzero;stroke:none" id="path76" />
      <path
        d="m 17578.3,27412.5 c -44.6,204.9 -74.6,412.2 -89.1,616.9 v 0 c -90.5,1257 179.1,2280 421.2,2917 25.7,67.9 62.2,129.2 108.6,182.7 441.8,-516.4 809,-1053.9 1091.8,-1598.3 153,-294.9 177.3,-643.3 66.6,-955.6 -111,-313.4 -339.7,-559.1 -643.8,-691.8 -360,-157.1 -681.2,-315.4 -955.3,-470.9"
        style="fill:#c34b6f;fill-opacity:1;fill-rule:nonzero;stroke:none" id="path78" />
      <path
        d="m 17542.5,27331.3 -6.1,26.8 c 8,4.6 15.9,9.2 23.9,13.8 319.1,183.1 666.8,349 983.8,487.4 647.9,282.7 915.5,1056.2 590.1,1683.7 -325.9,627.4 -726.7,1175.2 -1114.7,1625.8 -5.7,6.7 -11.5,13.4 -17.3,20 l 18.4,19.2 18.9,-22 c 453.1,-526.3 829.3,-1075 1118.1,-1630.9 159.7,-307.9 185,-671.5 69.5,-997.5 -116,-327.3 -354.8,-583.9 -672.4,-722.4 -372,-162.4 -702.1,-325.9 -981.3,-486.1 l -30.9,-17.8"
        style="fill:#ce7333;fill-opacity:1;fill-rule:nonzero;stroke:none" id="path80" />
      <path
        d="m 17536.4,27358.1 -1.8,8 c -49.4,218.7 -82.4,440.6 -98,659.5 -91.1,1266.6 180.6,2297.6 424.6,2939.5 31.7,83.8 78.6,158.4 139.3,221.9 l 1.7,1.8 c 5.8,-6.6 11.6,-13.3 17.3,-20 388,-450.6 788.8,-998.4 1114.7,-1625.8 325.4,-627.5 57.8,-1401 -590.1,-1683.7 -317,-138.4 -664.7,-304.3 -983.8,-487.4 -8,-4.6 -15.9,-9.2 -23.9,-13.8 m 482.6,3771 c -46.4,-53.5 -82.9,-114.8 -108.6,-182.7 -242.1,-637 -511.7,-1660 -421.2,-2917 v 0 c 14.5,-204.7 44.5,-412 89.1,-616.9 274.1,155.5 595.3,313.8 955.3,470.9 304.1,132.7 532.8,378.4 643.8,691.8 110.7,312.3 86.4,660.7 -66.6,955.6 -282.8,544.4 -650,1081.9 -1091.8,1598.3"
        style="fill:#d25363;fill-opacity:1;fill-rule:nonzero;stroke:none" id="path82" />
      <path
        d="m 16670,26470.7 c -29.7,-19.9 -109.4,-10.5 -108.8,-6.8 l -11.5,3.7 c -7,2.3 -16.5,5.9 -20,7.7 -9.4,4.4 -19.1,9.3 -27.8,14.2 -13.1,8.3 -28.6,17.8 -39.1,26.3 l -31.4,25.7 -26,25.1 c -33.4,33.6 -60.7,66.8 -85.8,100.1 -50.5,66.7 -92,133.7 -131.1,201.2 -78,134.9 -142.3,271.8 -203.2,409.6 -30.2,68.9 -59.9,137.9 -87.2,207.5 -28.5,69.2 -55.4,138.8 -81.2,208.6 l -39.4,104.6 -35.6,109.9 c -23.6,73.4 -48.7,146.6 -64.8,221.6 -153.4,597 -159.3,1210.6 -105.1,1807.8 28.1,299.2 73.7,595.9 134.1,889.4 30.4,146.7 63.7,292.8 102,437.9 18.4,72.7 38.6,145 59.7,217.2 l 15.6,54.2 18.3,57.5 c 12.3,38.2 26.6,76.4 41.5,114.4 60.5,151.6 143.6,302.9 266.7,434.7 62,65.2 134.2,125 216.6,172 19.4,11.5 43.4,23.4 68.2,34.8 24.9,10.2 50.1,19.8 76,27 51.8,14.8 105.4,22.8 159,24 107.5,2.7 214.8,-24.1 309.4,-74.4 23.8,-12.5 46.3,-27.1 68.5,-42.3 l 31.9,-24.4 23.5,-19.6 c 28.8,-24.6 58.4,-48.7 86.6,-73.8 114.7,-99 224.1,-202.4 331.9,-307.6 214,-211.6 416.3,-434.4 606.5,-667.1 190.1,-232.8 369.8,-474.5 531.9,-728.2 42.3,-62.2 80.7,-127 120,-191.1 39.1,-64.3 79,-128.2 114.5,-194.6 l 109.5,-197.5 102,-201.6 c 34.8,-66.8 66.4,-135.2 96.8,-204.1 l 46.3,-103.1 23.2,-51.5 c 3.8,-8.9 7.7,-16.5 11.6,-26.4 l 11.6,-31.1 c 64.5,-164.6 92.1,-344.3 79.9,-520.6 -20.9,-354 -212.8,-688.8 -500,-892.3 -35.2,-26.5 -74.2,-47.1 -111.4,-70.3 -38.4,-21 -78.7,-38.6 -118.1,-57.5 l -200.1,-84 c -132.9,-56.6 -264.1,-116.1 -394,-177.9 -259.8,-123.5 -512.8,-259.2 -751.9,-410.4 -118.7,-76.3 -235.3,-155.7 -341,-243.9 -27.6,-21.2 -53.1,-43.8 -78.1,-66.8 -25,-23 -51.9,-44.9 -74.3,-69.4 l -35.1,-35.8 -17.6,-18 -8.8,-8.9 -13.9,-16.1 c -37.7,-43 -79.4,-83.7 -121,-119.6 z m -126.7,289.6 c 4.3,21.2 8.6,37.6 16.9,51.7 l 3.4,5.3 10,11.1 20.1,22.1 40.2,44.3 c 26.3,30.4 55.4,56.2 83.4,83.9 28.1,27.6 56.5,54.5 86.2,79.3 116.1,103.8 239.3,194.3 364.2,281.1 250.2,172.7 513,318.6 779.1,454.8 133.2,67.7 267.4,132.8 402.9,194.7 l 203.2,91.5 c 26.1,13.9 53.3,25.8 78.9,40.3 24.2,16.7 50.7,30 73.6,48.5 188.2,139 313.1,364.6 321.7,598.4 5.7,116.3 -14.3,232.9 -58.6,340.5 l -7.7,20.4 c -2.9,7.1 -7.4,15.9 -11,23.7 l -22.8,48.4 -45.6,96.8 c -30.2,64.6 -59.8,129.5 -93.6,192.4 -125.8,256.2 -273.8,500.9 -425.8,742.4 -308.6,480.6 -667.3,930.8 -1068.6,1337.5 -100.8,100.9 -203.3,200.4 -309.5,294.5 -26.3,24 -53.3,46.5 -79.9,69.9 -6,5.1 -14.8,13.1 -18.6,15.9 l -11.5,9.2 c -8.2,5.5 -16.2,11.2 -24.9,15.8 -34.4,18.8 -73.7,29.9 -113.1,29.2 -19.6,-0.1 -39.1,-2.7 -57.9,-7.7 -9.5,-2.3 -18.6,-5.9 -27.8,-9.2 -8.5,-4.1 -17.5,-7.8 -29.8,-14.9 -45.4,-25 -88.2,-58.9 -127.8,-99.3 -78.7,-81.8 -143.3,-189.9 -192.6,-309.7 -12.2,-30 -24.1,-60.4 -34.6,-91.8 l -15.8,-47.1 -15.4,-51.3 c -21,-68.3 -41.1,-136.9 -59.6,-206.2 -38.4,-138 -72.1,-277.5 -103.1,-417.6 -61.5,-280.2 -108.8,-563.5 -139.2,-847.9 -59.4,-567.2 -59.1,-1145.6 73.8,-1689.3 13.6,-68.9 35.6,-134.7 55.9,-201.1 l 30.8,-99.9 36.8,-101.7 c 24.1,-68.1 49.2,-135.6 75.7,-202.3 25.4,-67.4 52.8,-133.4 80.6,-199.2 55.9,-131.1 115,-260.8 182.4,-380.7 33.5,-59.9 68.9,-118 106.4,-168.7 18.5,-25.6 37.9,-49.2 55.9,-67.8 l 13.2,-13.4 11,-9.3 c 3.6,-3.3 4.3,-2.7 6.2,-4.9 -0.7,0.6 -2.1,1.4 -3.4,1.7 0.5,-0.5 -4.4,1.9 -7.2,2.7 l -5,1.3 c 2.7,3 -74.6,12.1 -102.1,-8.3"
        style="fill:#1e1b24;fill-opacity:1;fill-rule:nonzero;stroke:none" id="path84" />
      <path
        d="M 28851.3,26049.2 C 28208.5,24851 27232.2,24366.3 27232.2,24366.3 l -76.3,-2.8 c -69.8,323 -289.7,704.5 -561.9,1080.2 -216.5,297.4 -466.2,590.8 -699.1,846.6 -476,522.5 -404.4,1337.9 148.8,1777.8 553.7,439.7 1143.2,776.1 1681.3,1029.1 408.4,191.6 787.7,335.2 1098.3,439.6 427.2,143.1 862.9,-191.5 837.1,-641.1 -39.6,-697.8 -214.7,-1738.5 -809.1,-2846.5"
        style="fill:#ff6c6c;fill-opacity:1;fill-rule:nonzero;stroke:none" id="path86" />
      <path
        d="m 26594.1,25488.1 c -186.6,253.6 -415.1,529.3 -679.7,819.9 -223.5,245.3 -331.9,562.9 -305.3,894.3 26.5,330.3 190.9,638.4 450.9,845.2 480.5,381.5 1035.2,722.2 1649.4,1013.1 20.4,-67.7 28.7,-138.6 24.4,-211.1 -39,-680.2 -210.6,-1724.1 -806.4,-2834.7 v 0 c -96.8,-180.9 -208.9,-357.9 -333.3,-526.7"
        style="fill:#c34b6f;fill-opacity:1;fill-rule:nonzero;stroke:none" id="path88" />
      <path
        d="m 26593.7,25399.4 -21,28.8 c -189.3,260 -423.9,544 -697.3,844.3 -233.4,256.2 -346.6,587.9 -318.8,934 27.6,344.8 199.2,666.4 470.7,882.2 490.6,389.6 1058.1,736.9 1686.6,1032.3 l 26.2,12.3 8.9,-24.9 c -8,-3.8 -16,-7.5 -24,-11.2 -538.1,-253 -1127.6,-589.4 -1681.3,-1029.1 -553.2,-439.9 -624.8,-1255.3 -148.8,-1777.8 232.9,-255.8 482.6,-549.2 699.1,-846.6 5.4,-7.5 10.8,-14.9 16.1,-22.4 l -16.4,-21.9"
        style="fill:#ce7333;fill-opacity:1;fill-rule:nonzero;stroke:none" id="path90" />
      <path
        d="m 26610.1,25421.3 c -5.3,7.5 -10.7,14.9 -16.1,22.4 -216.5,297.4 -466.2,590.8 -699.1,846.6 -476,522.5 -404.4,1337.9 148.8,1777.8 553.7,439.7 1143.2,776.1 1681.3,1029.1 8,3.7 16,7.4 24,11.2 l 0.9,-2.4 c 29.5,-82.7 41.8,-170 36.5,-259.5 -39.3,-685.5 -212.2,-1737.5 -812.6,-2856.6 v 0 c -103.5,-193.4 -224.2,-382.5 -358.8,-562 l -4.9,-6.6 m 1099.3,3639.3 c -614.2,-290.9 -1168.9,-631.6 -1649.4,-1013.1 -260,-206.8 -424.4,-514.9 -450.9,-845.2 -26.6,-331.4 81.8,-649 305.3,-894.3 264.6,-290.6 493.1,-566.3 679.7,-819.9 124.4,168.8 236.5,345.8 333.3,526.7 v 0 c 595.8,1110.6 767.4,2154.5 806.4,2834.7 4.3,72.5 -4,143.4 -24.4,211.1"
        style="fill:#d25363;fill-opacity:1;fill-rule:nonzero;stroke:none" id="path92" />
      <path
        d="m 27272.6,24470 c -16.7,29.9 -91.1,53.2 -89.8,49.4 l -5.1,0.8 c -2.9,0.4 -8.3,0.2 -7.7,0.5 -1.2,0.3 -2.9,0.1 -3.8,-0.1 2.7,1.2 3,0.3 7.7,1.9 l 13.8,3.9 17.6,6.9 c 24,9.7 51.3,23.2 78.7,39 54.9,31 111,69.7 166,110.6 110.5,82 217.4,176.2 321.9,273.1 52.3,48.7 104.3,97.8 154.9,148.9 51.5,50.1 101.9,101.4 151.8,153.8 l 75.1,77.8 68.8,78.6 c 45.7,52.4 92.7,103.4 133.2,160.8 343.3,442.1 579.7,969.9 757.1,1511.9 88.3,272 160.9,550 219.1,830.9 28.9,140.5 55.1,281.6 76.4,423.2 11.4,70.8 21,141.7 29.8,212.6 l 6.9,53.1 4.8,49.5 c 3.3,32.9 4.8,65.5 5.9,98 3.9,129.4 -10.9,254.5 -49.4,361.3 -19.6,53 -44.8,101.4 -76.1,142.7 -8.3,11.5 -15.1,18.6 -21.1,25.8 -7.1,6.8 -13.9,13.8 -21.6,19.8 -15.2,12.2 -31.9,22.5 -49.7,30.7 -35.7,16.7 -76.2,22.6 -115.2,19.5 -9.9,-0.7 -19.5,-2.6 -29.2,-4.2 l -14.3,-3.8 c -4.5,-1 -15.8,-4.7 -23.4,-6.9 -33.8,-10.5 -67.7,-20 -101.5,-31.2 -135.3,-42.5 -269.5,-91.5 -402.7,-142.5 -532.4,-207.3 -1043.7,-471.9 -1521.6,-784.5 -237.4,-158.5 -472.4,-321.4 -691.8,-504 -56.6,-43.6 -110.1,-90.7 -164,-137.3 l -81.2,-69.7 -40.6,-34.9 c -6.5,-5.7 -14.1,-11.9 -19.6,-17.2 l -15.4,-15.5 c -84.4,-80.1 -150.3,-178.4 -192.5,-286.9 -87.6,-216.9 -65.8,-473.8 49.3,-677.6 13.4,-26.2 32.1,-49.2 47.4,-74.3 17.4,-23.7 37.4,-45.6 55.6,-69 l 148,-166.5 c 98.4,-111.8 194.4,-226.1 288.4,-342.3 187.2,-232.9 367.6,-473.4 525.5,-733.2 78.6,-130.2 154,-263.1 217.7,-405.4 16.9,-34.6 31.9,-70.9 46.2,-107.5 14.3,-36.7 30.3,-72.1 41.9,-110.6 l 18.7,-56.9 9.3,-28.4 4.6,-14.2 0.9,-6.2 c 1.9,-16.2 -1,-33 -5.7,-54.2 z m -233.9,-212.5 c -23.3,49.7 -44.8,103.9 -61.6,158.6 l -6.1,20.3 -4.4,11.8 -8.8,23.5 -17.3,47.1 c -10.5,31.5 -26.1,62.4 -39.5,93.6 -13.5,31.3 -27.5,62.3 -44,93 -60.6,123.6 -134.6,243.7 -211.8,361.8 -156.4,235.7 -332,462.8 -518.7,681.6 -93.4,109.5 -188.9,217.4 -287.1,323.3 l -148.4,158.4 c -28.3,33.3 -57.8,65.8 -84.3,100.7 -24.4,36.4 -51.7,71.1 -72.9,109.6 -179.1,303 -217.6,687 -92.1,1018.7 60.8,166 159.4,318.7 285.4,442.6 l 23.4,23.7 c 7.5,7.4 14.2,12.8 21.3,19.3 l 42.2,37.6 84.3,75.2 c 56,50.5 112.7,100.1 171.8,146.8 l 175.4,142.3 180.6,135.7 c 59.5,46.1 121.9,88.1 183.9,130.8 62.1,42.5 123.6,86 187.6,125.5 251.6,165.3 514.3,312.7 782.9,447.6 268.7,134.7 544.2,255.5 826,361.3 141.4,52 283.5,101.8 428.6,145.2 35.9,11.5 72.8,21.4 109.2,32.1 l 29.4,8.2 39.1,9.4 c 26.4,4.7 53,8.8 79.8,10.5 106.9,7.3 215.8,-12 312.8,-58.4 48.5,-22.9 94.1,-52.2 135.3,-86.8 20.8,-17.2 39.8,-36.2 58.4,-55.7 18,-20.5 35.1,-41.2 48,-59.6 56.1,-76.6 97.6,-160.6 127.5,-245.4 58.6,-170.6 72.6,-342.6 66,-505.7 -1.8,-40.8 -4.4,-81.4 -8.8,-121.4 l -6.8,-59.9 -7.9,-55.9 c -10.2,-74.5 -21.3,-148.8 -34.2,-222.7 -24.3,-148 -53.5,-295 -85.6,-441.4 -64.7,-292.5 -144.2,-582 -240.8,-866.6 -194.3,-567.2 -450.3,-1125 -834.1,-1607.3 -45.3,-61.9 -98.1,-118.5 -149.5,-175.9 l -77.5,-85.7 -78.6,-79.4 c -52,-53.2 -105,-105.8 -159.4,-157.3 -53.2,-52.3 -108.5,-103.2 -164.3,-153.8 -111.8,-100.9 -226.4,-199.6 -352.6,-290.9 -63.3,-45.7 -128.6,-89.9 -201.9,-130.1 -36.5,-20.2 -75,-39.3 -119.2,-56.4 l -34,-12.3 -39.2,-10.7 c -12.9,-3.4 -31,-5.8 -46.3,-8.1 -10.1,-0.8 -20.9,-1.3 -31.2,-1.5 -4,-0.2 -14,0.4 -21.5,1.1 l -11.9,1.4 c -1,-3.7 -77.6,20.3 -96.6,50.6"
        style="fill:#1e1b24;fill-opacity:1;fill-rule:nonzero;stroke:none" id="path94" />
      <path
        d="m 21914,18797.2 c -184.4,-1057.1 -779.9,-1836.2 -1330,-1740.3 -550.1,96 -846.6,1030.7 -662.2,2087.8 l 1992.2,-347.5"
        style="fill:#ff6c6c;fill-opacity:1;fill-rule:nonzero;stroke:none" id="path96" />
      <path
        d="m 20675.2,17022.7 c -32,0 -63.9,2.7 -95.7,8.3 -276.2,48.2 -499,297.3 -627.1,701.4 -126.4,398.3 -146.4,901.5 -56.5,1416.8 l 51.9,-9 c -88.5,-507.2 -69,-1001.5 54.8,-1391.8 121.9,-384.5 330,-620.9 585.9,-665.5 533.9,-93.3 1117.9,677.7 1299.5,1718.8 l 51.9,-9.1 c -176.1,-1009.3 -729.4,-1769.9 -1264.7,-1769.9"
        style="fill:#1e1b24;fill-opacity:1;fill-rule:nonzero;stroke:none" id="path98" />
      <path
        d="m 21864.6,18559.6 c -82.7,-342.7 -209.1,-648.4 -360.9,-893.4 -261.3,-422.8 -598.1,-665.5 -919.8,-609.4 -321.7,56.1 -556.8,399.2 -658.8,886.4 -60,281.4 -75,611.2 -36.8,961.1 l 1976.3,-344.7"
        style="fill:#ed2e7a;fill-opacity:1;fill-rule:nonzero;stroke:none" id="path100" />
      <path
        d="m 20707.5,17763.9 c -27.4,99.1 -35.6,194.7 -41.1,289.9 -4.1,95 1,188.4 6.8,281.6 5.8,93.2 15.6,185.7 27.3,278 13.3,91.9 27.8,183.6 51.5,273.7 21,80 102.9,127.8 182.9,106.8 71.7,-18.8 117.5,-86.7 111.1,-158.1 -8.2,-92.8 -25.5,-184 -44.2,-275 -20.3,-90.7 -42.3,-181.1 -68.5,-270.8 -26,-89.7 -52.9,-179.3 -88.9,-267.2 -37.4,-87.7 -77.5,-175 -136.9,-258.9"
        style="fill:#1e1b24;fill-opacity:1;fill-rule:nonzero;stroke:none" id="path102" />
      <path
        d="m 20710.6,16867.4 c -52.4,0 -104.9,4.5 -157.3,13.6 -646.2,112.7 -1047.5,917.7 -894.6,1794.4 16.9,97.2 109.1,162.2 206.6,145.3 97.2,-17 162.2,-109.5 145.3,-206.6 -117.1,-671.2 159.5,-1303.7 604.1,-1381.2 206.7,-36.1 427.2,49.7 619.7,241.7 209,208.5 356.8,511.5 416.4,853.3 17,97.1 108.9,162.2 206.7,145.2 97.1,-16.9 162.1,-109.4 145.2,-206.6 -72.2,-413.6 -255.4,-784.6 -516,-1044.7 -232.3,-231.9 -503.1,-354.4 -776.1,-354.4"
        style="fill:#1e1b24;fill-opacity:1;fill-rule:nonzero;stroke:none" id="path104" />
      <path
        d="m 21461.7,17780.2 c -302.1,96.6 -468,277.7 -555.5,418.4 9.3,30.4 18.3,60.9 27.1,91.4 26.2,89.7 48.2,180.1 68.5,270.8 7,34.3 13.9,68.7 20.1,103.2 92,-174.7 259.1,-348 560.8,-436.9 15,-4.5 30,-8.6 44.9,-12.4 -37.3,-156.8 -93.6,-303.6 -165.9,-434.5 m -1443.4,257 c -4.4,0 -8.9,0 -13.4,0.1 -23.6,145.6 -28.2,302.5 -10.5,463.4 11.1,-0.9 22.2,-1.8 33.5,-2.4 23.9,-1.4 47.3,-2.1 70.1,-2.1 287.4,0 486.4,108.5 621.4,238.3 -7,-40.2 -13.1,-80.7 -18.9,-121.1 -11.7,-92.3 -21.5,-184.8 -27.3,-278 -1.6,-26.4 -3.2,-52.8 -4.6,-79.3 -124.4,-100.9 -336.9,-218.9 -650.3,-218.9"
        style="fill:#b72078;fill-opacity:1;fill-rule:nonzero;stroke:none" id="path106" />
      <path
        d="m 20906.2,18198.6 c -68.9,110.7 -89.2,196.4 -89.2,196.4 l -11.7,2.1 c 0,0 -43.8,-65.7 -136.7,-141 1.4,26.5 3,52.9 4.6,79.3 5.8,93.2 15.6,185.7 27.3,278 5.8,40.4 11.9,80.9 18.9,121.1 7.3,7 14.4,14 21.3,21.1 l 258.4,-45 c 7.1,-15.5 14.7,-31.1 22.8,-46.6 -6.2,-34.5 -13.1,-68.9 -20.1,-103.2 -20.3,-90.7 -42.3,-181.1 -68.5,-270.8 -8.8,-30.5 -17.8,-61 -27.1,-91.4"
        style="fill:#1e1b24;fill-opacity:1;fill-rule:nonzero;stroke:none" id="path108" />
      <path
        d="m 21555.8,17754.8 c -16.6,3.7 -33.4,7.6 -50.3,12.3 -14.9,4.2 -29.5,8.6 -43.8,13.1 72.3,130.9 128.6,277.7 165.9,434.5 42.6,-10.9 84.7,-19.1 126,-24.8 -57.3,-157.9 -124,-303.9 -197.8,-435.1 m -1550.9,282.5 c -19.6,0.2 -39.7,0.9 -60.1,2 -13.4,0.8 -25.8,3.7 -38.9,5.1 -24.8,147.8 -38.1,307 -38.5,474.1 40.8,-8.1 83.2,-14.1 127,-17.8 -17.7,-160.9 -13.1,-317.8 10.5,-463.4"
        style="fill:#1e1b24;fill-opacity:1;fill-rule:nonzero;stroke:none" id="path110" />
      <path
        d="m 22656.7,18875 c -155,-555.2 -562.3,-771.4 -1066.5,-622.7 -575.7,169.8 -645.7,660.4 -651.7,839.6 l -11.6,2.1 c -66.3,-166.7 -298.3,-604.6 -897.5,-569.4 -524.8,30.8 -834.8,372.1 -792.7,947 l 3420,-596.6"
        style="fill:#ffffff;fill-opacity:1;fill-rule:nonzero;stroke:none" id="path112" />
      <path
        d="m 21886.6,18180.5 c -96.6,0 -198.6,15.5 -303.9,46.6 -516.9,152.4 -638.6,552 -664.5,782.6 -102.5,-208.2 -352.6,-543 -890.3,-511.4 -264.4,15.5 -479.5,109.7 -622,272.4 -149.1,170.1 -216.6,413.1 -195.4,702.9 l 52.5,-3.9 c -20.2,-275.3 43,-505 182.5,-664.3 133.1,-151.8 335.5,-239.9 585.5,-254.5 573.7,-33.8 800.7,375.3 871.4,552.8 l 7.9,19.9 53.9,-9.4 0.7,-21.4 c 6.3,-190.9 80.7,-652.4 632.8,-815.2 240.2,-70.9 460.5,-56.6 637,41.2 185.2,102.6 322.4,297.4 396.7,563.3 l 50.7,-14.2 c -78.1,-279.7 -224,-485.6 -421.9,-595.2 -110.8,-61.3 -237,-92.2 -373.6,-92.2"
        style="fill:#1e1b24;fill-opacity:1;fill-rule:nonzero;stroke:none" id="path114" />
      <path d="m 21129.7,19141.4 -42.1,7.4 42.1,-7.4 v 0"
        style="fill:#c3b2d5;fill-opacity:1;fill-rule:nonzero;stroke:none" id="path116" />
      <path
        d="m 21886.6,18233.2 c -91.7,0 -188.6,14.8 -288.9,44.4 -552.1,162.8 -626.5,624.3 -632.8,815.2 l -0.7,21.4 -53.9,9.4 -7.9,-19.9 c -67.9,-170.5 -280.1,-554.8 -805.4,-554.8 -21.5,0 -43.5,0.7 -66,2 -250,14.6 -452.4,102.7 -585.5,254.5 -139.1,158.7 -202.2,387.4 -182.7,661.5 77.2,-16 141.7,-65.5 184.8,-132 133.8,-205.9 363.4,-325.1 663.2,-342.4 23.3,-1.3 46,-2 68.2,-2 266.8,0 454.8,97 585.1,214.7 l 323.5,-56.4 42.1,-7.4 c 89.6,-167.7 251.1,-335.5 542.1,-421.1 103.6,-30.7 203.2,-45.9 297.3,-45.9 167.6,0 317.8,48.3 443.2,143.4 53,40.3 116.3,64.2 181.5,64.2 12.2,0 24.5,-0.8 36.8,-2.6 -74.4,-264.5 -211.3,-458.3 -395.9,-560.6 -102.8,-56.9 -220.4,-85.6 -348.1,-85.6"
        style="fill:#c3b2d5;fill-opacity:1;fill-rule:nonzero;stroke:none" id="path118" />
      <path
        d="m 21887.5,18206.7 c -94.1,0 -193.6,15.2 -297.3,45.8 -575.6,169.7 -645.5,660 -651.8,839.4 l -11.7,2 c -63.6,-160.3 -280.3,-571.1 -829.8,-571.1 -22,0 -44.5,0.6 -67.7,2 -524.6,30.5 -834.7,371.9 -792.2,946.8 l 17.6,-3.1 c 2.7,-0.5 5.5,-1 8.2,-1.6 -19.5,-274.1 43.6,-502.8 182.7,-661.5 133.1,-151.8 335.5,-239.9 585.5,-254.5 22.5,-1.3 44.5,-2 66,-2 525.3,0 737.5,384.3 805.4,554.8 l 7.9,19.9 53.9,-9.4 0.7,-21.4 c 6.3,-190.9 80.7,-652.4 632.8,-815.2 100.3,-29.6 197.2,-44.4 288.9,-44.4 127.7,0 245.3,28.7 348.1,85.6 184.6,102.3 321.5,296.1 395.9,560.6 2.8,-0.4 5.7,-0.8 8.5,-1.3 l 17.6,-3.1 c -123.3,-441.1 -405.4,-668.3 -769.2,-668.3"
        style="fill:#1e1b24;fill-opacity:1;fill-rule:nonzero;stroke:none" id="path120" />
      <path
        d="m 22685.4,18867 c 0.6,-112.5 -17.9,-227.6 -61.6,-338.4 -42,-111.4 -111.8,-218.8 -208.6,-305.6 -96,-87.4 -219.4,-149.8 -347.5,-179.6 -128.5,-29.8 -259.7,-30.3 -382.8,-10.2 -31.4,3.6 -61.5,10.1 -91.2,18.1 -29.8,7.7 -59.8,14.1 -89.2,25.1 -29.4,10.2 -59,20 -88.1,30.9 l -85.9,40.7 c -113.2,58.3 -218.8,139.2 -304.5,237.8 -86.1,98.6 -150.5,213.5 -194.3,332.4 -21.6,59.5 -38.5,120.2 -50,181.5 -12.6,61.3 -20.2,122.8 -22.7,186.2 l 148.7,-171 -11.7,2 197.9,110.6 c -47.2,-117 -108.2,-225.8 -189.6,-324.4 -80.7,-98.2 -181,-185.2 -296.1,-248.9 -114.8,-64.5 -242.7,-102.7 -369.3,-119.1 -31.6,-3.4 -63.3,-6.1 -95,-8.3 l -93.5,1.1 c -31.4,-0.4 -61.8,3.6 -92.6,6.6 -30.6,2.5 -61.2,7.1 -92,14 -122.7,23 -247.1,65.5 -358.7,137.2 -112.1,69.9 -210.5,168.7 -273.5,284.2 -63.9,115.1 -93.7,241.9 -94.8,362.3 -1,120.8 22.7,236.4 68.2,341.6 7,16 25.5,23.3 41.5,16.4 8.9,-3.9 15.1,-11.3 17.7,-19.9 l 0.2,-0.8 c 62.5,-212 129.1,-394.9 240.4,-517.6 54.3,-61.5 115.1,-111.2 186.7,-147.9 71.8,-35.5 152.5,-59.4 238.7,-71.9 86.2,-10.7 177.8,-18.2 260.7,-6.8 83.8,9.2 162.8,30.9 235.3,66.4 72.4,35.8 138.1,86.6 195,149.7 55.8,63.2 104.4,139.4 136.6,219 l 0.9,2.1 c 32.3,79.7 115.7,123.3 197.1,108.5 l 11.6,-2.1 2.4,-0.4 c 84.5,-15.3 144.2,-88 146.3,-170.6 2.3,-85.8 19,-174.9 50.2,-254 31.1,-79.5 76.2,-150.5 133,-209 56.5,-58.9 125.5,-104.4 201.5,-141.4 75.2,-37.4 163.7,-62 248.8,-80.8 171.8,-35.6 334.3,-24.5 481.9,55.4 74.5,39.2 144.7,97.2 210.1,168.4 64.4,71.9 124.2,155.5 184.5,246.5 l 0.6,0.9 c 9.4,14.3 28.6,18.2 42.8,8.7 8.9,-5.8 13.8,-15.7 13.9,-25.6"
        style="fill:#1e1b24;fill-opacity:1;fill-rule:nonzero;stroke:none" id="path122" />
      <path
        d="m 28089.9,22776.4 c -72.7,0 -143.3,37.6 -182.4,104.9 -58.5,100.6 -24.3,229.6 76.3,288.1 2254.8,1309.8 3025.8,5295.7 2334.8,7203.2 -148.6,410.2 -430.6,881.2 -935.4,795.3 -2315.8,-394.6 -4177.1,-2202.7 -5080.6,-3245.3 -76.1,-88 -209.1,-97.5 -297.2,-21.3 -87.9,76.2 -97.4,209.3 -21.2,297.3 940.3,1085.2 2882.9,2968.1 5328.2,3384.7 617.1,105.3 1115,-273.8 1402.4,-1067.1 367.8,-1015.3 351.1,-2560.9 -43.5,-4033.9 -458.2,-1710.1 -1337.5,-3016 -2475.8,-3677.3 -33.3,-19.4 -69.7,-28.6 -105.6,-28.6"
        style="fill:#1e1b24;fill-opacity:1;fill-rule:nonzero;stroke:none" id="path124" />
      <path
        d="m 15516.2,24943.2 c -59.3,0 -118.2,24.9 -159.8,73.3 -860.7,1000.2 -1256.9,2526 -1115.6,4296.1 119.7,1499.2 636.4,3003.3 1316.3,3831.8 542.2,660.5 1143.3,853.5 1692.4,543.2 2163.4,-1222.4 3353.7,-3655.8 3870.6,-4997.6 41.9,-108.6 -12.3,-230.5 -120.9,-272.4 -108.5,-41.8 -230.5,12.3 -272.3,120.9 -496.7,1289.1 -1635.8,3624.5 -3684.8,4782.3 -448.7,253.5 -878.1,-101.4 -1159.2,-443.8 -1154.8,-1407 -2017.3,-5482 -207.1,-7585.6 75.9,-88.2 65.9,-221.3 -22.3,-297.2 -39.8,-34.2 -88.6,-51 -137.3,-51"
        style="fill:#1e1b24;fill-opacity:1;fill-rule:nonzero;stroke:none" id="path126" />
      <path
        d="m 20475.3,15574.9 c -152.8,39.9 -305,81.5 -456.8,124.4 -711.5,633.1 -1643.5,987.2 -2635.4,987.2 -27.5,0 -54.8,-0.3 -82.2,-0.8 -58.6,32.4 -116.9,65.6 -174.8,99.5 -289.8,166.9 -568.6,354.9 -839.3,554.5 -270,199.9 -533.2,412.9 -777.5,641.1 l -45.4,42.8 c -14,13.6 -32.3,30.5 -41.8,41.2 -21.2,21.1 -50.4,55.5 -76.5,85.1 l -164.4,195.1 -334.9,396.7 c -226.3,264 -460.4,523.9 -715.6,770.3 -126.1,122.7 -265.7,242.8 -405.5,352.2 -131.1,101.6 -256.9,208.4 -368.6,321 -55.6,56.3 -107.4,114.3 -151.3,172.7 -42.8,57.8 -79.3,118.5 -94.7,167.1 -8.2,24.2 -11.5,44.6 -11.2,57.9 0.4,13.7 2.5,20.1 7.1,29.3 9,17.5 45.4,51.8 103.4,78 l 296.2,128.5 c 1428,-1541.7 3884.3,-3690 6995.7,-4232.7 462.5,-80.7 923.2,-123.1 1378.9,-133.7 -526.2,-188.2 -1005.4,-485.6 -1405.4,-877.4 m 4898.1,500.5 c -411.8,260 -878.6,447 -1379.5,541.4 1771.4,306.1 3357.2,980.1 4504.5,1573.5 l 171.5,-160 37.2,-34.6 18.5,-17.2 12.7,-12.8 c 17.7,-16.8 31,-33.4 42.1,-48.3 22.5,-31.3 25.4,-49.1 25.3,-56.9 1,-7.5 -3.3,-26.4 -26.4,-57.3 -22.7,-29.8 -59.2,-64.5 -102.7,-96.8 -87.9,-65.2 -198.7,-123.2 -313.3,-174.6 -115.6,-51.3 -237,-97 -361.1,-138.3 l -46.9,-15.8 -51.1,-17.9 -102,-36 c -66.3,-26.1 -132.6,-52.2 -197.8,-79.7 -517.4,-224.1 -993.7,-502 -1462.7,-781 l -174.6,-104 c -57.1,-33.6 -116.5,-68.6 -167.4,-95.7 l -36.8,-18.8 -45.8,-21.7 -89,-41 c -60,-26.6 -120.6,-52.3 -181.6,-77.5 -24.3,-9.7 -48.7,-19.4 -73.1,-29"
        style="fill:#c3b2d5;fill-opacity:1;fill-rule:nonzero;stroke:none" id="path128" />
      <path
        d="m 20374.2,15472 c -21.3,3.6 -42.9,7.3 -64.3,11.1 l -0.5,0.1 c -27.1,4.7 -54,9.5 -80.9,14.3 -67.6,70.1 -137.7,137.4 -210,201.8 151.8,-42.9 304,-84.5 456.8,-124.4 -34.3,-33.6 -68,-67.9 -101.1,-102.9 M 16912,16659.3 c -1025,582.8 -1525.4,1150.1 -1624.2,1246.1 -174.8,170.1 -983.1,1256 -1666.3,1780.8 -683.1,525.4 -974.3,981.8 -475.6,1199.6 78.5,34.3 149.9,64.9 214.1,92.4 47.4,-52.4 96.1,-105.5 146.1,-159.5 l -296.2,-128.5 c -58,-26.2 -94.4,-60.5 -103.4,-78 -4.6,-9.2 -6.7,-15.6 -7.1,-29.3 -0.3,-13.3 3,-33.7 11.2,-57.9 15.4,-48.6 51.9,-109.3 94.7,-167.1 43.9,-58.4 95.7,-116.4 151.3,-172.7 111.7,-112.6 237.5,-219.4 368.6,-321 139.8,-109.4 279.4,-229.5 405.5,-352.2 255.2,-246.4 489.3,-506.3 715.6,-770.3 l 334.9,-396.7 164.4,-195.1 c 26.1,-29.6 55.3,-64 76.5,-85.1 9.5,-10.7 27.8,-27.6 41.8,-41.2 l 45.4,-42.8 c 244.3,-228.2 507.5,-441.2 777.5,-641.1 270.7,-199.6 549.5,-387.6 839.3,-554.5 57.9,-33.9 116.2,-67.1 174.8,-99.5 -131.3,-2.7 -261.1,-11.6 -388.9,-26.4"
        style="fill:#1e1b24;fill-opacity:1;fill-rule:nonzero;stroke:none" id="path130" />
      <path
        d="m 25582.5,15933.7 c -68,49.4 -137.7,96.7 -209.1,141.7 24.4,9.6 48.8,19.3 73.1,29 61,25.2 121.6,50.9 181.6,77.5 l 89,41 45.8,21.7 36.8,18.8 c 50.9,27.1 110.3,62.1 167.4,95.7 l 174.6,104 c 469,279 945.3,556.9 1462.7,781 65.2,27.5 131.5,53.6 197.8,79.7 l 102,36 51.1,17.9 46.9,15.8 c 124.1,41.3 245.5,87 361.1,138.3 114.6,51.4 225.4,109.4 313.3,174.6 43.5,32.3 80,67 102.7,96.8 23.1,30.9 27.4,49.8 26.4,57.3 0.1,7.8 -2.8,25.6 -25.3,56.9 -11.1,14.9 -24.4,31.5 -42.1,48.3 l -12.7,12.8 -18.5,17.2 -37.2,34.6 -171.5,160 c 72.1,37.3 142.6,74.3 211.1,110.8 51.1,-48.1 107.3,-101 169.5,-159.8 395.6,-373.8 -32.4,-704.8 -853.1,-967.9 -821.1,-262.4 -1949.3,-1010.4 -2171.4,-1111.3 -39,-17.7 -130,-65.2 -272,-128.4"
        style="fill:#1e1b24;fill-opacity:1;fill-rule:nonzero;stroke:none" id="path132" />
      <path
        d="m 20981.6,19193.6 c -10.2,0 -20.5,0.8 -30.9,2.6 -97.1,17 -162.2,109.5 -145.2,206.7 l 100.9,578.3 c 16.9,97.1 109.4,162.2 206.5,145.2 97.2,-16.9 162.3,-109.4 145.3,-206.6 l -100.9,-578.3 c -15.1,-86.8 -90.5,-147.9 -175.7,-147.9"
        style="fill:#1e1b24;fill-opacity:1;fill-rule:nonzero;stroke:none" id="path134" />
      <path
        d="m 22158.2,19922.9 c -59.6,-341.4 -627.3,-714.3 -1229.2,-609.3 -601.8,105 -1009.8,648.1 -950.3,989.5 59.6,341.4 552.5,285 1154.3,180 601.9,-105 1084.8,-218.8 1025.2,-560.2"
        style="fill:#1e1b24;fill-opacity:1;fill-rule:nonzero;stroke:none" id="path136" />
      <path
        d="m 21556.7,20128.6 c -13.1,-74.9 -242.4,-138.4 -503.6,-92.8 -261.2,45.5 -455.5,182.9 -442.4,257.8 13,74.9 225.9,44.2 487.2,-1.3 261.2,-45.6 471.9,-88.9 458.8,-163.7"
        style="fill:#ffffff;fill-opacity:1;fill-rule:nonzero;stroke:none" id="path138" />
      <path
        d="m 20729.6,20315 c -83.8,0 -94.2,-19.1 -95.4,-25.5 -3.7,-21.2 28.4,-66.4 107.4,-115.5 86.2,-53.5 198.3,-94.2 315.6,-114.7 117.4,-20.5 236.7,-20.1 335.8,1.1 91,19.4 136.5,51 140.2,72.3 v 0 c 1.2,7.1 -3.1,32.8 -110.1,65.9 -78.3,24.2 -188.3,45.5 -329.3,70.1 -141.1,24.6 -251.8,41.8 -333.7,45.5 -11.1,0.5 -21.3,0.8 -30.5,0.8 z m 499.3,-318.6 c -58.8,0 -119.6,5.3 -179.9,15.8 -123.3,21.5 -241.3,64.5 -332.6,121.2 -90.6,56.2 -137.7,116.1 -129.2,164.3 11.1,64.3 105.1,67.6 175.1,64.3 84.4,-3.9 196.8,-21.3 339.7,-46.2 142.8,-24.9 254.5,-46.6 335.2,-71.6 66.8,-20.6 154.3,-55.5 143,-119.8 -8.4,-48.2 -73,-88.6 -177.2,-110.8 -53.7,-11.4 -112.8,-17.2 -174.1,-17.2"
        style="fill:#1e1b24;fill-opacity:1;fill-rule:nonzero;stroke:none" id="path140" />
      <path
        d="m 19340.8,22085.4 c -109,-759.7 -631.4,-1313.2 -1166.8,-1236.4 -535.5,76.9 -881.1,755 -772.2,1514.6 109,759.6 631.5,1313.2 1166.9,1236.3 535.4,-76.8 881.1,-754.9 772.1,-1514.5"
        style="fill:#1e1b24;fill-opacity:1;fill-rule:nonzero;stroke:none" id="path142" />
      <path
        d="m 18943,22363.6 c -36.6,-255.1 -197.4,-443.1 -359.2,-419.9 -161.8,23.3 -263.3,248.9 -226.7,503.9 36.6,255.1 197.5,443.1 359.2,419.9 161.8,-23.2 263.3,-248.8 226.7,-503.9"
        style="fill:#ffffff;fill-opacity:1;fill-rule:nonzero;stroke:none" id="path144" />
      <path
        d="m 25731.9,21406.2 c -162.1,-17.8 -328,-43.2 -483.9,-78.8 -157,-35.8 -307.7,-82.7 -450.6,-140.9 -72.4,-27.3 -140.1,-63.1 -208.9,-95.5 l -98.5,-56.8 c -16,-9.9 -33.3,-17.9 -48.9,-28.5 l -46.6,-32.1 c -128.1,-80.3 -237.2,-185.1 -345.5,-291.5 l -219.8,361.7 c 15.4,3.6 25,5.1 35.4,7 10.6,2 20.7,3.6 30.3,4.9 19.7,2.6 39.4,5.2 58.4,6.7 38.5,4.2 76.3,5.7 114.2,7.5 75.5,2.6 150.5,-1.2 224.9,-7.9 148.8,-14.1 295.4,-47.9 434.3,-100.6 138.5,-52.9 271,-121.2 387.1,-210 118.7,-84.7 218.2,-191.6 304.9,-302.5 26,-33.2 20.1,-81.2 -13.1,-107.2 -24.5,-19.1 -57,-21 -82.8,-7.4 l -8,4.3 c -58.5,31 -111.2,67 -168.1,95.5 -57.4,27.6 -112,57.5 -170.7,78.7 -113.5,49 -231.2,82 -349,104.5 -117.5,24 -237.1,33.9 -355.6,32.8 -29.5,0.3 -59.1,-2 -88.5,-2.8 l -87.7,-7.2 c -28.9,-3.5 -57.8,-6.7 -85.6,-11.8 -14.3,-2.1 -27.5,-5 -40.9,-7.7 -6.9,-1.3 -13.3,-2.6 -19,-4 l -13.8,-3.3 -5.2,-1.2 c -118.6,-28.2 -237.6,45.2 -265.8,163.8 -17.3,73 4.7,147.2 51.2,199.2 127.5,140.8 265.7,277.2 430,377.1 78,56.4 166.5,94.3 251,138.1 88.8,34.3 176.2,72 268.2,93.6 181.8,49.9 368.3,73.5 552.4,69.4 184.9,-5.4 363.8,-31.7 540.7,-97.9 39.7,-14.9 59.9,-59.1 45.1,-98.8 -10.5,-28.1 -35.6,-46.4 -63.5,-49.5 l -8.1,-0.9"
        style="fill:#1e1b24;fill-opacity:1;fill-rule:nonzero;stroke:none" id="path146" />
      <path
        d="m 29659.4,6906.4 c -722.7,-1206.2 -1360,-1402.3 -1500.8,-1448.1 -413.8,-135 -1407.7,6.7 -1407.7,6.7 0,0 -2770,279.3 -4836.5,282.9 h -2863.6 c -63.4,0 -127.2,-0.4 -191.5,-0.9 -2048.2,-16.2 -4686.4,-282 -4686.4,-282 0,0 -993.9,-141.7 -1407.7,-6.7 -140.7,45.8 -778,241.9 -1500.8,1448.1 -889.6,1484.6 -477.1,2681.4 86.8,3169.4 784.4,678.2 1521.1,158.8 2038.7,-618 83.2,175.9 221.8,357.6 388.6,525.8 310.8,313.5 719.1,578.8 1047,664.7 906.2,237 1823.3,-183.9 2311.7,-1050.6 h 6649.5 c 488.4,866.7 1405.4,1287.6 2311.6,1050.6 504.2,-131.8 1197.7,-687.7 1435.6,-1190.5 517.7,776.8 1254.4,1296.2 2038.7,618 564,-488 976.4,-1684.8 86.8,-3169.4"
        style="fill:#f99b28;fill-opacity:1;fill-rule:nonzero;stroke:none" id="path148" />
      <path
        d="m 29659.4,6906.6 c -722.6,-1206.2 -1359.9,-1402.3 -1500.8,-1448.5 -413.7,-134.7 -1407.7,7.1 -1407.7,7.1 0,0 -2770.1,279.3 -4836.6,282.6 h -2863.6 c -63.5,0 -127.3,-0.5 -191.6,-0.9 -2047.9,-16 -4686.2,-281.7 -4686.2,-281.7 0,0 -994.1,-141.8 -1407.7,-7.1 -140.9,46.2 -778.2,242.3 -1500.8,1448.5 -889.4,1484.4 -477.1,2681.2 86.9,3169.3 784.4,678.1 1521,158.7 2038.5,-617.9 83.2,175.9 222,357.6 388.9,525.6 331.2,45 591.1,-77.8 835.5,-274.3 416.9,-335 788.5,-884.5 1392,-1184 1008.1,-500.2 2084.2,-269.5 2084.2,-269.5 0,0 -478.7,619.2 -839.2,1341.8 H 23673 c -360.9,-722.6 -839.2,-1341.8 -839.2,-1341.8 0,0 1075.7,-230.7 2083.8,269.5 13.2,6.6 25.9,13.2 38.7,19.7 929.4,485.4 1304.7,1558.1 2189.2,1438.6 166.9,-168 305.3,-349.7 388.5,-525.6 517.4,776.6 1254.5,1296 2038.4,617.9 564,-488.1 976.4,-1684.9 87,-3169.3"
        style="fill:#ffffff;fill-opacity:1;fill-rule:nonzero;stroke:none" id="path150" />
      <path
        d="m 16554.4,8319.6 c -180.4,48.3 -365.5,115 -548.2,205.7 -603.5,299.5 -975.1,849 -1392,1184 v 0 c -117.4,161.2 -226.4,324.5 -325.5,489.6 3.2,2.2 6.4,4.5 9.6,6.7 132.1,-33.4 267.8,-50.9 404.4,-55.1 528.3,-661.4 1181.3,-1280.4 1851.7,-1830.9"
        style="fill:#bf6c3f;fill-opacity:1;fill-rule:nonzero;stroke:none" id="path152" />
      <path
        d="m 13290.7,5564.8 c -187.4,0 -360.9,13.1 -474.3,50.1 l -4.9,1.6 c -597.2,193.9 -1094.1,854.6 -1405.7,1374.7 -339.3,566.3 -484.3,1099.7 -493.4,1563.6 82,-239.1 197.5,-489.1 352.4,-748 722.6,-1206.3 1361.6,-1397 1500.8,-1448.1 227.8,-83.5 430.1,-118.6 611.6,-118.6 918.8,0 1307.7,899.5 1807.5,983.7 71.2,12.1 142,17.6 212.4,17.6 645.7,0 1263.6,-460.2 1901,-544.9 1.7,-0.2 3.3,-0.4 5,-0.6 8.7,-1.2 17.3,-1.7 25.6,-1.7 166.9,0 246.7,220.9 104.5,325.8 -1012.6,747.2 -2080.8,1675.6 -2819,2689.3 v 0 0 c 416.9,-335 788.5,-884.5 1392,-1184 182.7,-90.7 367.8,-157.4 548.2,-205.7 1453.4,-1193.3 2989.1,-2064.9 3515.6,-2350.6 53.3,-28.9 110.1,-47.6 167.9,-56.2 H 19051 c -2055.6,0 -4866.4,-280.9 -4894.5,-283.7 -2.3,-0.3 -4.5,-0.5 -6.7,-0.9 -168.6,-24 -534.7,-63.4 -859.1,-63.4"
        style="fill:#c3b2d5;fill-opacity:1;fill-rule:nonzero;stroke:none" id="path154" />
      <path
        d="m 23919.8,8231.9 c 709.4,574.3 1408.4,1224.6 1971.1,1918 145.2,2.7 289.6,20.3 429.9,55.9 -351.8,-573.6 -824.7,-1129 -1351.7,-1648.4 -4.2,-4.1 -8.7,-8.2 -12.8,-12.4 v 0 c -12.8,-6.5 -25.5,-13.1 -38.7,-19.7 -339.5,-168.4 -686.7,-254 -997.8,-293.4"
        style="fill:#bf6c3f;fill-opacity:1;fill-rule:nonzero;stroke:none" id="path156" />
      <path
        d="m 27633.5,5564.9 c -324.4,0 -690.8,39.3 -859.4,63.3 -2.3,0.4 -4.5,0.7 -6.8,0.9 -28.1,2.8 -2838.8,283.7 -4894.4,283.7 h -1487.8 c 59.5,8.9 117.9,28.4 172.4,58.7 508.1,282.4 1955.7,1121.8 3362.3,2260.4 311.1,39.4 658.3,125 997.8,293.4 13.2,6.6 25.9,13.2 38.7,19.7 v 0 0 c -580.9,-570.7 -1226.4,-1097.1 -1846.8,-1555.2 -140.9,-104.1 -64.8,-325.5 106.8,-325.5 3.1,0 6.2,0 9.4,0.2 154.1,7.2 290.5,17.5 400.3,32 637.4,84.7 1255.5,544.9 1901.1,544.9 70.5,0 141.2,-5.5 212.4,-17.6 499.8,-84.2 888.8,-983.7 1807.4,-983.7 181.6,0 383.8,35.1 611.7,118.6 139.2,51.1 778.2,241.8 1500.8,1448.1 154.7,258.5 270,508.2 352,746.9 -9.3,-463.7 -154.3,-996.6 -493.3,-1562.5 -311.6,-520 -808.5,-1180.7 -1405.7,-1374.7 l -4.9,-1.6 c -113.2,-36.9 -286.6,-50 -474,-50"
        style="fill:#c3b2d5;fill-opacity:1;fill-rule:nonzero;stroke:none" id="path158" />
      <path
        d="m 13521.4,9557.2 c 26.1,-27.4 42.8,-48.1 62,-72.7 17.6,-24.1 35.5,-47.9 50.8,-72.9 32.4,-49.1 60,-100.2 85.6,-152.2 52.3,-103.4 89.4,-213 123.6,-322.4 33.6,-109.7 60.3,-221 81,-333.3 19.9,-112.6 33.9,-226 37.6,-341.1 0.4,-13.5 -10.2,-24.8 -23.6,-25.2 -8.8,-0.3 -16.6,4.1 -21.2,10.9 l -0.2,0.3 c -63.3,95.7 -118.9,192.1 -176.6,286.7 l -168.5,281.2 c -56.1,92.4 -114.7,182.2 -167,273.7 -27,45.2 -53.2,90.7 -78.1,136.2 l -36.9,67.9 c -11.1,21.6 -24.7,47.1 -31.4,64.2 l -9.8,25 c -33.2,84.7 8.6,180.3 93.3,213.5 64.1,25.1 134.6,7.2 179.4,-39.8"
        style="fill:#1e1b24;fill-opacity:1;fill-rule:nonzero;stroke:none" id="path160" />
      <path
        d="m 27665.4,9358.5 c -6.7,-17.1 -20.4,-42.6 -31.5,-64.2 l -36.8,-67.9 c -25,-45.5 -51.1,-91 -78.1,-136.2 -52.3,-91.5 -110.9,-181.3 -167,-273.7 l -168.6,-281.2 c -57.6,-94.6 -113.3,-191 -176.6,-286.7 l -0.2,-0.3 c -7.4,-11.2 -22.6,-14.3 -33.8,-6.8 -7.3,4.8 -11.2,12.9 -10.9,21.1 3.6,115.1 17.7,228.5 37.5,341.1 20.7,112.3 47.5,223.6 81,333.3 34.2,109.4 71.4,219 123.7,322.4 25.6,52 53.2,103.1 85.6,152.2 15.3,25 33.1,48.8 50.8,72.9 19.1,24.6 35.9,45.3 62,72.7 62.7,65.9 167,68.5 232.9,5.7 49.9,-47.5 63.5,-118.8 39.9,-179.3 l -9.9,-25.1"
        style="fill:#1e1b24;fill-opacity:1;fill-rule:nonzero;stroke:none" id="path162" />
      <path
        d="m 13301.8,5234.8 c -219.1,0 -434.1,16.7 -587.4,66.7 -699,227 -1250.7,951.9 -1591.3,1520.4 -888,1481.9 -560.2,2790.1 120.2,3378.5 318.2,275.1 653.7,390.9 996.7,344.3 392.2,-53.2 781.7,-323.1 1136.5,-784.7 320,463.1 918.9,920 1407.1,1047.6 88.2,23.1 178.1,-29.7 201.1,-117.7 23.1,-88 -29.7,-178.1 -117.7,-201.1 -473.5,-123.8 -1118.9,-659 -1328.1,-1101.4 -25.4,-53.7 -77.7,-89.6 -136.9,-93.9 -58.7,-4.3 -116.3,23.5 -149.2,73 -236.7,355.2 -612.3,791.2 -1057.1,851.6 -245.5,33.3 -493.4,-56.5 -736.8,-267 -579.5,-501.1 -843.3,-1641.1 -53.1,-2959.9 311.6,-520.1 808.5,-1180.8 1405.7,-1374.7 l 4.9,-1.6 c 309.6,-100.9 1067.5,-24.5 1333.4,13.3 2.2,0.4 4.4,0.6 6.7,0.9 28.1,2.8 2838.9,283.7 4894.5,283.7 h 2821.9 c 2055.6,0 4866.3,-280.9 4894.4,-283.7 2.3,-0.2 4.5,-0.5 6.8,-0.9 266.1,-37.8 1024.3,-114 1333.4,-13.3 l 4.9,1.6 c 597.2,194 1094.1,854.7 1405.7,1374.7 790.2,1318.8 526.3,2458.8 -53.2,2959.9 -243.4,210.5 -491.3,300.5 -736.7,267 -444.8,-60.3 -820.4,-496.4 -1057.2,-851.6 -32.9,-49.5 -90.4,-77.1 -149.1,-73 -59.2,4.3 -111.5,40.2 -136.9,93.9 -209.3,442.4 -854.7,977.6 -1328.2,1101.4 -88,23 -140.7,113.1 -117.7,201.1 23,88 112.9,140.8 201.1,117.7 488.2,-127.6 1087.1,-584.5 1407.2,-1047.6 354.8,461.6 744.3,731.5 1136.5,784.7 343.4,46.6 678.5,-69.2 996.6,-344.3 680.4,-588.4 1008.3,-1896.6 120.3,-3378.5 -340.6,-568.4 -892.3,-1293.3 -1586.6,-1518.9 -437.5,-142.5 -1362.1,-18.6 -1483.2,-1.5 -111.2,11.1 -2850.9,281.8 -4858.1,281.8 H 19051 c -2007.1,0 -4746.7,-270.7 -4858.2,-281.8 -78.1,-11.1 -491.4,-66.7 -891,-66.7"
        style="fill:#1e1b24;fill-opacity:1;fill-rule:nonzero;stroke:none" id="path164" />
      <path d="m 21257.6,5747.8 h -1908.7 c -5.7,3.3 -11.5,7 -17.7,10.7 h 1943.7 c -5.8,-3.7 -11.5,-7.4 -17.3,-10.7"
        style="fill:#1e1b24;fill-opacity:1;fill-rule:nonzero;stroke:none" id="path166" />
      <path
        d="m 26953.1,12983.2 c 0,-93.9 -4.9,-187.8 -14.8,-281.8 -117.8,-1155.1 -940.5,-2306.2 -1969.2,-3320 -1668.9,-1644.2 -3878.3,-2924.6 -4491.8,-3265.8 -102.1,-56.8 -225.7,-57.6 -328.7,-1.6 -1024.6,555.7 -6475.4,3663.7 -6475.4,6869.2 0,1954.4 1661.5,3538.4 3709.8,3538.4 1191.4,0 2251.9,-535.5 2930.4,-1368.1 678.9,832.6 1738.9,1368.1 2929.9,1368.1 2049.2,0 3709.8,-1584 3709.8,-3538.4"
        style="fill:#f9266c;fill-opacity:1;fill-rule:nonzero;stroke:none" id="path168" />
      <path
        d="m 13972.4,13842 c -3.9,8.1 -7.6,16.4 -11,24.8 408.9,1433.1 1788,2490.1 3421.7,2490.1 1103.6,0 2125.2,-476.5 2802.7,-1307.4 31.4,-38.4 78.3,-60.7 127.8,-60.7 49.5,0 96.4,22.3 127.7,60.7 677.2,830.9 1698.5,1307.4 2802.1,1307.4 1481.6,0 2753.9,-869.4 3282.9,-2100.4 -4.7,-43 -10.3,-86.1 -16.9,-129.1 -627,1106.7 -1854.3,1858.7 -3266.1,1858.7 -1059.6,0 -2015.6,-423.9 -2691.7,-1103.8 -43.6,-43.9 247.9,-374.9 238.2,-435.9 -18.2,-115.5 -59.8,-158.2 -111.3,-158.2 -128.3,-0.1 -318.4,264.4 -365.1,329.7 -678.5,832.6 -1739,1368.2 -2930.4,1368.2 -1529.3,0 -2843.2,-883.2 -3410.6,-2144.1"
        style="fill:#fc93b6;fill-opacity:1;fill-rule:nonzero;stroke:none" id="path170" />
      <path
        d="m 26382.5,13601.2 c 57,174.8 99.8,350.4 126.9,526.2 50.9,-90 97.9,-182.2 140.7,-276.7 -50.5,-111.4 -143.6,-190.9 -267.6,-249.5"
        style="fill:#bf1b6f;fill-opacity:1;fill-rule:nonzero;stroke:none" id="path172" />
      <path
        d="m 26650.1,13850.7 c -42.8,94.5 -89.8,186.7 -140.7,276.7 6.6,43 12.2,86.1 16.9,129.1 52.6,-122.4 98,-248.6 135.4,-377.7 -3.6,-9.5 -7.5,-18.9 -11.6,-28.1"
        style="fill:#c167a2;fill-opacity:1;fill-rule:nonzero;stroke:none" id="path174" />
      <path
        d="m 17383.1,16356.9 c -1954.7,0 -3545,-1513.4 -3545,-3373.5 0,-3101.4 5322.2,-6145.8 6389.1,-6724.7 53.4,-29 117,-28.7 170.2,0.9 466.5,259.2 2104.2,1202.6 3595.1,2458 1855.3,1562.2 2795.9,2997.4 2795.9,4265.8 0,1860.1 -1590.3,3373.5 -3545,3373.5 -1103.6,0 -2124.9,-476.5 -2802.1,-1307.4 -31.3,-38.4 -78.2,-60.7 -127.7,-60.7 -49.5,0 -96.4,22.3 -127.8,60.7 -677.5,830.9 -1699.1,1307.4 -2802.7,1307.4 M 20311.5,5907.4 c -82.8,0 -165.7,20.5 -241.5,61.6 -1095.7,594.5 -6561.5,3726.3 -6561.5,7014.4 0,2041.9 1738.1,3703.1 3874.6,3703.1 1135.8,0 2192.8,-464.2 2930.4,-1280 737.4,815.9 1794.2,1280 2929.9,1280 2136.4,0 3874.6,-1661.2 3874.6,-3703.1 0,-3203.6 -5464.9,-6403 -6560.5,-7011.9 -76.8,-42.7 -161.4,-64.1 -246,-64.1"
        style="fill:#1e1b24;fill-opacity:1;fill-rule:nonzero;stroke:none" id="path176" />
      <path
        d="m 20311.5,6237.2 c -28.9,0 -57.9,7.2 -84.3,21.5 -734.5,398.5 -3485.5,1965.3 -5128.6,3914.9 665,94.6 1281.2,450.8 1502.9,762 277.9,390.2 393.7,759.2 390.9,1087 0,0.2 0,0.4 0,0.6 0,0.5 0,1 0,1.5 0,0.1 0,0.2 0,0.3 308.4,-419.3 313,-1045.2 -233.5,-1748.8 -66.3,-85.7 -167.3,-179.7 -285.5,-275.6 1052.8,-651.7 2251.4,-978.9 3449.4,-978.9 1368.2,0 2735.7,426.7 3885.3,1284.1 -540.1,713.5 -513.7,1344.5 -181.1,1757.8 -13.2,-337.9 100.4,-721.5 389.9,-1128 218.6,-306.9 821,-657.6 1475.4,-757.9 -405.6,-472.8 -905.9,-960 -1499.8,-1460.1 -1490.9,-1255.4 -3128.6,-2198.8 -3595.1,-2458 -26.8,-14.9 -56.4,-22.4 -85.9,-22.4"
        style="fill:#bf1b6f;fill-opacity:1;fill-rule:nonzero;stroke:none" id="path178" />
      <path
        d="m 20311.4,6072.5 c -55.9,0 -111.9,13.8 -162.8,41.5 -679,368.3 -3301.2,1857.2 -4993.1,3752.2 -6.6,7 -12.8,14 -19,21.1 -78.1,88 -154.3,177 -228.1,266.7 63.7,4 127.1,10.6 190.2,19.6 1643.1,-1949.6 4394.1,-3516.4 5128.6,-3914.9 26.4,-14.3 55.4,-21.5 84.3,-21.5 29.5,0 59.1,7.5 85.9,22.4 466.5,259.2 2104.2,1202.6 3595.1,2458 593.9,500.1 1094.2,987.3 1499.8,1460.1 64.2,-9.9 128.9,-17.3 193.7,-22 -221.3,-265.1 -462.9,-524 -716.9,-774.3 -1668.9,-1644.2 -3878.3,-2924.6 -4491.8,-3265.8 -51.6,-28.7 -108.7,-43.1 -165.9,-43.1"
        style="fill:#1e1b24;fill-opacity:1;fill-rule:nonzero;stroke:none" id="path180" />
      <path
        d="m 15136.5,9887.3 c -79.2,88 -156.4,176.9 -231.3,266.5 1,0.1 2.2,0.2 3.2,0.2 73.8,-89.7 150,-178.7 228.1,-266.7"
        style="fill:#1e1b24;fill-opacity:1;fill-rule:nonzero;stroke:none" id="path182" />
      <path
        d="m 25411.9,15850.5 c 0,0 2453.9,-1612.5 2238.7,-3705.3 -304.4,-2960.1 -3102.3,-1955.6 -3633.7,-1209.6 -913.3,1282.3 -75.9,2336.6 969.1,2446.7 858,90.4 1716.9,59.2 1706.7,694 -10.3,634.9 -1280.8,1774.2 -1280.8,1774.2"
        style="fill:#ffffff;fill-opacity:1;fill-rule:nonzero;stroke:none" id="path184" />
      <path
        d="m 27618.6,11901.6 c 12.6,78.1 23.3,159.2 32,243.6 0.8,7.9 1.6,15.8 2.3,23.7 -0.7,-7.9 -1.5,-15.8 -2.3,-23.6 -8.7,-84.4 -19.4,-165.6 -32,-243.7"
        style="fill:#bb6ddc;fill-opacity:1;fill-rule:nonzero;stroke:none" id="path186" />
      <path
        d="m 25851,10149.6 c -782.4,0 -1575.7,423.6 -1834,786.1 -412.8,579.7 -468,1112.8 -307.7,1533 63,-187.9 163.5,-384.4 307.7,-586.7 258.3,-362.2 1051.8,-785.8 1834.1,-785.8 786.4,0 1561.5,427.7 1771.1,1775.4 40.3,-226.6 53.1,-461.4 30.7,-702.7 -0.7,-7.9 -1.5,-15.8 -2.3,-23.7 -8.7,-84.4 -19.4,-165.5 -32,-243.6 -215,-1329.1 -985.8,-1752 -1767.6,-1752"
        style="fill:#cdbfdc;fill-opacity:1;fill-rule:nonzero;stroke:none" id="path188" />
      <path
        d="m 26838.2,14230.1 c 11.8,-52.1 18.5,-102.6 19.2,-151.1 11.3,-699 -755.2,-764.4 -1496.5,-827.7 -117.1,-10 -238.2,-20.3 -357.6,-32.9 -503.8,-53.1 -931.2,-339.7 -1115.3,-748.1 -190.4,-422.5 -96.9,-933.6 263.1,-1439.1 259.6,-364.4 1270.6,-892.7 2143.9,-661.9 677.4,178.9 1089.5,798.8 1191.7,1792.7 79.6,774.8 -235.6,1487.7 -648.5,2068.1 z m -982.1,-4244.6 c -838.5,0 -1687.8,453.5 -1973.4,854.5 -430.9,604.9 -535.7,1232 -295.1,1765.7 232,514.8 761.2,875.2 1381.1,940.5 122.8,12.9 245.5,23.4 364.2,33.5 816.6,69.7 1200.7,141.1 1195,494 -6.6,409.5 -755.5,1232 -1226,1654.2 -64.2,57.5 -73.1,154.9 -20.5,223.2 52.5,68.3 149,84.5 221,37.2 103.6,-68.1 2535,-1692.5 2312.1,-3860 -148.4,-1443 -862.4,-1926.3 -1435.3,-2077.6 -170.3,-45 -346.5,-65.2 -523.1,-65.2"
        style="fill:#1e1b24;fill-opacity:1;fill-rule:nonzero;stroke:none" id="path190" />
      <path
        d="m 15206.5,15850.5 c 0,0 -2453.9,-1612.5 -2238.7,-3705.3 304.4,-2960.1 3102.3,-1955.6 3633.7,-1209.6 913.3,1282.3 75.9,2336.6 -969.1,2446.7 -858,90.4 -1716.9,59.2 -1706.7,694 10.3,634.9 1280.8,1774.2 1280.8,1774.2"
        style="fill:#ffffff;fill-opacity:1;fill-rule:nonzero;stroke:none" id="path192" />
      <path d="m 16992.4,12022.6 c 0,0.2 0,0.4 0,0.6 0,-0.2 0,-0.4 0,-0.6"
        style="fill:#9d1471;fill-opacity:1;fill-rule:nonzero;stroke:none" id="path194" />
      <path
        d="m 16992.4,12025 v 0 c -1.7,160.6 -31.8,311.3 -85.3,449.6 0,0.1 0.1,0.2 0.1,0.3 53.4,-138.5 83.6,-289.2 85.2,-449.9"
        style="fill:#c91c6e;fill-opacity:1;fill-rule:nonzero;stroke:none" id="path196" />
      <path d="m 16992.4,12024.7 c 0,0.1 0,0.2 0,0.3 v 0 c 0,-0.1 0,-0.2 0,-0.3"
        style="fill:#9d1471;fill-opacity:1;fill-rule:nonzero;stroke:none" id="path198" />
      <path
        d="m 12958.4,12548.7 c 6.1,111.7 19.3,221.8 38.8,329.9 0,-0.2 0,-0.2 0,-0.4 -19.4,-108 -32.7,-218 -38.8,-329.5"
        style="fill:#c9743b;fill-opacity:1;fill-rule:nonzero;stroke:none" id="path200" />
      <path
        d="m 14767.5,10149.6 c -827.8,0 -1643.1,473.9 -1799.6,1995.7 -14.1,136.6 -16.8,271.2 -9.5,403.4 6.1,111.5 19.4,221.5 38.8,329.5 210.8,-1342.9 985,-1769.7 1770.1,-1769.7 782.5,0 1575.9,423.6 1834.2,785.9 142.5,199.7 242.1,394.1 305.6,580.2 53.5,-138.3 83.6,-289 85.3,-449.6 0,-0.1 0,-0.2 0,-0.3 0,-0.5 0,-1 0,-1.5 0,-0.2 0,-0.4 0,-0.6 2.8,-327.8 -113,-696.7 -390.9,-1086.9 -258.2,-362.5 -1051.7,-786.1 -1834,-786.1"
        style="fill:#cdbfdc;fill-opacity:1;fill-rule:nonzero;stroke:none" id="path202" />
      <path
        d="m 13780.2,14230.1 c -412.9,-580.4 -728.1,-1293.3 -648.5,-2068.1 102.2,-993.9 514.4,-1613.8 1191.8,-1792.7 873.1,-230.6 1884.2,297.5 2143.7,661.9 360.2,505.5 453.6,1016.6 263.2,1439.1 -184.1,408.4 -611.4,695 -1115.3,748.1 -119.4,12.6 -240.5,22.9 -357.6,32.9 -741.2,63.3 -1507.8,128.7 -1496.5,827.7 0.8,48.5 7.4,99 19.2,151.1 z m 982.1,-4244.6 c -176.6,0 -352.7,20.2 -523,65.1 -572.9,151.4 -1287,634.6 -1435.4,2077.7 -222.8,2167.5 2208.5,3791.9 2312.1,3860 72,47.3 168.5,31.1 221,-37.2 52.7,-68.3 43.7,-165.7 -20.4,-223.2 -470.5,-422.2 -1219.5,-1244.7 -1226.1,-1654.2 -5.7,-352.9 378.5,-424.3 1195.1,-494 118.7,-10.1 241.4,-20.6 364.1,-33.5 619.9,-65.3 1149.1,-425.7 1381.1,-940.5 240.6,-533.7 135.8,-1160.8 -295.1,-1765.7 -285.6,-400.9 -1135,-854.5 -1973.4,-854.5"
        style="fill:#1e1b24;fill-opacity:1;fill-rule:nonzero;stroke:none" id="path204" />
      <path
        d="m 20438.8,15260.6 c 32.8,-24.7 58.3,-50.1 82.9,-78.4 25,-27.4 46.9,-57.2 67.5,-87.9 41.5,-61.3 74.4,-128.8 104.8,-197.2 59,-137.7 107.1,-283.8 116.9,-440.3 0.9,-14.1 -9.7,-26.2 -23.8,-27 -6.7,-0.5 -12.9,1.7 -17.7,5.6 l -0.7,0.6 c -59.8,49 -112.4,98.5 -166,146.9 l -154.4,146 c -50.2,48.9 -100.5,97.1 -144.8,149.5 -43.9,51.9 -86.7,107.8 -115.2,168.2 l -3.6,7.5 c -39.8,84.1 -3.8,184.6 80.3,224.5 58.7,27.7 125.4,18.5 173.8,-18"
        style="fill:#1e1b24;fill-opacity:1;fill-rule:nonzero;stroke:none" id="path206" />
      <path
        d="m 24382.7,14298.4 c -245.4,0 -531.4,20.5 -794.9,35.7 -701.6,40.5 -2107.9,47.1 -1572.3,565.4 265.4,256.8 784.5,407 1325.9,407 550.8,0 1124.8,-155.4 1478.8,-511.9 405.1,-407.8 71.2,-496.2 -437.5,-496.2"
        style="fill:#fb6898;fill-opacity:1;fill-rule:nonzero;stroke:none" id="path208" />
      <path
        d="m 25076.4,11133.3 c -81.2,-68.6 -171.9,-113.4 -264.2,-152.5 -92.9,-37.7 -189.4,-62.5 -287.7,-82.7 -98.4,-19.7 -199.2,-30.6 -301.8,-34.2 -102.7,-0.5 -208.1,6.9 -312.1,34.1 -82.7,21.6 -132.2,106.1 -110.5,188.8 19.3,73.8 88.7,121.1 162.1,115.1 l 7.3,-0.6 c 84.3,-6.9 170,-15.9 258.4,-20.9 88.8,-5.1 179.1,-7.7 271.2,-10.2 92.2,-1.6 185.2,-0.6 280.7,-5.3 96,-5.8 192.8,-11.8 296.6,-31.6"
        style="fill:#1e1b24;fill-opacity:1;fill-rule:nonzero;stroke:none" id="path210" />
      <path
        d="m 24879.9,12290.8 c -106.1,-39.2 -208.1,-63.7 -309.6,-87.9 -101.3,-23.1 -201.6,-40.2 -300.8,-59.7 -99.2,-19.1 -197.2,-38.8 -294.1,-59.8 -97.5,-18.8 -192.1,-43.3 -288.6,-60.7 l -6,-1 c -84.1,-15.2 -164.6,40.7 -179.7,124.8 -13.7,75.9 30.6,148.8 101.1,173.4 104.1,36.4 211.7,60.7 319.3,75.4 107.9,13.9 215.9,21.8 323.7,20.1 107.7,-1 215,-6.6 321.4,-25.6 106.2,-20.6 212.1,-47.2 313.3,-99"
        style="fill:#1e1b24;fill-opacity:1;fill-rule:nonzero;stroke:none" id="path212" />
      <path
        d="m 15504.4,11133.3 c 103.7,19.8 200.6,25.8 296.5,31.6 95.5,4.7 188.6,3.7 280.7,5.3 92.1,2.5 182.5,5.1 271.2,10.2 88.5,5 174.1,14 258.4,20.9 l 7.3,0.6 c 85.1,6.9 159.8,-56.5 166.7,-141.7 6.2,-76 -43.7,-143.6 -115.1,-162.2 -104,-27.2 -209.3,-34.6 -312.1,-34.1 -102.5,3.6 -203.4,14.5 -301.8,34.2 -98.2,20.2 -194.7,45 -287.6,82.7 -92.4,39.1 -183,83.9 -264.2,152.5"
        style="fill:#1e1b24;fill-opacity:1;fill-rule:nonzero;stroke:none" id="path214" />
      <path
        d="m 15700.8,12290.8 c 101.2,51.8 207.1,78.4 313.3,99 106.4,19 213.7,24.6 321.4,25.6 107.8,1.7 215.9,-6.2 323.8,-20.1 107.5,-14.7 215.2,-39 319.2,-75.4 80.7,-28.2 123.1,-116.5 94.9,-197.1 -25.5,-72.8 -99.8,-114.5 -173.4,-101.2 l -6.1,1.1 c -96.5,17.4 -191.1,41.9 -288.6,60.7 -96.8,21 -194.9,40.7 -294.1,59.8 -99.2,19.5 -199.4,36.6 -300.7,59.7 -101.5,24.2 -203.5,48.7 -309.7,87.9"
        style="fill:#1e1b24;fill-opacity:1;fill-rule:nonzero;stroke:none" id="path216" />
      <path
        d="m 11820,7485.5 c 79.6,-367.7 376.7,-615.5 663.4,-553.4 286.8,62.1 454.7,410.6 375,778.4 -79.7,367.8 -376.7,615.6 -663.5,553.4 -286.7,-62.1 -454.6,-410.6 -374.9,-778.4"
        style="fill:#ff6c6c;fill-opacity:1;fill-rule:nonzero;stroke:none" id="path218" />
      <path
        d="m 12492.3,8548.5 c 31.3,-188.7 188,-319.8 350,-293 162,26.9 268,201.6 236.7,390.3 -31.3,188.7 -188,319.8 -350,293 -162,-26.9 -268,-201.6 -236.7,-390.3"
        style="fill:#ff6c6c;fill-opacity:1;fill-rule:nonzero;stroke:none" id="path220" />
      <path
        d="m 11697.1,8895.2 c 20.6,-208.2 182.4,-362.6 361.6,-344.9 179.2,17.6 307.8,200.7 287.3,408.9 -20.5,208.1 -182.4,362.5 -361.6,344.9 -179.2,-17.7 -307.8,-200.8 -287.3,-408.9"
        style="fill:#ff6c6c;fill-opacity:1;fill-rule:nonzero;stroke:none" id="path222" />
      <path
        d="m 11309.8,8352.4 c 22.8,-137.1 140.4,-231.7 262.7,-211.4 122.4,20.3 203.2,147.8 180.4,284.8 -22.7,137.1 -140.3,231.7 -262.7,211.4 -122.3,-20.3 -203.1,-147.8 -180.4,-284.8"
        style="fill:#ff6c6c;fill-opacity:1;fill-rule:nonzero;stroke:none" id="path224" />
      <path
        d="m 29059.7,7515.5 c -98.9,-363.1 -408.5,-594.9 -691.6,-517.9 -283.1,77.1 -432.5,433.9 -333.6,797 98.8,363.1 408.4,595 691.5,517.9 283.1,-77 432.5,-433.9 333.7,-797"
        style="fill:#ff6c6c;fill-opacity:1;fill-rule:nonzero;stroke:none" id="path226" />
      <path
        d="m 28392.6,8615 c -41.2,-186.8 -204.5,-309.6 -364.9,-274.2 -160.4,35.3 -257.1,215.3 -216,402.1 41.2,186.8 204.5,309.5 364.9,274.2 160.4,-35.3 257.1,-215.4 216,-402.1"
        style="fill:#ff6c6c;fill-opacity:1;fill-rule:nonzero;stroke:none" id="path228" />
      <path
        d="m 29204.8,8919.5 c -31.4,-206.8 -201.2,-352.5 -379.2,-325.5 -178,27 -296.8,216.6 -265.4,423.4 31.4,206.8 201.1,352.5 379.1,325.5 178,-27.1 296.9,-216.6 265.5,-423.4"
        style="fill:#ff6c6c;fill-opacity:1;fill-rule:nonzero;stroke:none" id="path230" />
      <path
        d="m 29563.1,8357.1 c -29.9,-135.6 -152.3,-224 -273.4,-197.3 -121.1,26.7 -195.1,158.3 -165.2,293.9 29.9,135.7 152.3,224 273.4,197.3 121.1,-26.6 195.1,-158.2 165.2,-293.9"
        style="fill:#ff6c6c;fill-opacity:1;fill-rule:nonzero;stroke:none" id="path232" />
    </g>
  </g>
</svg>