<?xml version="1.0" encoding="UTF-8" standalone="no"?>
<svg
   xmlns:dc="http://purl.org/dc/elements/1.1/"
   xmlns:cc="http://creativecommons.org/ns#"
   xmlns:rdf="http://www.w3.org/1999/02/22-rdf-syntax-ns#"
   xmlns:svg="http://www.w3.org/2000/svg"
   xmlns="http://www.w3.org/2000/svg"
   xmlns:sodipodi="http://sodipodi.sourceforge.net/DTD/sodipodi-0.dtd"
   xmlns:inkscape="http://www.inkscape.org/namespaces/inkscape"
   version="1.1"
   id="svg2"
   xml:space="preserve"
   width="5333.3335"
   height="5333.3335"
   viewBox="0 0 5333.3335 5333.3335"
   sodipodi:docname="2307.eps"><metadata
     id="metadata8"><rdf:RDF><cc:Work
         rdf:about=""><dc:format>image/svg+xml</dc:format><dc:type
           rdf:resource="http://purl.org/dc/dcmitype/StillImage" /></cc:Work></rdf:RDF></metadata><defs
     id="defs6" /><sodipodi:namedview
     pagecolor="#ffffff"
     bordercolor="#666666"
     borderopacity="1"
     objecttolerance="10"
     gridtolerance="10"
     guidetolerance="10"
     inkscape:pageopacity="0"
     inkscape:pageshadow="2"
     inkscape:window-width="640"
     inkscape:window-height="480"
     id="namedview4" /><g
     id="g10"
     inkscape:groupmode="layer"
     inkscape:label="ink_ext_XXXXXX"
     transform="matrix(1.3333333,0,0,-1.3333333,0,5333.3333)"><g
       id="g12"
       transform="scale(0.1)"><path
         d="m 10017.8,5755.6 c 415.9,85.8 831.8,108.5 1247.7,117.6 415.9,12 831.9,5.6 1247.8,-0.9 415.9,-5 831.9,-6.3 1247.8,-5.5 h 1247.8 4991.1 4991.1 2495.6 l 623.9,0.2 c 208,-0.2 415.9,7.5 623.9,11 415.9,2 831.8,-3 1247.8,-122.4 30.7,-8.8 48.4,-40.9 39.6,-71.6 -5.7,-19.8 -21.2,-34.2 -39.6,-39.6 -416,-119.4 -831.9,-124.4 -1247.8,-122.4 -208,3.5 -415.9,11.2 -623.9,11 l -623.9,0.2 H 24991.1 20000 15008.9 13761.1 c -415.9,0.8 -831.9,-0.5 -1247.8,-5.5 -415.9,-6.5 -831.9,-12.9 -1247.8,-0.9 -415.9,9.1 -831.8,31.8 -1247.7,117.6 -30.75,6.3 -50.51,36.4 -44.18,67.1 4.7,22.9 22.62,39.6 44.18,44.1"
         style="fill:#1e1b24;fill-opacity:1;fill-rule:nonzero;stroke:none"
         id="path16" /><path
         d="m 13910,17195 c 0,0 -1310.6,739.5 -1060.8,2155.7 211.3,1198.3 1266.5,1523.2 1846.4,1611.2 188.4,28.5 353.9,-126.5 337.7,-316.4 -64,-751.3 -24.7,-2529 1596.7,-3450.5 h -2720"
         style="fill:#f99b28;fill-opacity:1;fill-rule:nonzero;stroke:none"
         id="path18" /><path
         d="m 14799.4,19112.4 c -93.6,492.4 -84.3,940.3 -59.4,1232.8 15.1,174.8 -123.8,319.8 -292.8,319.8 -14.7,0 -29.7,-1.1 -44.8,-3.4 -148,-22.5 -327.1,-60.4 -515.3,-124.4 290.9,156.2 597.8,230.9 832.5,266.5 6.8,1 13.7,1.5 20.5,1.5 34,0 66.5,-12.7 91.7,-36.4 30.3,-28.3 45.6,-68.3 42.1,-109.7 -29.1,-342.1 -38.3,-909.5 116.1,-1518.7 -63.9,-6.7 -127.4,-16 -190.6,-28"
         style="fill:#fbc37e;fill-opacity:1;fill-rule:nonzero;stroke:none"
         id="path20" /><path
         d="m 16630,17195.2 h -2720 c 0,0 -1310.4,739.2 -1060.8,2155.6 92.4,524.4 346.4,881.2 651.2,1124.4 -122.4,-305.2 -168.8,-667.6 -73.2,-1091.6 316.8,-1402.8 1811.2,-1578.8 1811.2,-1578.8 l 463.2,194 c 228.8,-300.8 531.2,-578 928.4,-803.6"
         style="fill:#ffffff;fill-opacity:1;fill-rule:nonzero;stroke:none"
         id="path22" /><path
         d="m 13954.4,17355 h 2154 c -1271.1,1017.1 -1293.1,2616.2 -1234.5,3304.1 3.5,41.4 -11.8,81.4 -42.1,109.7 -30.3,28.4 -71.1,41.1 -112.2,34.9 -557.1,-84.5 -1520.3,-389.2 -1712.8,-1480.8 -207.5,-1176.6 747.6,-1842.6 947.6,-1967.9 m 3281,-320 H 13868 l -36.6,20.7 c -14.1,7.9 -1406.1,812.5 -1139.8,2322.7 227.3,1288.6 1338.1,1644.3 1980,1741.7 138.6,20.9 276.7,-21.9 378.9,-117.7 102.3,-95.8 154.2,-230.8 142.3,-370.5 -59.6,-698.6 -31,-2418.5 1516.3,-3297.8 l 526.3,-299.1"
         style="fill:#1e1b24;fill-opacity:1;fill-rule:nonzero;stroke:none"
         id="path24" /><path
         d="m 13787.6,18613.4 c -62.7,80 -121,167.7 -172.8,263.9 72.3,-80.5 148.3,-152.6 225.3,-217.1 -17.7,-15.2 -35.2,-30.8 -52.5,-46.8"
         style="fill:#ce7333;fill-opacity:1;fill-rule:nonzero;stroke:none"
         id="path26" /><path
         d="m 13461,18154.6 h -266.1 c -167.3,305.8 -271.4,695.9 -188.1,1168.3 31.1,176.7 82.5,332.8 149.1,470.7 75,-384.8 251.2,-685 458.9,-916.3 51.8,-96.2 110.1,-183.9 172.8,-263.9 -57.4,-53.1 -112.4,-110.3 -164.6,-172 -67.7,-79.9 -121.8,-177.4 -162,-286.8"
         style="fill:#d2b9ca;fill-opacity:1;fill-rule:nonzero;stroke:none"
         id="path28" /><path
         d="m 13153.3,18094.1 h -73.5 c -181,328.9 -294.9,747.8 -206,1252.4 44.2,250.2 128.5,475.9 251,672.2 6.5,-78 17,-153.1 31.1,-225.1 -66.6,-137.9 -118,-294 -149.1,-470.7 -83.3,-472.4 20.8,-862.5 188.1,-1168.3 h -24.4 l -5.2,-18 c -4.2,-14 -8.2,-28.2 -12,-42.5"
         style="fill:#351a31;fill-opacity:1;fill-rule:nonzero;stroke:none"
         id="path30" /><path
         d="m 13079.8,18094.1 h -56.6 c -178.3,333.5 -287.7,755.2 -198.6,1261 50.1,284.1 151,537.8 299.6,753.9 l 42.4,61.7 3.2,-74.8 c 0.8,-18.9 2,-37.8 3.6,-57.1 4.4,-59 11.3,-116.3 20.2,-171.9 -13,-23.8 -25.6,-48.3 -37.7,-73.3 -14.1,72 -24.6,147.1 -31.1,225.1 -122.5,-196.3 -206.8,-422 -251,-672.2 -88.9,-504.6 25,-923.5 206,-1252.4"
         style="fill:#1e1b24;fill-opacity:1;fill-rule:nonzero;stroke:none"
         id="path32" /><path
         d="m 13840.1,18660.2 c -77,64.5 -153,136.6 -225.3,217.1 -32.1,59.4 -61.8,122.2 -88.5,188.2 106.8,-146.5 228.6,-269.9 352.5,-372.9 -13,-10.6 -25.9,-21.3 -38.7,-32.4"
         style="fill:#b77427;fill-opacity:1;fill-rule:nonzero;stroke:none"
         id="path34" /><path
         d="m 13614.8,18877.3 c -207.7,231.3 -383.9,531.5 -458.9,916.3 12.1,25 24.7,49.5 37.7,73.3 52.1,-322.8 176.3,-586.9 332.7,-801.4 26.7,-66 56.4,-128.8 88.5,-188.2"
         style="fill:#bbbabd;fill-opacity:1;fill-rule:nonzero;stroke:none"
         id="path36" /><path
         d="m 24883.6,14394.8 h -9767.2 c 0,0 -842.8,-338.8 -276,2966.4 223.2,1302 873.6,1990.4 1288,2935.6 61.2,140.8 117.6,287.2 166.8,442 v 0.8 c 95.2,301.2 162.4,634.4 185.2,1021.6 5.2,83.2 8,169.2 8.8,257.6 h 7021.6 c 0.8,-77.6 2.8,-154 7.2,-227.6 21.6,-412.8 93.2,-764.8 196,-1081.2 46.8,-144.4 100,-281.2 158,-413.2 414,-945.6 1064.8,-1634 1287.6,-2935.6 566.8,-3305.2 -276,-2966.4 -276,-2966.4"
         style="fill:#f99b28;fill-opacity:1;fill-rule:nonzero;stroke:none"
         id="path38" /><path
         d="m 23103.2,19153.8 c -839.3,-963.3 -758.7,-2606.1 -758.7,-2606.1 h -4679.8 c 0,0 80.7,1642.8 -758.6,2606.1 -464.3,533.2 -606.6,1098.6 -610.9,1585.1 v 0.7 c 95.4,301.1 162.4,634.6 185.3,1021.4 60.6,163.2 113,257.8 113,257.8 h 6822.7 c 0,0 45.9,-83.2 101.8,-227.7 21.5,-412.6 93.2,-764.7 196.1,-1081.3 -9.7,-479.7 -155.6,-1033.6 -610.9,-1556"
         style="fill:#ffffff;fill-opacity:1;fill-rule:nonzero;stroke:none"
         id="path40" /><path
         d="m 24947.5,14225.1 c -66.7,0 -113.9,17.5 -123.5,21.4 l 119.5,296.9 c 0,0 -2.7,1.4 -7.7,2.7 7.3,-1.8 33.9,-5.5 69.6,27.3 95.3,87.5 376.5,545.1 -3.4,2760.8 -144.7,844.1 -480.7,1431.5 -805.6,1999.6 -393,687 -798.7,1396.4 -842,2525.2 h -6708.8 c -43.3,-1128.8 -449,-1838.2 -842,-2525.2 -324.9,-568.1 -660.9,-1155.5 -805.6,-1999.6 -379.9,-2215.7 -98.7,-2673.3 -3.4,-2760.8 35.7,-32.9 62.3,-29.2 69.6,-27.3 -5,-1.3 -7.7,-2.7 -7.7,-2.7 l 119.5,-296.9 c -19.6,-7.9 -196.3,-72.8 -374.6,71.1 -381.4,307.9 -420.2,1312.3 -118.8,3070.6 154.3,899.9 504.5,1512.2 843.3,2104.5 408.6,714.4 794.5,1389.1 803.4,2527.5 l 1.2,158.8 h 7339 l 1.2,-158.8 c 8.9,-1138.4 394.8,-1813.1 803.5,-2527.5 338.7,-592.3 688.9,-1204.6 843.2,-2104.5 301.4,-1758.3 262.6,-2762.7 -118.8,-3070.6 -91,-73.4 -181.6,-92.5 -251.1,-92.5"
         style="fill:#1e1b24;fill-opacity:1;fill-rule:nonzero;stroke:none"
         id="path42" /><path
         d="m 16373.8,20141.4 c -36.7,22.3 -73.4,45 -109.8,67.9 11.6,26.3 23,52.7 34.3,79.4 15.2,-6.2 30.3,-12.3 45.5,-18.4 8.7,-42.7 18.6,-85.6 30,-128.9 m 7263.8,6.7 c 17,65.3 30.8,130.2 41.8,194.2 18.4,-45.1 37.3,-89.4 56.7,-133.2 -32.7,-20.6 -65.6,-41 -98.5,-61"
         style="fill:#b77427;fill-opacity:1;fill-rule:nonzero;stroke:none"
         id="path44" /><path
         d="m 20000.2,19109.6 c -1246.3,0 -2492.3,343.9 -3626.4,1031.8 -11.4,43.3 -21.3,86.2 -30,128.9 97.6,-39.1 196,-76.2 295.2,-111.3 243.1,-86.9 492.8,-155.7 744.5,-212.6 252.6,-54.3 509.7,-88.8 766.9,-102.2 1.1,-0.1 2.3,-0.1 3.5,-0.1 30.1,0 57.1,21 63.5,51.7 0.3,1.1 0.5,2.3 0.6,3.4 447.4,-68.3 947.4,-110.3 1500.9,-110.3 0.1,0 0.2,0 0.4,0 v 0 0 0 c 137.4,0 277.8,2.6 421.8,8 v 0 h 0.4 c 520.1,19.6 994.6,72.7 1424.6,148.1 364.4,63.9 696.9,143.8 998.5,232.9 11.5,-38.1 46.6,-63 84.9,-63 7.6,0 15.3,0.9 22.9,3 328.2,87.3 650.3,199.3 964.2,332.8 13.9,-36.6 28.2,-72.7 42.8,-108.4 -11,-64 -24.8,-128.9 -41.8,-194.2 -1137.1,-692.4 -2387.4,-1038.5 -3637.4,-1038.5"
         style="fill:#bbbabd;fill-opacity:1;fill-rule:nonzero;stroke:none"
         id="path46" /><path
         d="m 23736.1,20209.1 c -19.4,43.8 -38.3,88.1 -56.7,133.2 -14.6,35.7 -28.9,71.8 -42.8,108.4 48.9,20.8 97.6,42.1 146.1,64 28.2,-74.3 58.1,-146.8 89.3,-217.9 -45,-29.8 -90.4,-59 -135.9,-87.7 m -7472.1,0.2 c -45.5,28.7 -90.5,57.8 -135.6,87.5 7.8,17.8 15.4,35.7 23,53.6 48.7,-21.1 97.7,-41.6 146.9,-61.7 -11.3,-26.7 -22.7,-53.1 -34.3,-79.4"
         style="fill:#1e1b24;fill-opacity:1;fill-rule:nonzero;stroke:none"
         id="path48" /><path
         d="m 13440.6,18094.1 h -211.1 c -2.1,3.5 -4.1,7 -6.2,10.5 h 220.6 c -1.1,-3.5 -2.2,-7 -3.3,-10.5"
         style="fill:#b388a5;fill-opacity:1;fill-rule:nonzero;stroke:none"
         id="path50" /><path
         d="m 13229.5,18094.1 h -24.4 c 1,3.5 2,7 3,10.5 h 15.2 c 2.1,-3.5 4.1,-7 6.2,-10.5"
         style="fill:#45193a;fill-opacity:1;fill-rule:nonzero;stroke:none"
         id="path52" /><path
         d="m 16823.7,18094.1 h -244.8 c 6.1,3.7 12.4,7.2 18.9,10.5 h 237 c -3.8,-3.4 -7.5,-6.9 -11.1,-10.5"
         style="fill:#ce7333;fill-opacity:1;fill-rule:nonzero;stroke:none"
         id="path54" /><path
         d="m 13443.9,18104.6 h -220.6 c -9.6,16.4 -19.1,33.1 -28.4,50 h 266.1 c -6,-16.4 -11.7,-33.1 -17.1,-50"
         style="fill:#9c8998;fill-opacity:1;fill-rule:nonzero;stroke:none"
         id="path56" /><path
         d="m 13205.1,18094.1 h -51.8 c 3.8,14.3 7.8,28.5 12,42.5 l 5.2,18 h 24.4 c 9.3,-16.9 18.8,-33.6 28.4,-50 h -15.2 c -1,-3.5 -2,-7 -3,-10.5"
         style="fill:#2e1a2d;fill-opacity:1;fill-rule:nonzero;stroke:none"
         id="path58" /><path
         d="m 16903,18094.1 h -79.3 c 3.6,3.6 7.3,7.1 11.1,10.5 h -237 c 37.5,18.8 82,29 134.2,29 h 246.4 l -52.3,-26.4 c -8,-3.9 -15.7,-8.3 -23.1,-13.1"
         style="fill:#b77427;fill-opacity:1;fill-rule:nonzero;stroke:none"
         id="path60" /><path
         d="m 26744.5,18094.1 h -19.6 c -1,3.5 -1.9,7 -2.9,10.5 h 19.6 c 1,-3.5 2,-7 2.9,-10.5"
         style="fill:#497eca;fill-opacity:1;fill-rule:nonzero;stroke:none"
         id="path62" /><path
         d="m 26796.3,18094.1 h -51.8 c -0.9,3.5 -1.9,7 -2.9,10.5 h -19.6 c -4.8,16.8 -9.8,33.5 -15.1,50 h 72.2 l 5.3,-18 c 4.1,-14 8.1,-28.2 11.9,-42.5"
         style="fill:#327fbd;fill-opacity:1;fill-rule:nonzero;stroke:none"
         id="path64" /><path
         d="m 27124.4,17934.1 v 0 c 646,-4037.1 646,-8151.1 0,-12188.1 v 0 H 12875.6 v 0 c -646,4037 -646,8151 0,12188.1 v 0 h 14248.8"
         style="fill:#ea9628;fill-opacity:1;fill-rule:nonzero;stroke:none"
         id="path66" /><path
         d="m 12897,5771 h 14206.1 c 642.2,4027.4 642.2,8110.6 0,12138.1 H 12897 c -642.3,-4027.5 -642.3,-8110.7 0,-12138.1 m -21.4,-50 h -21.3 l -3.3,21 c -647.5,4046.4 -647.5,8149.7 0,12196 l 3.3,21.1 h 14291.4 l 3.4,-21.1 c 647.5,-4046.3 647.5,-8149.6 0,-12196 l -3.4,-21 H 12875.6"
         style="fill:#1e1b24;fill-opacity:1;fill-rule:nonzero;stroke:none"
         id="path68" /><path
         d="m 27608.8,11929.7 c 4.7,-2067.8 -156.8,-4135.6 -484.5,-6183.8 H 12875.7 c -323,2018.6 -484.5,4056.5 -484.5,6094.3 v 89.5 c 2.5,1098.4 52,2197.2 148.7,3292.8 79.8,906.6 191.8,1811.1 335.8,2711.7 h 14248.6 c 144.1,-900.6 256,-1805.1 335.9,-2711.7 96.6,-1095.6 146.1,-2194.4 148.6,-3292.8"
         style="fill:#ea9628;fill-opacity:1;fill-rule:nonzero;stroke:none"
         id="path70" /><path
         d="m 12897,5770.9 h 14206 c 323.7,2030.7 485.5,4102.6 480.8,6158.8 -2.5,1093.7 -52.4,2200.8 -148.5,3290.6 -78.9,895.8 -190.7,1800.4 -332.3,2688.9 H 12897 c -141.5,-888.2 -253.3,-1792.7 -332.2,-2688.9 -96.1,-1089.4 -146.1,-2196.6 -148.6,-3290.6 v -89.5 c 0,-2026.2 161.8,-4068 480.8,-6069.3 m 14248.7,-50 H 12854.4 l -3.4,21 c -321.7,2010.6 -484.8,4062.4 -484.8,6098.3 v 89.5 c 2.5,1095.6 52.6,2204.2 148.8,3295 79.6,904.4 192.7,1817.3 336,2713.5 l 3.4,21 h 14291.3 l 3.3,-21 c 143.4,-896.5 256.4,-1809.4 336.1,-2713.5 96.2,-1091.2 146.2,-2199.8 148.7,-3294.9 4.7,-2065.9 -158.4,-4147.8 -484.8,-6187.9 l -3.3,-21"
         style="fill:#1e1b24;fill-opacity:1;fill-rule:nonzero;stroke:none"
         id="path72" /><path
         d="M 26987.7,5906 H 13012.3 c -117.2,749.5 -212.1,1501.1 -284.8,2253.8 308.4,-269.2 1009.1,-797.6 1998.3,-1049.3 1671.2,-425.4 3458.3,-594.4 5077.1,-594.4 2131.6,0 3972,292.8 4876.8,679.4 1043.4,445.7 1669.7,1034 1893.5,1955.2 333.3,1372.2 -291.1,2779 -1703.2,2779 H 12550.5 c 1,452.1 10.1,904.8 27.2,1356.7 h 14844.6 c 93.1,-2463.6 -51.7,-4932.5 -434.6,-7380.4"
         style="fill:#ac7127;fill-opacity:1;fill-rule:nonzero;stroke:none"
         id="path74" /><path
         d="m 13012.3,5906 h 13975.4 c 615.9,3938.2 615.9,7929.9 0,11868 H 13012.3 c -615.9,-3938.2 -615.9,-7929.8 0,-11868 m -136.7,-320 c -78.6,0 -145.5,57.1 -157.9,134.7 -649.8,4060.5 -649.8,8178.2 0,12238.6 12.4,77.7 79.3,134.8 157.9,134.8 h 14248.8 c 78.6,0 145.5,-57.1 158,-134.8 649.7,-4060.4 649.7,-8178.1 0,-12238.6 -12.5,-77.6 -79.4,-134.7 -158,-134.7 H 12875.6"
         style="fill:#1e1b24;fill-opacity:1;fill-rule:nonzero;stroke:none"
         id="path76" /><path
         d="M 28383.2,13446.3 H 11616.8 l 1118.8,3990.2 v 0.7 l 0.3,0.4 139.1,496.6 h 14250 l 1258.2,-4487.9"
         style="fill:#ea9628;fill-opacity:1;fill-rule:nonzero;stroke:none"
         id="path78" /><path
         d="m 11649.8,13471.3 h 16700.4 l -1244.1,4437.9 H 12894 l -1244.2,-4437.9 m 16766.4,-50 H 11583.9 l 1272.1,4537.9 h 14288 l 1272.2,-4537.9"
         style="fill:#1e1b24;fill-opacity:1;fill-rule:nonzero;stroke:none"
         id="path80" /><path
         d="m 27070.9,17534.2 h -291 c 4.4,81 3.8,161.2 -1.7,239.8 h 225.4 l 67.3,-239.8 m -3640.9,0 h -7022.4 c 7.8,85.6 13.3,166.5 21.8,239.8 h 3737.2 1.1 3240 c 6.4,-50.2 11.1,-106.4 16,-165.1 2,-24.2 4.1,-49.2 6.3,-74.7 m -10050.8,0 h -450.1 l 67.3,239.8 h 384.9 c -6.1,-78.1 -6.8,-158.4 -2.1,-239.8"
         style="fill:#f2c07e;fill-opacity:1;fill-rule:nonzero;stroke:none"
         id="path82" /><path
         d="M 28172.2,13606.4 H 11827.8 l 767,2735.5 c -103.7,-926.1 -195.1,-2124.1 5.7,-2264.5 248.7,-173.9 1990,-220.1 4211.3,-220.1 1290.2,0 2742.1,15.6 4158.3,30.8 2999,32.4 5915.4,6.7 6275.4,189.3 476.9,241.8 76.4,2342.3 -168.8,3436 l 1095.5,-3907"
         style="fill:#f2c07e;fill-opacity:1;fill-rule:nonzero;stroke:none"
         id="path84" /><path
         d="M 11827.8,13606.4 H 28172.2 L 27003.6,17774 H 12996.4 l -1168.6,-4167.6 m 16555.5,-320 H 11616.7 c -50.1,0 -97.2,23.4 -127.5,63.3 -30.2,39.9 -40.1,91.7 -26.5,139.9 l 1258.3,4487.7 c 19.4,69 82.3,116.8 154.1,116.8 h 7291.5 1.1 6957.2 c 71.8,0 134.8,-47.8 154.1,-116.8 l 1258.3,-4487.7 c 13.6,-48.2 3.7,-100 -26.5,-139.9 -30.3,-39.9 -77.5,-63.3 -127.5,-63.3"
         style="fill:#1e1b24;fill-opacity:1;fill-rule:nonzero;stroke:none"
         id="path86" /><path
         d="m 16732.2,18133.8 c -176.5,0 -265.1,-116.3 -293.4,-290.5 -51.3,-315.2 0.7,-815.8 -381.9,-1198.4 -542.8,-542.7 -1967.8,-675.1 -2404.8,18.5 -367.1,582.7 -358.9,1388.7 -29.1,1778 706.9,834.3 1917,871.1 2781.4,443.9 313.5,-154.9 915.4,-751.5 915.4,-751.5 h -587.6"
         style="fill:#ffffff;fill-opacity:1;fill-rule:nonzero;stroke:none"
         id="path88" /><path
         d="m 14922.6,16196.3 c 443.5,34.3 883.3,197.6 1134.3,448.6 273.1,273.1 324.8,606.3 350.6,889.3 h 0.1 c -25.8,-283 -77.5,-616.2 -350.8,-889.4 -251,-251.1 -690.8,-414.2 -1134.2,-448.5"
         style="fill:#ac7127;fill-opacity:1;fill-rule:nonzero;stroke:none"
         id="path90" /><path
         d="m 16407.6,17534.2 h -0.1 c 7.8,85.5 13.3,166.5 21.8,239.8 h 0.1 c -8.5,-73.3 -14,-154.2 -21.8,-239.8"
         style="fill:#b28e63;fill-opacity:1;fill-rule:nonzero;stroke:none"
         id="path92" /><path
         d="m 13652.1,16663.4 c 0,0.1 -0.1,0.2 -0.1,0.2 -124.4,197.2 -205.6,420.4 -246,644 0.1,-0.1 0.1,-0.2 0.2,-0.3 40.3,-223.7 121.6,-446.6 245.9,-643.9"
         style="fill:#ac7127;fill-opacity:1;fill-rule:nonzero;stroke:none"
         id="path94" /><path
         d="m 17319.6,18133.6 h -341.2 l 0.4,0.2 h 340.6 c 0.2,-0.1 0.2,-0.2 0.2,-0.2"
         style="fill:#b77427;fill-opacity:1;fill-rule:nonzero;stroke:none"
         id="path96" /><path
         d="m 16578.9,18094.1 h -0.1 c 6,3.7 12.3,7.2 18.7,10.5 h 0.3 c -6.5,-3.3 -12.8,-6.8 -18.9,-10.5"
         style="fill:#99582e;fill-opacity:1;fill-rule:nonzero;stroke:none"
         id="path98" /><path
         d="m 16597.8,18104.6 h -0.3 c 37.7,18.9 82.3,29.2 134.7,29.2 h 246.6 l -0.4,-0.2 H 16732 c -52.2,0 -96.7,-10.2 -134.2,-29"
         style="fill:#895926;fill-opacity:1;fill-rule:nonzero;stroke:none"
         id="path100" /><path
         d="m 17061.6,18377.7 c -20.4,18.6 -41.6,37.7 -63.4,57.2 -0.1,0.1 -0.1,0.2 -0.2,0.3 21.9,-19.6 43.1,-38.8 63.6,-57.5"
         style="fill:#b77427;fill-opacity:1;fill-rule:nonzero;stroke:none"
         id="path102" /><path
         d="m 16429.4,17774 h -0.1 c 2.8,24 5.9,47.1 9.5,69.3 18.4,113.7 62.6,202.6 140,250.8 h 0.1 c -77.4,-48.1 -121.5,-137 -140.1,-250.9 -3.6,-22.2 -6.7,-45.3 -9.4,-69.2"
         style="fill:#1e1b24;fill-opacity:1;fill-rule:nonzero;stroke:none"
         id="path104" /><path
         d="m 14749.7,16189.6 c -455.3,0 -888.9,142.9 -1097.6,473.8 -124.3,197.3 -205.6,420.2 -245.9,643.9 10.8,-18.3 21.9,-36.2 33,-54.1 208.5,-331 642.2,-474 1097.5,-474 498.8,0 1023.6,171.4 1307.3,455.2 382.4,382.8 330.4,883.2 382,1198.4 0,2 0.4,3.6 0.8,5.2 23.6,138 143.2,222.3 267.5,222.3 61.2,0 123.6,-20.5 176.1,-65.1 l 464.4,-393.2 c 0,0 -53.5,94.7 -136.6,232.9 21.8,-19.5 43,-38.6 63.4,-57.2 145.7,-133 252.9,-239 257.8,-243.9 h -340.6 -246.6 c -52.4,0 -97,-10.3 -134.7,-29.2 -6.4,-3.3 -12.7,-6.8 -18.7,-10.5 v 0 c -77.4,-48.2 -121.6,-137.1 -140,-250.8 -3.6,-22.2 -6.7,-45.3 -9.5,-69.3 -8.5,-73.3 -14,-154.3 -21.8,-239.8 -25.8,-283 -77.5,-616.2 -350.6,-889.3 -251,-251 -690.8,-414.3 -1134.3,-448.6 -57.7,-4.4 -115.5,-6.7 -172.9,-6.7"
         style="fill:#bbbabd;fill-opacity:1;fill-rule:nonzero;stroke:none"
         id="path106" /><path
         d="m 15250.3,18992 c -554.9,0 -1114.5,-192.9 -1505.2,-654.1 -293,-345.7 -273.1,-1088.3 42.4,-1589.2 132.6,-210.5 399.7,-348.2 751.9,-387.7 516.3,-57.8 1120.1,112.9 1404.4,397.1 260.5,260.5 287.8,588.2 311.8,877.4 6.9,82.7 13.4,160.9 25.2,233.5 43.9,270 208.4,424.8 451.4,424.8 h 183.7 c -198,178 -435.3,375.4 -582.4,448.1 -321,158.6 -701,250.1 -1083.2,250.1 z m -496.1,-2962.8 c -84,0 -167.7,4.5 -250.5,13.8 -450.8,50.5 -801.4,240.6 -987,535.1 -395.5,627.9 -402.6,1510.2 -15.8,1966.7 766,904.1 2076.2,927.8 2974.3,483.9 333.1,-164.5 931.9,-756.2 957.2,-781.3 l 276.1,-273.6 h -976.3 c -43.9,0 -110.1,0 -135.5,-156.1 -9.8,-60.3 -15.8,-132.4 -22.2,-208.8 -25.7,-309.6 -61,-733.7 -404.5,-1077.1 -310.2,-310.2 -866.8,-502.6 -1415.8,-502.6"
         style="fill:#1e1b24;fill-opacity:1;fill-rule:nonzero;stroke:none"
         id="path108" /><path
         d="m 23266,18133.8 c 176.5,0 265.1,-116.3 293.4,-290.5 51.3,-315.2 -0.7,-815.8 381.9,-1198.4 542.8,-542.7 1967.8,-675.1 2404.8,18.5 367.1,582.7 358.9,1388.7 29.1,1778 -706.9,834.3 -1917,871.1 -2781.4,443.9 -313.5,-154.9 -915.4,-751.5 -915.4,-751.5 h 587.6"
         style="fill:#ffffff;fill-opacity:1;fill-rule:nonzero;stroke:none"
         id="path110" /><path
         d="m 23082.3,18293.8 h 183.7 c 243,0 407.5,-154.8 451.4,-424.8 11.8,-72.6 18.3,-150.8 25.2,-233.5 24,-289.2 51.3,-616.9 311.8,-877.4 284.2,-284.2 888,-455 1404.4,-397.1 352.2,39.5 619.3,177.2 751.9,387.7 315.5,500.9 335.4,1243.5 42.4,1589.2 -659.8,778.9 -1801.6,792.8 -2588.4,404 -147.1,-72.7 -384.3,-270.1 -582.4,-448.1 M 25244,16029.2 c -549,0 -1105.6,192.4 -1415.8,502.6 -343.5,343.4 -378.8,767.5 -404.5,1077.1 -6.4,76.4 -12.4,148.5 -22.2,208.8 -25.4,156.1 -91.6,156.1 -135.5,156.1 h -976.3 l 276.1,273.6 c 25.3,25.1 624.2,616.8 957.1,781.3 898.4,443.9 2208.3,420.2 2974.4,-483.9 386.8,-456.5 379.7,-1338.8 -15.9,-1966.7 -185.5,-294.5 -536.1,-484.6 -986.9,-535.1 -82.7,-9.3 -166.6,-13.8 -250.5,-13.8"
         style="fill:#1e1b24;fill-opacity:1;fill-rule:nonzero;stroke:none"
         id="path112" /><path
         d="m 25252.5,16349.8 c -462.6,0 -951.1,161.3 -1198.1,408.3 -260.5,260.5 -287.8,588.2 -311.8,877.4 -6.9,82.7 -13.4,160.9 -25.2,233.5 -43.9,270 -208.4,424.8 -451.4,424.8 h -183.7 c 145.4,130.7 311.8,271.7 448.3,366.3 119.9,-5.2 232.8,-88.5 255.6,-222.1 0.4,-1.6 0.8,-3.2 0.8,-5.2 51.6,-315.2 -0.4,-815.6 382,-1198.4 283.8,-283.8 808.6,-455.2 1307.3,-455.2 324.2,0 637.4,72.5 866.1,233.6 -35.8,-92.7 -79.8,-181.7 -131.7,-264.1 -132.6,-210.5 -399.7,-348.2 -751.9,-387.7 -67.6,-7.6 -136.6,-11.2 -206.3,-11.2"
         style="fill:#bbbabd;fill-opacity:1;fill-rule:nonzero;stroke:none"
         id="path114" /><path
         d="m 25263.4,16189.6 c -498.7,0 -1023.4,171.5 -1307.2,455.2 -382.8,382.8 -330.8,883.2 -382,1198.4 -28.4,174.4 -116.8,290.4 -293.2,290.4 h -587.6 c 0,0 140.8,139.6 321.6,301.6 -83.2,-138.4 -136.8,-233.2 -136.8,-233.2 l 464.4,393.2 c 52.6,44.6 114.9,65.1 176.2,65.1 3.9,0 7.8,-0.1 11.8,-0.2 -136.5,-94.6 -302.9,-235.6 -448.3,-366.3 h 183.7 c 243,0 407.5,-154.8 451.4,-424.8 11.8,-72.6 18.3,-150.8 25.2,-233.5 24,-289.2 51.3,-616.9 311.8,-877.4 247,-247 735.5,-408.3 1198.1,-408.3 69.7,0 138.7,3.6 206.3,11.2 352.2,39.5 619.3,177.2 751.9,387.7 51.9,82.4 95.9,171.4 131.7,264.1 92.6,65.2 171.4,145 231.4,240.4 11.2,18 22.4,36 33.2,54.4 -40.4,-223.6 -121.6,-446.8 -246,-644 -208.6,-331.1 -642.3,-474 -1097.6,-474"
         style="fill:#1e1b24;fill-opacity:1;fill-rule:nonzero;stroke:none"
         id="path116" /><path
         d="m 21141.7,31532.5 c -25.4,4.8 -50.6,9.4 -75.5,13.8 578.1,1028.3 1778.8,2800.3 3558,3647.6 -1764.5,-893.6 -2934.1,-2665.9 -3482.5,-3661.4"
         style="fill:#75c4ff;fill-opacity:1;fill-rule:nonzero;stroke:none"
         id="path118" /><path
         d="m 21066.2,31546.3 c -15.4,2.7 -30.7,5.3 -45.9,7.9 611.4,1090.6 1928.7,3031.8 3900.5,3817.3 88,35 175.5,54.5 262.2,58.6 -39.7,-9.2 -79.8,-21.9 -120.1,-38 -150.1,-59.7 -296.4,-126.2 -438.7,-198.2 -1779.2,-847.3 -2979.9,-2619.3 -3558,-3647.6"
         style="fill:#327fbd;fill-opacity:1;fill-rule:nonzero;stroke:none"
         id="path120" /><path
         d="m 24713.9,29187.3 c -252.6,464.3 -966.3,969.1 -1562.8,1331.9 -538.5,327.6 -682.1,1043.3 -318.7,1558.2 639.4,906.4 1453,1567.2 2009.2,1954.9 329.5,229.8 786.6,52.7 877.6,-338.6 141.1,-606.5 252.7,-1541.2 22.4,-2638.5 -249.1,-1187 -962.9,-1846.8 -962.9,-1846.8 l -64.8,-21.1"
         style="fill:#ff6c6c;fill-opacity:1;fill-rule:nonzero;stroke:none"
         id="path122" /><path
         d="m 24713.9,29165.2 c -7.8,0 -15.4,4.2 -19.4,11.5 -253.9,466.8 -985.6,977.5 -1554.8,1323.7 -263.8,160.5 -443.8,415.6 -506.7,718.5 -62.7,301.5 3.5,619 181.4,871.2 637.9,904.1 1447.6,1565 2014.6,1960.3 160.3,111.8 365,136.6 547.7,66.5 183.4,-70.5 319.4,-226.8 364,-418.2 138.6,-596.1 255.1,-1539.4 22.5,-2648 -247.7,-1180.2 -962.4,-1851.8 -969.6,-1858.4 -8.9,-8.2 -22.8,-7.7 -31.1,1.2 -8.2,8.9 -7.6,22.8 1.3,31.1 7,6.5 711.7,669.3 956.3,1835.1 231,1100.8 115.3,2037.2 -22.3,2629 -41.2,177.2 -167.2,321.9 -336.9,387.1 -171.6,65.8 -356.2,43.4 -506.8,-61.5 -564,-393.2 -1369.5,-1050.7 -2003.7,-1949.5 -171,-242.3 -234.5,-547.4 -174.3,-836.9 60.4,-290.8 233.2,-535.8 486.4,-689.9 573.9,-349 1312.1,-864.9 1570.7,-1340.2 5.8,-10.7 1.9,-24.1 -8.8,-29.9 -3.4,-1.8 -7,-2.7 -10.5,-2.7"
         style="fill:#1e1b24;fill-opacity:1;fill-rule:nonzero;stroke:none"
         id="path124" /><path
         d="m 24126.9,30537.8 c -42.9,-205.2 -100.1,-394.4 -164.8,-567.6 -259.9,200.1 -547.3,388.5 -810.8,548.8 -538.5,327.6 -682,1043.3 -319.2,1558.6 363.4,515.3 783.3,951.1 1180.3,1302.7 42.6,-58.7 74.8,-127.4 92.6,-204.4 140.8,-606.3 252.3,-1540.9 21.9,-2638.1"
         style="fill:#ff6c6c;fill-opacity:1;fill-rule:nonzero;stroke:none"
         id="path126" /><path
         d="m 24008.4,33347.3 c -453.1,-403.5 -842.7,-834.9 -1158.3,-1282.4 -170.8,-242.6 -234.2,-547.8 -173.8,-837.5 60.5,-290.7 233.3,-535.6 486.4,-689.6 299.9,-182.4 565.2,-361.3 789.1,-531.9 64.3,176.3 116,356.6 153.6,536.4 v 0 c 230.9,1100.1 115.6,2036.7 -21.9,2628.7 -14.7,63.8 -40,123.1 -75.1,176.3 m -46.3,-3399.1 c -4.8,0 -9.6,1.6 -13.5,4.6 -227.5,175.1 -499.6,359.3 -808.7,547.4 -263.7,160.4 -443.6,415.5 -506.7,718.2 -62.8,301.6 3.1,619.3 180.9,871.9 321.9,456.3 720.1,895.9 1183.7,1306.5 4.6,4.1 10.7,6.1 17,5.4 6.1,-0.7 11.7,-3.9 15.4,-9 45.9,-63.1 78.2,-134.6 96.2,-212.3 138.4,-596.3 254.7,-1539.7 22,-2647.6 v 0 c -40,-191.5 -95.8,-383.5 -165.7,-570.8 -2.5,-6.5 -7.9,-11.5 -14.6,-13.4 -2,-0.6 -4,-0.9 -6,-0.9"
         style="fill:#1e1b24;fill-opacity:1;fill-rule:nonzero;stroke:none"
         id="path128" /><path
         d="m 18230.4,31415.8 c -619.3,949.7 -1920.5,2635.5 -3751,3396 1841.4,-713 3173.1,-2395.3 3825.1,-3376.2 -24.5,-6.4 -49.2,-13 -74.1,-19.8"
         style="fill:#75c4ff;fill-opacity:1;fill-rule:nonzero;stroke:none"
         id="path130" /><path
         d="m 18304.5,31435.6 c -652,980.9 -1983.7,2663.2 -3825.1,3376.2 -147.8,61.4 -299,116.8 -453.6,165.3 -41.4,13 -82.3,22.5 -122.6,28.8 6.8,0.2 13.5,0.3 20.2,0.3 80.3,0 162.3,-12.9 245.6,-39 2029.5,-636.5 3490.7,-2479.6 4180.6,-3520 -15,-3.8 -30,-7.7 -45.1,-11.6"
         style="fill:#327fbd;fill-opacity:1;fill-rule:nonzero;stroke:none"
         id="path132" /><path
         d="m 14839.9,28815.9 c 217,482.1 890.8,1039 1458.3,1445.6 512.4,367 601.8,1091.5 200.8,1577.8 -705.7,855.7 -1566.7,1453.6 -2150.3,1798.4 -345.9,204.3 -788.4,-6.6 -849.8,-403.6 -95.2,-615.4 -136.2,-1555.8 175.8,-2632.7 337.6,-1164.9 1098.9,-1769.2 1098.9,-1769.2 l 66.3,-16.3"
         style="fill:#ff6c6c;fill-opacity:1;fill-rule:nonzero;stroke:none"
         id="path134" /><path
         d="m 14839.9,28793.9 c -3,0 -6.1,0.6 -9,2 -11.1,4.9 -16,18 -11.1,29.1 222.1,493.3 919.6,1063.2 1465.6,1454.4 241,172.6 394.8,429.9 433.3,724.4 38.2,293.3 -48,592.7 -236.7,821.4 -699.9,848.7 -1552.5,1443.8 -2144.5,1793.6 -158,93.3 -343.9,101.7 -509.9,23.2 -164.4,-77.7 -279.1,-231.5 -306.9,-411.2 -92.9,-600.5 -137.8,-1543 175.2,-2623.3 331.5,-1144.1 1083.9,-1752.1 1091.4,-1758.1 9.5,-7.6 11.1,-21.4 3.6,-30.9 -7.6,-9.5 -21.4,-11.2 -30.9,-3.6 -7.7,6.1 -770.8,622.1 -1106.4,1780.3 -315.2,1088.1 -270,2037.4 -176.5,2642.3 30.1,194.2 154,360.3 331.6,444.3 176.8,83.6 382.9,74.3 551.2,-25.2 595,-351.5 1452.1,-949.7 2156.1,-1803.3 196.4,-238.2 286.1,-549.9 246.3,-855.2 -40,-306.7 -200.3,-574.7 -451.3,-754.5 -541.6,-388 -1232.9,-952.3 -1451,-1436.7 -3.7,-8.2 -11.7,-13 -20.1,-13"
         style="fill:#1e1b24;fill-opacity:1;fill-rule:nonzero;stroke:none"
         id="path136" /><path
         d="m 15323.8,30206.7 c 58.2,-201.4 129.4,-385.7 207,-553.5 244.1,219 516.5,428.4 767.2,608.1 512.4,367.1 601.8,1091.5 201.2,1578.1 -401,486.5 -852.5,889.6 -1274.7,1210.4 -38.1,-61.7 -65.1,-132.7 -77,-210.7 -94.9,-615.3 -135.8,-1555.5 176.3,-2632.4"
         style="fill:#ff6c6c;fill-opacity:1;fill-rule:nonzero;stroke:none"
         id="path138" /><path
         d="m 15230.9,33017.2 c -31,-55.8 -51.7,-116.7 -61.6,-181.4 -92.6,-600.7 -137.3,-1543.2 175.6,-2622.9 v 0 c 51,-176.6 116.1,-352.5 193.5,-523.5 210.4,187 461.5,385.3 746.8,589.8 240.9,172.6 394.8,429.7 433.3,724.1 38.4,293.4 -47.7,593.1 -236.3,822.1 -348.3,422.5 -769.2,823.4 -1251.3,1191.8 m 299.9,-3386 c -1.5,0 -3,0.1 -4.5,0.4 -6.8,1.4 -12.5,6 -15.5,12.3 -83.8,181.4 -153.9,368.7 -208.2,556.7 -315.2,1087.4 -270.1,2036.8 -176.8,2641.8 12,78.9 38.9,152.5 79.9,219 3.3,5.2 8.6,8.9 14.7,10 6.1,1.1 12.4,-0.3 17.4,-4.1 493.1,-374.6 923.2,-783 1278.4,-1213.9 196.3,-238.4 285.9,-550.4 246,-855.8 -40.2,-306.6 -200.5,-574.5 -451.4,-754.2 -294.1,-210.8 -551.6,-414.9 -765.3,-606.6 -4.1,-3.7 -9.3,-5.6 -14.7,-5.6"
         style="fill:#1e1b24;fill-opacity:1;fill-rule:nonzero;stroke:none"
         id="path140" /><path
         d="m 27138.8,24999.3 c -555.5,255.9 -1047.5,1160 -1187.8,1616 -81.3,263.5 -273.7,782.6 -421.9,1174.8 2484.5,2253.6 1316.1,8258 -464.1,7548.9 -2010.3,-800.9 -3328.6,-2784.1 -3921.2,-3859.5 -843.7,159.4 -1445.1,92.3 -1445.1,92.3 0,0 -620.4,22.5 -1466.3,-209.2 -669.5,1026.4 -2135.2,2912.2 -4204.7,3561.3 -1835.2,575.5 -2547.7,-5546.7 133.7,-7585 -117.3,-399.1 -265.3,-915.7 -325.1,-1179.2 -106.1,-465.3 -528.7,-1403.7 -1063.8,-1700.7 -315.6,-175.2 -321.1,-443.7 -92.3,-636.6 146.8,-123.6 390.8,-216.5 710.6,-232.7 25.3,-1.6 51.6,-2.1 78,-2.6 0,0 -0.4,-0.1 -1.4,-1.2 h -0.4 c -18.8,-13.3 -176.1,-122.8 -578.7,-411.1 -394.3,-282.8 -55.5,-626.3 638.3,-957.2 693.4,-330.6 1600.4,-1127 1784.7,-1242.9 107.9,-68 687.5,-498.2 1764.7,-820.6 766.5,-229.9 1785.1,-405.3 3065.1,-357.2 h 0.4 c 3078.5,115.8 4552.6,1407.4 4727.8,1537.2 175.1,129.4 1019.6,991.8 1686.6,1373.5 666.6,382.1 978.6,750.1 563.9,1002.4 -452.4,275.5 -609.9,367.5 -609.9,367.5 25.6,2.1 50.7,4.9 75.1,8 319.1,40.2 556.5,151.2 694,285.9 213.7,209.6 188,476.9 -140.2,627.9"
         style="fill:#f99b28;fill-opacity:1;fill-rule:nonzero;stroke:none"
         id="path142" /><path
         d="m 18380,31401.1 c -10,15.2 -20.1,30.5 -30.4,46.1 649.5,164.1 1147.2,178.2 1299.1,178.2 31.6,0 48.2,-0.6 48.2,-0.6 0,0 125.8,14.1 342.9,14.1 234.6,0 575.8,-16.4 980.5,-84.7 -9.2,-16.3 -18.1,-32.3 -26.9,-48.2 -392.1,64.2 -722.8,79.8 -951.8,79.8 -217.2,0 -342.9,-14 -342.9,-14 0,0 -16.5,0.6 -47.6,0.6 -149,0 -634.7,-13.7 -1271.1,-171.3 m 8567.4,612.7 c -60.5,1716.8 -669.8,3241 -1479.2,3373.7 -82.1,28.9 -165.5,43.5 -249.9,43.5 -11.7,0 -23.5,-0.3 -35.3,-0.9 56.9,13.4 113.2,19.9 168.6,19.9 874.5,0 1543.5,-1617.3 1595.8,-3436.2"
         style="fill:#89ccff;fill-opacity:1;fill-rule:nonzero;stroke:none"
         id="path144" /><path
         d="m 21143.8,31479.5 c -35.3,6.6 -70,12.9 -104.4,18.8 8.7,15.7 17.7,31.9 26.8,48 24.9,-4.4 50.1,-9 75.5,-13.8 548.4,995.5 1718,2767.8 3482.5,3661.4 102.4,48.8 206.6,94.4 312.9,136.7 93.8,37.4 187.3,55.9 279.7,55.9 4.9,0 9.8,0 14.7,-0.1 -54.8,-9.4 -110.3,-25.1 -166.5,-47.4 -2010.3,-800.9 -3328.6,-2784.1 -3921.2,-3859.5"
         style="fill:#acdcff;fill-opacity:1;fill-rule:nonzero;stroke:none"
         id="path146" /><path
         d="m 21039.4,31498.3 c -15.4,2.6 -30.8,5.2 -46,7.7 8.8,15.9 17.7,31.9 26.9,48.2 15.2,-2.6 30.5,-5.2 45.9,-7.9 -9.1,-16.1 -18.1,-32.3 -26.8,-48 m 3584.8,3695.6 c 142.3,72 288.6,138.5 438.7,198.2 40.3,16.1 80.4,28.8 120.1,38 11.8,0.6 23.6,0.9 35.3,0.9 84.4,0 167.8,-14.6 249.9,-43.5 -37.8,6.1 -76,9.3 -114.5,9.3 -40.4,0 -81,-3.4 -122.2,-10.4 -4.9,0.1 -9.8,0.1 -14.7,0.1 -92.4,0 -185.9,-18.5 -279.7,-55.9 -106.3,-42.3 -210.5,-87.9 -312.9,-136.7"
         style="fill:#84b2d7;fill-opacity:1;fill-rule:nonzero;stroke:none"
         id="path148" /><path
         d="m 12399.8,31479.9 c -82.9,1849.4 486.4,3535.2 1387.5,3535.2 38,0 76.7,-3 115.9,-9.2 -96.3,-2.6 -190.2,-24 -280.9,-63.9 -795.4,-192.1 -1288.1,-1750.5 -1222.5,-3462.1"
         style="fill:#89ccff;fill-opacity:1;fill-rule:nonzero;stroke:none"
         id="path150" /><path
         d="m 18232.4,31362.6 c -669.5,1026.4 -2135.2,2912.2 -4204.7,3561.3 -57.6,18 -114.2,29.5 -169.5,34.7 22.2,2.2 44.5,3.2 66.9,3.2 75.5,0 152.5,-12.1 230.7,-36.6 109.5,-34.4 217.4,-72.3 323.6,-113.4 1830.5,-760.5 3131.7,-2446.3 3751,-3396 24.9,6.8 49.6,13.4 74.1,19.8 10.3,-15.5 20.4,-30.7 30.4,-45.9 -33.8,-8.6 -68,-17.6 -102.5,-27.1"
         style="fill:#acdcff;fill-opacity:1;fill-rule:nonzero;stroke:none"
         id="path152" /><path
         d="m 18334.9,31389.7 c -10,15.2 -20.1,30.4 -30.4,45.9 15.1,3.9 30.1,7.8 45.1,11.6 10.3,-15.6 20.4,-30.9 30.4,-46.1 -15,-3.7 -30,-7.5 -45.1,-11.4 m -3855.5,3422.1 c -106.2,41.1 -214.1,79 -323.6,113.4 -78.2,24.5 -155.2,36.6 -230.7,36.6 -22.4,0 -44.7,-1 -66.9,-3.2 -23.2,2.2 -46.2,3.3 -69,3.3 -57,0 -112.6,-6.8 -166.9,-19.9 90.7,39.9 184.6,61.3 280.9,63.9 40.3,-6.3 81.2,-15.8 122.6,-28.8 154.6,-48.5 305.8,-103.9 453.6,-165.3"
         style="fill:#84b2d7;fill-opacity:1;fill-rule:nonzero;stroke:none"
         id="path154" /><path
         d="m 18511.8,30672.1 c -317.7,-0.1 -619.3,156.1 -798.5,427.5 -730.2,1105.6 -1917.1,2714.8 -3664.4,3262.9 -81.7,25.6 -161.4,38 -238.5,38 -841.8,0 -1393.6,-1469.7 -1395.5,-3170.3 -6.4,83.4 -11.4,166.8 -15.1,249.7 -65.6,1711.6 427.1,3270 1222.5,3462.1 54.3,13.1 109.9,19.9 166.9,19.9 22.8,0 45.8,-1.1 69,-3.3 55.3,-5.2 111.9,-16.7 169.5,-34.7 2069.5,-649.1 3535.2,-2534.9 4204.7,-3561.3 34.5,9.5 68.7,18.5 102.5,27.1 15.1,3.9 30.1,7.7 45.1,11.4 636.4,157.6 1122.1,171.3 1271.1,171.3 31.1,0 47.6,-0.6 47.6,-0.6 0,0 125.7,14 342.9,14 229,0 559.7,-15.6 951.8,-79.8 15.2,-2.5 30.6,-5.1 46,-7.7 34.4,-5.9 69.1,-12.2 104.4,-18.8 592.6,1075.4 1910.9,3058.6 3921.2,3859.5 56.2,22.3 111.7,38 166.5,47.4 41.2,7 81.8,10.4 122.2,10.4 38.5,0 76.7,-3.2 114.5,-9.3 809.4,-132.7 1418.7,-1656.9 1479.2,-3373.7 2.2,-78.6 3.4,-157.6 3.3,-237 -126.9,1659.2 -762.3,3058.6 -1575.9,3058.6 -94.1,0 -190.5,-18.7 -288.8,-57.8 -1696.9,-676 -2757.8,-2363.9 -3403.8,-3520.8 -170.6,-305.5 -492,-493.1 -836.8,-493.1 -32.3,0 -64.7,1.6 -97.3,5 -384,39.4 -709.3,46 -883.7,46 -87.5,0 -137,-1.7 -137,-1.7 0,0 -455.7,-18.2 -1040.4,-125 -58.5,-10.7 -117.1,-15.9 -175.2,-15.9"
         style="fill:#fbc37e;fill-opacity:1;fill-rule:nonzero;stroke:none"
         id="path156" /><path
         d="m 13425.2,23588.1 c 14.1,-0.6 29,-0.8 43.5,-1 0,0 -0.4,-0.4 -1.5,-1.1 l -0.3,-0.1 c -2.6,-1.9 -7.6,-5.1 -15.2,-10.5 -9.1,4.1 -17.8,8.6 -26.5,12.7"
         style="fill:#982e20;fill-opacity:1;fill-rule:nonzero;stroke:none"
         id="path158" /><path
         d="m 13451.7,23553.3 c -3.1,0 -6.2,0.7 -9.1,2 -5.7,2.6 -11.3,5.3 -16.7,8 l -10.1,4.9 c -9.5,4.5 -14.5,15 -11.9,25.2 2.5,10.1 11.8,16.3 22.2,16.7 12.4,-0.5 25.2,-0.7 38,-0.9 8.8,-0.1 19.2,-5.6 22.5,-13.8 3.3,-8.2 3.9,-17.6 -2.4,-23.8 -0.8,-0.9 -3.1,-2.8 -4,-3.4 -0.9,-0.7 -1.9,-1.3 -2.9,-1.8 -1.3,-1 -2.8,-2 -3,-2.1 l -9.7,-6.8 c -3.8,-2.7 -8.3,-4.2 -12.9,-4.2"
         style="fill:#1e1b24;fill-opacity:1;fill-rule:nonzero;stroke:none"
         id="path160" /><path
         d="m 26555.9,22707.6 c -667,-381.7 -1511.5,-1244.1 -1686.6,-1373.5 -175.2,-129.8 -1649.3,-1421.4 -4727.8,-1537.2 h -0.4 c -1280,-48.1 -2298.6,127.3 -3065.1,357.2 -1077.2,322.4 -1656.7,752.6 -1764.7,820.6 -184.3,115.9 -1091.3,912.3 -1784.7,1242.9 -693.8,330.9 -1032.6,674.4 -638.3,957.2 402.6,288.3 559.9,397.8 578.7,411.1 h 0.4 c 1,1.1 1.4,1.2 1.4,1.2 -26.4,0.5 -52.7,1 -78,2.6 100.2,37.9 211.7,74.4 335.1,108.3 434.3,119.9 933.7,-66.3 1503.9,-252.5 741.8,-242.3 1603.5,-484.5 2597.6,-52.6 1349.6,586.2 658.1,3777.4 989.1,4626.7 3.4,8.7 6.8,17 10.2,25.7 352.9,878.3 1584,924.6 2001.9,75.2 4.4,-8.3 8.4,-16.3 12.5,-24.7 393.8,-822.1 -56.1,-4056.2 1333.4,-4539.5 1010.2,-351.2 1842.5,-57.7 2557.6,235.7 566.8,232.6 1060,465.2 1509.8,376.7 126,-24.5 239.9,-52.9 343.1,-83.2 -24.4,-3.1 -49.5,-5.9 -75,-8 0,0 157.4,-92 609.8,-367.5 414.7,-252.3 102.7,-620.3 -563.9,-1002.4"
         style="fill:#ffffff;fill-opacity:1;fill-rule:nonzero;stroke:none"
         id="path162" /><path
         d="m 18232.4,31186.5 c -77.4,0 -148.3,51.3 -169.7,129.5 -25.7,93.8 29.4,190.7 123.2,216.4 804.8,220.6 1407.9,217.7 1505.8,215.7 96.1,9.3 682.4,56.3 1484.7,-96 95.5,-18.1 158.3,-110.2 140.2,-205.8 -18.2,-95.5 -110.4,-158.3 -205.8,-140.1 -804.5,152.6 -1387.3,91.2 -1393,90.6 -8.5,-1 -17.2,-1.3 -25.9,-1 -5.9,0.1 -606.7,18 -1412.9,-203 -15.5,-4.3 -31.2,-6.3 -46.6,-6.3"
         style="fill:#1e1b24;fill-opacity:1;fill-rule:nonzero;stroke:none"
         id="path164" /><path
         d="m 18150.4,19844.2 c -257.2,13.4 -514.3,47.9 -766.9,102.2 -251.7,56.9 -501.4,125.7 -744.5,212.6 -487.3,172.5 -954.1,392.4 -1400.5,660.4 -25,14.9 -65.7,42.5 -89.5,60.4 -27.4,20.1 -54,39.9 -79.3,59.5 l -151.7,117.2 -299.5,231 c -200.1,151.7 -402.2,299 -608.7,435.9 -103.1,68.6 -207.8,133.1 -313.1,194.7 -53.1,28.5 -105.7,60.3 -159.2,86.2 l -79.9,40.1 -87.5,42.5 c -118.1,58.3 -235.2,121.3 -350.3,194.5 -114.7,74.5 -229,155.5 -334.6,274.1 -51.8,60 -103.9,132.6 -134.8,232.3 -15.7,49.1 -22.2,107.5 -17.3,164.8 4.6,57.7 22.5,114.2 47.3,160.6 49.6,95.9 117.2,155 180.7,204.7 17.7,13.8 28.6,21.2 42,30.9 l 38.6,27.7 77.4,55.5 310.3,221.1 38.8,27.6 4.8,3.4 2.5,1.7 -8.7,-6.4 c -14.2,-11.8 -27.3,-26.9 -37.1,-43.9 -19.8,-34.7 -24.4,-72.6 -18.7,-105.2 5.8,-32.9 21.6,-65.1 52.4,-92.2 15.2,-13.5 34.4,-24.2 54,-30.9 10.2,-3.3 19.8,-5.5 29.1,-6.9 3.6,-0.5 12,-1.1 11.7,-1 l -3.3,0.2 -52.4,4.4 c -69.9,6.1 -139.9,16 -209.9,30.9 -139.8,29.3 -280.3,75.8 -414.1,155.1 -66.6,40.2 -131.6,88.9 -190.4,151.7 -58.2,63.1 -110.6,142.7 -139.3,239.7 -28.1,96.7 -25.4,212.2 13,306.8 36.9,95.7 97.5,170.8 161.1,227.5 l 48.8,40 50,35 50.7,30.5 c 9.9,5.8 12.9,8.1 19,11.9 l 16.2,10.5 c 21.4,14.8 44.1,25.6 65,43 l 63.3,50.2 c 165.8,145.8 309.2,339.2 430.7,545.6 123.7,205.6 227.6,427.7 310.5,653.3 l 29.7,84.7 26.1,84.7 c 8.4,28.1 14.8,55.8 22.5,83.7 l 23.2,94 c 31.8,126.2 66,249 100.6,372.1 69.1,245.6 144,488.5 218.1,731.6 27.4,90.1 122.7,140.9 212.8,113.4 88.9,-27.1 139.4,-120.5 114.4,-209.5 -68.5,-243.4 -134.6,-487.5 -200.3,-730.5 -32.3,-121.4 -64.5,-243.3 -92.9,-363.3 l -21.1,-90.8 c -8.4,-33.4 -16.1,-67.6 -25.4,-100.3 l -28.6,-97.4 -31.7,-95.2 c -88.6,-251.3 -197.3,-491.9 -331.4,-722.8 -134.5,-230 -294.1,-451.5 -508.8,-642 l -85.5,-68 c -28.1,-22.8 -62.2,-41.5 -93.2,-62.1 l -45.2,-28.4 -30.8,-18.5 -27.8,-19.5 -24.7,-20.3 c -30.9,-27.4 -49.6,-55.6 -58.3,-78.4 -9.4,-23.2 -8.5,-41.3 -2.7,-66.2 7.7,-24.6 24.5,-55 52.3,-84.8 27.9,-29.8 64.8,-58.4 106.7,-83.5 84.5,-50.2 187.6,-86.2 295.5,-108.2 54,-11.5 109.8,-19.3 166.1,-24.1 l 42.2,-3.4 2.7,-0.2 17.6,-1.9 c 13.3,-1.7 26.8,-4.8 40.6,-9.6 27.2,-8.9 53.2,-24 74.6,-42.5 42.9,-37.4 66.2,-84.5 74.8,-132.9 8.6,-48.2 1.4,-102.6 -26.5,-151.1 -13.6,-23.9 -31.9,-45.2 -52.3,-61.8 l -13.3,-10.2 -2.4,-1.8 -4.9,-3.4 -38.6,-27.5 -309.4,-219.8 -151.1,-107.2 c -36.2,-26.9 -64.6,-56.4 -72.4,-74.3 -5.4,-9.3 -6.6,-14.7 -6.9,-20.2 -0.2,-5.6 -1.4,-11.7 2.5,-23 6.1,-21.8 25.9,-57.4 56.9,-92.7 62.2,-71.9 154.4,-142.7 251.8,-206 98.3,-63.6 204.2,-121.9 313,-176.6 l 83.2,-41.2 89.6,-45.9 c 60.1,-30.4 115.7,-64.9 173.8,-97.3 112.5,-67.9 222.7,-138.1 329.5,-211.4 214.2,-146.3 419.6,-300.8 621.4,-458.2 l 299.3,-237.6 147.4,-117.4 c 24.6,-19.6 48.6,-37.9 72.1,-55.6 26.7,-20.2 38.4,-28.4 67.1,-47.2 206.6,-133.2 425.4,-254.3 645.6,-369.5 220.3,-116.1 446.6,-220.3 675.1,-319.6 229.2,-97.5 462.9,-183.5 700.1,-260 237.4,-76.9 479.7,-134.4 725.2,-185.8 l 2.1,-0.5 c 35.1,-7.3 57.7,-41.8 50.3,-76.9 -6.7,-31.8 -35.5,-53.3 -67,-51.6"
         style="fill:#1e1b24;fill-opacity:1;fill-rule:nonzero;stroke:none"
         id="path166" /><path
         d="m 25688.9,27849.5 c 87.8,-226.6 175.8,-453.1 259.7,-682.1 42,-114.6 83.5,-229.3 123.5,-346.1 l 58.1,-174.7 c 16.8,-52 37.8,-104.7 58.8,-157.4 88.8,-210.7 199.6,-417.5 326.2,-610.3 125.8,-193.3 268.7,-374.6 430,-522 19.5,-19.6 41.3,-34.4 61.7,-52 20.7,-16.8 41.1,-34.7 63,-48 l 64.1,-43.5 65.6,-34.9 16.2,-8.9 24.6,-12.2 c 16.8,-8.7 33.5,-16.1 50.2,-26.5 33.4,-18.9 66.5,-41 98.8,-66.1 64.1,-50.6 126.2,-118 168,-205.9 43.2,-86.9 55.7,-194.7 38.6,-289.6 -17,-95.6 -59.7,-176.3 -108.7,-242.7 -100.2,-132.7 -226.1,-214.8 -352.5,-278.3 -127.5,-61.3 -259.2,-101.5 -391,-127.1 -33,-7.2 -66.1,-11.5 -99.2,-17 l -6.2,-1 -3.1,-0.4 c -0.7,-0.1 -4.1,-0.7 2.7,0.3 17.1,2.7 35.7,9.1 52.7,19 34.7,20.1 57.9,51.7 68.4,81.8 10.6,30.4 12.3,62.1 2.3,96 -9.3,33.4 -35.9,67.8 -64.1,85.1 l 149.9,-90.4 311.6,-189.6 38.9,-23.8 19.5,-11.9 24.3,-15.9 c 32.2,-20.7 64.8,-45.9 96.4,-75.2 62.1,-56.9 126.9,-145.1 146.7,-254.9 21.6,-109.8 -7.3,-214.3 -44.1,-289.9 -37.8,-77.5 -84.3,-138.2 -132,-192.1 -96.3,-106.5 -199.9,-188.1 -304.8,-264 -105.2,-74.8 -212.5,-142 -321.3,-204.7 l -40.4,-23.4 -36.7,-22 -73.5,-44.1 c -48.5,-31.5 -97,-63 -145.1,-95.9 -384.4,-268.2 -743.9,-587.7 -1100.6,-912.4 l -134.9,-122.7 c -46.2,-41.5 -90.4,-81.8 -143.7,-125.9 -13.9,-10.9 -30.1,-24.2 -42.1,-33 l -36.9,-26.9 -76.9,-54.4 c -51.5,-35.6 -103.5,-70.1 -155.7,-104.1 -208.7,-135.4 -425.4,-255.3 -645.7,-366.6 -442.3,-219.4 -903.6,-397.2 -1377.8,-523.3 -47.4,-12.7 -96,15.5 -108.6,63 -11.5,43 10.7,87 50.3,104.2 l 1.3,0.6 c 220.8,96.1 441,190.8 656.3,295.2 215.1,104.6 427.5,213.6 634.5,331.3 207.8,116 409.5,242 605.5,373.5 48.7,33.3 96.9,67 144.3,101.4 l 70.2,52.4 36.1,27.4 29,23.6 c 39.8,33.4 85,75 128.6,115 l 133,123.1 c 357.1,330.5 720.6,661.1 1129.3,952.1 51.6,36 104.4,71 157.2,105.9 l 82,50.2 41,25.1 38.1,22.5 c 100.8,59.2 198.5,121.9 290.2,188.4 90.8,66.5 177.2,138 242.8,212.4 32.4,36.7 58.5,74.5 73.5,106.4 15.2,32.6 16.3,52.7 13.4,62.4 -2,10.2 -9.7,27.6 -36.4,51.8 -13.1,11.6 -28.3,24 -47.3,35.7 l -13.8,8.9 -19.4,11.6 -38.8,23.3 -310.8,186.6 -161.2,97.8 c -40.9,25.4 -77.2,72.6 -90.9,120.6 -14.4,48.3 -12.4,96 3.5,140.5 15.6,44.3 48.7,88.6 96.5,116.2 23.6,13.8 49.5,22.6 74,26.7 l 15.8,2.5 c 26.7,4.6 53.7,7.8 80,13.7 106.1,20.2 207.9,52.1 299,95.8 89.7,43.9 170,102 216,164.3 22.7,30.7 36.8,60.8 40.7,84.9 3.2,24.3 2.5,42.8 -8.6,64.9 -10.3,21.8 -30.5,47.5 -61.3,71.8 -15.7,12 -32.9,23.8 -52.3,34.8 -8.9,5.9 -20.1,10.5 -30.1,15.8 l -39.8,20.8 -94.8,50.9 -86.4,58.3 c -29.7,18.9 -55.2,40.8 -81.5,62.2 -25.6,21.7 -53.7,42 -77.1,65.2 -196,180.8 -355.5,383.6 -491.4,598 -136.9,214.1 -253.7,437.5 -350.6,674.6 -23.3,60.2 -46.4,120.4 -66.3,184 l -54.7,170.9 c -37.3,113 -77,226.7 -117.1,340.2 -80.6,227 -162.1,454.7 -245.4,681.7 -32.5,88.4 12.8,186.5 101.1,219 87.4,32.1 184.3,-12.1 217.9,-98.5"
         style="fill:#1e1b24;fill-opacity:1;fill-rule:nonzero;stroke:none"
         id="path168" /><path
         d="m 25741.4,31055.2 c -249,-1186.7 -962.7,-1846.5 -962.7,-1846.5 l -64.6,-21.6 c -140.8,258.8 -424.8,530.1 -752,783.1 -259.9,200.1 -547.3,388.5 -810.8,548.8 -538.5,327.6 -682,1043.3 -319.2,1558.6 363.4,515.3 783.3,951.1 1180.3,1302.7 301.3,266.5 589.7,484.7 829.3,652 329.5,229.7 786.4,52.8 877.3,-338.4 141.3,-607 252.8,-1541.5 22.4,-2638.7"
         style="fill:#ff6c6c;fill-opacity:1;fill-rule:nonzero;stroke:none"
         id="path170" /><path
         d="m 23962.1,29970.2 v 0 c -259.9,200.1 -547.3,388.5 -810.8,548.8 -337.1,205.1 -519.4,562.2 -519.6,927.1 -0.2,218 64.7,438.8 200.4,631.5 363.4,515.3 783.3,951.1 1180.3,1302.7 42.6,-58.7 74.8,-127.4 92.6,-204.4 140.8,-606.3 252.3,-1540.9 21.9,-2638.1 -42.9,-205.2 -100.1,-394.4 -164.8,-567.6"
         style="fill:#bb5456;fill-opacity:1;fill-rule:nonzero;stroke:none"
         id="path172" /><path
         d="m 24634.5,29144.1 c -71.7,113.3 -165.1,216.1 -263.7,313.5 -100.1,96.4 -205.6,188.9 -317.1,275.4 -112.1,85.7 -225.7,170.3 -343.3,250.1 -117.9,79.3 -237.6,156.5 -358.5,232.2 -60.9,37.3 -121.5,74.8 -183.2,110.9 l -92.4,54.1 -46.5,26.7 c -15.6,9.1 -30,16.9 -49.2,29.4 -145.9,89.5 -271.6,215.4 -358.4,364.4 -85.3,149.4 -138.6,318.8 -143.5,491.9 -4.5,172.4 30.7,347.5 108.2,502 l 30.7,57 15.5,27.9 15,23.5 60.3,93.7 121.2,187 131,180 65.6,90 69.9,86.6 140.3,172.6 148.8,165.1 c 48.8,55.6 100.4,108.7 152.6,161.2 52.5,52.2 102.3,106.8 156.9,156.9 214.1,204 441.8,392.9 680.7,565.4 240.1,171.5 487.7,329.4 758.2,454.2 25.1,11.5 54.8,0.6 66.4,-24.5 10.2,-22.3 2.8,-48.1 -16.5,-61.8 l -2.2,-1.6 c -232,-165 -455.9,-347.5 -668.6,-537.7 -107.6,-94 -210.1,-193.7 -312.5,-292.7 l -151.2,-150.9 -146,-155.7 c -192.3,-209.4 -377,-425.3 -545,-653.4 l -64.2,-84.5 -60.9,-87 -121.9,-173.7 -114.4,-178.5 -57.2,-89.2 -14.4,-22.3 -10.5,-19.7 -21,-38.7 c -104.2,-210.3 -95.2,-470 19.7,-675.8 57.2,-102.9 141.4,-189 240.3,-254 10.6,-8.1 27.7,-18.4 43.1,-28.1 l 46.7,-29.3 93,-59.3 c 62,-39.5 123.2,-80.5 184.5,-121.3 244.3,-164.7 480.5,-343.4 702.3,-542.6 110.1,-100.4 216.8,-206.1 314.4,-321.7 97.9,-115 188.1,-239.8 255.7,-381.4 21.6,-45 2.5,-99.1 -42.6,-120.6 -41.8,-20 -91.3,-5 -115.5,33.3 l -0.6,1"
         style="fill:#1e1b24;fill-opacity:1;fill-rule:nonzero;stroke:none"
         id="path174" /><path
         d="m 13675,30601.4 c 337.4,-1164.6 1098.6,-1769 1098.6,-1769 l 66.1,-16.6 c 120.9,268.6 383.8,560.4 691.1,837.4 244.1,219 516.5,428.4 767.2,608.1 512.4,367.1 601.8,1091.5 201.2,1578.1 -401,486.5 -852.5,889.6 -1274.7,1210.4 -320.5,243.1 -624.5,439 -876,587.8 -345.8,204.4 -788.1,-6.4 -849.4,-403.2 -95.3,-615.9 -136.3,-1556.1 175.9,-2633"
         style="fill:#ff6c6c;fill-opacity:1;fill-rule:nonzero;stroke:none"
         id="path176" /><path
         d="m 15530.8,29653.2 c -77.6,167.8 -148.8,352.1 -207,553.5 -312.1,1076.9 -271.2,2017.1 -176.3,2632.4 11.9,78 38.9,149 77,210.7 422.2,-320.8 873.7,-723.9 1274.7,-1210.4 168.6,-204.8 250.4,-451.7 250.4,-696.4 0,-336.7 -154.9,-669.1 -451.6,-881.7 -250.7,-179.7 -523.1,-389.1 -767.2,-608.1 v 0"
         style="fill:#bb5456;fill-opacity:1;fill-rule:nonzero;stroke:none"
         id="path178" /><path
         d="m 14757.5,28853 c 56.8,146.2 137.4,277.4 226.4,399.5 88.6,122.6 187.1,236 289.4,344.4 206.1,215.3 428.3,411.3 659.5,593.8 58.1,45.3 116,90.8 174.9,134.8 l 88.3,66.2 44.4,32.7 c 14.6,10.8 30.8,22.3 40.8,31.2 93.7,72.3 171.3,164.5 220.5,271.4 99.1,213.8 88.7,473.4 -31.1,675.3 l -23.8,37 -12,18.9 -16,21.2 -63.8,84.6 -127.5,169.5 -134.5,164 -67.3,82.1 -70.3,79.5 c -184.7,214.8 -385.2,416.2 -592.6,610.6 l -157.2,144.3 -162.2,139.1 c -109.5,91.1 -219.2,182.8 -333.6,268.4 -226.4,173.7 -463.4,338.9 -707.1,486 l -2.4,1.5 c -23.6,14.2 -31.2,45 -16.9,68.6 12.6,21 38.2,29.3 60.3,21.1 279.1,-104.1 537.8,-242.9 790.1,-395.9 251.2,-154.1 492.5,-325.4 721.3,-512.8 58.2,-45.7 112,-96.5 168.2,-144.6 56,-48.4 111.4,-97.5 164.3,-149.3 l 160.8,-153.5 152.9,-161.5 76.2,-81.1 72.1,-84.8 144.2,-169.7 134.9,-177.4 67.1,-88.9 16.8,-22.2 17.5,-26.7 34.9,-54.5 c 88.9,-148.3 137.2,-320.2 145.6,-492.5 8.1,-172.9 -32.3,-345.9 -106.2,-501.3 -75.3,-155.1 -191.1,-290.1 -329.9,-390.2 -18.2,-14 -32,-22.9 -46.9,-33.1 l -44.3,-30.1 -88.1,-60.9 c -58.8,-40.6 -116.5,-82.6 -174.4,-124.3 -114.9,-84.6 -228.4,-170.5 -340,-258.5 -111.3,-88.4 -218.2,-181.3 -323.6,-275.2 -104.7,-94.6 -202.9,-194.8 -295.5,-298.5 -91,-104.5 -176.4,-213.9 -239.4,-332.4 l -0.6,-1 c -23.4,-44.2 -78.2,-60.9 -122.3,-37.4 -41,21.7 -58.3,70.5 -41.9,112.6"
         style="fill:#1e1b24;fill-opacity:1;fill-rule:nonzero;stroke:none"
         id="path180" /><path
         d="m 20923.6,22985.7 c 36,-956.2 -338.2,-1746.5 -835.8,-1765.2 -497.6,-18.7 -930.2,741.3 -966.1,1697.4 l 1801.9,67.8"
         style="fill:#ff6c6c;fill-opacity:1;fill-rule:nonzero;stroke:none"
         id="path182" /><path
         d="m 20070.1,21198.2 c -501.2,-0.1 -934.5,763.9 -970.4,1718.9 -0.5,12.1 9,22.4 21.1,22.8 11.9,-0.4 22.4,-9 22.9,-21.1 35.4,-942.5 457.5,-1694.7 943.2,-1676.3 484.7,18.2 850.2,799.9 814.8,1742.4 -0.5,12.1 9,22.3 21.1,22.8 11.9,0.1 22.4,-9 22.9,-21.2 36.3,-966.7 -348.2,-1768.8 -857.1,-1788 -6.2,-0.2 -12.4,-0.3 -18.5,-0.3"
         style="fill:#1e1b24;fill-opacity:1;fill-rule:nonzero;stroke:none"
         id="path184" /><path
         d="m 20924.8,22769.3 c -8.3,-314.2 -61.6,-604.3 -148.4,-846.3 -149.2,-417.3 -397.7,-691.7 -688.7,-702.6 -291,-11 -559.9,244.4 -739.5,650.4 -104.7,234.2 -179.2,519 -211.1,831.3 l 1787.7,67.2"
         style="fill:#ed2e7a;fill-opacity:1;fill-rule:nonzero;stroke:none"
         id="path186" /><path
         d="m 19164.8,22678.1 c 32.3,-291.9 103.4,-567.1 206.2,-797.1 183.3,-414.2 443.6,-646.7 715.8,-635.7 271.1,10.2 513.8,260.3 666.1,686.1 85.5,238.6 135.9,518.8 146.1,811.9 l -1734.2,-65.2 m 904.7,-1483.1 c -286.1,0 -556.4,241.3 -744.2,665.6 -108,241.8 -181.7,531.9 -213,838.9 l -2.7,26.6 1840.9,69.2 -0.7,-26.7 c -8.1,-308 -60,-603.3 -149.8,-854 -159.5,-446.1 -418.8,-708.2 -711.3,-719.2 -6.4,-0.3 -12.8,-0.4 -19.2,-0.4"
         style="fill:#1e1b24;fill-opacity:1;fill-rule:nonzero;stroke:none"
         id="path188" /><path
         d="m 19988.7,21857.2 -111.2,990 c -9.3,82.1 49.8,156.2 131.9,165.4 82.2,9.3 156.2,-49.8 165.5,-132 0.8,-7.2 1,-15.1 0.8,-22.1 l -36.6,-995.6 c -1.5,-41.7 -36.5,-74.2 -78.2,-72.7 -37.8,1.4 -68.1,30.5 -72.2,67"
         style="fill:#1e1b24;fill-opacity:1;fill-rule:nonzero;stroke:none"
         id="path190" /><path
         d="m 20063.9,21070.8 c -566.3,0 -1045.2,615.2 -1074.4,1389.3 -3,82.3 61.2,151.6 143.6,154.7 82,3.7 151.6,-61.1 154.7,-143.5 23.4,-623 380.7,-1118.2 794.4,-1101.7 190.7,7.2 369.6,124.7 503.4,330.8 144.5,222.4 217.7,516.3 205.9,827.5 -3.1,82.3 61.2,151.6 143.5,154.7 82.1,3.4 151.7,-61.2 154.8,-143.5 14,-372.1 -76.2,-727.7 -253.9,-1001.3 -188.3,-289.8 -452,-455.5 -742.5,-466.4 -9.9,-0.4 -19.7,-0.6 -29.5,-0.6"
         style="fill:#1e1b24;fill-opacity:1;fill-rule:nonzero;stroke:none"
         id="path192" /><path
         d="m 19072.3,21970.6 c -415,104.2 -706.1,583.2 -764.3,1004.4 l 149.5,6.3 c 45.6,-212.4 143.1,-378.7 284.7,-484.4 73.3,-54.7 158,-92.9 251.8,-114.1 11.1,-144.7 38.1,-283.2 78.3,-412.2 m 1973.1,75.2 c 30.2,133.9 45.8,274.9 45.8,419 87.2,28.3 164.9,71.6 231.1,129.1 136.1,118.5 221.4,296.4 249.2,517.9 l 149.1,6.2 c -26.4,-426 -249.6,-934.1 -675.2,-1072.2"
         style="fill:#bbbabd;fill-opacity:1;fill-rule:nonzero;stroke:none"
         id="path194" /><path
         d="m 19387.8,21965.2 c -46.7,123 -79.1,259.7 -93.2,404.9 13.1,1.5 26.4,3.3 39.7,5.3 284.4,43.5 454.1,182.5 555.2,330 l 3.9,0.1 47.3,-420.6 c -91.9,-114.8 -262.7,-264.4 -552.9,-319.7 m 1340.9,48.5 c -289,26 -470.9,156.2 -574.3,264.3 l 15.7,428.3 c 112.4,-135.7 290.4,-256.5 570.9,-278 17.3,-1.3 34.4,-2.2 51.3,-2.8 -3.2,-144.3 -24.9,-283.4 -63.6,-411.8"
         style="fill:#ae2860;fill-opacity:1;fill-rule:nonzero;stroke:none"
         id="path196" /><path
         d="m 19889.5,22705.4 c 1.2,1.6 2.3,3.2 3.4,4.8 l 0.5,-4.7 -3.9,-0.1"
         style="fill:#1e1b24;fill-opacity:1;fill-rule:nonzero;stroke:none"
         id="path198" /><path
         d="m 20154.4,22278 c -79.3,82.9 -112.5,152.8 -112.5,152.8 l -10.6,-0.4 c 0,0 -25.4,-64 -90.6,-145.5 l -47.3,420.6 -0.5,4.7 c 66.7,98.9 103,201.3 122.6,280.8 26.8,-81.7 73.8,-187 154.6,-284.7 l -15.7,-428.3"
         style="fill:#1e1b24;fill-opacity:1;fill-rule:nonzero;stroke:none"
         id="path200" /><path
         d="m 19239.2,21949.9 c -57.6,0 -113.3,7.2 -166.9,20.7 -40.2,129 -67.2,267.5 -78.3,412.2 57.9,-13.1 119.3,-19.7 183.6,-19.7 38,0 77.1,2.3 117,7 14.1,-145.2 46.5,-281.9 93.2,-404.9 -13.2,-2.5 -26.7,-4.8 -40.3,-6.9 -36.8,-5.7 -72.9,-8.4 -108.3,-8.4 m 1572.9,59.8 c -17.4,0 -35,0.5 -52.9,1.7 -10.3,0.6 -20.4,1.4 -30.5,2.3 38.7,128.4 60.4,267.5 63.6,411.8 10.9,-0.3 21.7,-0.5 32.4,-0.5 96,0 185.4,13.4 266.5,39.8 0,-144.1 -15.6,-285.1 -45.8,-419 -72,-23.3 -149.8,-36.1 -233.3,-36.1"
         style="fill:#1e1b24;fill-opacity:1;fill-rule:nonzero;stroke:none"
         id="path202" /><path
         d="m 21556.9,23191.9 c -31.8,-513.1 -346.7,-777.4 -814.2,-741.6 -533.7,40.9 -686,455.7 -724.5,610.9 l -10.6,-0.4 c -26.8,-157.7 -147.6,-582.8 -676.6,-663.6 -463.5,-70.8 -797.4,169.1 -867.6,678.3 l 3093.5,116.4"
         style="fill:#ffffff;fill-opacity:1;fill-rule:nonzero;stroke:none"
         id="path204" /><path
         d="m 19177.6,22363.1 c -168.3,0 -316.8,45.3 -435.4,133.8 -161.3,120.4 -265.3,319.4 -300.6,575.6 -1.7,12 6.7,23.2 18.7,24.8 12.1,1.8 23.2,-6.7 24.9,-18.8 33.7,-244.2 131.6,-433.1 283.3,-546.3 144.6,-107.9 337.9,-147 559.1,-113.3 508.3,77.7 629.7,477.3 658.3,645.6 1.7,10.2 10.4,17.8 20.8,18.3 l 10.6,0.4 c 10.5,-0.1 19.7,-6.6 22.2,-16.7 41.2,-165.6 192.2,-555 704.9,-594.3 222.9,-17.2 412.9,36.5 549,154.9 142.7,124.3 226.3,320 241.5,566.1 0.8,12.2 11.3,21.2 23.4,20.6 12.1,-0.7 21.3,-11.2 20.6,-23.3 -16.1,-258.1 -104.8,-464.4 -256.6,-596.6 -145.2,-126.3 -346.2,-183.7 -581.3,-165.6 -482.3,37 -661.4,367.4 -725.5,562.7 -49.2,-199.6 -203.1,-542.5 -681.2,-615.6 -53.8,-8.2 -106.2,-12.3 -156.7,-12.3"
         style="fill:#1e1b24;fill-opacity:1;fill-rule:nonzero;stroke:none"
         id="path206" /><path
         d="m 18485.5,23076.3 v 0 l 115.5,4.4 v 0 l -115.5,-4.4 m 1359.4,51.2 v 0 l 223.4,8.4 -223.4,-8.4"
         style="fill:#bbbabd;fill-opacity:1;fill-rule:nonzero;stroke:none"
         id="path208" /><path
         d="m 19177.7,22407.2 c -158.8,0 -298.3,42.3 -409.2,125 -151.2,112.8 -249,301 -283,544.1 l 115.5,4.4 c 127.2,-179.2 321.1,-272.6 559.1,-272.6 49.7,0 101.4,4.1 154.7,12.3 267.9,40.8 430.8,169.6 530.1,307.1 l 223.4,8.4 107.3,4 c 109.4,-129.6 281.5,-245.8 551.2,-266.4 28.3,-2.2 56.1,-3.3 83.3,-3.3 272,0 484.8,109.6 609.5,316.5 l 115.2,4.3 c -15.6,-245.1 -99.1,-440 -241.4,-563.9 -119.5,-104 -280.6,-158 -469,-158 -26.1,0 -52.8,1 -80,3.1 -512.7,39.3 -663.7,428.7 -704.9,594.3 -2.5,10.1 -11.7,16.6 -22.2,16.7 l -10.6,-0.4 c -10.4,-0.5 -19.1,-8.1 -20.8,-18.3 -28.6,-168.3 -150,-567.9 -658.3,-645.6 -51.6,-7.8 -101.6,-11.7 -149.9,-11.7"
         style="fill:#bbbabd;fill-opacity:1;fill-rule:nonzero;stroke:none"
         id="path210" /><path
         d="m 19176.1,22385.1 c -382,0 -650.6,239.8 -712.5,690.4 l 21.9,0.8 v 0 c 34,-243.1 131.8,-431.3 283,-544.1 110.9,-82.7 250.4,-125 409.2,-125 48.3,0 98.3,3.9 149.9,11.7 508.3,77.7 629.7,477.3 658.3,645.6 1.7,10.2 10.4,17.8 20.8,18.3 l 10.6,0.4 c 10.5,-0.1 19.7,-6.6 22.2,-16.7 41.2,-165.6 192.2,-555 704.9,-594.3 27.2,-2.1 53.9,-3.1 80,-3.1 188.4,0 349.5,54 469,158 142.3,123.9 225.8,318.8 241.4,563.9 l 22.1,0.9 c -30,-482.1 -309.6,-744.7 -731.2,-744.7 -27.1,0 -54.8,1.1 -83,3.2 -533.6,40.8 -685.8,455.5 -724.7,610.7 l -10.5,-0.4 c -26.7,-157.7 -147.3,-582.6 -676.8,-663.4 -53.3,-8.1 -105,-12.2 -154.6,-12.2"
         style="fill:#1e1b24;fill-opacity:1;fill-rule:nonzero;stroke:none"
         id="path212" /><path
         d="m 19177.1,22235.9 c -195.6,0 -369.9,53.8 -511,159.1 -189.2,141.2 -310.4,369.4 -350.6,660.1 -11.2,81.6 45.8,157 127.4,168.2 82.1,11.3 157,-45.8 168.3,-127.4 28.9,-209.7 109.6,-369.4 233.4,-461.7 116.7,-87.1 277,-118 463.8,-89.5 411,62.8 522.3,366 552.1,541.1 11.8,69.5 70.8,121.3 141.2,124.1 l 10.6,0.4 c 71,2.4 133.6,-44.5 150.7,-113.2 42.8,-172.3 176.5,-466.3 591.1,-498.1 188.4,-14.6 346,28.5 455.8,124.1 116.4,101.4 185,266.7 198.1,478 5.1,82.3 76.5,144.4 158.2,139.7 82.2,-5.1 144.7,-75.9 139.6,-158.2 -18.2,-292.9 -121.9,-529.6 -300,-684.6 -171.5,-149.2 -404.7,-217.1 -674.5,-196.5 -365.1,28 -579.9,207.6 -704.4,386.2 -110.7,-187.4 -311.4,-382.7 -673.4,-438 -60.4,-9.2 -119.3,-13.8 -176.4,-13.8"
         style="fill:#1e1b24;fill-opacity:1;fill-rule:nonzero;stroke:none"
         id="path214" /><path
         d="m 25529.4,27613.2 c -47.9,0 -95.7,19.5 -130.4,57.8 -65.4,72 -59.9,183.4 12.1,248.7 1726.6,1565.7 1657.1,5193.3 697.4,6731.4 -208.4,333.9 -547.3,695.9 -978.2,524.2 -1949.6,-776.6 -3238,-2702.4 -3832.5,-3781.2 -47,-85.1 -154.1,-116.1 -239.2,-69.2 -85.2,47 -116.1,154 -69.2,239.2 617.2,1120.1 1959,3121.1 4010.6,3938.3 512.5,204.3 1012.2,-31.9 1407.2,-664.8 500.8,-802.6 780,-2183.9 711.2,-3519 -81.1,-1573.6 -603.4,-2873.3 -1470.7,-3659.7 -33.7,-30.6 -76.1,-45.7 -118.3,-45.7"
         style="fill:#1e1b24;fill-opacity:1;fill-rule:nonzero;stroke:none"
         id="path216" /><path
         d="m 14160.8,27162.3 c -37.2,0 -74.6,11.7 -106.5,35.9 -934.2,710.1 -1562.1,1964.1 -1767.9,3531 -174.5,1327.5 -4.3,2732.5 433.4,3579.6 346.9,671.3 830.1,949.4 1360.7,783 2110.7,-662.2 3599.7,-2560.4 4299.4,-3633 53.2,-81.4 30.2,-190.5 -51.2,-243.7 -81.5,-53.1 -190.5,-30.1 -243.7,51.3 -673.9,1033.1 -2104.1,2860.1 -4109.9,3489.4 -446.6,140.1 -759,-253.7 -942.5,-608.7 -746.7,-1445 -740,-5167.5 1234.8,-6668.6 77.5,-58.8 92.5,-169.3 33.7,-246.7 -34.7,-45.5 -87.2,-69.5 -140.3,-69.5"
         style="fill:#1e1b24;fill-opacity:1;fill-rule:nonzero;stroke:none"
         id="path218" /><path
         d="m 21566.1,19945 c 364.4,64 696.8,143.9 998.5,232.9 v 0 c -301.6,-89.1 -634.1,-169 -998.5,-232.9"
         style="fill:#8c8a8f;fill-opacity:1;fill-rule:nonzero;stroke:none"
         id="path220" /><path
         d="m 19719.3,19788.9 c -553.7,0 -1053.8,42.1 -1501.3,110.4 5.2,33.9 -16.9,66.3 -50.9,73.4 l -2.1,0.5 c -245.5,51.4 -487.8,108.9 -725.2,185.8 -237.2,76.5 -470.9,162.5 -700.1,260 -228.5,99.3 -454.8,203.5 -675.1,319.6 -220.2,115.2 -439,236.3 -645.6,369.5 -28.7,18.8 -40.4,27 -67.1,47.2 -23.5,17.7 -47.5,36 -72.1,55.6 l -147.4,117.4 -299.3,237.6 c -201.8,157.4 -407.2,311.9 -621.4,458.2 -106.8,73.3 -217,143.5 -329.5,211.4 -58.1,32.4 -113.7,66.9 -173.8,97.3 l -89.6,45.9 -83.2,41.2 c -108.8,54.7 -214.7,113 -313,176.6 -97.4,63.3 -189.6,134.1 -251.8,206 -31,35.3 -50.8,70.9 -56.9,92.7 -3.9,11.3 -2.7,17.4 -2.5,23 0.3,5.5 1.5,10.9 6.9,20.2 7.8,17.9 36.2,47.4 72.4,74.3 l 151.1,107.2 81.5,57.9 c 1478.6,-1039.6 3891.6,-2388.9 6581.4,-2388.9 99.4,0 198.9,1.8 299,5.6 2811.2,105.7 5237.8,1705.4 6685.4,2896.2 l 175.6,-105.4 38.8,-23.3 19.4,-11.6 13.8,-8.9 c 19,-11.7 34.2,-24.1 47.3,-35.7 26.7,-24.2 34.4,-41.6 36.4,-51.8 2.9,-9.7 1.8,-29.8 -13.4,-62.4 -15,-31.9 -41.1,-69.7 -73.5,-106.4 -65.6,-74.4 -152,-145.9 -242.8,-212.4 -91.7,-66.5 -189.4,-129.2 -290.2,-188.4 l -38.1,-22.5 -41,-25.1 -82,-50.2 c -52.8,-34.9 -105.6,-69.9 -157.2,-105.9 -408.7,-291 -772.2,-621.6 -1129.3,-952.1 l -133,-123.1 c -43.6,-40 -88.8,-81.6 -128.6,-115 l -29,-23.6 -36.1,-27.4 -70.2,-52.4 c -47.4,-34.4 -95.6,-68.1 -144.3,-101.4 -196,-131.5 -397.7,-257.5 -605.5,-373.5 -207,-117.7 -419.4,-226.7 -634.5,-331.3 -215.3,-104.4 -435.5,-199.1 -656.3,-295.2 l -1.3,-0.6 c -39.6,-17.2 -61.8,-61.2 -50.3,-104.2 0.2,-1 0.5,-2 0.8,-3 -301.7,-89 -634.1,-168.9 -998.5,-232.9 -430,-75.4 -904.3,-128.5 -1424.4,-148 l -0.4,-0.1 c -144,-5.4 -284.7,-8 -422,-8"
         style="fill:#bbbabd;fill-opacity:1;fill-rule:nonzero;stroke:none"
         id="path222" /><path
         d="m 18218,19899.3 c -428.6,65.5 -809.1,155.1 -1141.9,255 -1077.1,322.3 -1656.9,752.5 -1764.9,820.3 -184.1,115.8 -1091.2,912.3 -1784.7,1242.8 -693.6,331 -1032.4,674.8 -638,957.6 62,44.5 118.5,84.5 169.4,120.5 53.7,-38.8 108.9,-78 165.4,-117.7 l -81.5,-57.9 -151.1,-107.2 c -36.2,-26.9 -64.6,-56.4 -72.4,-74.3 -5.4,-9.3 -6.6,-14.7 -6.9,-20.2 -0.2,-5.6 -1.4,-11.7 2.5,-23 6.1,-21.8 25.9,-57.4 56.9,-92.7 62.2,-71.9 154.4,-142.7 251.8,-206 98.3,-63.6 204.2,-121.9 313,-176.6 l 83.2,-41.2 89.6,-45.9 c 60.1,-30.4 115.7,-64.9 173.8,-97.3 112.5,-67.9 222.7,-138.1 329.5,-211.4 214.2,-146.3 419.6,-300.8 621.4,-458.2 l 299.3,-237.6 147.4,-117.4 c 24.6,-19.6 48.6,-37.9 72.1,-55.6 26.7,-20.2 38.4,-28.4 67.1,-47.2 206.6,-133.2 425.4,-254.3 645.6,-369.5 220.3,-116.1 446.6,-220.3 675.1,-319.6 229.2,-97.5 462.9,-183.5 700.1,-260 237.4,-76.9 479.7,-134.4 725.2,-185.8 l 2.1,-0.5 c 34,-7.1 56.1,-39.5 50.9,-73.4"
         style="fill:#1e1b24;fill-opacity:1;fill-rule:nonzero;stroke:none"
         id="path224" /><path
         d="m 22564.6,20177.9 v 0 c -0.3,1 -0.6,2 -0.8,3 -11.5,43 10.7,87 50.3,104.2 l 1.3,0.6 c 220.8,96.1 441,190.8 656.3,295.2 215.1,104.6 427.5,213.6 634.5,331.3 207.8,116 409.5,242 605.5,373.5 48.7,33.3 96.9,67 144.3,101.4 l 70.2,52.4 36.1,27.4 29,23.6 c 39.8,33.4 85,75 128.6,115 l 133,123.1 c 357.1,330.5 720.6,661.1 1129.3,952.1 51.6,36 104.4,71 157.2,105.9 l 82,50.2 41,25.1 38.1,22.5 c 100.8,59.2 198.5,121.9 290.2,188.4 90.8,66.5 177.2,138 242.8,212.4 32.4,36.7 58.5,74.5 73.5,106.4 15.2,32.6 16.3,52.7 13.4,62.4 -2,10.2 -9.7,27.6 -36.4,51.8 -13.1,11.6 -28.3,24 -47.3,35.7 l -13.8,8.9 -19.4,11.6 -38.8,23.3 -175.6,105.4 c 52.4,43 103.4,85.5 153.2,127.4 53.4,-32.5 112.3,-68.2 177.5,-107.9 414.5,-252.3 102.9,-620.6 -563.8,-1002.8 -667.2,-381.7 -1511.9,-1244.1 -1686.7,-1373.4 -120.7,-89.2 -855.7,-728.2 -2304.7,-1156.1"
         style="fill:#1e1b24;fill-opacity:1;fill-rule:nonzero;stroke:none"
         id="path226" /><path
         d="m 20003.3,23164.3 c -79.9,0 -146,63.2 -149.1,143.6 l -19.6,523.2 c -3.1,82.3 61.1,151.6 143.5,154.7 82.3,2.8 151.6,-61.1 154.7,-143.5 l 19.7,-523.1 c 3.1,-82.4 -61.2,-151.7 -143.5,-154.8 -1.9,0 -3.8,-0.1 -5.7,-0.1"
         style="fill:#1e1b24;fill-opacity:1;fill-rule:nonzero;stroke:none"
         id="path228" /><path
         d="m 20927.1,24012.9 c 11.6,-308.9 -414.1,-739.7 -958.5,-760.2 -544.4,-20.5 -1001.3,377.2 -1012.9,686 -11.7,308.8 428.7,351.4 973.1,371.9 544.4,20.5 986.7,11.1 998.3,-297.7"
         style="fill:#1e1b24;fill-opacity:1;fill-rule:nonzero;stroke:none"
         id="path230" /><path
         d="m 20364.3,24080.3 c 2.5,-67.8 -185.6,-165.8 -421.9,-174.7 -236.3,-8.9 -431.3,74.8 -433.9,142.5 -2.5,67.7 188.8,80.6 425.1,89.5 236.3,8.9 428.1,10.4 430.7,-57.3"
         style="fill:#ffffff;fill-opacity:1;fill-rule:nonzero;stroke:none"
         id="path232" /><path
         d="m 20117.9,24122 c -53.1,0 -114.2,-1.7 -183.5,-4.3 -127.7,-4.8 -227.5,-10.5 -299.6,-22.5 -96.9,-16.1 -106.6,-37.8 -106.3,-46.3 0.7,-19.7 37.4,-53.7 116.1,-82 85.2,-30.7 190.7,-45.1 297,-41.4 235.6,8.9 404.5,106.6 402.7,154 -0.3,8.6 -11.6,29.5 -109.5,38.3 -33.3,3 -72.3,4.2 -116.9,4.2 z m -210.5,-237 c -99.1,0 -196,15.4 -276.4,44.3 -88.9,32 -140.8,75 -142.4,118 -2.2,57.1 78.7,77.2 139.7,87.3 74.2,12.3 175.4,18.1 304.6,23 129.1,4.9 230.6,6.7 305.5,0 61.6,-5.5 143.7,-19.5 145.8,-76.6 3.4,-91.8 -210.9,-186.7 -441.1,-195.4 -11.9,-0.4 -23.8,-0.6 -35.7,-0.6"
         style="fill:#1e1b24;fill-opacity:1;fill-rule:nonzero;stroke:none"
         id="path234" /><path
         d="m 18047,25285.8 c -61.9,-630.8 -472.5,-1106.8 -917.2,-1063.1 -444.6,43.6 -754.8,590.4 -692.9,1221.2 61.9,630.8 472.6,1106.8 917.2,1063.2 444.6,-43.7 754.9,-590.5 692.9,-1221.3"
         style="fill:#1e1b24;fill-opacity:1;fill-rule:nonzero;stroke:none"
         id="path236" /><path
         d="m 17708.5,25500.7 c -20.8,-211.8 -146.6,-372.8 -280.9,-359.7 -134.3,13.2 -226.4,195.6 -205.6,407.5 20.8,211.8 146.6,372.8 280.9,359.6 134.4,-13.2 226.4,-195.6 205.6,-407.4"
         style="fill:#ffffff;fill-opacity:1;fill-rule:nonzero;stroke:none"
         id="path238" /><path
         d="m 17487.5,25883.9 c -51.9,0 -104,-30.4 -147.9,-86.6 -50.2,-64.2 -83.1,-153.5 -92.7,-251.3 -9.6,-97.8 5.3,-191.7 42.1,-264.5 34.8,-69 84.9,-110.1 141.1,-115.6 56.3,-5.5 113.3,25 160.8,86 50.2,64.2 83.1,153.4 92.7,251.2 9.6,97.8 -5.3,191.8 -42,264.6 -34.9,69 -85,110 -141.1,115.6 -4.4,0.4 -8.7,0.6 -13,0.6 z m -44.2,-768.6 c -6,0 -12.1,0.3 -18.1,0.9 -73.8,7.2 -138.1,57.9 -180.9,142.8 -40.9,81.1 -57.7,184.8 -47.2,291.9 10.5,107.1 47.1,205.5 103.1,277.2 58.5,74.9 131,112.2 205.2,104.9 73.8,-7.2 138,-58 180.8,-142.8 40.9,-81.2 57.7,-184.8 47.2,-291.9 -10.5,-107.1 -47.1,-205.6 -103,-277.2 -53.8,-68.8 -119.6,-105.8 -187.1,-105.8"
         style="fill:#1e1b24;fill-opacity:1;fill-rule:nonzero;stroke:none"
         id="path240" /><path
         d="m 21806.8,25461.9 c 62,-630.8 472.6,-1106.8 917.2,-1063.2 444.7,43.7 754.9,590.4 693,1221.3 -61.9,630.8 -472.6,1106.8 -917.2,1063.1 -444.7,-43.6 -754.9,-590.4 -693,-1221.2"
         style="fill:#1e1b24;fill-opacity:1;fill-rule:nonzero;stroke:none"
         id="path242" /><path
         d="m 22145.4,25676.8 c 20.8,-211.9 146.5,-372.9 280.9,-359.7 134.3,13.2 226.4,195.6 205.6,407.4 -20.8,211.9 -146.6,372.9 -280.9,359.7 -134.4,-13.2 -226.4,-195.6 -205.6,-407.4"
         style="fill:#ffffff;fill-opacity:1;fill-rule:nonzero;stroke:none"
         id="path244" /><path
         d="m 22170.2,25679.2 c 9.6,-97.8 42.6,-187 92.7,-251.3 47.6,-60.9 105,-91.4 160.9,-85.9 56.2,5.5 106.3,46.5 141.1,115.6 36.8,72.8 51.7,166.7 42.1,264.5 -19.5,197.8 -133.7,349.4 -253.6,337.2 -120.4,-11.8 -202.6,-182.3 -183.2,-380.1 z m 240.4,-387.9 c -67.5,0 -133.4,37.1 -187.1,105.9 -55.9,71.6 -92.5,170 -103,277.1 -22.1,225.2 80.2,420.3 228,434.8 147.6,14.6 286.1,-156.9 308.2,-382.1 10.6,-107.1 -6.2,-210.8 -47.1,-291.9 -42.9,-84.9 -107.1,-135.6 -180.9,-142.9 -6,-0.5 -12.1,-0.9 -18.1,-0.9"
         style="fill:#1e1b24;fill-opacity:1;fill-rule:nonzero;stroke:none"
         id="path246" /><path
         d="m 22375.9,9428.7 c 153.9,91.6 265,251.2 287.4,442.8 38.3,326.8 -195.6,622.7 -522.4,660.9 -321.2,37.6 -612.4,-187.9 -658.5,-505.9 l -2754.6,322.3 c 26.9,319 -204,604 -524.2,641.5 -326.8,38.2 -622.7,-195.7 -660.9,-522.4 -22.5,-191.6 48.8,-372.6 177.4,-497.2 -153.9,-91.6 -265,-251.2 -287.4,-442.8 -38.3,-326.8 195.6,-622.7 522.4,-660.9 320.3,-37.5 610.7,186.5 658.1,503.1 L 21368,9047.8 c -25.4,-317.9 205.1,-601.4 524.4,-638.7 326.8,-38.3 622.7,195.6 660.9,522.4 22.5,191.6 -48.8,372.5 -177.4,497.2"
         style="fill:#ffffff;fill-opacity:1;fill-rule:nonzero;stroke:none"
         id="path248" /><path
         d="m 18613.1,9495.8 c 4.9,0 9.8,-0.3 14.7,-0.9 l 2754.8,-322.4 c 67.1,-7.8 116,-67.4 110.6,-134.8 -20.2,-253 161.6,-474.3 413.8,-503.9 257.2,-29.7 491.4,154.8 521.6,412.3 17.1,146.4 -34,289.4 -140.1,392.4 -28.1,27.2 -41.9,65.9 -37.4,104.8 4.6,38.8 26.9,73.4 60.6,93.3 127,75.7 209.7,203 226.9,349.5 30.1,257.4 -154.9,491.4 -412.3,521.5 -254.7,29.7 -482.8,-145.5 -519.6,-399.2 -9.7,-67.3 -71.5,-114.8 -138.9,-106.7 l -2754.6,322.3 c -67.4,7.9 -116.3,67.8 -110.6,135.4 21.5,254.1 -160.2,476.5 -413.6,506.1 -124.6,14.6 -247.7,-20.2 -346.1,-98.1 -98.6,-77.8 -160.8,-189.4 -175.4,-314.1 -17.2,-146.5 33.9,-289.5 140,-392.4 28.1,-27.2 41.9,-66 37.4,-104.8 -4.6,-38.9 -26.9,-73.4 -60.5,-93.4 -127.1,-75.6 -209.8,-203 -226.9,-349.4 -30.2,-257.5 154.8,-491.4 412.2,-521.6 253.5,-29.5 481.5,144.8 519.3,397 9.3,62.1 62.7,107.1 124.1,107.1 z m 3349.1,-1216.5 c -27.9,0 -56,1.7 -84.4,5 -346,40.4 -605.6,316.1 -634.7,651.6 l -2533.7,296.4 c -104.7,-321.4 -421.6,-531 -768.9,-490.1 -191.3,22.4 -362.6,118 -482.1,269.1 -119.4,151.2 -172.9,339.8 -150.5,531.2 20.6,175.7 102.6,333.5 230.5,449.4 -97.7,142.4 -141.1,314.8 -120.5,490.6 22.4,191.4 118,362.5 269.1,482 151.2,119.5 340,173.1 531.2,150.6 347.6,-40.7 607.2,-317.6 635,-654.5 l 2532.5,-296.3 c 103.7,323.1 420.6,533.6 769.8,492.9 395,-46.3 678.8,-405.3 632.6,-800.3 -20.5,-175.8 -102.6,-333.6 -230.5,-449.5 97.7,-142.3 141.1,-314.8 120.5,-490.5 -42.9,-366.7 -355.3,-637.5 -715.9,-637.6"
         style="fill:#1e1b24;fill-opacity:1;fill-rule:nonzero;stroke:none"
         id="path250" /></g></g></svg>
